<svg xmlns="http://www.w3.org/2000/svg" xml:space="preserve" style="fill-rule:evenodd;clip-rule:evenodd;stroke-linejoin:round;stroke-miterlimit:2" viewBox="0 0 1024 1024"><path d="M0 0h1024v1024H0z" style="fill:none"/><path d="M512 924c180.536 0 280.899 0 346.449-65.551C924 792.899 924 692.536 924 512s0-280.899-65.551-346.449C792.899 100 692.536 100 512 100s-280.899 0-346.449 65.551C100 231.101 100 331.464 100 512s0 280.899 65.551 346.449C231.101 924 331.464 924 512 924Z" style="fill:#252525;fill-rule:nonzero"/><path d="M236.51 573.819c0-26.695-7.74-47.301-22.766-61.819 15.026-13.581 22.766-34.188 22.766-61.351v-99.284c0-15.455 3.187-26.226 9.562-33.251 6.374-6.557 16.846-9.835 31.872-9.835h17.14c6.627 0 12-5.373 12-12v-13.466c0-6.628-5.373-12-12-12h-17.14c-25.043 0-44.621 7.025-57.825 20.606-13.205 14.05-20.034 34.188-20.034 59.946v99.284c0 14.987-3.188 25.758-9.562 32.315-6.83 7.025-12.749 10.303-27.774 10.303H162c-6.627 0-12 5.373-12 12v13.466c0 6.627 5.373 12 12 12h.749c15.025 0 20.944 3.278 27.774 9.835 6.374 7.025 9.562 17.796 9.562 33.251v98.816c0 25.758 6.829 45.896 20.034 59.946 13.204 13.581 32.782 20.606 57.825 20.606h17.14c6.627 0 12-5.372 12-12v-13.466c0-6.627-5.373-12-12-12h-17.14c-15.026 0-25.498-3.278-31.872-9.835-6.375-7.025-9.562-17.796-9.562-33.251v-98.816ZM518.213 639.423a12.003 12.003 0 0 0 12-12V466.612c0-15.455 3.187-26.227 10.017-32.783 6.374-6.557 16.846-9.835 31.872-9.835h28.685c15.025 0 25.497 3.278 32.327 9.835 6.374 6.556 9.562 17.328 9.562 32.783v160.811c0 3.183 1.264 6.235 3.514 8.486a12.003 12.003 0 0 0 8.486 3.514h12.425a12 12 0 0 0 12-12V466.612c0-25.758-6.83-45.896-20.034-59.478-13.66-13.581-33.238-20.606-58.28-20.606h-28.685c-26.864 0-46.898 7.493-60.102 22.948-13.204-15.455-32.783-22.948-59.646-22.948h-29.141c-25.497 0-45.076 7.025-58.28 20.606-13.204 13.582-20.034 33.72-20.034 59.478v160.811a12 12 0 0 0 12 12h12.425c3.183 0 6.235-1.264 8.486-3.514a12.003 12.003 0 0 0 3.514-8.486V466.612c0-15.455 3.188-26.227 10.017-32.783 6.375-6.557 16.847-9.835 31.872-9.835h29.141c14.57 0 25.042 3.278 31.872 9.835 6.374 6.556 9.561 17.328 9.561 32.783v160.811a12.003 12.003 0 0 0 12 12h12.426ZM787.49 573.819c0-26.695 7.74-47.301 22.766-61.819-15.026-13.581-22.766-34.188-22.766-61.351v-99.284c0-15.455-3.187-26.226-9.562-33.251-6.374-6.557-16.846-9.835-31.872-9.835h-17.14c-6.627 0-12-5.373-12-12v-13.466c0-6.628 5.373-12 12-12h17.14c25.043 0 44.621 7.025 57.825 20.606 13.205 14.05 20.034 34.188 20.034 59.946v99.284c0 14.987 3.188 25.758 9.562 32.315 6.83 7.025 12.749 10.303 27.774 10.303H862c6.627 0 12 5.373 12 12v13.466c0 6.627-5.373 12-12 12h-.749c-15.025 0-20.944 3.278-27.774 9.835-6.374 7.025-9.562 17.796-9.562 33.251v98.816c0 25.758-6.829 45.896-20.034 59.946-13.204 13.581-32.782 20.606-57.825 20.606h-17.14c-6.627 0-12-5.372-12-12v-13.466c0-6.627 5.373-12 12-12h17.14c15.026 0 25.498-3.278 31.872-9.835 6.375-7.025 9.562-17.796 9.562-33.251v-98.816Z" style="fill:#0080ff;fill-rule:nonzero"/></svg>