<svg xmlns="http://www.w3.org/2000/svg" xml:space="preserve" style="fill-rule:evenodd;clip-rule:evenodd;stroke-linejoin:round;stroke-miterlimit:2" viewBox="0 0 1101 900"><path d="M.73 0h1100v900H.73z" style="fill:none"/><path d="M289.409 513.368c0-27.363-7.935-48.486-23.337-63.368 15.402-13.922 23.337-35.045 23.337-62.888V285.339c0-15.842 3.267-26.884 9.801-34.085 6.534-6.721 17.269-10.081 32.671-10.081h17.87c6.628 0 12-5.373 12-12v-14.405c0-6.627-5.372-12-12-12h-17.87c-25.67 0-45.74 7.201-59.275 21.123-13.535 14.402-20.536 35.044-20.536 61.448v101.773c0 15.362-3.267 26.403-9.801 33.124-7.001 7.201-13.068 10.562-28.47 10.562h-1.069a12.003 12.003 0 0 0-12 12v14.404a12.003 12.003 0 0 0 12 12h1.069c15.402 0 21.469 3.361 28.47 10.082 6.534 7.201 9.801 18.242 9.801 34.084v101.293c0 26.404 7.001 47.046 20.536 61.448 13.535 13.922 33.605 21.123 59.275 21.123h17.87c6.628 0 12-5.373 12-12v-14.405c0-6.627-5.372-12-12-12h-17.87c-15.402 0-26.137-3.36-32.671-10.081-6.534-7.201-9.801-18.243-9.801-34.085V513.368Zm268.246 67.249c6.627 0 12-5.373 12-12V403.474c0-15.842 3.267-26.883 10.268-33.604 6.534-6.721 17.269-10.082 32.671-10.082h29.403c15.402 0 26.137 3.361 33.138 10.082 6.534 6.721 9.801 17.762 9.801 33.604v165.143c0 6.627 5.373 12 12 12h13.338c6.628 0 12-5.373 12-12V403.474c0-26.403-7.001-47.046-20.536-60.968-14.001-13.922-34.071-21.123-59.741-21.123h-29.403c-27.537 0-48.073 7.681-61.608 23.523-13.535-15.842-33.605-23.523-61.142-23.523h-29.87c-26.137 0-46.206 7.201-59.741 21.123-13.535 13.922-20.536 34.565-20.536 60.968v165.143c0 6.627 5.372 12 12 12h13.338c6.627 0 12-5.373 12-12V403.474c0-15.842 3.267-26.883 10.268-33.604 6.534-6.721 17.269-10.082 32.671-10.082h29.87c14.936 0 25.67 3.361 32.671 10.082 6.534 6.721 9.802 17.762 9.802 33.604v165.143c0 6.627 5.372 12 12 12h13.338Zm254.908-67.249c0-27.363 7.934-48.486 23.336-63.368-15.402-13.922-23.336-35.045-23.336-62.888V285.339c0-15.842-3.267-26.884-9.802-34.085-6.534-6.721-17.268-10.081-32.67-10.081H752.22c-6.627 0-12-5.373-12-12v-14.405c0-6.627 5.373-12 12-12h17.871c25.67 0 45.739 7.201 59.274 21.123 13.535 14.402 20.536 35.044 20.536 61.448v101.773c0 15.362 3.267 26.403 9.801 33.124 7.001 7.201 13.068 10.562 28.47 10.562h1.069a12 12 0 0 1 12 12v14.404a12 12 0 0 1-12 12h-1.069c-15.402 0-21.469 3.361-28.47 10.082-6.534 7.201-9.801 18.242-9.801 34.084v101.293c0 26.404-7.001 47.046-20.536 61.448-13.535 13.922-33.604 21.123-59.274 21.123H752.22c-6.627 0-12-5.373-12-12v-14.405c0-6.627 5.373-12 12-12h17.871c15.402 0 26.136-3.36 32.67-10.081 6.535-7.201 9.802-18.243 9.802-34.085V513.368Z" style="fill:#0080ff;fill-rule:nonzero"/><path d="M583.105 791h45.9c16.2 0 24.3-7.95 24.3-24v-8.1c0-10.35-3.6-17.55-10.65-21.3 6-3.75 9-10.65 9-20.4v-5.4c0-7.95-1.95-13.95-6-18.15-4.05-4.05-10.05-6.15-18-6.15h-44.55V791Zm6.6-49.8h39.6c6.15 0 10.65 1.35 13.35 4.2 2.7 2.85 4.05 7.35 4.05 13.5v8.1c0 6.15-1.35 10.5-4.2 13.35-2.85 2.85-7.35 4.2-13.5 4.2h-39.3V741.2Zm37.95-47.25c6.15 0 10.5 1.5 13.35 4.5 2.7 3 4.05 7.5 4.05 13.35v5.4c0 5.85-1.2 10.35-3.75 13.2-2.55 2.85-6.6 4.35-12.3 4.35h-39.3v-40.8h37.95Zm53.25-13.95h-6.6v87c0 16.05 8.1 24 24.3 24h15.15v-6.45h-15.15c-6.15 0-10.65-1.35-13.5-4.2-2.85-2.85-4.2-7.2-4.2-13.35v-87Zm115.05 55.65c0-16.05-8.1-24.15-24.15-24.15h-21.75c-16.2 0-24.3 8.1-24.3 24.15V767c0 16.05 8.1 24 24.3 24h21.75c16.05 0 24.15-7.95 24.15-24v-31.35Zm-6.6 31.35c0 6.15-1.35 10.5-4.2 13.35-2.85 2.85-7.2 4.2-13.35 4.2h-21.75c-6.15 0-10.65-1.35-13.5-4.2-2.85-2.85-4.2-7.2-4.2-13.35v-31.35c0-6.15 1.35-10.65 4.2-13.5 2.85-2.85 7.35-4.2 13.5-4.2h21.75c6.15 0 10.5 1.35 13.35 4.2 2.85 2.85 4.2 7.35 4.2 13.5V767Zm40.8 58.5h32.85c16.05 0 24.15-8.1 24.15-24.15v-65.7c0-16.05-8.1-24.15-24.15-24.15h-21.75c-16.2 0-24.3 8.1-24.3 24.15V767c0 16.05 8.1 24 24.3 24h21.75c8.4 0 14.25-2.25 17.55-6.6v16.95c0 6.3-1.35 10.8-4.2 13.65-2.85 2.7-7.2 4.05-13.35 4.05h-32.85v6.45Zm50.4-58.35c0 6.15-1.35 10.5-4.2 13.2-2.85 2.85-7.35 4.2-13.35 4.2h-21.75c-6.15 0-10.65-1.35-13.5-4.2-2.85-2.85-4.2-7.2-4.2-13.35v-31.35c0-6.15 1.35-10.65 4.2-13.5 2.85-2.85 7.35-4.2 13.5-4.2h21.75c6.15 0 10.5 1.35 13.35 4.2 2.85 2.85 4.2 7.35 4.2 13.5v31.5Zm-536.1-27.625h55.35v6.45h-55.35zm79.35 0h55.35v6.45h-55.35zm79.35 0h55.35v6.45h-55.35zm419.15 0h55.35v6.45h-55.35z" style="fill:#ff8000;fill-rule:nonzero"/></svg>
