<svg xmlns="http://www.w3.org/2000/svg" viewBox="0 0 2001 900"><path fill="#0080ff" d="M289.55 513.37c0-27.36-7.94-48.49-23.34-63.37 15.4-13.92 23.34-35.04 23.34-62.89V285.34c0-15.84 3.26-26.88 9.8-34.09 6.53-6.72 17.27-10.08 32.67-10.08h17.87a12 12 0 0 0 12-12v-14.4a12 12 0 0 0-12-12h-17.87c-25.67 0-45.74 7.2-59.27 21.12-13.54 14.4-20.54 35.05-20.54 61.45V387.1c0 15.36-3.27 26.4-9.8 33.13-7 7.2-13.07 10.56-28.47 10.56h-1.07a12 12 0 0 0-8.48 3.51 12 12 0 0 0-3.52 8.49v14.4a12 12 0 0 0 3.52 8.49 12 12 0 0 0 8.48 3.51h1.07c15.4 0 21.47 3.36 28.47 10.08 6.53 7.2 9.8 18.25 9.8 34.09v101.3c0 26.4 7 47.04 20.54 61.44 13.53 13.92 33.6 21.12 59.27 21.12h17.87a12 12 0 0 0 12-12v-14.4a12 12 0 0 0-12-12h-17.87c-15.4 0-26.14-3.36-32.67-10.08-6.54-7.2-9.8-18.25-9.8-34.09v-101.3Zm296.76 67.25a12 12 0 0 0 12-12V403.47c0-15.84 3.27-26.88 10.27-33.6 6.53-6.72 17.26-10.08 32.66-10.08h29.4c15.41 0 26.14 3.36 33.15 10.08 6.53 6.72 9.8 17.76 9.8 33.6v165.15a12 12 0 0 0 12 12h13.33a12 12 0 0 0 12-12V403.47c0-26.4-7-47.04-20.53-60.96-14-13.93-34.07-21.13-59.74-21.13h-29.4c-27.54 0-48.08 7.68-61.61 23.53-13.53-15.85-33.6-23.53-61.14-23.53h-29.87c-26.13 0-46.2 7.2-59.74 21.13-13.53 13.92-20.53 34.56-20.53 60.96v165.15a12 12 0 0 0 12 12h13.33a12 12 0 0 0 12-12V403.47c0-15.84 3.27-26.88 10.27-33.6 6.54-6.72 17.27-10.08 32.67-10.08h29.87c14.94 0 25.67 3.36 32.67 10.08 6.53 6.72 9.8 17.76 9.8 33.6v165.15a12 12 0 0 0 12 12h13.34Zm251.76-177.15a12 12 0 0 0 11.9-10.5c1.2-10.35 4.36-17.98 9.7-23.1 6.53-6.72 17.27-10.08 32.67-10.08h58.8c14.94 0 25.67 3.36 32.67 10.08 6.54 6.72 9.8 17.76 9.8 33.6v27.85H886.74c-15.4 0-28.94 2.4-39.68 7.2-11.2 5.28-19.6 11.52-24.73 19.68-5.6 8.16-9.34 15.84-11.67 23.52-2.33 8.16-3.73 16.33-3.73 24.49s1.4 15.84 4.2 24c2.33 8.16 6.53 15.84 12.13 24 5.6 8.16 14 14.4 24.74 19.2 10.73 4.8 23.8 7.2 38.74 7.2h64.4c25.67 0 45.74-7.2 59.27-21.12 13.54-13.92 20.54-34.56 20.54-60.96v-95.06c0-26.4-7-47.04-20.54-60.96-13.53-13.93-33.6-21.13-59.27-21.13h-58.8c-25.67 0-45.74 7.2-59.28 21.13-11.56 11.5-18.35 27.58-20.36 47.71a11.97 11.97 0 0 0 11.9 13.23c4.36.02 9.22.02 13.47.02ZM951.14 542.7h-64.4c-28.47 0-42.47-12-42.47-36.48 0-24.49 14-36.49 42.47-36.49H993.6v28.8c0 15.85-3.26 26.89-9.8 33.61-7 7.2-17.73 10.56-32.67 10.56Zm135.81-44.16c0 26.4 7.01 47.04 20.54 60.96 13.54 13.93 33.6 21.13 59.74 21.13h63.94c25.67 0 45.74-7.2 59.27-21.13 13.54-13.92 20.54-34.56 20.54-60.96V237.37a12 12 0 0 0-12-12h-13.34a12 12 0 0 0-12 12V331c-11.67-6.25-26.14-9.6-42.47-9.6h-63.94c-26.14 0-46.2 7.2-59.74 21.12-13.53 13.92-20.54 34.56-20.54 60.96v95.06Zm37.34-95.06c0-15.84 3.27-26.88 10.27-33.6 6.53-6.72 17.27-10.08 32.67-10.08h63.94c14.47 0 25.2 2.88 32.2 9.12 7 6.24 10.27 16.32 10.27 30.24v99.38c0 15.84-3.27 26.88-9.8 33.6-6.53 6.72-17.27 10.08-32.67 10.08h-63.94c-15.4 0-26.14-3.36-32.67-10.08-7-6.72-10.27-17.76-10.27-33.6v-95.06Zm456.53.48c3.39 0 6.62-1.43 8.9-3.95a12.02 12.02 0 0 0 3.04-9.25c-2-20.52-8.73-36.7-19.96-48.24-13.53-13.93-33.6-21.13-59.27-21.13h-63.94c-26.14 0-46.2 7.2-59.74 21.13-13.53 13.92-20.53 34.56-20.53 60.96v95.06c0 26.4 7 47.04 20.53 60.96 13.54 13.93 33.6 21.13 59.74 21.13h63.94c25.67 0 45.74-7.2 59.27-21.13 11.18-11.5 17.91-27.59 19.9-47.72a11.94 11.94 0 0 0-3.01-9.26 11.97 11.97 0 0 0-8.89-3.96c-4.36-.02-9.21-.02-13.46-.02a12 12 0 0 0-11.91 10.53c-1.18 10.33-4.26 17.95-9.23 23.07-6.54 6.72-17.27 10.08-32.67 10.08h-63.94c-15.4 0-26.14-3.36-32.67-10.08-7-6.72-10.27-17.76-10.27-33.6v-95.06c0-15.84 3.27-26.88 10.27-33.6 6.53-6.72 17.27-10.08 32.67-10.08h63.94c15.4 0 26.13 3.36 32.67 10.08 4.97 5.48 8.06 13.19 9.24 23.55a11.99 11.99 0 0 0 11.9 10.52l13.48.01Zm131.33 109.42c0-27.36 7.93-48.49 23.33-63.37-15.4-13.92-23.33-35.04-23.33-62.89V285.34c0-15.84-3.27-26.88-9.8-34.09-6.54-6.72-17.27-10.08-32.68-10.08h-17.86a12 12 0 0 1-12-12v-14.4a12 12 0 0 1 12-12h17.86c25.67 0 45.74 7.2 59.28 21.12 13.53 14.4 20.53 35.05 20.53 61.45V387.1c0 15.36 3.27 26.4 9.8 33.13 7 7.2 13.07 10.56 28.47 10.56h1.07c3.18 0 6.24 1.26 8.49 3.51a12 12 0 0 1 3.51 8.49v14.4a12 12 0 0 1-3.51 8.49 12.02 12.02 0 0 1-8.49 3.51h-1.07c-15.4 0-21.47 3.36-28.47 10.08-6.53 7.2-9.8 18.25-9.8 34.09v101.3c0 26.4-7 47.04-20.53 61.44-13.54 13.92-33.61 21.12-59.28 21.12h-17.86a12 12 0 0 1-12-12v-14.4a12 12 0 0 1 12-12h17.86c15.41 0 26.14-3.36 32.68-10.08 6.53-7.2 9.8-18.25 9.8-34.09v-101.3Z"/></svg>
