<svg xmlns="http://www.w3.org/2000/svg" viewBox="0 0 3500 900"><path fill="#0080ff" d="M288.67 513.37c0-27.36-7.94-48.49-23.34-63.37 15.4-13.92 23.34-35.04 23.34-62.89V285.34c0-15.84 3.27-26.88 9.8-34.09 6.53-6.72 17.27-10.08 32.67-10.08H349a12 12 0 0 0 8.48-3.51 12 12 0 0 0 3.52-8.49v-14.4a12 12 0 0 0-12-12h-17.87c-25.67 0-45.74 7.2-59.27 21.12-13.54 14.4-20.54 35.05-20.54 61.45V387.1c0 15.36-3.27 26.4-9.8 33.13-7 7.2-13.07 10.56-28.47 10.56H212a12 12 0 0 0-12 12v14.4a12 12 0 0 0 12 12h1.07c15.4 0 21.47 3.36 28.47 10.08 6.53 7.2 9.8 18.25 9.8 34.09v101.3c0 26.4 7 47.04 20.54 61.44 13.53 13.92 33.6 21.12 59.27 21.12H349a12 12 0 0 0 12-12v-14.4a12 12 0 0 0-3.52-8.49 12 12 0 0 0-8.48-3.51h-17.87c-15.4 0-26.14-3.36-32.67-10.08-6.53-7.2-9.8-18.25-9.8-34.09v-101.3Zm289.96 67.25a12 12 0 0 0 12-12V403.47c0-15.84 3.27-26.88 10.27-33.6 6.53-6.72 17.27-10.08 32.67-10.08h29.4c15.4 0 26.14 3.36 33.14 10.08 6.53 6.72 9.8 17.76 9.8 33.6v165.15a12 12 0 0 0 12 12h13.34a12 12 0 0 0 12-12V403.47c0-26.4-7-47.04-20.54-60.96-14-13.93-34.07-21.13-59.74-21.13h-29.4c-27.54 0-48.07 7.68-61.6 23.53-13.54-15.85-33.61-23.53-61.15-23.53h-29.87c-26.13 0-46.2 7.2-59.74 21.13-13.53 13.92-20.53 34.56-20.53 60.96v165.15a12 12 0 0 0 12 12h13.34a12 12 0 0 0 12-12V403.47c0-15.84 3.26-26.88 10.26-33.6 6.54-6.72 17.27-10.08 32.67-10.08h29.87c14.94 0 25.67 3.36 32.67 10.08 6.54 6.72 9.8 17.76 9.8 33.6v165.15a12 12 0 0 0 12 12h13.34ZM830.4 403.47a12 12 0 0 0 11.9-10.5c1.2-10.35 4.37-17.98 9.7-23.1 6.53-6.72 17.27-10.08 32.67-10.08h58.8c14.94 0 25.67 3.36 32.67 10.08 6.54 6.72 9.8 17.76 9.8 33.6v27.85H879.07c-15.4 0-28.94 2.4-39.67 7.2-11.2 5.28-19.6 11.52-24.74 19.68-5.6 8.16-9.33 15.84-11.66 23.52-2.34 8.16-3.74 16.33-3.74 24.49s1.4 15.84 4.2 24c2.33 8.16 6.54 15.84 12.14 24 5.6 8.16 14 14.4 24.73 19.2s23.8 7.2 38.74 7.2h64.4c25.67 0 45.74-7.2 59.28-21.12 13.53-13.92 20.53-34.56 20.53-60.96v-95.06c0-26.4-7-47.04-20.53-60.96-13.54-13.93-33.6-21.13-59.28-21.13h-58.8c-25.67 0-45.74 7.2-59.27 21.13-11.57 11.5-18.36 27.58-20.37 47.71a11.97 11.97 0 0 0 11.9 13.23c4.36.02 9.22.02 13.47.02ZM943.47 542.7h-64.41c-28.47 0-42.47-12-42.47-36.48 0-24.49 14-36.49 42.47-36.49h106.88v28.8c0 15.85-3.27 26.89-9.8 33.61-7 7.2-17.74 10.56-32.68 10.56Zm135.81-44.16c0 26.4 7 47.04 20.53 60.96 13.54 13.93 33.61 21.13 59.74 21.13h63.94c25.67 0 45.74-7.2 59.28-21.13 13.53-13.92 20.53-34.56 20.53-60.96V237.37a12 12 0 0 0-12-12h-13.34a12 12 0 0 0-12 12V331c-11.66-6.25-26.13-9.6-42.47-9.6h-63.94c-26.13 0-46.2 7.2-59.74 21.12-13.53 13.92-20.53 34.56-20.53 60.96v95.06Zm37.34-95.06c0-15.84 3.26-26.88 10.26-33.6 6.54-6.72 17.27-10.08 32.67-10.08h63.94c14.47 0 25.2 2.88 32.2 9.12 7.01 6.24 10.27 16.32 10.27 30.24v99.38c0 15.84-3.26 26.88-9.8 33.6-6.53 6.72-17.27 10.08-32.67 10.08h-63.94c-15.4 0-26.13-3.36-32.67-10.08-7-6.72-10.26-17.76-10.26-33.6v-95.06Zm456.52.48a12 12 0 0 0 8.9-3.95 11.98 11.98 0 0 0 3.04-9.25c-2-20.52-8.73-36.7-19.96-48.24-13.53-13.93-33.6-21.13-59.27-21.13h-63.94c-26.13 0-46.2 7.2-59.74 21.13-13.53 13.92-20.53 34.56-20.53 60.96v95.06c0 26.4 7 47.04 20.53 60.96 13.54 13.93 33.61 21.13 59.74 21.13h63.94c25.67 0 45.74-7.2 59.27-21.13 11.19-11.5 17.91-27.59 19.91-47.72.35-3.37-.74-6.74-3.02-9.26a11.97 11.97 0 0 0-8.89-3.96c-4.35-.02-9.21-.02-13.46-.02a12 12 0 0 0-11.91 10.53c-1.17 10.33-4.25 17.95-9.23 23.07-6.53 6.72-17.27 10.08-32.67 10.08h-63.94c-15.4 0-26.13-3.36-32.67-10.08-7-6.72-10.26-17.76-10.26-33.6v-95.06c0-15.84 3.26-26.88 10.26-33.6 6.54-6.72 17.27-10.08 32.67-10.08h63.94c15.4 0 26.14 3.36 32.67 10.08 4.98 5.48 8.06 13.19 9.25 23.55.73 6 5.84 10.52 11.89 10.52l13.48.01Zm95-.48a12 12 0 0 0 11.91-10.5c1.19-10.35 4.35-17.98 9.69-23.1 6.53-6.72 17.27-10.08 32.67-10.08h58.8c14.94 0 25.67 3.36 32.67 10.08 6.54 6.72 9.8 17.76 9.8 33.6v27.85h-106.87c-15.41 0-28.94 2.4-39.67 7.2-11.21 5.28-19.61 11.52-24.74 19.68-5.6 8.16-9.33 15.84-11.67 23.52-2.33 8.16-3.73 16.33-3.73 24.49s1.4 15.84 4.2 24c2.33 8.16 6.53 15.84 12.13 24 5.6 8.16 14.01 14.4 24.74 19.2 10.73 4.8 23.8 7.2 38.74 7.2h64.4c25.67 0 45.74-7.2 59.28-21.12 13.53-13.92 20.53-34.56 20.53-60.96v-95.06c0-26.4-7-47.04-20.53-60.96-13.54-13.93-33.61-21.13-59.28-21.13h-58.8c-25.67 0-45.74 7.2-59.28 21.13-11.56 11.5-18.35 27.58-20.36 47.71-.36 3.38.74 6.74 3.01 9.26a11.96 11.96 0 0 0 8.89 3.97c4.36.02 9.22.02 13.47.02Zm113.07 139.22h-64.4c-28.47 0-42.47-12-42.47-36.48 0-24.49 14-36.49 42.47-36.49h106.87v28.8c0 15.85-3.26 26.89-9.8 33.61-7 7.2-17.73 10.56-32.67 10.56Zm316.1 37.93a12 12 0 0 0 12-12V403.47c0-15.84 3.27-26.88 10.27-33.6 6.53-6.72 17.27-10.08 32.67-10.08h29.4c15.4 0 26.14 3.36 33.14 10.08 6.53 6.72 9.8 17.76 9.8 33.6v165.15a12 12 0 0 0 12 12h13.34a12 12 0 0 0 12-12V403.47c0-26.4-7-47.04-20.54-60.96-14-13.93-34.07-21.13-59.74-21.13h-29.4c-27.54 0-48.07 7.68-61.61 23.53-13.53-15.85-33.6-23.53-61.14-23.53h-29.87c-26.13 0-46.2 7.2-59.74 21.13-13.53 13.92-20.53 34.56-20.53 60.96v165.15a12 12 0 0 0 12 12h13.34a12 12 0 0 0 12-12V403.47c0-15.84 3.26-26.88 10.26-33.6 6.54-6.72 17.27-10.08 32.67-10.08h29.87c14.94 0 25.67 3.36 32.67 10.08 6.54 6.72 9.8 17.76 9.8 33.6v165.15a12 12 0 0 0 12 12h13.34Zm449.31-177.15c0-26.4-7-47.04-20.53-60.96-13.54-13.93-33.61-21.13-59.28-21.13h-63.94c-26.13 0-46.2 7.2-59.74 21.13-13.53 13.92-20.53 34.56-20.53 60.96v275.56a12 12 0 0 0 12 12h13.33a12 12 0 0 0 12-12V571.02c11.67 6.24 26.14 9.6 42.94 9.6h63.94c25.67 0 45.74-7.2 59.28-21.13 13.53-13.92 20.53-34.56 20.53-60.96v-95.06Zm-37.34 95.06c0 15.84-3.26 26.88-9.8 33.6-6.53 6.72-17.27 10.08-32.67 10.08h-63.94c-14.46 0-25.2-3.36-32.2-9.6-7-6.24-10.74-15.84-10.74-29.76v-99.38c0-15.84 3.27-26.88 10.27-33.6 6.54-6.72 17.27-10.08 32.67-10.08h63.94c15.4 0 26.14 3.36 32.67 10.08 6.54 6.72 9.8 17.76 9.8 33.6v95.06Zm317.37-95.06c0-26.4-7-47.04-20.54-60.96-13.53-13.93-33.6-21.13-59.27-21.13h-63.94c-26.14 0-46.2 7.2-59.74 21.13-13.53 13.92-20.54 34.56-20.54 60.96v95.06c0 26.4 7.01 47.04 20.54 60.96 13.54 13.93 33.6 21.13 59.74 21.13h63.94c25.67 0 45.74-7.2 59.27-21.13 13.54-13.92 20.54-34.56 20.54-60.96v-95.06Zm-37.34 95.06c0 15.84-3.27 26.88-9.8 33.6-6.54 6.72-17.27 10.08-32.67 10.08h-63.94c-15.4 0-26.14-3.36-32.67-10.08-7-6.72-10.27-17.76-10.27-33.6v-95.06c0-15.84 3.27-26.88 10.27-33.6 6.53-6.72 17.27-10.08 32.67-10.08h63.94c15.4 0 26.13 3.36 32.67 10.08 6.53 6.72 9.8 17.76 9.8 33.6v95.06Zm297.36-95.54c3.4 0 6.64-1.44 8.91-3.96a12 12 0 0 0 3.02-9.28c-2.02-20.13-8.75-36.22-19.93-47.72-13.53-13.93-33.6-20.65-59.27-20.65h-57.87c-23.81 0-42.94 6.24-57.41 19.2-14.47 12.97-21.47 31.21-21.47 54.25s7 40.8 21 52.81c13.54 12 33.14 18.24 58.81 18.24h58.81c14 0 24.73 3.36 32.2 10.56 7 7.2 10.73 17.29 10.73 29.77 0 24.48-14.46 36.48-42.93 36.48h-58.81c-15.4 0-26.14-3.36-32.67-10.56-4.97-5.12-8.05-12.74-9.24-23.07-.74-6-5.85-10.52-11.9-10.52l-13.46-.01c-3.4 0-6.64 1.44-8.91 3.96a12 12 0 0 0-3.02 9.28c2.02 20.13 8.75 36.22 19.93 47.72 13.53 13.93 33.6 21.13 59.27 21.13h58.81c24.73 0 44.33-6.72 58.8-19.69 14.47-12.96 21.47-31.68 21.47-55.2 0-24.49-7-43.69-21.47-57.61-14.47-13.44-34.07-20.16-58.8-20.16h-58.81c-28.47 0-42.47-11.04-42.47-33.13 0-23.52 14-35.52 41.54-35.52h57.87c15.4 0 26.13 3.36 32.67 10.08 4.97 5.12 8.05 12.74 9.24 23.07a12 12 0 0 0 11.9 10.52l13.46.01Zm124.55 110.38c0-27.36 7.93-48.49 23.33-63.37-15.4-13.92-23.33-35.04-23.33-62.89V285.34c0-15.84-3.27-26.88-9.8-34.09-6.54-6.72-17.27-10.08-32.67-10.08h-17.87a12 12 0 0 1-12-12v-14.4a12 12 0 0 1 3.51-8.49 12.01 12.01 0 0 1 8.49-3.51h17.87c25.67 0 45.74 7.2 59.27 21.12 13.53 14.4 20.53 35.05 20.53 61.45V387.1c0 15.36 3.27 26.4 9.81 33.13 7 7.2 13.06 10.56 28.47 10.56h1.06a12 12 0 0 1 8.49 3.51 12 12 0 0 1 3.51 8.49v14.4a12 12 0 0 1-3.51 8.49 12 12 0 0 1-8.49 3.51h-1.06c-15.41 0-21.47 3.36-28.47 10.08-6.54 7.2-9.81 18.25-9.81 34.09v101.3c0 26.4-7 47.04-20.53 61.44-13.53 13.92-33.6 21.12-59.27 21.12h-17.87c-3.18 0-6.24-1.26-8.49-3.51a12 12 0 0 1-3.51-8.49v-14.4a12 12 0 0 1 12-12h17.87c15.4 0 26.13-3.36 32.67-10.08 6.53-7.2 9.8-18.25 9.8-34.09v-101.3Z"/></svg>
