<svg xmlns="http://www.w3.org/2000/svg" viewBox="0 0 2000 900"><path fill="#ff8000" d="M1031.7 741.7h55.35v6.45h-55.35zm79.35 0h55.35v6.45h-55.35zm70.35-48.75h32.55v97.2h6.6v-97.2h32.55v-6.45h-71.7v6.45Zm81.75 38.55c.45-4.95 1.95-8.55 4.65-10.95 2.7-2.4 7.05-3.6 12.9-3.6h19.8c6.15 0 10.5 1.35 13.35 4.2 2.85 2.85 4.2 7.35 4.2 13.5v12h-39.3c-4.65 0-8.7.75-12.15 2.1a16.43 16.43 0 0 0-7.5 5.55c-1.65 2.4-2.7 4.8-3.45 7.05s-1.05 4.65-1.05 7.05c0 5.55 1.95 10.65 5.7 15s9.9 6.6 18.45 6.6h21.75c16.05 0 24.15-7.95 24.15-24v-31.35c0-16.05-8.1-24.15-24.15-24.15h-19.8c-15 0-23.1 7.05-24.15 21h6.6Zm37.35 52.2h-21.75c-5.7 0-10.05-1.35-13.05-3.9s-4.5-6.45-4.5-11.4c0-10.35 5.85-15.45 17.55-15.45h39.3V766c0 6.15-1.35 10.5-4.2 13.35-2.85 2.85-7.2 4.35-13.35 4.35Zm53.25-104.7h-6.6v87c0 16.05 8.1 24 24.3 24h15.15v-6.45h-15.15c-6.15 0-10.65-1.35-13.5-4.2-2.85-2.85-4.2-7.2-4.2-13.35v-87Zm104.1 111h8.25l-35.1-47.4 32.25-32.1h-9.45l-42.6 42.6V679h-6.6v111h6.6v-27.6l15.15-15.15 31.5 42.75Zm83.85-58.65c-.9-13.95-8.85-20.85-23.85-20.85h-19.65c-7.2 0-12.9 1.8-17.25 5.55s-6.6 9-6.6 15.75c0 6.6 2.1 11.55 6.3 15 4.2 3.45 10.2 5.25 17.85 5.25h19.95c5.7 0 10.05 1.5 13.05 4.35 3 2.85 4.5 6.9 4.5 12 0 4.95-1.5 8.7-4.35 11.25-3 2.7-7.35 4.05-13.2 4.05h-19.95c-5.55 0-9.75-1.2-12.45-3.6-2.7-2.25-4.35-6-4.8-11.1h-6.75c1.05 13.95 9.15 21 24 21h19.95c7.35 0 13.35-1.95 17.7-5.7s6.45-9.15 6.45-16.05c0-7.2-2.1-12.75-6.45-16.8-4.35-3.9-10.35-5.85-17.7-5.85h-19.95c-6 0-10.35-1.05-13.2-3.3-2.85-2.25-4.35-5.7-4.35-10.5 0-9.9 5.7-14.85 17.25-14.85h19.65c5.55 0 9.75 1.2 12.6 3.45 2.7 2.25 4.2 6 4.65 10.95h6.6Zm22.65 10.35h55.35v6.45h-55.35zm79.35 0h55.35v6.45h-55.35zm79.35 0h55.35v6.45h-55.35zm79.35 0h55.35v6.45h-55.35z"/><path fill="#0080ff" d="M288.68 513.37c0-27.36-7.94-48.49-23.34-63.37 15.4-13.92 23.34-35.04 23.34-62.89V285.34c0-15.84 3.26-26.88 9.8-34.09 6.53-6.72 17.27-10.08 32.67-10.08h17.87a12 12 0 0 0 12-12v-14.4a12 12 0 0 0-12-12h-17.87c-25.67 0-45.74 7.2-59.27 21.12-13.54 14.4-20.54 35.05-20.54 61.45V387.1c0 15.36-3.27 26.4-9.8 33.13-7 7.2-13.07 10.56-28.47 10.56H212a12 12 0 0 0-12 12v14.4a12 12 0 0 0 12 12h1.07c15.4 0 21.47 3.36 28.47 10.08 6.53 7.2 9.8 18.25 9.8 34.09v101.3c0 26.4 7 47.04 20.54 61.44 13.53 13.92 33.6 21.12 59.27 21.12h17.87a12 12 0 0 0 12-12v-14.4a12 12 0 0 0-12-12h-17.87c-15.4 0-26.14-3.36-32.67-10.08-6.54-7.2-9.8-18.25-9.8-34.09v-101.3Zm296.77 67.25a12 12 0 0 0 12-12V403.47c0-15.84 3.26-26.88 10.27-33.6 6.53-6.72 17.26-10.08 32.67-10.08h29.4c15.4 0 26.14 3.36 33.14 10.08 6.53 6.72 9.8 17.76 9.8 33.6v165.15a12 12 0 0 0 12 12h13.34a12 12 0 0 0 12-12V403.47c0-26.4-7-47.04-20.54-60.96-14-13.93-34.07-21.13-59.74-21.13h-29.4c-27.54 0-48.08 7.68-61.61 23.53-13.54-15.85-33.6-23.53-61.14-23.53h-29.87c-26.14 0-46.2 7.2-59.74 21.13-13.54 13.92-20.54 34.56-20.54 60.96v165.15a12 12 0 0 0 12 12h13.34a12 12 0 0 0 12-12V403.47c0-15.84 3.27-26.88 10.27-33.6 6.53-6.72 17.27-10.08 32.67-10.08h29.87c14.93 0 25.67 3.36 32.67 10.08 6.53 6.72 9.8 17.76 9.8 33.6v165.15a12 12 0 0 0 12 12h13.34Zm251.77-177.15a12 12 0 0 0 11.9-10.5c1.2-10.35 4.36-17.98 9.7-23.1 6.53-6.72 17.26-10.08 32.67-10.08h58.8c14.94 0 25.67 3.36 32.67 10.08 6.54 6.72 9.8 17.76 9.8 33.6v27.85H885.89c-15.4 0-28.93 2.4-39.67 7.2-11.2 5.28-19.6 11.52-24.73 19.68-5.6 8.16-9.34 15.84-11.67 23.52-2.33 8.16-3.73 16.33-3.73 24.49s1.4 15.84 4.2 24c2.33 8.16 6.53 15.84 12.13 24 5.6 8.16 14 14.4 24.74 19.2 10.73 4.8 23.8 7.2 38.73 7.2h64.41c25.67 0 45.74-7.2 59.28-21.12 13.53-13.92 20.53-34.56 20.53-60.96v-95.06c0-26.4-7-47.04-20.53-60.96-13.54-13.93-33.6-21.13-59.28-21.13h-58.8c-25.67 0-45.74 7.2-59.28 21.13-11.56 11.5-18.35 27.58-20.37 47.71a11.97 11.97 0 0 0 11.91 13.23c4.36.02 9.21.02 13.47.02ZM950.29 542.7h-64.4c-28.47 0-42.48-12-42.48-36.48 0-24.49 14-36.49 42.48-36.49h106.88v28.8c0 15.85-3.27 26.89-9.8 33.61-7 7.2-17.74 10.56-32.68 10.56Zm135.82-44.16c0 26.4 7 47.04 20.54 60.96 13.53 13.93 33.6 21.13 59.74 21.13h63.94c25.67 0 45.74-7.2 59.27-21.13 13.54-13.92 20.54-34.56 20.54-60.96V237.37a12 12 0 0 0-12-12h-13.34a12 12 0 0 0-12 12V331c-11.67-6.25-26.14-9.6-42.47-9.6h-63.94c-26.14 0-46.21 7.2-59.74 21.12-13.54 13.92-20.54 34.56-20.54 60.96v95.06Zm37.34-95.06c0-15.84 3.27-26.88 10.27-33.6 6.53-6.72 17.27-10.08 32.67-10.08h63.94c14.47 0 25.2 2.88 32.2 9.12 7.01 6.24 10.27 16.32 10.27 30.24v99.38c0 15.84-3.26 26.88-9.8 33.6-6.53 6.72-17.27 10.08-32.67 10.08h-63.94c-15.4 0-26.14-3.36-32.67-10.08-7-6.72-10.27-17.76-10.27-33.6v-95.06Zm456.54.48a12 12 0 0 0 8.9-3.95 12.02 12.02 0 0 0 3.04-9.25c-2-20.52-8.73-36.7-19.96-48.24-13.53-13.93-33.6-21.13-59.27-21.13h-63.94c-26.14 0-46.21 7.2-59.74 21.13-13.54 13.92-20.54 34.56-20.54 60.96v95.06c0 26.4 7 47.04 20.54 60.96 13.53 13.93 33.6 21.13 59.74 21.13h63.94c25.67 0 45.74-7.2 59.27-21.13 11.19-11.5 17.91-27.59 19.91-47.72a11.98 11.98 0 0 0-11.91-13.22c-4.35-.02-9.21-.02-13.46-.02a12 12 0 0 0-11.91 10.53c-1.17 10.33-4.25 17.95-9.23 23.07-6.53 6.72-17.27 10.08-32.67 10.08h-63.94c-15.4 0-26.14-3.36-32.67-10.08-7-6.72-10.27-17.76-10.27-33.6v-95.06c0-15.84 3.27-26.88 10.27-33.6 6.53-6.72 17.27-10.08 32.67-10.08h63.94c15.4 0 26.14 3.36 32.67 10.08 4.98 5.48 8.06 13.19 9.24 23.55a12 12 0 0 0 11.9 10.52l13.48.01Zm131.33 109.42c0-27.36 7.94-48.49 23.34-63.37-15.4-13.92-23.34-35.04-23.34-62.89V285.34c0-15.84-3.26-26.88-9.8-34.09-6.53-6.72-17.27-10.08-32.67-10.08h-17.87a12 12 0 0 1-12-12v-14.4a12 12 0 0 1 12-12h17.87c25.67 0 45.74 7.2 59.27 21.12 13.54 14.4 20.54 35.05 20.54 61.45V387.1c0 15.36 3.27 26.4 9.8 33.13 7 7.2 13.07 10.56 28.47 10.56h1.07c3.18 0 6.24 1.26 8.49 3.51a12 12 0 0 1 3.51 8.49v14.4a12 12 0 0 1-3.51 8.49 12.02 12.02 0 0 1-8.49 3.51h-1.07c-15.4 0-21.47 3.36-28.47 10.08-6.53 7.2-9.8 18.25-9.8 34.09v101.3c0 26.4-7 47.04-20.54 61.44-13.53 13.92-33.6 21.12-59.27 21.12h-17.87a12 12 0 0 1-12-12v-14.4a12 12 0 0 1 12-12h17.87c15.4 0 26.14-3.36 32.67-10.08 6.54-7.2 9.8-18.25 9.8-34.09v-101.3Z"/></svg>
