<svg xmlns="http://www.w3.org/2000/svg" viewBox="0 0 3500 900"><path fill="#ff8000" d="M1738.2 741.7h55.35v6.45h-55.35zm79.35 0h55.35v6.45h-55.35zm79.35 0h55.35v6.45h-55.35zm79.35 0h55.35v6.45h-55.35zm79.35 0h55.35v6.45h-55.35zm79.35 0h55.35v6.45h-55.35zm79.35 0h55.35v6.45h-55.35zm79.35 0H2349v6.45h-55.35zm79.35 0h55.35v6.45H2373zm79.35 0h55.35v6.45h-55.35zm79.35 0h55.35v6.45h-55.35zm79.35 0h55.35v6.45h-55.35zm70.35-48.75h32.55v97.2h6.6v-97.2h32.55v-6.45h-71.7v6.45Zm81.75 38.55c.45-4.95 1.95-8.55 4.65-10.95 2.7-2.4 7.05-3.6 12.9-3.6h19.8c6.15 0 10.5 1.35 13.35 4.2 2.85 2.85 4.2 7.35 4.2 13.5v12h-39.3c-4.65 0-8.7.75-12.15 2.1a16.43 16.43 0 0 0-7.5 5.55c-1.65 2.4-2.7 4.8-3.45 7.05s-1.05 4.65-1.05 7.05c0 5.55 1.95 10.65 5.7 15s9.9 6.6 18.45 6.6h21.75c16.05 0 24.15-7.95 24.15-24v-31.35c0-16.05-8.1-24.15-24.15-24.15h-19.8c-15 0-23.1 7.05-24.15 21h6.6Zm37.35 52.2h-21.75c-5.7 0-10.05-1.35-13.05-3.9s-4.5-6.45-4.5-11.4c0-10.35 5.85-15.45 17.55-15.45h39.3V766c0 6.15-1.35 10.5-4.2 13.35-2.85 2.85-7.2 4.35-13.35 4.35Zm53.25-104.7h-6.6v87c0 16.05 8.1 24 24.3 24h15.15v-6.45h-15.15c-6.15 0-10.65-1.35-13.5-4.2-2.85-2.85-4.2-7.2-4.2-13.35v-87Zm104.1 111h8.25l-35.1-47.4 32.25-32.1h-9.45l-42.6 42.6V679h-6.6v111h6.6v-27.6l15.15-15.15 31.5 42.75Zm83.85-58.65c-.9-13.95-8.85-20.85-23.85-20.85h-19.65c-7.2 0-12.9 1.8-17.25 5.55s-6.6 9-6.6 15.75c0 6.6 2.1 11.55 6.3 15 4.2 3.45 10.2 5.25 17.85 5.25h19.95c5.7 0 10.05 1.5 13.05 4.35 3 2.85 4.5 6.9 4.5 12 0 4.95-1.5 8.7-4.35 11.25-3 2.7-7.35 4.05-13.2 4.05h-19.95c-5.55 0-9.75-1.2-12.45-3.6-2.7-2.25-4.35-6-4.8-11.1h-6.75c1.05 13.95 9.15 21 24 21h19.95c7.35 0 13.35-1.95 17.7-5.7s6.45-9.15 6.45-16.05c0-7.2-2.1-12.75-6.45-16.8-4.35-3.9-10.35-5.85-17.7-5.85h-19.95c-6 0-10.35-1.05-13.2-3.3-2.85-2.25-4.35-5.7-4.35-10.5 0-9.9 5.7-14.85 17.25-14.85h19.65c5.55 0 9.75 1.2 12.6 3.45 2.7 2.25 4.2 6 4.65 10.95h6.6Zm22.65 10.35h55.35v6.45h-55.35zm79.35 0h55.35v6.45h-55.35zm79.35 0h55.35v6.45h-55.35zm79.35 0h55.35v6.45h-55.35z"/><path fill="#0080ff" d="M288.66 510.55c0-27.36-7.93-48.48-23.33-63.36 15.4-13.92 23.33-35.04 23.33-62.88V282.56c0-15.84 3.27-26.88 9.8-34.08 6.54-6.72 17.27-10.08 32.67-10.08h17.86a12 12 0 0 0 12-12V212a12 12 0 0 0-12-12h-17.86c-25.67 0-45.73 7.2-59.27 21.12-13.53 14.4-20.53 35.04-20.53 61.44V384.3c0 15.36-3.27 26.4-9.8 33.12-7 7.2-13.07 10.56-28.46 10.56H212a12 12 0 0 0-12 12v14.4a12 12 0 0 0 12 12h1.07c15.4 0 21.46 3.36 28.46 10.08 6.53 7.2 9.8 18.24 9.8 34.07v101.28c0 26.4 7 47.04 20.53 61.44 13.54 13.92 33.6 21.12 59.27 21.12h17.86a12 12 0 0 0 12-12v-14.4a12 12 0 0 0-12-12h-17.86c-15.4 0-26.13-3.36-32.67-10.08-6.53-7.2-9.8-18.24-9.8-34.08V510.54Zm289.92 67.23a12 12 0 0 0 12-12V400.67c0-15.84 3.27-26.88 10.27-33.6 6.53-6.72 17.26-10.08 32.66-10.08h29.4c15.4 0 26.13 3.36 33.13 10.08 6.54 6.72 9.8 17.76 9.8 33.6v165.11a12 12 0 0 0 12 12h13.33a12 12 0 0 0 12-12V400.67c0-26.4-7-47.04-20.53-60.96-14-13.92-34.06-21.12-59.73-21.12h-29.4c-27.53 0-48.06 7.68-61.6 23.52-13.53-15.84-33.6-23.52-61.13-23.52h-29.86c-26.13 0-46.2 7.2-59.73 21.12-13.53 13.92-20.53 34.56-20.53 60.96v165.11a12 12 0 0 0 12 12h13.33a12 12 0 0 0 12-12V400.67c0-15.84 3.27-26.88 10.27-33.6 6.53-6.72 17.26-10.08 32.66-10.08h29.87c14.93 0 25.66 3.36 32.66 10.08 6.53 6.72 9.8 17.76 9.8 33.6v165.11a12 12 0 0 0 12 12h13.33Zm251.73-177.11a12 12 0 0 0 11.9-10.5c1.2-10.35 4.36-17.98 9.7-23.1 6.53-6.72 17.26-10.08 32.66-10.08h58.8c14.93 0 25.66 3.36 32.66 10.08 6.53 6.72 9.8 17.76 9.8 33.6v27.84H878.97c-15.4 0-28.94 2.4-39.67 7.2-11.2 5.28-19.6 11.52-24.73 19.68-5.6 8.16-9.33 15.84-11.67 23.52-2.33 8.16-3.73 16.32-3.73 24.47 0 8.16 1.4 15.84 4.2 24 2.33 8.16 6.53 15.84 12.13 24 5.6 8.16 14 14.4 24.74 19.2 10.73 4.8 23.8 7.2 38.73 7.2h64.4c25.66 0 45.73-7.2 59.26-21.12 13.53-13.92 20.53-34.56 20.53-60.95v-95.04c0-26.4-7-47.04-20.53-60.96-13.53-13.92-33.6-21.12-59.27-21.12h-58.8c-25.66 0-45.72 7.2-59.26 21.12-11.56 11.5-18.35 27.58-20.36 47.7a11.97 11.97 0 0 0 11.9 13.23c4.36.03 9.22.03 13.47.03Zm113.05 139.2h-64.4c-28.46 0-42.46-12-42.46-36.48 0-24.48 14-36.48 42.47-36.48h106.86v28.8c0 15.84-3.27 26.87-9.8 33.6-7 7.2-17.73 10.55-32.67 10.55Zm135.8-44.16c0 26.4 7 47.03 20.53 60.95 13.53 13.92 33.6 21.12 59.73 21.12h63.93c25.67 0 45.73-7.2 59.26-21.12 13.54-13.92 20.54-34.56 20.54-60.95V234.6a12 12 0 0 0-12-12h-13.33a12 12 0 0 0-12 12v93.6c-11.67-6.25-26.14-9.6-42.47-9.6h-63.93c-26.13 0-46.2 7.2-59.73 21.11-13.53 13.92-20.53 34.56-20.53 60.96v95.04Zm37.33-95.04c0-15.84 3.27-26.88 10.27-33.6 6.53-6.72 17.26-10.08 32.66-10.08h63.93c14.47 0 25.2 2.88 32.2 9.12 7 6.24 10.27 16.32 10.27 30.24v99.36c0 15.84-3.27 26.87-9.8 33.6-6.54 6.71-17.27 10.07-32.67 10.07h-63.93c-15.4 0-26.13-3.36-32.66-10.08-7-6.72-10.27-17.75-10.27-33.6v-95.03Zm456.45.48c3.4 0 6.63-1.44 8.91-3.95a11.97 11.97 0 0 0 3.03-9.25c-1.99-20.52-8.72-36.7-19.95-48.24-13.53-13.92-33.59-21.12-59.26-21.12h-63.93c-26.13 0-46.2 7.2-59.73 21.12-13.53 13.92-20.53 34.56-20.53 60.96v95.04c0 26.4 7 47.03 20.53 60.95 13.53 13.92 33.6 21.12 59.73 21.12h63.93c25.67 0 45.73-7.2 59.26-21.12 11.18-11.5 17.91-27.58 19.9-47.71a11.97 11.97 0 0 0-11.91-13.22c-4.35-.02-9.2-.02-13.45-.02a12 12 0 0 0-11.91 10.53c-1.17 10.33-4.25 17.95-9.22 23.06-6.54 6.72-17.27 10.08-32.67 10.08h-63.93c-15.4 0-26.13-3.36-32.66-10.08-7-6.72-10.27-17.75-10.27-33.6v-95.03c0-15.84 3.27-26.88 10.27-33.6 6.53-6.72 17.26-10.08 32.66-10.08h63.93c15.4 0 26.13 3.36 32.67 10.08 4.97 5.48 8.05 13.19 9.24 23.54a11.98 11.98 0 0 0 11.89 10.53l13.47.01Zm94.99-.48a12 12 0 0 0 11.91-10.5c1.19-10.35 4.36-17.98 9.69-23.1 6.53-6.72 17.26-10.08 32.66-10.08h58.8c14.93 0 25.67 3.36 32.66 10.08 6.54 6.72 9.8 17.76 9.8 33.6v27.84h-106.86c-15.4 0-28.93 2.4-39.66 7.2-11.2 5.28-19.6 11.52-24.73 19.68-5.6 8.16-9.34 15.84-11.67 23.52-2.33 8.16-3.73 16.32-3.73 24.47 0 8.16 1.4 15.84 4.2 24 2.33 8.16 6.53 15.84 12.13 24 5.6 8.16 14 14.4 24.73 19.2 10.74 4.8 23.8 7.2 38.73 7.2h64.4c25.67 0 45.73-7.2 59.26-21.12 13.54-13.92 20.54-34.56 20.54-60.95v-95.04c0-26.4-7-47.04-20.54-60.96-13.53-13.92-33.59-21.12-59.26-21.12h-58.8c-25.66 0-45.73 7.2-59.26 21.12-11.56 11.5-18.35 27.58-20.36 47.7-.36 3.38.74 6.75 3.01 9.27a11.96 11.96 0 0 0 8.89 3.96c4.36.03 9.21.03 13.46.03Zm113.06 139.2h-64.4c-28.46 0-42.46-12-42.46-36.48 0-24.48 14-36.48 42.46-36.48h106.86v28.8c0 15.84-3.26 26.87-9.8 33.6-6.99 7.2-17.73 10.55-32.66 10.55Zm316.05 37.91c3.18 0 6.24-1.26 8.49-3.51a12 12 0 0 0 3.51-8.49V400.67c0-15.84 3.27-26.88 10.27-33.6 6.53-6.72 17.26-10.08 32.66-10.08h29.4c15.4 0 26.13 3.36 33.13 10.08 6.54 6.72 9.8 17.76 9.8 33.6v165.11a12 12 0 0 0 12 12h13.33a12 12 0 0 0 8.49-3.51 12 12 0 0 0 3.51-8.49V400.67c0-26.4-7-47.04-20.53-60.96-14-13.92-34.06-21.12-59.73-21.12h-29.4c-27.53 0-48.06 7.68-61.59 23.52-13.54-15.84-33.6-23.52-61.13-23.52h-29.87c-26.13 0-46.2 7.2-59.73 21.12-13.53 13.92-20.53 34.56-20.53 60.96v165.11a12 12 0 0 0 3.51 8.49 12 12 0 0 0 8.49 3.51h13.33a12 12 0 0 0 12-12V400.67c0-15.84 3.27-26.88 10.26-33.6 6.54-6.72 17.27-10.08 32.67-10.08h29.87c14.93 0 25.66 3.36 32.66 10.08 6.53 6.72 9.8 17.76 9.8 33.6v165.11a12 12 0 0 0 3.51 8.49 12.02 12.02 0 0 0 8.49 3.51h13.33Zm449.25-177.11c0-26.4-7-47.04-20.54-60.96-13.53-13.92-33.59-21.12-59.26-21.12h-63.93c-26.13 0-46.2 7.2-59.73 21.12-13.53 13.92-20.53 34.56-20.53 60.96v275.5a12 12 0 0 0 3.51 8.5 12.02 12.02 0 0 0 8.49 3.5h13.33a12 12 0 0 0 8.48-3.5 11.97 11.97 0 0 0 3.52-8.5V568.19c11.67 6.24 26.13 9.6 42.93 9.6h63.93c25.67 0 45.73-7.2 59.26-21.12 13.54-13.92 20.54-34.56 20.54-60.95v-95.04Zm-37.34 95.04c0 15.84-3.26 26.87-9.79 33.6-6.54 6.71-17.27 10.07-32.67 10.07h-63.93c-14.47 0-25.2-3.36-32.2-9.6-7-6.24-10.73-15.83-10.73-29.75v-99.36c0-15.84 3.26-26.88 10.26-33.6 6.54-6.72 17.27-10.08 32.67-10.08h63.93c15.4 0 26.13 3.36 32.67 10.08 6.53 6.72 9.79 17.76 9.79 33.6v95.04Zm317.32-95.04c0-26.4-7-47.04-20.53-60.96-13.53-13.92-33.6-21.12-59.26-21.12h-63.93c-26.14 0-46.2 7.2-59.73 21.12-13.54 13.92-20.54 34.56-20.54 60.96v95.04c0 26.4 7 47.03 20.54 60.95 13.53 13.92 33.59 21.12 59.73 21.12h63.93c25.66 0 45.73-7.2 59.26-21.12 13.53-13.92 20.53-34.56 20.53-60.95v-95.04Zm-37.33 95.04c0 15.84-3.26 26.87-9.8 33.6-6.53 6.71-17.26 10.07-32.66 10.07h-63.93c-15.4 0-26.14-3.36-32.67-10.08-7-6.72-10.26-17.75-10.26-33.6v-95.03c0-15.84 3.26-26.88 10.26-33.6 6.53-6.72 17.27-10.08 32.67-10.08h63.93c15.4 0 26.13 3.36 32.66 10.08 6.54 6.72 9.8 17.76 9.8 33.6v95.04Zm297.31-95.52c3.4 0 6.64-1.44 8.92-3.97a12.03 12.03 0 0 0 3.02-9.27c-2.03-20.13-8.75-36.22-19.93-47.72-13.53-13.92-33.6-20.64-59.26-20.64h-57.87c-23.8 0-42.93 6.24-57.39 19.2-14.47 12.96-21.47 31.2-21.47 54.24 0 23.04 7 40.8 21 52.8 13.53 12 33.13 18.24 58.8 18.24h58.79c14 0 24.74 3.36 32.2 10.56 7 7.2 10.74 17.28 10.74 29.75 0 24.48-14.47 36.48-42.94 36.48h-58.79c-15.4 0-26.14-3.36-32.67-10.56-4.97-5.11-8.05-12.73-9.24-23.06a11.98 11.98 0 0 0-11.9-10.52l-13.45-.01c-3.4 0-6.64 1.44-8.91 3.96a11.96 11.96 0 0 0-3.02 9.28c2.02 20.13 8.74 36.21 19.92 47.71 13.54 13.92 33.6 21.12 59.27 21.12h58.79c24.74 0 44.34-6.72 58.8-19.68 14.47-12.96 21.47-31.68 21.47-55.2 0-24.47-7-43.67-21.47-57.6-14.46-13.43-34.06-20.15-58.8-20.15h-58.79c-28.47 0-42.47-11.04-42.47-33.12 0-23.52 14-35.52 41.53-35.52H3019c15.4 0 26.13 3.36 32.66 10.08 4.98 5.12 8.06 12.74 9.24 23.07.74 6 5.85 10.52 11.9 10.52l13.45.01Zm124.54 110.36c0-27.36 7.93-48.48 23.33-63.36-15.4-13.92-23.33-35.04-23.33-62.88V282.56c0-15.84-3.27-26.88-9.8-34.08-6.54-6.72-17.27-10.08-32.67-10.08h-17.86a12 12 0 0 1-12-12V212a12 12 0 0 1 12-12h17.86c25.67 0 45.73 7.2 59.27 21.12 13.53 14.4 20.53 35.04 20.53 61.44V384.3c0 15.36 3.27 26.4 9.8 33.12 7 7.2 13.07 10.56 28.46 10.56h1.07a12 12 0 0 1 12 12v14.4a12 12 0 0 1-12 12h-1.07c-15.39 0-21.46 3.36-28.46 10.08-6.53 7.2-9.8 18.24-9.8 34.07v101.28c0 26.4-7 47.04-20.53 61.44-13.54 13.92-33.6 21.12-59.27 21.12h-17.86a12 12 0 0 1-12-12v-14.4a12 12 0 0 1 12-12h17.86c15.4 0 26.13-3.36 32.67-10.08 6.53-7.2 9.8-18.24 9.8-34.08V510.54Z"/></svg>
