<svg xmlns="http://www.w3.org/2000/svg" viewBox="0 0 1101 900"><path fill="#0080ff" d="M289.2 513.37c0-27.36-7.93-48.49-23.33-63.37 15.4-13.92 23.34-35.04 23.34-62.89V285.34c0-15.84 3.26-26.88 9.8-34.09 6.53-6.72 17.27-10.08 32.67-10.08h17.87a12 12 0 0 0 8.48-3.51 12 12 0 0 0 3.52-8.49v-14.4a12 12 0 0 0-12-12h-17.87c-25.67 0-45.74 7.2-59.28 21.12-13.53 14.4-20.53 35.05-20.53 61.45V387.1c0 15.36-3.27 26.4-9.8 33.13-7 7.2-13.07 10.56-28.47 10.56h-1.07a12 12 0 0 0-12 12v14.4a12 12 0 0 0 12 12h1.07c15.4 0 21.47 3.36 28.47 10.08 6.53 7.2 9.8 18.25 9.8 34.09v101.3c0 26.4 7 47.04 20.53 61.44 13.54 13.92 33.6 21.12 59.28 21.12h17.87a12 12 0 0 0 12-12v-14.4a12 12 0 0 0-3.52-8.49 12 12 0 0 0-8.48-3.51h-17.87c-15.4 0-26.14-3.36-32.67-10.08-6.54-7.2-9.8-18.25-9.8-34.09v-101.3Zm267.99 67.25a12 12 0 0 0 12-12V403.47c0-15.84 3.26-26.88 10.27-33.6 6.53-6.72 17.26-10.08 32.67-10.08h29.4c15.4 0 26.14 3.36 33.14 10.08 6.53 6.72 9.8 17.76 9.8 33.6v165.15a12 12 0 0 0 12 12h13.33a12 12 0 0 0 12-12V403.47c0-26.4-7-47.04-20.53-60.96-14-13.93-34.07-21.13-59.74-21.13h-29.4c-27.54 0-48.08 7.68-61.61 23.53-13.54-15.85-33.6-23.53-61.14-23.53h-29.87c-26.14 0-46.2 7.2-59.74 21.13-13.53 13.92-20.53 34.56-20.53 60.96v165.15a12 12 0 0 0 12 12h13.33a12 12 0 0 0 12-12V403.47c0-15.84 3.27-26.88 10.27-33.6 6.53-6.72 17.27-10.08 32.67-10.08h29.87c14.94 0 25.67 3.36 32.67 10.08 6.53 6.72 9.8 17.76 9.8 33.6v165.15a12 12 0 0 0 12 12h13.34Zm254.64-67.25c0-27.36 7.94-48.49 23.34-63.37-15.4-13.92-23.34-35.04-23.34-62.89V285.34c0-15.84-3.26-26.88-9.8-34.09-6.53-6.72-17.27-10.08-32.67-10.08H751.5a12 12 0 0 1-8.48-3.51 12 12 0 0 1-3.52-8.49v-14.4a12 12 0 0 1 12-12h17.87c25.67 0 45.74 7.2 59.27 21.12 13.54 14.4 20.54 35.05 20.54 61.45V387.1c0 15.36 3.27 26.4 9.8 33.13 7 7.2 13.07 10.56 28.47 10.56h1.07a12 12 0 0 1 12 12v14.4a12 12 0 0 1-12 12h-1.07c-15.4 0-21.47 3.36-28.47 10.08-6.53 7.2-9.8 18.25-9.8 34.09v101.3c0 26.4-7 47.04-20.54 61.44-13.53 13.92-33.6 21.12-59.27 21.12H751.5a12 12 0 0 1-12-12v-14.4a12 12 0 0 1 3.52-8.49 12 12 0 0 1 8.48-3.51h17.87c15.4 0 26.14-3.36 32.67-10.08 6.54-7.2 9.8-18.25 9.8-34.09v-101.3Z"/></svg>
