<svg xmlns="http://www.w3.org/2000/svg" viewBox="0 0 2000 900"><path fill="#ff8000" d="M996.75 741.7h55.35v6.45h-55.35zm79.35 0h55.35v6.45h-55.35zm79.35 0h55.35v6.45h-55.35zm80.85 48.3h45.9c16.2 0 24.3-7.95 24.3-24v-8.1c0-10.35-3.6-17.55-10.65-21.3 6-3.75 9-10.65 9-20.4v-5.4c0-7.95-1.95-13.95-6-18.15-4.05-4.05-10.05-6.15-18-6.15h-44.55V790Zm6.6-49.8h39.6c6.15 0 10.65 1.35 13.35 4.2 2.7 2.85 4.05 7.35 4.05 13.5v8.1c0 6.15-1.35 10.5-4.2 13.35-2.85 2.85-7.35 4.2-13.5 4.2h-39.3V740.2Zm37.95-47.25c6.15 0 10.5 1.5 13.35 4.5 2.7 3 4.05 7.5 4.05 13.35v5.4c0 5.85-1.2 10.35-3.75 13.2-2.55 2.85-6.6 4.35-12.3 4.35h-39.3v-40.8h37.95ZM1334.1 679h-6.6v87c0 16.05 8.1 24 24.3 24h15.15v-6.45h-15.15c-6.15 0-10.65-1.35-13.5-4.2-2.85-2.85-4.2-7.2-4.2-13.35v-87Zm115.05 55.65c0-16.05-8.1-24.15-24.15-24.15h-21.75c-16.2 0-24.3 8.1-24.3 24.15V766c0 16.05 8.1 24 24.3 24H1425c16.05 0 24.15-7.95 24.15-24v-31.35Zm-6.6 31.35c0 6.15-1.35 10.5-4.2 13.35-2.85 2.85-7.2 4.2-13.35 4.2h-21.75c-6.15 0-10.65-1.35-13.5-4.2-2.85-2.85-4.2-7.2-4.2-13.35v-31.35c0-6.15 1.35-10.65 4.2-13.5 2.85-2.85 7.35-4.2 13.5-4.2H1425c6.15 0 10.5 1.35 13.35 4.2 2.85 2.85 4.2 7.35 4.2 13.5V766Zm40.8 58.5h32.85c16.05 0 24.15-8.1 24.15-24.15v-65.7c0-16.05-8.1-24.15-24.15-24.15h-21.75c-16.2 0-24.3 8.1-24.3 24.15V766c0 16.05 8.1 24 24.3 24h21.75c8.4 0 14.25-2.25 17.55-6.6v16.95c0 6.3-1.35 10.8-4.2 13.65-2.85 2.7-7.2 4.05-13.35 4.05h-32.85v6.45Zm50.4-58.35c0 6.15-1.35 10.5-4.2 13.2-2.85 2.85-7.35 4.2-13.35 4.2h-21.75c-6.15 0-10.65-1.35-13.5-4.2-2.85-2.85-4.2-7.2-4.2-13.35v-31.35c0-6.15 1.35-10.65 4.2-13.5 2.85-2.85 7.35-4.2 13.5-4.2h21.75c6.15 0 10.5 1.35 13.35 4.2 2.85 2.85 4.2 7.35 4.2 13.5v31.5Zm30.6-24.45h55.35v6.45h-55.35zm79.35 0h55.35v6.45h-55.35zm79.35 0h55.35v6.45h-55.35zm79.35 0h55.35v6.45h-55.35z"/><path fill="#0080ff" d="M288.68 513.37c0-27.36-7.94-48.49-23.34-63.37 15.4-13.92 23.34-35.04 23.34-62.89V285.34c0-15.84 3.26-26.88 9.8-34.09 6.53-6.72 17.27-10.08 32.67-10.08h17.87a12 12 0 0 0 12-12v-14.4a12 12 0 0 0-12-12h-17.87c-25.67 0-45.74 7.2-59.27 21.12-13.54 14.4-20.54 35.05-20.54 61.45V387.1c0 15.36-3.27 26.4-9.8 33.13-7 7.2-13.07 10.56-28.47 10.56H212a12 12 0 0 0-12 12v14.4a12 12 0 0 0 12 12h1.07c15.4 0 21.47 3.36 28.47 10.08 6.53 7.2 9.8 18.25 9.8 34.09v101.3c0 26.4 7 47.04 20.54 61.44 13.53 13.92 33.6 21.12 59.27 21.12h17.87a12 12 0 0 0 12-12v-14.4a12 12 0 0 0-12-12h-17.87c-15.4 0-26.14-3.36-32.67-10.08-6.54-7.2-9.8-18.25-9.8-34.09v-101.3Zm296.77 67.25a12 12 0 0 0 12-12V403.47c0-15.84 3.26-26.88 10.27-33.6 6.53-6.72 17.26-10.08 32.67-10.08h29.4c15.4 0 26.14 3.36 33.14 10.08 6.53 6.72 9.8 17.76 9.8 33.6v165.15a12 12 0 0 0 12 12h13.34a12 12 0 0 0 12-12V403.47c0-26.4-7-47.04-20.54-60.96-14-13.93-34.07-21.13-59.74-21.13h-29.4c-27.54 0-48.08 7.68-61.61 23.53-13.54-15.85-33.6-23.53-61.14-23.53h-29.87c-26.14 0-46.2 7.2-59.74 21.13-13.54 13.92-20.54 34.56-20.54 60.96v165.15a12 12 0 0 0 12 12h13.34a12 12 0 0 0 12-12V403.47c0-15.84 3.27-26.88 10.27-33.6 6.53-6.72 17.27-10.08 32.67-10.08h29.87c14.93 0 25.67 3.36 32.67 10.08 6.53 6.72 9.8 17.76 9.8 33.6v165.15a12 12 0 0 0 12 12h13.34Zm251.77-177.15a12 12 0 0 0 11.9-10.5c1.2-10.35 4.36-17.98 9.7-23.1 6.53-6.72 17.26-10.08 32.67-10.08h58.8c14.94 0 25.67 3.36 32.67 10.08 6.54 6.72 9.8 17.76 9.8 33.6v27.85H885.89c-15.4 0-28.93 2.4-39.67 7.2-11.2 5.28-19.6 11.52-24.73 19.68-5.6 8.16-9.34 15.84-11.67 23.52-2.33 8.16-3.73 16.33-3.73 24.49s1.4 15.84 4.2 24c2.33 8.16 6.53 15.84 12.13 24 5.6 8.16 14 14.4 24.74 19.2 10.73 4.8 23.8 7.2 38.73 7.2h64.41c25.67 0 45.74-7.2 59.28-21.12 13.53-13.92 20.53-34.56 20.53-60.96v-95.06c0-26.4-7-47.04-20.53-60.96-13.54-13.93-33.6-21.13-59.28-21.13h-58.8c-25.67 0-45.74 7.2-59.28 21.13-11.56 11.5-18.35 27.58-20.37 47.71a11.97 11.97 0 0 0 11.91 13.23c4.36.02 9.21.02 13.47.02ZM950.29 542.7h-64.4c-28.47 0-42.48-12-42.48-36.48 0-24.49 14-36.49 42.48-36.49h106.88v28.8c0 15.85-3.27 26.89-9.8 33.61-7 7.2-17.74 10.56-32.68 10.56Zm135.82-44.16c0 26.4 7 47.04 20.54 60.96 13.53 13.93 33.6 21.13 59.74 21.13h63.94c25.67 0 45.74-7.2 59.27-21.13 13.54-13.92 20.54-34.56 20.54-60.96V237.37a12 12 0 0 0-12-12h-13.34a12 12 0 0 0-12 12V331c-11.67-6.25-26.14-9.6-42.47-9.6h-63.94c-26.14 0-46.21 7.2-59.74 21.12-13.54 13.92-20.54 34.56-20.54 60.96v95.06Zm37.34-95.06c0-15.84 3.27-26.88 10.27-33.6 6.53-6.72 17.27-10.08 32.67-10.08h63.94c14.47 0 25.2 2.88 32.2 9.12 7.01 6.24 10.27 16.32 10.27 30.24v99.38c0 15.84-3.26 26.88-9.8 33.6-6.53 6.72-17.27 10.08-32.67 10.08h-63.94c-15.4 0-26.14-3.36-32.67-10.08-7-6.72-10.27-17.76-10.27-33.6v-95.06Zm456.54.48a12 12 0 0 0 8.9-3.95 12.02 12.02 0 0 0 3.04-9.25c-2-20.52-8.73-36.7-19.96-48.24-13.53-13.93-33.6-21.13-59.27-21.13h-63.94c-26.14 0-46.21 7.2-59.74 21.13-13.54 13.92-20.54 34.56-20.54 60.96v95.06c0 26.4 7 47.04 20.54 60.96 13.53 13.93 33.6 21.13 59.74 21.13h63.94c25.67 0 45.74-7.2 59.27-21.13 11.19-11.5 17.91-27.59 19.91-47.72a11.98 11.98 0 0 0-11.91-13.22c-4.35-.02-9.21-.02-13.46-.02a12 12 0 0 0-11.91 10.53c-1.17 10.33-4.25 17.95-9.23 23.07-6.53 6.72-17.27 10.08-32.67 10.08h-63.94c-15.4 0-26.14-3.36-32.67-10.08-7-6.72-10.27-17.76-10.27-33.6v-95.06c0-15.84 3.27-26.88 10.27-33.6 6.53-6.72 17.27-10.08 32.67-10.08h63.94c15.4 0 26.14 3.36 32.67 10.08 4.98 5.48 8.06 13.19 9.24 23.55a12 12 0 0 0 11.9 10.52l13.48.01Zm131.33 109.42c0-27.36 7.94-48.49 23.34-63.37-15.4-13.92-23.34-35.04-23.34-62.89V285.34c0-15.84-3.26-26.88-9.8-34.09-6.53-6.72-17.27-10.08-32.67-10.08h-17.87a12 12 0 0 1-12-12v-14.4a12 12 0 0 1 12-12h17.87c25.67 0 45.74 7.2 59.27 21.12 13.54 14.4 20.54 35.05 20.54 61.45V387.1c0 15.36 3.27 26.4 9.8 33.13 7 7.2 13.07 10.56 28.47 10.56h1.07c3.18 0 6.24 1.26 8.49 3.51a12 12 0 0 1 3.51 8.49v14.4a12 12 0 0 1-3.51 8.49 12.02 12.02 0 0 1-8.49 3.51h-1.07c-15.4 0-21.47 3.36-28.47 10.08-6.53 7.2-9.8 18.25-9.8 34.09v101.3c0 26.4-7 47.04-20.54 61.44-13.53 13.92-33.6 21.12-59.27 21.12h-17.87a12 12 0 0 1-12-12v-14.4a12 12 0 0 1 12-12h17.87c15.4 0 26.14-3.36 32.67-10.08 6.54-7.2 9.8-18.25 9.8-34.09v-101.3Z"/></svg>
