<svg xmlns="http://www.w3.org/2000/svg" xml:space="preserve" style="fill-rule:evenodd;clip-rule:evenodd;stroke-linejoin:round;stroke-miterlimit:2" viewBox="0 0 3500 900"><path d="M0 0h3500v900H0z" style="fill:none"/><path d="M288.662 510.545c0-27.359-7.933-48.478-23.332-63.357 15.399-13.919 23.332-35.038 23.332-62.877V282.556c0-15.839 3.267-26.879 9.8-34.078 6.533-6.72 17.266-10.08 32.665-10.08h17.865c6.628 0 12-5.372 12-12V212c0-6.627-5.372-12-12-12h-17.865c-25.665 0-45.731 7.2-59.264 21.119-13.532 14.399-20.532 35.038-20.532 61.437v101.755c0 15.359-3.267 26.399-9.8 33.118-6.999 7.2-13.066 10.56-28.465 10.56H212c-6.627 0-12 5.373-12 12v14.398c0 6.628 5.373 12 12 12h1.066c15.399 0 21.466 3.36 28.465 10.08 6.533 7.199 9.8 18.239 9.8 34.078V611.82c0 26.399 7 47.038 20.532 61.437 13.533 13.919 33.599 21.119 59.264 21.119h17.865c6.628 0 12-5.372 12-12v-14.398c0-6.627-5.372-12-12-12h-17.865c-15.399 0-26.132-3.36-32.665-10.08-6.533-7.199-9.8-18.239-9.8-34.078V510.545Zm289.919 67.237a12 12 0 0 0 12-12V400.67c0-15.839 3.267-26.878 10.266-33.598 6.533-6.72 17.266-10.08 32.665-10.08h29.399c15.399 0 26.132 3.36 33.132 10.08 6.533 6.72 9.799 17.759 9.799 33.598v165.112a11.998 11.998 0 0 0 12 12h13.332a12.002 12.002 0 0 0 12-12V400.67c0-26.398-7-47.037-20.533-60.957-13.999-13.919-34.065-21.119-59.73-21.119h-29.399c-27.532 0-48.064 7.68-61.597 23.519-13.532-15.839-33.598-23.519-61.13-23.519H480.92c-26.132 0-46.198 7.2-59.731 21.119-13.532 13.92-20.532 34.559-20.532 60.957v165.112a11.998 11.998 0 0 0 12 12h13.331a12 12 0 0 0 12-12V400.67c0-15.839 3.267-26.878 10.267-33.598 6.533-6.72 17.265-10.08 32.665-10.08h29.865c14.933 0 25.665 3.36 32.665 10.08 6.533 6.72 9.8 17.759 9.8 33.598v165.112a12 12 0 0 0 12 12h13.331ZM830.306 400.67a12 12 0 0 0 11.907-10.506c1.191-10.347 4.356-17.973 9.689-23.092 6.533-6.72 17.266-10.08 32.665-10.08h58.797c14.933 0 25.665 3.36 32.665 10.08 6.533 6.72 9.8 17.759 9.8 33.598v27.839H878.967c-15.399 0-28.932 2.4-39.665 7.2-11.199 5.279-19.599 11.519-24.732 19.679-5.599 8.159-9.333 15.839-11.666 23.519-2.333 8.159-3.733 16.319-3.733 24.478 0 8.16 1.4 15.84 4.2 23.999 2.333 8.16 6.533 15.839 12.133 23.999 5.599 8.16 13.999 14.399 24.732 19.199 10.732 4.8 23.799 7.2 38.731 7.2h64.397c25.665 0 45.731-7.2 59.266-21.119 13.53-13.92 20.53-34.559 20.53-60.957V400.67c0-26.398-7-47.037-20.53-60.957-13.535-13.919-33.601-21.119-59.266-21.119h-58.797c-25.666 0-45.731 7.2-59.264 21.119-11.563 11.498-18.351 27.58-20.363 47.705a11.972 11.972 0 0 0 11.907 13.225c4.354.027 9.209.027 13.459.027Zm113.058 139.194h-64.397c-28.465 0-42.464-12-42.464-36.479 0-24.478 13.999-36.478 42.464-36.478h106.862v28.799c0 15.839-3.267 26.878-9.8 33.598-7 7.2-17.732 10.56-32.665 10.56Zm135.796-44.158c0 26.398 7 47.037 20.53 60.957 13.53 13.919 33.6 21.119 59.73 21.119h63.93c25.67 0 45.73-7.2 59.26-21.119 13.54-13.92 20.54-34.559 20.54-60.957V234.599c0-6.628-5.38-12-12-12h-13.33a11.995 11.995 0 0 0-12 12v93.595c-11.67-6.24-26.14-9.6-42.47-9.6h-63.93c-26.13 0-46.2 7.2-59.73 21.119-13.53 13.92-20.53 34.559-20.53 60.957v95.036Zm37.33-95.036c0-15.839 3.27-26.878 10.27-33.598 6.53-6.72 17.26-10.08 32.66-10.08h63.93c14.47 0 25.2 2.88 32.2 9.12 7 6.24 10.27 16.319 10.27 30.238v99.356c0 15.839-3.27 26.878-9.8 33.598-6.54 6.72-17.27 10.08-32.67 10.08h-63.93c-15.4 0-26.13-3.36-32.66-10.08-7-6.72-10.27-17.759-10.27-33.598V400.67Zm456.45.48c3.4 0 6.63-1.435 8.91-3.952a11.975 11.975 0 0 0 3.03-9.252c-1.99-20.517-8.72-36.687-19.95-48.233-13.53-13.919-33.59-21.119-59.26-21.119h-63.93c-26.13 0-46.2 7.2-59.73 21.119-13.53 13.92-20.53 34.559-20.53 60.957v95.036c0 26.398 7 47.037 20.53 60.957 13.53 13.919 33.6 21.119 59.73 21.119h63.93c25.67 0 45.73-7.2 59.26-21.119 11.18-11.5 17.91-27.585 19.9-47.715a11.969 11.969 0 0 0-11.91-13.215c-4.35-.027-9.2-.027-13.45-.027-6.06 0-11.17 4.516-11.91 10.529-1.17 10.335-4.25 17.954-9.22 23.069-6.54 6.72-17.27 10.08-32.67 10.08h-63.93c-15.4 0-26.13-3.36-32.66-10.08-7-6.72-10.27-17.759-10.27-33.598V400.67c0-15.839 3.27-26.878 10.27-33.598 6.53-6.72 17.26-10.08 32.66-10.08h63.93c15.4 0 26.13 3.36 32.67 10.08 4.97 5.481 8.05 13.187 9.24 23.542a11.983 11.983 0 0 0 11.89 10.522c4.26.014 9.12.014 13.47.014Zm94.99-.48c6.05 0 11.16-4.503 11.91-10.506 1.19-10.347 4.36-17.973 9.69-23.092 6.53-6.72 17.26-10.08 32.66-10.08h58.8c14.93 0 25.67 3.36 32.66 10.08 6.54 6.72 9.8 17.759 9.8 33.598v27.839h-106.86c-15.4 0-28.93 2.4-39.66 7.2-11.2 5.279-19.6 11.519-24.73 19.679-5.6 8.159-9.34 15.839-11.67 23.519-2.33 8.159-3.73 16.319-3.73 24.478 0 8.16 1.4 15.84 4.2 23.999 2.33 8.16 6.53 15.839 12.13 23.999 5.6 8.16 14 14.399 24.73 19.199 10.74 4.8 23.8 7.2 38.73 7.2h64.4c25.67 0 45.73-7.2 59.26-21.119 13.54-13.92 20.54-34.559 20.54-60.957V400.67c0-26.398-7-47.037-20.54-60.957-13.53-13.919-33.59-21.119-59.26-21.119h-58.8c-25.66 0-45.73 7.2-59.26 21.119-11.56 11.498-18.35 27.58-20.36 47.705-.36 3.375.74 6.742 3.01 9.263a11.96 11.96 0 0 0 8.89 3.962c4.36.027 9.21.027 13.46.027Zm113.06 139.194h-64.4c-28.46 0-42.46-12-42.46-36.479 0-24.478 14-36.478 42.46-36.478h106.86v28.799c0 15.839-3.26 26.878-9.8 33.598-6.99 7.2-17.73 10.56-32.66 10.56Zm316.05 37.918c3.18 0 6.24-1.265 8.49-3.515a11.997 11.997 0 0 0 3.51-8.485V400.67c0-15.839 3.27-26.878 10.27-33.598 6.53-6.72 17.26-10.08 32.66-10.08h29.4c15.4 0 26.13 3.36 33.13 10.08 6.54 6.72 9.8 17.759 9.8 33.598v165.112a12.007 12.007 0 0 0 12 12h13.33a12 12 0 0 0 8.49-3.515 11.997 11.997 0 0 0 3.51-8.485V400.67c0-26.398-7-47.037-20.53-60.957-14-13.919-34.06-21.119-59.73-21.119h-29.4c-27.53 0-48.06 7.68-61.59 23.519-13.54-15.839-33.6-23.519-61.13-23.519h-29.87c-26.13 0-46.2 7.2-59.73 21.119-13.53 13.92-20.53 34.559-20.53 60.957v165.112c0 3.182 1.26 6.235 3.51 8.485a12 12 0 0 0 8.49 3.515h13.33a12.007 12.007 0 0 0 12-12V400.67c0-15.839 3.27-26.878 10.26-33.598 6.54-6.72 17.27-10.08 32.67-10.08h29.87c14.93 0 25.66 3.36 32.66 10.08 6.53 6.72 9.8 17.759 9.8 33.598v165.112c0 3.182 1.26 6.235 3.51 8.485a12.017 12.017 0 0 0 8.49 3.515h13.33Zm449.25-177.112c0-26.398-7-47.037-20.54-60.957-13.53-13.919-33.59-21.119-59.26-21.119h-63.93c-26.13 0-46.2 7.2-59.73 21.119-13.53 13.92-20.53 34.559-20.53 60.957v275.506a12 12 0 0 0 3.51 8.486 12.016 12.016 0 0 0 8.49 3.514h13.33c3.18 0 6.23-1.264 8.48-3.514a11.967 11.967 0 0 0 3.52-8.486V568.182c11.67 6.24 26.13 9.6 42.93 9.6h63.93c25.67 0 45.73-7.2 59.26-21.119 13.54-13.92 20.54-34.559 20.54-60.957V400.67Zm-37.34 95.036c0 15.839-3.26 26.878-9.79 33.598-6.54 6.72-17.27 10.08-32.67 10.08h-63.93c-14.47 0-25.2-3.36-32.2-9.6-7-6.24-10.73-15.839-10.73-29.759V400.67c0-15.839 3.26-26.878 10.26-33.598 6.54-6.72 17.27-10.08 32.67-10.08h63.93c15.4 0 26.13 3.36 32.67 10.08 6.53 6.72 9.79 17.759 9.79 33.598v95.036Zm317.32-95.036c0-26.398-7-47.037-20.53-60.957-13.53-13.919-33.6-21.119-59.26-21.119h-63.93c-26.14 0-46.2 7.2-59.73 21.119-13.54 13.92-20.54 34.559-20.54 60.957v95.036c0 26.398 7 47.037 20.54 60.957 13.53 13.919 33.59 21.119 59.73 21.119h63.93c25.66 0 45.73-7.2 59.26-21.119 13.53-13.92 20.53-34.559 20.53-60.957V400.67Zm-37.33 95.036c0 15.839-3.26 26.878-9.8 33.598-6.53 6.72-17.26 10.08-32.66 10.08h-63.93c-15.4 0-26.14-3.36-32.67-10.08-7-6.72-10.26-17.759-10.26-33.598V400.67c0-15.839 3.26-26.878 10.26-33.598 6.53-6.72 17.27-10.08 32.67-10.08h63.93c15.4 0 26.13 3.36 32.66 10.08 6.54 6.72 9.8 17.759 9.8 33.598v95.036Zm297.31-95.516c3.4 0 6.64-1.441 8.92-3.966a12.031 12.031 0 0 0 3.02-9.278c-2.03-20.128-8.75-36.213-19.93-47.713-13.53-13.919-33.6-20.639-59.26-20.639h-57.87c-23.8 0-42.93 6.24-57.39 19.199-14.47 12.96-21.47 31.199-21.47 54.238 0 23.039 7 40.798 21 52.797 13.53 12 33.13 18.239 58.8 18.239h58.79c14 0 24.74 3.36 32.2 10.56 7 7.199 10.74 17.279 10.74 29.758 0 24.479-14.47 36.479-42.94 36.479h-58.79c-15.4 0-26.14-3.36-32.67-10.56-4.97-5.115-8.05-12.734-9.24-23.067a11.983 11.983 0 0 0-11.9-10.517c-4.24-.014-9.1-.014-13.45-.014-3.4 0-6.64 1.441-8.91 3.966a11.956 11.956 0 0 0-3.02 9.278c2.02 20.128 8.74 36.213 19.92 47.713 13.54 13.919 33.6 21.119 59.27 21.119h58.79c24.74 0 44.34-6.72 58.8-19.679 14.47-12.96 21.47-31.679 21.47-55.198 0-24.478-7-43.678-21.47-57.597-14.46-13.439-34.06-20.159-58.8-20.159h-58.79c-28.47 0-42.47-11.039-42.47-33.118 0-23.519 14-35.519 41.53-35.519H3019c15.4 0 26.13 3.36 32.66 10.08 4.98 5.115 8.06 12.734 9.24 23.067.74 6.006 5.85 10.517 11.9 10.517 4.25.014 9.1.014 13.45.014Zm124.54 110.355c0-27.359 7.93-48.478 23.33-63.357-15.4-13.919-23.33-35.038-23.33-62.877V282.556c0-15.839-3.27-26.879-9.8-34.078-6.54-6.72-17.27-10.08-32.67-10.08h-17.86c-6.63 0-12-5.372-12-12V212c0-6.627 5.37-12 12-12h17.86c25.67 0 45.73 7.2 59.27 21.119 13.53 14.399 20.53 35.038 20.53 61.437v101.755c0 15.359 3.27 26.399 9.8 33.118 7 7.2 13.07 10.56 28.46 10.56h1.07c6.63 0 12 5.373 12 12v14.398c0 6.628-5.37 12-12 12h-1.07c-15.39 0-21.46 3.36-28.46 10.08-6.53 7.199-9.8 18.239-9.8 34.078V611.82c0 26.399-7 47.038-20.53 61.437-13.54 13.919-33.6 21.119-59.27 21.119h-17.86c-6.63 0-12-5.372-12-12v-14.398c0-6.627 5.37-12 12-12h17.86c15.4 0 26.13-3.36 32.67-10.08 6.53-7.199 9.8-18.239 9.8-34.078V510.545Z" style="fill:#0080ff;fill-rule:nonzero"/><path d="M2735.4 791h45.9c16.2 0 24.3-7.95 24.3-24v-8.1c0-10.35-3.6-17.55-10.65-21.3 6-3.75 9-10.65 9-20.4v-5.4c0-7.95-1.95-13.95-6-18.15-4.05-4.05-10.05-6.15-18-6.15h-44.55V791Zm6.6-49.8h39.6c6.15 0 10.65 1.35 13.35 4.2 2.7 2.85 4.05 7.35 4.05 13.5v8.1c0 6.15-1.35 10.5-4.2 13.35-2.85 2.85-7.35 4.2-13.5 4.2H2742V741.2Zm37.95-47.25c6.15 0 10.5 1.5 13.35 4.5 2.7 3 4.05 7.5 4.05 13.35v5.4c0 5.85-1.2 10.35-3.75 13.2-2.55 2.85-6.6 4.35-12.3 4.35H2742v-40.8h37.95ZM2833.2 680h-6.6v87c0 16.05 8.1 24 24.3 24h15.15v-6.45h-15.15c-6.15 0-10.65-1.35-13.5-4.2-2.85-2.85-4.2-7.2-4.2-13.35v-87Zm115.05 55.65c0-16.05-8.1-24.15-24.15-24.15h-21.75c-16.2 0-24.3 8.1-24.3 24.15V767c0 16.05 8.1 24 24.3 24h21.75c16.05 0 24.15-7.95 24.15-24v-31.35Zm-6.6 31.35c0 6.15-1.35 10.5-4.2 13.35-2.85 2.85-7.2 4.2-13.35 4.2h-21.75c-6.15 0-10.65-1.35-13.5-4.2-2.85-2.85-4.2-7.2-4.2-13.35v-31.35c0-6.15 1.35-10.65 4.2-13.5 2.85-2.85 7.35-4.2 13.5-4.2h21.75c6.15 0 10.5 1.35 13.35 4.2 2.85 2.85 4.2 7.35 4.2 13.5V767Zm40.8 58.5h32.85c16.05 0 24.15-8.1 24.15-24.15v-65.7c0-16.05-8.1-24.15-24.15-24.15h-21.75c-16.2 0-24.3 8.1-24.3 24.15V767c0 16.05 8.1 24 24.3 24h21.75c8.4 0 14.25-2.25 17.55-6.6v16.95c0 6.3-1.35 10.8-4.2 13.65-2.85 2.7-7.2 4.05-13.35 4.05h-32.85v6.45Zm50.4-58.35c0 6.15-1.35 10.5-4.2 13.2-2.85 2.85-7.35 4.2-13.35 4.2h-21.75c-6.15 0-10.65-1.35-13.5-4.2-2.85-2.85-4.2-7.2-4.2-13.35v-31.35c0-6.15 1.35-10.65 4.2-13.5 2.85-2.85 7.35-4.2 13.5-4.2h21.75c6.15 0 10.5 1.35 13.35 4.2 2.85 2.85 4.2 7.35 4.2 13.5v31.5ZM2100 739.525h55.35v6.45H2100zm79.35 0h55.35v6.45h-55.35zm79.35 0h55.35v6.45h-55.35zm79.35 0h55.35v6.45h-55.35zm79.35 0h55.35v6.45h-55.35zm79.35 0h55.35v6.45h-55.35zm79.35 0h55.35v6.45h-55.35zm79.35 0h55.35v6.45h-55.35zm419.15 0h55.35v6.45h-55.35zm79.35 0h55.35v6.45h-55.35zm79.35 0h55.35v6.45h-55.35zm79.35 0H3368v6.45h-55.35z" style="fill:#ff8000;fill-rule:nonzero"/></svg>
