<svg xmlns="http://www.w3.org/2000/svg" viewBox="0 0 1100 900"><path fill="#ff8000" d="M347.05 741.7h55.35v6.45h-55.35zm79.35 0h55.35v6.45H426.4zm80.85 48.3h45.9c16.2 0 24.3-7.95 24.3-24v-8.1c0-10.35-3.6-17.55-10.65-21.3 6-3.75 9-10.65 9-20.4v-5.4c0-7.95-1.95-13.95-6-18.15-4.05-4.05-10.05-6.15-18-6.15h-44.55V790Zm6.6-49.8h39.6c6.15 0 10.65 1.35 13.35 4.2 2.7 2.85 4.05 7.35 4.05 13.5v8.1c0 6.15-1.35 10.5-4.2 13.35-2.85 2.85-7.35 4.2-13.5 4.2h-39.3V740.2Zm37.95-47.25c6.15 0 10.5 1.5 13.35 4.5 2.7 3 4.05 7.5 4.05 13.35v5.4c0 5.85-1.2 10.35-3.75 13.2-2.55 2.85-6.6 4.35-12.3 4.35h-39.3v-40.8h37.95ZM605.05 679h-6.6v87c0 16.05 8.1 24 24.3 24h15.15v-6.45h-15.15c-6.15 0-10.65-1.35-13.5-4.2-2.85-2.85-4.2-7.2-4.2-13.35v-87Zm115.05 55.65c0-16.05-8.1-24.15-24.15-24.15H674.2c-16.2 0-24.3 8.1-24.3 24.15V766c0 16.05 8.1 24 24.3 24h21.75c16.05 0 24.15-7.95 24.15-24v-31.35ZM713.5 766c0 6.15-1.35 10.5-4.2 13.35-2.85 2.85-7.2 4.2-13.35 4.2H674.2c-6.15 0-10.65-1.35-13.5-4.2-2.85-2.85-4.2-7.2-4.2-13.35v-31.35c0-6.15 1.35-10.65 4.2-13.5 2.85-2.85 7.35-4.2 13.5-4.2h21.75c6.15 0 10.5 1.35 13.35 4.2 2.85 2.85 4.2 7.35 4.2 13.5V766Zm40.8 58.5h32.85c16.05 0 24.15-8.1 24.15-24.15v-65.7c0-16.05-8.1-24.15-24.15-24.15H765.4c-16.2 0-24.3 8.1-24.3 24.15V766c0 16.05 8.1 24 24.3 24h21.75c8.4 0 14.25-2.25 17.55-6.6v16.95c0 6.3-1.35 10.8-4.2 13.65-2.85 2.7-7.2 4.05-13.35 4.05H754.3v6.45Zm50.4-58.35c0 6.15-1.35 10.5-4.2 13.2-2.85 2.85-7.35 4.2-13.35 4.2H765.4c-6.15 0-10.65-1.35-13.5-4.2-2.85-2.85-4.2-7.2-4.2-13.35v-31.35c0-6.15 1.35-10.65 4.2-13.5 2.85-2.85 7.35-4.2 13.5-4.2h21.75c6.15 0 10.5 1.35 13.35 4.2 2.85 2.85 4.2 7.35 4.2 13.5v31.5Zm30.6-24.45h55.35v6.45H835.3zm79.35 0H970v6.45h-55.35z"/><path fill="#0080ff" d="M288.68 513.37c0-27.36-7.94-48.49-23.34-63.37 15.4-13.92 23.34-35.04 23.34-62.89V285.34c0-15.84 3.26-26.88 9.8-34.09 6.53-6.72 17.27-10.08 32.67-10.08h17.87a12 12 0 0 0 12-12v-14.4a12 12 0 0 0-12-12h-17.87c-25.67 0-45.74 7.2-59.27 21.12-13.54 14.4-20.54 35.05-20.54 61.45V387.1c0 15.36-3.27 26.4-9.8 33.13-7 7.2-13.07 10.56-28.47 10.56H212a12 12 0 0 0-12 12v14.4a12 12 0 0 0 12 12h1.07c15.4 0 21.47 3.36 28.47 10.08 6.53 7.2 9.8 18.25 9.8 34.09v101.3c0 26.4 7 47.04 20.54 61.44 13.53 13.92 33.6 21.12 59.27 21.12h17.87a12 12 0 0 0 12-12v-14.4a12 12 0 0 0-12-12h-17.87c-15.4 0-26.14-3.36-32.67-10.08-6.54-7.2-9.8-18.25-9.8-34.09v-101.3Zm268.24 67.25a12 12 0 0 0 12-12V403.47c0-15.84 3.27-26.88 10.27-33.6 6.54-6.72 17.27-10.08 32.67-10.08h29.4c15.4 0 26.14 3.36 33.15 10.08 6.53 6.72 9.8 17.76 9.8 33.6v165.15a12 12 0 0 0 12 12h13.33a12 12 0 0 0 12-12V403.47c0-26.4-7-47.04-20.53-60.96-14-13.93-34.07-21.13-59.74-21.13h-29.4c-27.54 0-48.08 7.68-61.61 23.53-13.54-15.85-33.6-23.53-61.15-23.53h-29.87c-26.13 0-46.2 7.2-59.74 21.13-13.53 13.92-20.53 34.56-20.53 60.96v165.15a12 12 0 0 0 12 12h13.34a12 12 0 0 0 12-12V403.47c0-15.84 3.26-26.88 10.26-33.6 6.54-6.72 17.27-10.08 32.67-10.08h29.87c14.94 0 25.67 3.36 32.68 10.08 6.53 6.72 9.8 17.76 9.8 33.6v165.15a12 12 0 0 0 12 12h13.33Zm254.91-67.25c0-27.36 7.94-48.49 23.34-63.37-15.4-13.92-23.34-35.04-23.34-62.89V285.34c0-15.84-3.27-26.88-9.8-34.09-6.53-6.72-17.27-10.08-32.67-10.08h-17.87a12 12 0 0 1-12-12v-14.4a12 12 0 0 1 12-12h17.87c25.67 0 45.74 7.2 59.27 21.12 13.54 14.4 20.54 35.05 20.54 61.45V387.1c0 15.36 3.27 26.4 9.8 33.13 7 7.2 13.07 10.56 28.47 10.56h1.07a12 12 0 0 1 8.49 3.51 12 12 0 0 1 3.51 8.49v14.4a12 12 0 0 1-3.51 8.49 12 12 0 0 1-8.49 3.51h-1.07c-15.4 0-21.47 3.36-28.47 10.08-6.53 7.2-9.8 18.25-9.8 34.09v101.3c0 26.4-7 47.04-20.54 61.44-13.53 13.92-33.6 21.12-59.27 21.12h-17.87a12 12 0 0 1-12-12v-14.4a12 12 0 0 1 12-12h17.87c15.4 0 26.14-3.36 32.67-10.08 6.53-7.2 9.8-18.25 9.8-34.09v-101.3Z"/></svg>
