<svg xmlns="http://www.w3.org/2000/svg" viewBox="0 0 1024 1024"><defs><radialGradient id="a" cx="0" cy="0" r="1" gradientTransform="matrix(0 1024 -1024 0 512 0)" gradientUnits="userSpaceOnUse"><stop offset="0" stop-color="#4e4e4e"/><stop offset="1" stop-color="#252525"/></radialGradient></defs><path fill="url(#a)" d="M512 1004c215.6 0 335.44 0 413.72-78.28S1004 727.6 1004 512s0-335.44-78.28-413.72S727.6 20 512 20 176.56 20 98.28 98.28 20 296.4 20 512s0 335.44 78.28 413.72S296.4 1004 512 1004Z"/><path fill="#ff8000" d="M330.4 801.2h55.35v6.45H330.4zm79.35 0h55.35v6.45h-55.35zm80.85 48.3h45.9c16.2 0 24.3-7.95 24.3-24v-8.1c0-10.35-3.6-17.55-10.65-21.3 6-3.75 9-10.65 9-20.4v-5.4c0-7.95-1.95-13.95-6-18.15-4.05-4.05-10.05-6.15-18-6.15H490.6v103.5Zm6.6-49.8h39.6c6.15 0 10.65 1.35 13.35 4.2 2.7 2.85 4.05 7.35 4.05 13.5v8.1c0 6.15-1.35 10.5-4.2 13.35-2.85 2.85-7.35 4.2-13.5 4.2h-39.3V799.7Zm37.95-47.25c6.15 0 10.5 1.5 13.35 4.5 2.7 3 4.05 7.5 4.05 13.35v5.4c0 5.85-1.2 10.35-3.75 13.2-2.55 2.85-6.6 4.35-12.3 4.35h-39.3v-40.8h37.95Zm53.25-13.95h-6.6v87c0 16.05 8.1 24 24.3 24h15.15v-6.45H606.1c-6.15 0-10.65-1.35-13.5-4.2-2.85-2.85-4.2-7.2-4.2-13.35v-87Zm115.05 55.65c0-16.05-8.1-24.15-24.15-24.15h-21.75c-16.2 0-24.3 8.1-24.3 24.15v31.35c0 16.05 8.1 24 24.3 24h21.75c16.05 0 24.15-7.95 24.15-24v-31.35Zm-6.6 31.35c0 6.15-1.35 10.5-4.2 13.35-2.85 2.85-7.2 4.2-13.35 4.2h-21.75c-6.15 0-10.65-1.35-13.5-4.2-2.85-2.85-4.2-7.2-4.2-13.35v-31.35c0-6.15 1.35-10.65 4.2-13.5 2.85-2.85 7.35-4.2 13.5-4.2h21.75c6.15 0 10.5 1.35 13.35 4.2 2.85 2.85 4.2 7.35 4.2 13.5v31.35Zm40.8 58.5h32.85c16.05 0 24.15-8.1 24.15-24.15v-65.7c0-16.05-8.1-24.15-24.15-24.15h-21.75c-16.2 0-24.3 8.1-24.3 24.15v31.35c0 16.05 8.1 24 24.3 24h21.75c8.4 0 14.25-2.25 17.55-6.6v16.95c0 6.3-1.35 10.8-4.2 13.65-2.85 2.7-7.2 4.05-13.35 4.05h-32.85V884Zm50.4-58.35c0 6.15-1.35 10.5-4.2 13.2-2.85 2.85-7.35 4.2-13.35 4.2h-21.75c-6.15 0-10.65-1.35-13.5-4.2-2.85-2.85-4.2-7.2-4.2-13.35v-31.35c0-6.15 1.35-10.65 4.2-13.5 2.85-2.85 7.35-4.2 13.5-4.2h21.75c6.15 0 10.5 1.35 13.35 4.2 2.85 2.85 4.2 7.35 4.2 13.5v31.5Zm30.6-24.45H874v6.45h-55.35z"/><path fill="#0080ff" d="M236.51 573.82c0-26.7-7.74-47.3-22.77-61.82 15.03-13.58 22.77-34.19 22.77-61.35v-99.29c0-15.45 3.19-26.22 9.56-33.25 6.38-6.55 16.85-9.83 31.87-9.83h17.14a12 12 0 0 0 12-12V282.8a12 12 0 0 0-12-12h-17.14c-25.04 0-44.62 7.03-57.82 20.6-13.2 14.06-20.03 34.2-20.03 59.95v99.29c0 14.99-3.2 25.76-9.57 32.31-6.83 7.03-12.75 10.3-27.77 10.3H162a12 12 0 0 0-12 12v13.47a12 12 0 0 0 12 12h.75c15.02 0 20.94 3.28 27.77 9.84 6.38 7.02 9.56 17.8 9.56 33.25v98.81c0 25.76 6.83 45.9 20.04 59.95 13.2 13.58 32.78 20.6 57.82 20.6h17.14a12 12 0 0 0 12-12v-13.46a12 12 0 0 0-12-12h-17.14c-15.02 0-25.5-3.28-31.87-9.83-6.37-7.03-9.56-17.8-9.56-33.26v-98.81Zm281.7 65.6a12 12 0 0 0 12-12v-160.8c0-15.46 3.19-26.23 10.02-32.8 6.37-6.55 16.85-9.83 31.87-9.83h28.69c15.02 0 25.5 3.28 32.32 9.84 6.38 6.56 9.57 17.33 9.57 32.78v160.81a12 12 0 0 0 3.51 8.49 12 12 0 0 0 8.49 3.51h12.42a12 12 0 0 0 12-12v-160.8c0-25.77-6.83-45.9-20.03-59.49-13.66-13.58-33.24-20.6-58.28-20.6H572.1c-26.86 0-46.9 7.5-60.1 22.95-13.2-15.46-32.78-22.95-59.65-22.95h-29.14c-25.5 0-45.07 7.02-58.28 20.6-13.2 13.59-20.03 33.72-20.03 59.48v160.81a12 12 0 0 0 12 12h12.42a12 12 0 0 0 8.49-3.51 12 12 0 0 0 3.51-8.49v-160.8c0-15.46 3.2-26.23 10.02-32.8 6.38-6.55 16.85-9.83 31.87-9.83h29.14c14.57 0 25.05 3.28 31.88 9.84 6.37 6.56 9.56 17.33 9.56 32.78v160.81a12 12 0 0 0 12 12h12.42Zm269.28-65.6c0-26.7 7.74-47.3 22.77-61.82-15.03-13.58-22.77-34.19-22.77-61.35v-99.29c0-15.45-3.19-26.22-9.56-33.25-6.38-6.55-16.85-9.83-31.87-9.83h-17.14a12 12 0 0 1-12-12V282.8a12 12 0 0 1 12-12h17.14c25.04 0 44.62 7.03 57.82 20.6 13.2 14.06 20.04 34.2 20.04 59.95v99.29c0 14.99 3.18 25.76 9.56 32.31 6.83 7.03 12.75 10.3 27.77 10.3h.75a12 12 0 0 1 12 12v13.47a12 12 0 0 1-12 12h-.75c-15.02 0-20.94 3.28-27.77 9.84-6.38 7.02-9.57 17.8-9.57 33.25v98.81c0 25.76-6.82 45.9-20.03 59.95-13.2 13.58-32.78 20.6-57.82 20.6h-17.14a12 12 0 0 1-12-12v-13.46a12 12 0 0 1 12-12h17.14c15.02 0 25.5-3.28 31.87-9.83 6.37-7.03 9.56-17.8 9.56-33.26v-98.81Z"/></svg>
