<svg xmlns="http://www.w3.org/2000/svg" viewBox="0 0 1024 1024"><defs><radialGradient id="a" cx="0" cy="0" r="1" gradientTransform="matrix(0 1024 -1024 0 512 0)" gradientUnits="userSpaceOnUse"><stop offset="0" stop-color="#4e4e4e"/><stop offset="1" stop-color="#252525"/></radialGradient></defs><path fill="url(#a)" d="M512 1004c215.6 0 335.44 0 413.72-78.28S1004 727.6 1004 512s0-335.44-78.28-413.72S727.6 20 512 20 176.56 20 98.28 98.28 20 296.4 20 512s0 335.44 78.28 413.72S296.4 1004 512 1004Z"/><path fill="#ff8000" d="M365.35 801.2h55.35v6.45h-55.35zm70.35-48.75h32.55v97.2h6.6v-97.2h32.55V746h-71.7v6.45ZM517.45 791c.45-4.95 1.95-8.55 4.65-10.95 2.7-2.4 7.05-3.6 12.9-3.6h19.8c6.15 0 10.5 1.35 13.35 4.2 2.85 2.85 4.2 7.35 4.2 13.5v12h-39.3c-4.65 0-8.7.75-12.15 2.1a16.43 16.43 0 0 0-7.5 5.55c-1.65 2.4-2.7 4.8-3.45 7.05s-1.05 4.65-1.05 7.05c0 5.55 1.95 10.65 5.7 15s9.9 6.6 18.45 6.6h21.75c16.05 0 24.15-7.95 24.15-24v-31.35c0-16.05-8.1-24.15-24.15-24.15H535c-15 0-23.1 7.05-24.15 21h6.6Zm37.35 52.2h-21.75c-5.7 0-10.05-1.35-13.05-3.9s-4.5-6.45-4.5-11.4c0-10.35 5.85-15.45 17.55-15.45h39.3v13.05c0 6.15-1.35 10.5-4.2 13.35-2.85 2.85-7.2 4.35-13.35 4.35Zm53.25-104.7h-6.6v87c0 16.05 8.1 24 24.3 24h15.15v-6.45h-15.15c-6.15 0-10.65-1.35-13.5-4.2-2.85-2.85-4.2-7.2-4.2-13.35v-87Zm104.1 111h8.25l-35.1-47.4 32.25-32.1h-9.45l-42.6 42.6v-74.1h-6.6v111h6.6v-27.6l15.15-15.15 31.5 42.75ZM796 790.85c-.9-13.95-8.85-20.85-23.85-20.85H752.5c-7.2 0-12.9 1.8-17.25 5.55s-6.6 9-6.6 15.75c0 6.6 2.1 11.55 6.3 15 4.2 3.45 10.2 5.25 17.85 5.25h19.95c5.7 0 10.05 1.5 13.05 4.35 3 2.85 4.5 6.9 4.5 12 0 4.95-1.5 8.7-4.35 11.25-3 2.7-7.35 4.05-13.2 4.05H752.8c-5.55 0-9.75-1.2-12.45-3.6-2.7-2.25-4.35-6-4.8-11.1h-6.75c1.05 13.95 9.15 21 24 21h19.95c7.35 0 13.35-1.95 17.7-5.7s6.45-9.15 6.45-16.05c0-7.2-2.1-12.75-6.45-16.8-4.35-3.9-10.35-5.85-17.7-5.85H752.8c-6 0-10.35-1.05-13.2-3.3-2.85-2.25-4.35-5.7-4.35-10.5 0-9.9 5.7-14.85 17.25-14.85h19.65c5.55 0 9.75 1.2 12.6 3.45 2.7 2.25 4.2 6 4.65 10.95h6.6Zm22.65 10.35H874v6.45h-55.35z"/><path fill="#0080ff" d="M236.51 573.82c0-26.7-7.74-47.3-22.77-61.82 15.03-13.58 22.77-34.19 22.77-61.35v-99.29c0-15.45 3.19-26.22 9.56-33.25 6.38-6.55 16.85-9.83 31.87-9.83h17.14a12 12 0 0 0 12-12V282.8a12 12 0 0 0-12-12h-17.14c-25.04 0-44.62 7.03-57.82 20.6-13.2 14.06-20.03 34.2-20.03 59.95v99.29c0 14.99-3.2 25.76-9.57 32.31-6.83 7.03-12.75 10.3-27.77 10.3H162a12 12 0 0 0-12 12v13.47a12 12 0 0 0 12 12h.75c15.02 0 20.94 3.28 27.77 9.84 6.38 7.02 9.56 17.8 9.56 33.25v98.81c0 25.76 6.83 45.9 20.04 59.95 13.2 13.58 32.78 20.6 57.82 20.6h17.14a12 12 0 0 0 12-12v-13.46a12 12 0 0 0-12-12h-17.14c-15.02 0-25.5-3.28-31.87-9.83-6.37-7.03-9.56-17.8-9.56-33.26v-98.81Zm281.7 65.6a12 12 0 0 0 12-12v-160.8c0-15.46 3.19-26.23 10.02-32.8 6.37-6.55 16.85-9.83 31.87-9.83h28.69c15.02 0 25.5 3.28 32.32 9.84 6.38 6.56 9.57 17.33 9.57 32.78v160.81a12 12 0 0 0 3.51 8.49 12 12 0 0 0 8.49 3.51h12.42a12 12 0 0 0 12-12v-160.8c0-25.77-6.83-45.9-20.03-59.49-13.66-13.58-33.24-20.6-58.28-20.6H572.1c-26.86 0-46.9 7.5-60.1 22.95-13.2-15.46-32.78-22.95-59.65-22.95h-29.14c-25.5 0-45.07 7.02-58.28 20.6-13.2 13.59-20.03 33.72-20.03 59.48v160.81a12 12 0 0 0 12 12h12.42a12 12 0 0 0 8.49-3.51 12 12 0 0 0 3.51-8.49v-160.8c0-15.46 3.2-26.23 10.02-32.8 6.38-6.55 16.85-9.83 31.87-9.83h29.14c14.57 0 25.05 3.28 31.88 9.84 6.37 6.56 9.56 17.33 9.56 32.78v160.81a12 12 0 0 0 12 12h12.42Zm269.28-65.6c0-26.7 7.74-47.3 22.77-61.82-15.03-13.58-22.77-34.19-22.77-61.35v-99.29c0-15.45-3.19-26.22-9.56-33.25-6.38-6.55-16.85-9.83-31.87-9.83h-17.14a12 12 0 0 1-12-12V282.8a12 12 0 0 1 12-12h17.14c25.04 0 44.62 7.03 57.82 20.6 13.2 14.06 20.04 34.2 20.04 59.95v99.29c0 14.99 3.18 25.76 9.56 32.31 6.83 7.03 12.75 10.3 27.77 10.3h.75a12 12 0 0 1 12 12v13.47a12 12 0 0 1-12 12h-.75c-15.02 0-20.94 3.28-27.77 9.84-6.38 7.02-9.57 17.8-9.57 33.25v98.81c0 25.76-6.82 45.9-20.03 59.95-13.2 13.58-32.78 20.6-57.82 20.6h-17.14a12 12 0 0 1-12-12v-13.46a12 12 0 0 1 12-12h17.14c15.02 0 25.5-3.28 31.87-9.83 6.37-7.03 9.56-17.8 9.56-33.26v-98.81Z"/></svg>
