<svg xmlns="http://www.w3.org/2000/svg" viewBox="0 0 1024 1024"><defs><radialGradient id="a" cx="0" cy="0" r="1" gradientTransform="matrix(0 1024 -1024 0 512 0)" gradientUnits="userSpaceOnUse"><stop offset="0" stop-color="#4e4e4e"/><stop offset="1" stop-color="#252525"/></radialGradient></defs><path fill="url(#a)" d="M512 1004c215.6 0 335.44 0 413.72-78.28S1004 727.6 1004 512s0-335.44-78.28-413.72S727.6 20 512 20 176.56 20 98.28 98.28 20 296.4 20 512s0 335.44 78.28 413.72S296.4 1004 512 1004Z"/><path fill="#ff8000" d="M347.95 801.2h55.35v6.45h-55.35zm79.35 0h55.35v6.45H427.3zm80.85 48.3h6.6v-40.35h39.3c16.2 0 24.3-8.1 24.3-24.15v-14.85c0-16.05-8.1-24.15-24.3-24.15h-45.9v103.5Zm45.9-97.05c6.15 0 10.65 1.35 13.5 4.2 2.85 2.85 4.2 7.35 4.2 13.5V785c0 6.15-1.35 10.65-4.2 13.5-2.85 2.85-7.35 4.2-13.5 4.2h-39.3v-50.25h39.3Zm31.05 97.05h44.55v-6.3H606.7v-49.05c0-6.15 1.35-10.65 4.2-13.5 2.85-2.85 7.2-4.2 13.35-4.2h15.15V770h-15.15c-7.95 0-13.95 2.1-18 6.15-4.05 4.05-6.15 10.05-6.15 18v49.05h-15v6.3Zm141-55.35c0-16.05-8.1-24.15-24.15-24.15H680.2c-16.2 0-24.3 8.1-24.3 24.15v31.35c0 16.05 8.1 24 24.3 24h21.75c16.05 0 24.15-7.95 24.15-24v-31.35Zm-6.6 31.35c0 6.15-1.35 10.5-4.2 13.35-2.85 2.85-7.2 4.2-13.35 4.2H680.2c-6.15 0-10.65-1.35-13.5-4.2-2.85-2.85-4.2-7.2-4.2-13.35v-31.35c0-6.15 1.35-10.65 4.2-13.5 2.85-2.85 7.35-4.2 13.5-4.2h21.75c6.15 0 10.5 1.35 13.35 4.2 2.85 2.85 4.2 7.35 4.2 13.5v31.35Zm37.05 34.35c0 6.3-1.35 10.8-4.2 13.65-2.85 2.7-7.2 4.05-13.35 4.05h-15.15V884H739c16.05 0 24.15-8.1 24.15-24.15V770H738.4v6.3h18.15v83.55Zm7.8-111.6c0-2.1-.3-3.45-.75-4.2-.6-.6-1.95-.9-3.9-.9-2.1 0-3.45.3-3.9.9-.6.75-.9 2.1-.9 4.2 0 1.95.3 3.15.75 3.6.45.6 1.8.9 4.05.9 2.1 0 3.45-.3 3.9-.9.45-.45.75-1.65.75-3.6Zm20.25 94.8c0 1.8.6 3.3 1.95 4.5a5.7 5.7 0 0 0 4.5 1.95c1.8 0 3.3-.6 4.65-1.95a5.7 5.7 0 0 0 1.95-4.5c0-1.8-.6-3.3-1.95-4.65a6.24 6.24 0 0 0-4.65-1.95c-1.8 0-3.3.6-4.5 1.95a6.24 6.24 0 0 0-1.95 4.65Zm34.05-41.85H874v6.45h-55.35z"/><path fill="#0080ff" d="M236.51 573.82c0-26.7-7.74-47.3-22.77-61.82 15.03-13.58 22.77-34.19 22.77-61.35v-99.29c0-15.45 3.19-26.22 9.56-33.25 6.38-6.55 16.85-9.83 31.87-9.83h17.14a12 12 0 0 0 12-12V282.8a12 12 0 0 0-12-12h-17.14c-25.04 0-44.62 7.03-57.82 20.6-13.2 14.06-20.03 34.2-20.03 59.95v99.29c0 14.99-3.2 25.76-9.57 32.31-6.83 7.03-12.75 10.3-27.77 10.3H162a12 12 0 0 0-12 12v13.47a12 12 0 0 0 12 12h.75c15.02 0 20.94 3.28 27.77 9.84 6.38 7.02 9.56 17.8 9.56 33.25v98.81c0 25.76 6.83 45.9 20.04 59.95 13.2 13.58 32.78 20.6 57.82 20.6h17.14a12 12 0 0 0 12-12v-13.46a12 12 0 0 0-12-12h-17.14c-15.02 0-25.5-3.28-31.87-9.83-6.37-7.03-9.56-17.8-9.56-33.26v-98.81Zm281.7 65.6a12 12 0 0 0 12-12v-160.8c0-15.46 3.19-26.23 10.02-32.8 6.37-6.55 16.85-9.83 31.87-9.83h28.69c15.02 0 25.5 3.28 32.32 9.84 6.38 6.56 9.57 17.33 9.57 32.78v160.81a12 12 0 0 0 3.51 8.49 12 12 0 0 0 8.49 3.51h12.42a12 12 0 0 0 12-12v-160.8c0-25.77-6.83-45.9-20.03-59.49-13.66-13.58-33.24-20.6-58.28-20.6H572.1c-26.86 0-46.9 7.5-60.1 22.95-13.2-15.46-32.78-22.95-59.65-22.95h-29.14c-25.5 0-45.07 7.02-58.28 20.6-13.2 13.59-20.03 33.72-20.03 59.48v160.81a12 12 0 0 0 12 12h12.42a12 12 0 0 0 8.49-3.51 12 12 0 0 0 3.51-8.49v-160.8c0-15.46 3.2-26.23 10.02-32.8 6.38-6.55 16.85-9.83 31.87-9.83h29.14c14.57 0 25.05 3.28 31.88 9.84 6.37 6.56 9.56 17.33 9.56 32.78v160.81a12 12 0 0 0 12 12h12.42Zm269.28-65.6c0-26.7 7.74-47.3 22.77-61.82-15.03-13.58-22.77-34.19-22.77-61.35v-99.29c0-15.45-3.19-26.22-9.56-33.25-6.38-6.55-16.85-9.83-31.87-9.83h-17.14a12 12 0 0 1-12-12V282.8a12 12 0 0 1 12-12h17.14c25.04 0 44.62 7.03 57.82 20.6 13.2 14.06 20.04 34.2 20.04 59.95v99.29c0 14.99 3.18 25.76 9.56 32.31 6.83 7.03 12.75 10.3 27.77 10.3h.75a12 12 0 0 1 12 12v13.47a12 12 0 0 1-12 12h-.75c-15.02 0-20.94 3.28-27.77 9.84-6.38 7.02-9.57 17.8-9.57 33.25v98.81c0 25.76-6.82 45.9-20.03 59.95-13.2 13.58-32.78 20.6-57.82 20.6h-17.14a12 12 0 0 1-12-12v-13.46a12 12 0 0 1 12-12h17.14c15.02 0 25.5-3.28 31.87-9.83 6.37-7.03 9.56-17.8 9.56-33.26v-98.81Z"/></svg>
