<svg xmlns="http://www.w3.org/2000/svg" viewBox="0 0 1024 1024"><defs><radialGradient id="a" cx="0" cy="0" r="1" gradientTransform="matrix(0 1024 -1023.97 0 512.02 0)" gradientUnits="userSpaceOnUse"><stop offset="0" stop-color="#4e4e4e"/><stop offset="1" stop-color="#252525"/></radialGradient></defs><path fill="url(#a)" d="M512.02 1004c215.58 0 335.43 0 413.7-78.28C1004 847.44 1004 727.6 1004 512s0-335.44-78.28-413.72S727.6 20 512.02 20C296.43 20 176.59 20 98.3 98.28 20.03 176.56 20.03 296.4 20.03 512s0 335.44 78.28 413.72C176.59 1004 296.43 1004 512 1004Z"/><path fill="#0080ff" d="M236.54 573.82c0-26.7-7.74-47.3-22.77-61.82 15.03-13.58 22.77-34.19 22.77-61.35v-99.29c0-15.45 3.18-26.22 9.56-33.25 6.37-6.55 16.84-9.83 31.87-9.83h17.14a12 12 0 0 0 12-12V282.8a12 12 0 0 0-3.52-8.48 12 12 0 0 0-8.48-3.52h-17.14c-25.04 0-44.62 7.03-57.83 20.6-13.2 14.06-20.03 34.2-20.03 59.95v99.29c0 14.99-3.19 25.76-9.56 32.31-6.83 7.03-12.75 10.3-27.77 10.3h-.75a12 12 0 0 0-12 12v13.47a12 12 0 0 0 12 12h.75c15.02 0 20.94 3.28 27.77 9.84 6.37 7.02 9.56 17.8 9.56 33.25v98.81c0 25.76 6.83 45.9 20.04 59.95 13.2 13.58 32.78 20.6 57.82 20.6h17.14a12 12 0 0 0 8.48-3.5 12 12 0 0 0 3.52-8.5v-13.46a12 12 0 0 0-12-12h-17.14c-15.03 0-25.5-3.28-31.87-9.83-6.38-7.03-9.56-17.8-9.56-33.26v-98.81Zm281.69 65.6a12 12 0 0 0 12-12v-160.8c0-15.46 3.19-26.23 10.02-32.8 6.37-6.55 16.84-9.83 31.87-9.83h28.68c15.03 0 25.5 3.28 32.33 9.84 6.37 6.56 9.56 17.33 9.56 32.78v160.81a12 12 0 0 0 12 12h12.42a12 12 0 0 0 12-12v-160.8c0-25.77-6.83-45.9-20.03-59.49-13.66-13.58-33.24-20.6-58.28-20.6h-28.68c-26.87 0-46.9 7.5-60.1 22.95-13.2-15.46-32.79-22.95-59.65-22.95h-29.14c-25.5 0-45.07 7.02-58.28 20.6-13.2 13.59-20.03 33.72-20.03 59.48v160.81a12 12 0 0 0 12 12h12.42a12 12 0 0 0 8.5-3.51 12 12 0 0 0 3.5-8.49v-160.8c0-15.46 3.2-26.23 10.02-32.8 6.38-6.55 16.85-9.83 31.87-9.83h29.14c14.57 0 25.04 3.28 31.87 9.84 6.38 6.56 9.56 17.33 9.56 32.78v160.81a12 12 0 0 0 3.52 8.49 12 12 0 0 0 8.48 3.51h12.43Zm269.27-65.6c0-26.7 7.74-47.3 22.76-61.82-15.02-13.58-22.76-34.19-22.76-61.35v-99.29c0-15.45-3.19-26.22-9.56-33.25-6.38-6.55-16.85-9.83-31.88-9.83h-17.13a12 12 0 0 1-12-12V282.8a12 12 0 0 1 12-12h17.14c25.04 0 44.62 7.03 57.82 20.6 13.2 14.06 20.03 34.2 20.03 59.95v99.29c0 14.99 3.19 25.76 9.56 32.31 6.83 7.03 12.75 10.3 27.78 10.3h.75a12 12 0 0 1 12 12v13.47a12 12 0 0 1-12 12h-.75c-15.03 0-20.95 3.28-27.78 9.84-6.37 7.02-9.56 17.8-9.56 33.25v98.81c0 25.76-6.83 45.9-20.03 59.95-13.2 13.58-32.78 20.6-57.82 20.6h-17.14a12 12 0 0 1-12-12v-13.46a12 12 0 0 1 12-12h17.14c15.02 0 25.5-3.28 31.87-9.83 6.37-7.03 9.56-17.8 9.56-33.26v-98.81Z"/></svg>
