<?xml version="1.0" encoding="UTF-8" standalone="no"?>
<!DOCTYPE svg PUBLIC "-//W3C//DTD SVG 1.1//EN" "http://www.w3.org/Graphics/SVG/1.1/DTD/svg11.dtd">
<svg width="100%" height="100%" viewBox="0 0 1024 1024" version="1.1" xmlns="http://www.w3.org/2000/svg" xmlns:xlink="http://www.w3.org/1999/xlink" xml:space="preserve" xmlns:serif="http://www.serif.com/" style="fill-rule:evenodd;clip-rule:evenodd;stroke-linejoin:round;stroke-miterlimit:2;">
    <rect id="icon-mask-mono-talks" x="0" y="0" width="1024" height="1024" style="fill:none;"/>
    <clipPath id="_clip1">
        <rect id="icon-mask-mono-talks1" serif:id="icon-mask-mono-talks" x="0" y="0" width="1024" height="1024"/>
    </clipPath>
    <g clip-path="url(#_clip1)">
        <rect x="0" y="0" width="1024" height="1024" style="fill:#0080ff;"/>
        <path d="M465.124,546.179c5.145,5.187 12.157,8.108 19.463,8.108c7.307,0 14.318,-2.921 19.463,-8.108l109.652,-109.652c5.16,-5.16 8.061,-12.166 8.061,-19.463c0,-15.1 -12.425,-27.525 -27.525,-27.525c-7.297,0 -14.303,2.902 -19.463,8.062l-90.188,90.462l-35.362,-35.636c-5.16,-5.16 -12.166,-8.062 -19.463,-8.062c-15.1,-0 -27.525,12.425 -27.525,27.525c-0,7.297 2.901,14.303 8.061,19.463l54.826,54.826Zm293.591,62.775l-27.412,-0l-0,-274.128l27.412,-0c15.039,-0 27.413,-12.375 27.413,-27.413c0,-15.038 -12.374,-27.413 -27.413,-27.413l-493.43,0c-15.039,0 -27.413,12.375 -27.413,27.413c-0,15.038 12.374,27.413 27.413,27.413l27.412,-0l0,274.128l-27.412,-0c-15.039,-0 -27.413,12.375 -27.413,27.413c-0,15.038 12.374,27.413 27.413,27.413l219.302,-0l0,31.524l-124.728,82.239c-8.064,4.991 -12.985,13.825 -12.985,23.308c0,15.039 12.375,27.413 27.413,27.413c0.216,0 0.433,-0.002 0.649,-0.007c5.388,0.061 10.663,-1.569 15.077,-4.661l94.574,-62.501l0,39.749c0,15.038 12.375,27.413 27.413,27.413c15.038,-0 27.413,-12.375 27.413,-27.413l-0,-39.749l94.574,62.501c4.414,3.092 9.689,4.722 15.077,4.661c14.958,-0.116 27.201,-12.454 27.201,-27.412c0,-9.122 -4.553,-17.667 -12.124,-22.754l-124.728,-82.238l-0,-32.073l219.302,-0c15.039,-0 27.413,-12.375 27.413,-27.413c0,-15.038 -12.374,-27.413 -27.413,-27.413m-82.238,-0l-328.954,-0l0,-274.128l328.954,-0l-0,274.128Z" style="fill:#fff;fill-rule:nonzero;"/>
    </g>
</svg>
