<?xml version="1.0" encoding="UTF-8" standalone="no"?>
<!DOCTYPE svg PUBLIC "-//W3C//DTD SVG 1.1//EN" "http://www.w3.org/Graphics/SVG/1.1/DTD/svg11.dtd">
<svg width="100%" height="100%" viewBox="0 0 1024 1024" version="1.1" xmlns="http://www.w3.org/2000/svg" xmlns:xlink="http://www.w3.org/1999/xlink" xml:space="preserve" xmlns:serif="http://www.serif.com/" style="fill-rule:evenodd;clip-rule:evenodd;stroke-linejoin:round;stroke-miterlimit:2;">
    <rect id="icon-trans-proj" x="0" y="0" width="1024" height="1024" style="fill:none;"/>
    <g id="icon-trans-proj1" serif:id="icon-trans-proj">
        <path d="M749.396,652.308l-149.212,-255.792l0,-138.116l29.2,-0c16.019,-0 29.2,-13.181 29.2,-29.2c0,-16.019 -13.181,-29.2 -29.2,-29.2l-233.6,-0c-16.019,-0 -29.2,13.181 -29.2,29.2c0,16.019 13.181,29.2 29.2,29.2l29.2,-0l0,138.116l-149.212,255.792c-7.797,13.385 -11.906,28.602 -11.906,44.092c0,48.031 39.503,87.564 87.534,87.6l321.2,-0c48.031,-0.036 87.534,-39.569 87.534,-87.6c-0,-15.49 -4.109,-30.707 -11.906,-44.092l1.168,-0Zm-270.1,-233.6c2.575,-4.336 3.984,-9.266 4.088,-14.308l0,-146l58.4,-0l0,146c0.053,5.141 1.464,10.178 4.088,14.6l25.112,43.8l-116.8,-0l25.112,-44.092Zm219.584,292c-5.178,8.969 -14.755,14.537 -25.112,14.6l-321.2,-0c-10.357,-0.063 -19.934,-5.631 -25.112,-14.6c-5.21,-9.023 -5.21,-20.177 0,-29.2l92.564,-160.308l185.42,-0l93.44,160.6c5.21,9.023 5.21,20.177 0,29.2l0,-0.292Zm-244.696,-131.108c-16.019,-0 -29.2,13.181 -29.2,29.2c0,16.019 13.181,29.2 29.2,29.2c16.019,-0 29.2,-13.181 29.2,-29.2c0,-16.019 -13.181,-29.2 -29.2,-29.2m116.8,29.2c-16.019,-0 -29.2,13.181 -29.2,29.2c0,16.019 13.181,29.2 29.2,29.2c16.019,-0 29.2,-13.181 29.2,-29.2c0,-16.019 -13.181,-29.2 -29.2,-29.2" style="fill:#0080ff;fill-rule:nonzero;"/>
    </g>
</svg>
