<?xml version="1.0" encoding="UTF-8" standalone="no"?>
<!DOCTYPE svg PUBLIC "-//W3C//DTD SVG 1.1//EN" "http://www.w3.org/Graphics/SVG/1.1/DTD/svg11.dtd">
<svg width="100%" height="100%" viewBox="0 0 1024 1024" version="1.1" xmlns="http://www.w3.org/2000/svg" xmlns:xlink="http://www.w3.org/1999/xlink" xml:space="preserve" xmlns:serif="http://www.serif.com/" style="fill-rule:evenodd;clip-rule:evenodd;stroke-linejoin:round;stroke-miterlimit:2;">
    <rect id="icon-mono-blog" x="0" y="0" width="1024" height="1024" style="fill:none;"/>
    <g id="icon-mono-blog1" serif:id="icon-mono-blog">
        <path d="M786.987,644.522l-68.091,-68.09c-5.281,-5.324 -12.477,-8.323 -19.976,-8.323c-7.5,0 -14.696,2.999 -19.977,8.323l-100.729,100.729c-5.264,5.307 -8.202,12.501 -8.159,19.976l-0,68.09c-0,15.436 12.701,28.137 28.136,28.137l68.09,-0c7.476,0.043 14.669,-2.895 19.977,-8.16l100.729,-100.728c5.324,-5.281 8.322,-12.478 8.322,-19.977c0,-7.499 -2.998,-14.696 -8.322,-19.977m-132.523,92.569l-28.136,0l-0,-28.136l72.592,-72.592l28.136,28.136l-72.592,72.592Zm-168.818,0l-112.546,0c-15.435,0 -28.136,-12.701 -28.136,-28.136l-0,-393.91c-0,-15.435 12.701,-28.137 28.136,-28.137l140.682,0l0,84.41c0,46.305 38.104,84.409 84.409,84.409l84.409,-0l0,28.136c0,15.436 12.702,28.137 28.137,28.137c15.435,-0 28.136,-12.701 28.136,-28.137l0,-57.961c-0.293,-2.584 -0.859,-5.131 -1.688,-7.596l0,-2.533c-1.353,-2.893 -3.157,-5.552 -5.346,-7.878l-168.818,-168.818c-2.326,-2.189 -4.985,-3.994 -7.878,-5.346c-0.84,-0.12 -1.693,-0.12 -2.533,-0l-9.003,-3.095l-170.507,-0c-46.306,-0 -84.409,38.103 -84.409,84.409l-0,393.91c-0,46.305 38.103,84.409 84.409,84.409l112.546,-0c15.435,-0 28.136,-12.701 28.136,-28.137c0,-15.435 -12.701,-28.136 -28.136,-28.136m84.409,-410.51l72.873,72.873l-44.737,0c-15.435,0 -28.136,-12.701 -28.136,-28.136l-0,-44.737Zm-140.682,241.692l168.818,-0c15.435,-0 28.137,-12.702 28.137,-28.137c-0,-15.435 -12.702,-28.136 -28.137,-28.136l-168.818,-0c-15.435,-0 -28.137,12.701 -28.137,28.136c0,15.435 12.702,28.137 28.137,28.137m-0,-112.546l28.136,-0c15.435,-0 28.137,-12.701 28.137,-28.136c-0,-15.436 -12.702,-28.137 -28.137,-28.137l-28.136,0c-15.435,0 -28.137,12.701 -28.137,28.137c0,15.435 12.702,28.136 28.137,28.136m56.273,168.818l-56.273,0c-15.435,0 -28.137,12.702 -28.137,28.137c0,15.435 12.702,28.136 28.137,28.136l56.273,0c15.435,0 28.136,-12.701 28.136,-28.136c0,-15.435 -12.701,-28.137 -28.136,-28.137" style="fill-rule:nonzero;"/>
    </g>
</svg>
