<svg width="100" height="100" viewBox="0 0 100 100" xmlns="http://www.w3.org/2000/svg">
	<path d="M82.94,6.733L9.336,6.733L9.336,34.5L34.79,34.5L34.79,94.465L64.526,94.465L64.526,34.5L88.068,34.5L88.068,11.109L82.94,6.733ZM85.513,32.32L61.971,32.32L61.971,92.285L37.346,92.285L37.346,32.32L11.892,32.32L11.892,8.913L81.911,8.913L85.513,11.988L85.513,32.32Z"/>

	<path d="M55.188,22.161L67.766,22.161C71.16,22.161 75.275,22.675 76.612,26.275L76.92,26.275L80.212,14.047L79.903,14.047C78.566,14.665 76.92,14.767 75.172,14.767L23.602,14.767C22.264,14.561 20.927,14.561 19.693,14.047L19.384,14.047L15.784,26.275L16.093,26.275C19.281,23.292 23.91,22.161 28.333,22.161L44.709,22.161L44.709,74.579C44.709,79.208 45.326,86.717 40.183,88.671L40.183,88.98L60.537,88.98L60.537,88.671C55.085,85.483 55.188,81.471 55.188,75.608L55.188,22.161Z" fill="white" opacity="0.8"/>

	<path d="M80.37,20.621C80.17,20.621 79.488,20.399 78.325,19.956C77.161,19.512 76.081,19.291 75.083,19.291C71.892,19.291 68.268,19.492 64.212,19.895C60.156,20.298 56.798,20.862 54.138,21.588C54.338,25.456 54.52,31.56 54.687,39.901C54.853,48.242 54.936,57.006 54.936,66.192C54.936,70.061 54.886,74.372 54.786,79.127C54.687,83.881 54.537,86.823 54.338,87.951C54.205,88.837 53.756,89.563 52.991,90.127C52.226,90.691 51.445,90.973 50.647,90.973C50.182,90.973 49.783,90.731 49.45,90.248C49.118,89.764 48.952,89.2 48.952,88.555L49.051,84.325C49.45,78.039 49.65,70.302 49.65,61.116C49.65,54.507 49.583,46.952 49.45,38.45C49.317,29.948 49.184,24.69 49.051,22.676C35.753,24.448 26.876,26.1 22.421,27.632C21.623,27.954 20.725,28.115 19.728,28.115C18.531,28.115 17.367,27.591 16.237,26.544C15.107,25.496 14.541,24.368 14.541,23.159C14.541,22.353 14.741,21.769 15.14,21.406C15.539,21.044 16.038,20.862 16.636,20.862C20.426,20.621 23.618,20.379 26.211,20.137C32.129,19.492 39.576,18.485 48.553,17.115C48.553,14.617 48.602,12.844 48.702,11.796C48.802,10.749 49.018,10.225 49.351,10.225C50.614,10.225 51.744,10.829 52.742,12.038C52.941,12.28 53.107,12.904 53.24,13.912C53.373,14.919 53.44,15.584 53.44,15.906C54.903,15.826 57.296,15.423 60.621,14.697C67.802,13.327 72.723,12.642 75.383,12.642C78.574,12.642 80.702,13.126 81.766,14.093C82.497,14.738 82.863,15.906 82.863,17.599C82.863,18.243 82.63,18.908 82.165,19.593C81.699,20.278 81.101,20.621 80.37,20.621Z" opacity="0.1"/>
</svg>
