<svg xmlns="http://www.w3.org/2000/svg" xml:space="preserve" style="fill-rule:evenodd;clip-rule:evenodd;stroke-linejoin:round;stroke-miterlimit:2" viewBox="0 0 2000 900"><path d="M0 0h2000v900H0z" style="fill:none"/><path d="M288.678 513.368c0-27.363-7.934-48.486-23.336-63.368 15.402-13.922 23.336-35.045 23.336-62.888V285.339c0-15.842 3.267-26.884 9.801-34.085 6.535-6.721 17.269-10.081 32.671-10.081h17.871c6.627 0 12-5.373 12-12v-14.405c0-6.627-5.373-12-12-12H331.15c-25.67 0-45.739 7.201-59.274 21.123-13.535 14.402-20.536 35.044-20.536 61.448v101.773c0 15.362-3.267 26.403-9.801 33.124-7.001 7.201-13.069 10.562-28.471 10.562H212a11.999 11.999 0 0 0-12 12v14.404a12 12 0 0 0 12 12h1.068c15.402 0 21.47 3.361 28.471 10.082 6.534 7.201 9.801 18.242 9.801 34.084v101.293c0 26.404 7.001 47.046 20.536 61.448 13.535 13.922 33.604 21.123 59.274 21.123h17.871c6.627 0 12-5.373 12-12v-14.405c0-6.627-5.373-12-12-12H331.15c-15.402 0-26.136-3.36-32.671-10.081-6.534-7.201-9.801-18.243-9.801-34.085V513.368Zm296.77 67.249c6.627 0 12-5.373 12-12V403.474c0-15.842 3.267-26.883 10.268-33.604 6.534-6.721 17.269-10.082 32.671-10.082h29.404c15.402 0 26.136 3.361 33.137 10.082 6.535 6.721 9.802 17.762 9.802 33.604v165.143c0 6.627 5.372 12 12 12h13.338c6.627 0 12-5.373 12-12V403.474c0-26.403-7.001-47.046-20.536-60.968-14.002-13.922-34.071-21.123-59.741-21.123h-29.404c-27.537 0-48.073 7.681-61.608 23.523-13.535-15.842-33.604-23.523-61.141-23.523h-29.871c-26.136 0-46.206 7.201-59.741 21.123-13.535 13.922-20.536 34.565-20.536 60.968v165.143c0 6.627 5.373 12 12 12h13.338c6.628 0 12-5.373 12-12V403.474c0-15.842 3.267-26.883 10.268-33.604 6.535-6.721 17.269-10.082 32.671-10.082h29.871c14.935 0 25.67 3.361 32.671 10.082 6.534 6.721 9.801 17.762 9.801 33.604v165.143c0 6.627 5.372 12 12 12h13.338Zm251.77-177.143a12 12 0 0 0 11.906-10.506c1.191-10.35 4.357-17.978 9.691-23.098 6.534-6.721 17.269-10.082 32.671-10.082h58.808c14.935 0 25.67 3.361 32.67 10.082 6.535 6.721 9.802 17.762 9.802 33.604v27.844H885.885c-15.402 0-28.937 2.4-39.672 7.201-11.201 5.28-19.602 11.521-24.736 19.682-5.601 8.161-9.335 15.842-11.668 23.523-2.334 8.161-3.734 16.322-3.734 24.483 0 8.161 1.4 15.842 4.201 24.003 2.333 8.161 6.534 15.842 12.134 24.003 5.601 8.161 14.002 14.402 24.737 19.203 10.735 4.801 23.803 7.201 38.738 7.201h64.409c25.67 0 45.739-7.201 59.276-21.123 13.53-13.922 20.53-34.564 20.53-60.968v-95.052c0-26.403-7-47.046-20.53-60.968-13.537-13.922-33.606-21.123-59.276-21.123h-58.808c-25.67 0-45.739 7.201-59.274 21.123-11.566 11.5-18.355 27.586-20.367 47.716a11.972 11.972 0 0 0 11.906 13.224c4.357.028 9.214.028 13.467.028Zm113.076 139.218h-64.409c-28.47 0-42.472-12.002-42.472-36.485 0-24.483 14.002-36.484 42.472-36.484h106.881v28.803c0 15.842-3.267 26.884-9.802 33.605-7 7.201-17.735 10.561-32.67 10.561Zm135.816-44.166c0 26.404 7 47.046 20.54 60.968 13.53 13.922 33.6 21.123 59.74 21.123h63.94c25.67 0 45.74-7.201 59.27-21.123 13.54-13.922 20.54-34.564 20.54-60.968V237.371c0-6.627-5.37-12-12-12h-13.34c-6.63 0-12 5.373-12 12v93.614c-11.67-6.241-26.14-9.602-42.47-9.602h-63.94c-26.14 0-46.21 7.201-59.74 21.123-13.54 13.922-20.54 34.565-20.54 60.968v95.052Zm37.34-95.052c0-15.842 3.27-26.883 10.27-33.604 6.53-6.721 17.27-10.082 32.67-10.082h63.94c14.47 0 25.2 2.881 32.2 9.122 7.01 6.24 10.27 16.322 10.27 30.243v99.373c0 15.842-3.26 26.884-9.8 33.605-6.53 6.72-17.27 10.081-32.67 10.081h-63.94c-15.4 0-26.14-3.361-32.67-10.081-7-6.721-10.27-17.763-10.27-33.605v-95.052Zm456.54.48c3.39 0 6.63-1.436 8.9-3.952a12.02 12.02 0 0 0 3.04-9.252c-2-20.522-8.73-36.695-19.96-48.244-13.53-13.922-33.6-21.123-59.27-21.123h-63.94c-26.14 0-46.21 7.201-59.74 21.123-13.54 13.922-20.54 34.565-20.54 60.968v95.052c0 26.404 7 47.046 20.54 60.968 13.53 13.922 33.6 21.123 59.74 21.123h63.94c25.67 0 45.74-7.201 59.27-21.123 11.19-11.502 17.91-27.591 19.91-47.726a11.985 11.985 0 0 0-11.91-13.215c-4.35-.027-9.21-.027-13.46-.027-6.06 0-11.17 4.517-11.91 10.53-1.17 10.338-4.25 17.958-9.23 23.075-6.53 6.72-17.27 10.081-32.67 10.081h-63.94c-15.4 0-26.14-3.361-32.67-10.081-7-6.721-10.27-17.763-10.27-33.605v-95.052c0-15.842 3.27-26.883 10.27-33.604 6.53-6.721 17.27-10.082 32.67-10.082h63.94c15.4 0 26.14 3.361 32.67 10.082 4.98 5.482 8.06 13.19 9.24 23.547a11.993 11.993 0 0 0 11.9 10.523c4.26.014 9.12.014 13.48.014Zm131.33 109.414c0-27.363 7.94-48.486 23.34-63.368-15.4-13.922-23.34-35.045-23.34-62.888V285.339c0-15.842-3.26-26.884-9.8-34.085-6.53-6.721-17.27-10.081-32.67-10.081h-17.87c-6.63 0-12-5.373-12-12v-14.405c0-6.627 5.37-12 12-12h17.87c25.67 0 45.74 7.201 59.27 21.123 13.54 14.402 20.54 35.044 20.54 61.448v101.773c0 15.362 3.27 26.403 9.8 33.124 7 7.201 13.07 10.562 28.47 10.562h1.07c3.18 0 6.24 1.264 8.49 3.514a12 12 0 0 1 3.51 8.486v14.404a12 12 0 0 1-3.51 8.486 12.016 12.016 0 0 1-8.49 3.514h-1.07c-15.4 0-21.47 3.361-28.47 10.082-6.53 7.201-9.8 18.242-9.8 34.084v101.293c0 26.404-7 47.046-20.54 61.448-13.53 13.922-33.6 21.123-59.27 21.123h-17.87c-6.63 0-12-5.373-12-12v-14.405c0-6.627 5.37-12 12-12h17.87c15.4 0 26.14-3.36 32.67-10.081 6.54-7.201 9.8-18.243 9.8-34.085V513.368Z" style="fill:#0080ff;fill-rule:nonzero"/><path d="M1235.4 791h45.9c16.2 0 24.3-7.95 24.3-24v-8.1c0-10.35-3.6-17.55-10.65-21.3 6-3.75 9-10.65 9-20.4v-5.4c0-7.95-1.95-13.95-6-18.15-4.05-4.05-10.05-6.15-18-6.15h-44.55V791Zm6.6-49.8h39.6c6.15 0 10.65 1.35 13.35 4.2 2.7 2.85 4.05 7.35 4.05 13.5v8.1c0 6.15-1.35 10.5-4.2 13.35-2.85 2.85-7.35 4.2-13.5 4.2H1242V741.2Zm37.95-47.25c6.15 0 10.5 1.5 13.35 4.5 2.7 3 4.05 7.5 4.05 13.35v5.4c0 5.85-1.2 10.35-3.75 13.2-2.55 2.85-6.6 4.35-12.3 4.35H1242v-40.8h37.95ZM1333.2 680h-6.6v87c0 16.05 8.1 24 24.3 24h15.15v-6.45h-15.15c-6.15 0-10.65-1.35-13.5-4.2-2.85-2.85-4.2-7.2-4.2-13.35v-87Zm115.05 55.65c0-16.05-8.1-24.15-24.15-24.15h-21.75c-16.2 0-24.3 8.1-24.3 24.15V767c0 16.05 8.1 24 24.3 24h21.75c16.05 0 24.15-7.95 24.15-24v-31.35Zm-6.6 31.35c0 6.15-1.35 10.5-4.2 13.35-2.85 2.85-7.2 4.2-13.35 4.2h-21.75c-6.15 0-10.65-1.35-13.5-4.2-2.85-2.85-4.2-7.2-4.2-13.35v-31.35c0-6.15 1.35-10.65 4.2-13.5 2.85-2.85 7.35-4.2 13.5-4.2h21.75c6.15 0 10.5 1.35 13.35 4.2 2.85 2.85 4.2 7.35 4.2 13.5V767Zm40.8 58.5h32.85c16.05 0 24.15-8.1 24.15-24.15v-65.7c0-16.05-8.1-24.15-24.15-24.15h-21.75c-16.2 0-24.3 8.1-24.3 24.15V767c0 16.05 8.1 24 24.3 24h21.75c8.4 0 14.25-2.25 17.55-6.6v16.95c0 6.3-1.35 10.8-4.2 13.65-2.85 2.7-7.2 4.05-13.35 4.05h-32.85v6.45Zm50.4-58.35c0 6.15-1.35 10.5-4.2 13.2-2.85 2.85-7.35 4.2-13.35 4.2h-21.75c-6.15 0-10.65-1.35-13.5-4.2-2.85-2.85-4.2-7.2-4.2-13.35v-31.35c0-6.15 1.35-10.65 4.2-13.5 2.85-2.85 7.35-4.2 13.5-4.2h21.75c6.15 0 10.5 1.35 13.35 4.2 2.85 2.85 4.2 7.35 4.2 13.5v31.5Zm-694.8-27.625h55.35v6.45h-55.35zm79.35 0h55.35v6.45H917.4zm79.35 0h55.35v6.45h-55.35zm79.35 0h55.35v6.45h-55.35zm79.35 0h55.35v6.45h-55.35zm419.15 0h55.35v6.45h-55.35zm79.35 0h55.35v6.45h-55.35zm79.35 0h55.35v6.45h-55.35zm79.35 0H1868v6.45h-55.35z" style="fill:#ff8000;fill-rule:nonzero"/></svg>
