<svg xmlns="http://www.w3.org/2000/svg" xml:space="preserve" style="fill-rule:evenodd;clip-rule:evenodd;stroke-linejoin:round;stroke-miterlimit:2" viewBox="0 0 3500 900"><path d="M0 0h3500v900H0z" style="fill:none"/><path d="M288.678 513.368c0-27.363-7.934-48.486-23.336-63.368 15.402-13.922 23.336-35.045 23.336-62.888V285.339c0-15.842 3.267-26.884 9.801-34.085 6.535-6.721 17.269-10.081 32.671-10.081h17.871c6.627 0 12-5.373 12-12v-14.405c0-6.627-5.373-12-12-12H331.15c-25.67 0-45.739 7.201-59.274 21.123-13.535 14.402-20.536 35.044-20.536 61.448v101.773c0 15.362-3.267 26.403-9.801 33.124-7.001 7.201-13.069 10.562-28.471 10.562H212a11.999 11.999 0 0 0-12 12v14.404a12 12 0 0 0 12 12h1.068c15.402 0 21.47 3.361 28.471 10.082 6.534 7.201 9.801 18.242 9.801 34.084v101.293c0 26.404 7.001 47.046 20.536 61.448 13.535 13.922 33.604 21.123 59.274 21.123h17.871c6.627 0 12-5.373 12-12v-14.405c0-6.627-5.373-12-12-12H331.15c-15.402 0-26.136-3.36-32.671-10.081-6.534-7.201-9.801-18.243-9.801-34.085V513.368Zm289.972 67.249c6.628 0 12-5.373 12-12V403.474c0-15.842 3.267-26.883 10.268-33.604 6.535-6.721 17.269-10.082 32.671-10.082h29.404c15.402 0 26.137 3.361 33.138 10.082 6.534 6.721 9.801 17.762 9.801 33.604v165.143c0 6.627 5.373 12 12 12h13.338c6.628 0 12-5.373 12-12V403.474c0-26.403-7.001-47.046-20.536-60.968-14.002-13.922-34.071-21.123-59.741-21.123h-29.404c-27.537 0-48.073 7.681-61.608 23.523-13.535-15.842-33.604-23.523-61.141-23.523h-29.87c-26.137 0-46.206 7.201-59.741 21.123-13.536 13.922-20.536 34.565-20.536 60.968v165.143c0 6.627 5.372 12 12 12h13.338c6.627 0 12-5.373 12-12V403.474c0-15.842 3.267-26.883 10.268-33.604 6.534-6.721 17.269-10.082 32.671-10.082h29.87c14.935 0 25.67 3.361 32.671 10.082 6.534 6.721 9.801 17.762 9.801 33.604v165.143c0 6.627 5.373 12 12 12h13.338Zm251.77-177.143c6.05 0 11.153-4.504 11.907-10.506 1.19-10.35 4.357-17.978 9.69-23.098 6.535-6.721 17.269-10.082 32.671-10.082h58.808c14.935 0 25.67 3.361 32.671 10.082 6.534 6.721 9.801 17.762 9.801 33.604v27.844h-106.88c-15.402 0-28.937 2.4-39.672 7.201-11.202 5.28-19.603 11.521-24.737 19.682-5.6 8.161-9.334 15.842-11.668 23.523-2.333 8.161-3.734 16.322-3.734 24.483 0 8.161 1.401 15.842 4.201 24.003 2.334 8.161 6.534 15.842 12.135 24.003 5.6 8.161 14.002 14.402 24.736 19.203 10.735 4.801 23.803 7.201 38.739 7.201h64.408c25.67 0 45.739-7.201 59.274-21.123 13.54-13.922 20.54-34.564 20.54-60.968v-95.052c0-26.403-7-47.046-20.54-60.968-13.535-13.922-33.604-21.123-59.274-21.123h-58.808c-25.67 0-45.739 7.201-59.274 21.123-11.566 11.5-18.355 27.586-20.367 47.716a11.969 11.969 0 0 0 11.907 13.224c4.356.028 9.213.028 13.466.028Zm113.076 139.218h-64.408c-28.471 0-42.473-12.002-42.473-36.485 0-24.483 14.002-36.484 42.473-36.484h106.88v28.803c0 15.842-3.267 26.884-9.801 33.605-7.001 7.201-17.736 10.561-32.671 10.561Zm135.814-44.166c0 26.404 7 47.046 20.54 60.968 13.53 13.922 33.6 21.123 59.74 21.123h63.94c25.67 0 45.74-7.201 59.28-21.123 13.53-13.922 20.53-34.564 20.53-60.968V237.371c0-6.627-5.37-12-12-12H1278c-6.62 0-12 5.373-12 12v93.614c-11.66-6.241-26.13-9.602-42.47-9.602h-63.94c-26.14 0-46.21 7.201-59.74 21.123-13.54 13.922-20.54 34.565-20.54 60.968v95.052Zm37.34-95.052c0-15.842 3.27-26.883 10.27-33.604 6.53-6.721 17.27-10.082 32.67-10.082h63.94c14.47 0 25.21 2.881 32.21 9.122 7 6.24 10.26 16.322 10.26 30.243v99.373c0 15.842-3.26 26.884-9.8 33.605-6.53 6.72-17.27 10.081-32.67 10.081h-63.94c-15.4 0-26.14-3.361-32.67-10.081-7-6.721-10.27-17.763-10.27-33.605v-95.052Zm456.54.48c3.39 0 6.63-1.436 8.9-3.952a11.983 11.983 0 0 0 3.04-9.252c-2-20.522-8.73-36.695-19.95-48.244-13.54-13.922-33.61-21.123-59.28-21.123h-63.94c-26.14 0-46.21 7.201-59.74 21.123-13.54 13.922-20.54 34.565-20.54 60.968v95.052c0 26.404 7 47.046 20.54 60.968 13.53 13.922 33.6 21.123 59.74 21.123h63.94c25.67 0 45.74-7.201 59.28-21.123 11.18-11.502 17.9-27.591 19.9-47.726.35-3.373-.74-6.738-3.01-9.257a11.989 11.989 0 0 0-8.9-3.958c-4.35-.027-9.21-.027-13.46-.027-6.06 0-11.17 4.517-11.91 10.53-1.17 10.338-4.25 17.958-9.23 23.075-6.53 6.72-17.27 10.081-32.67 10.081h-63.94c-15.4 0-26.14-3.361-32.67-10.081-7-6.721-10.27-17.763-10.27-33.605v-95.052c0-15.842 3.27-26.883 10.27-33.604 6.53-6.721 17.27-10.082 32.67-10.082h63.94c15.4 0 26.14 3.361 32.67 10.082 4.98 5.482 8.06 13.19 9.25 23.547.74 6.009 5.84 10.523 11.89 10.523 4.26.014 9.12.014 13.48.014Zm95-.48c6.06 0 11.16-4.504 11.91-10.506 1.19-10.35 4.36-17.978 9.69-23.098 6.54-6.721 17.27-10.082 32.67-10.082h58.81c14.94 0 25.67 3.361 32.67 10.082 6.54 6.721 9.8 17.762 9.8 33.604v27.844h-106.88c-15.4 0-28.94 2.4-39.67 7.201-11.2 5.28-19.6 11.521-24.74 19.682-5.6 8.161-9.33 15.842-11.66 23.523-2.34 8.161-3.74 16.322-3.74 24.483 0 8.161 1.4 15.842 4.2 24.003 2.34 8.161 6.54 15.842 12.14 24.003 5.6 8.161 14 14.402 24.73 19.203 10.74 4.801 23.81 7.201 38.74 7.201h64.41c25.67 0 45.74-7.201 59.28-21.123 13.53-13.922 20.53-34.564 20.53-60.968v-95.052c0-26.403-7-47.046-20.53-60.968-13.54-13.922-33.61-21.123-59.28-21.123h-58.81c-25.67 0-45.74 7.201-59.27 21.123-11.57 11.5-18.36 27.586-20.37 47.716-.35 3.375.74 6.742 3.01 9.263a11.98 11.98 0 0 0 8.9 3.961c4.36.028 9.21.028 13.46.028Zm113.08 139.218h-64.41c-28.47 0-42.47-12.002-42.47-36.485 0-24.483 14-36.484 42.47-36.484h106.88v28.803c0 15.842-3.26 26.884-9.8 33.605-7 7.201-17.73 10.561-32.67 10.561Zm316.11 37.925c6.63 0 12-5.373 12-12V403.474c0-15.842 3.27-26.883 10.27-33.604 6.53-6.721 17.27-10.082 32.67-10.082h29.4c15.4 0 26.14 3.361 33.14 10.082 6.53 6.721 9.8 17.762 9.8 33.604v165.143c0 6.627 5.37 12 12 12H2250c6.63 0 12-5.373 12-12V403.474c0-26.403-7-47.046-20.54-60.968-14-13.922-34.07-21.123-59.74-21.123h-29.4c-27.54 0-48.07 7.681-61.61 23.523-13.53-15.842-33.6-23.523-61.14-23.523h-29.87c-26.14 0-46.21 7.201-59.74 21.123-13.54 13.922-20.54 34.565-20.54 60.968v165.143c0 6.627 5.37 12 12 12h13.34c6.63 0 12-5.373 12-12V403.474c0-15.842 3.27-26.883 10.27-33.604 6.53-6.721 17.27-10.082 32.67-10.082h29.87c14.94 0 25.67 3.361 32.67 10.082 6.53 6.721 9.8 17.762 9.8 33.604v165.143c0 6.627 5.37 12 12 12h13.34Zm449.32-177.143c0-26.403-7-47.046-20.53-60.968-13.54-13.922-33.61-21.123-59.28-21.123h-63.94c-26.14 0-46.21 7.201-59.74 21.123-13.53 13.922-20.54 34.565-20.54 60.968v275.557c0 6.628 5.38 12 12 12h13.34c6.63 0 12-5.372 12-12V571.016c11.67 6.24 26.14 9.601 42.94 9.601h63.94c25.67 0 45.74-7.201 59.28-21.123 13.53-13.922 20.53-34.564 20.53-60.968v-95.052Zm-37.33 95.052c0 15.842-3.27 26.884-9.81 33.605-6.53 6.72-17.27 10.081-32.67 10.081h-63.94c-14.47 0-25.2-3.361-32.2-9.601-7-6.241-10.74-15.842-10.74-29.764v-99.373c0-15.842 3.27-26.883 10.27-33.604 6.53-6.721 17.27-10.082 32.67-10.082h63.94c15.4 0 26.14 3.361 32.67 10.082 6.54 6.721 9.81 17.762 9.81 33.604v95.052Zm317.37-95.052c0-26.403-7-47.046-20.54-60.968-13.53-13.922-33.6-21.123-59.27-21.123h-63.94c-26.14 0-46.21 7.201-59.74 21.123-13.54 13.922-20.54 34.565-20.54 60.968v95.052c0 26.404 7 47.046 20.54 60.968 13.53 13.922 33.6 21.123 59.74 21.123h63.94c25.67 0 45.74-7.201 59.27-21.123 13.54-13.922 20.54-34.564 20.54-60.968v-95.052Zm-37.34 95.052c0 15.842-3.27 26.884-9.8 33.605-6.53 6.72-17.27 10.081-32.67 10.081h-63.94c-15.4 0-26.14-3.361-32.67-10.081-7-6.721-10.27-17.763-10.27-33.605v-95.052c0-15.842 3.27-26.883 10.27-33.604 6.53-6.721 17.27-10.082 32.67-10.082h63.94c15.4 0 26.14 3.361 32.67 10.082 6.53 6.721 9.8 17.762 9.8 33.604v95.052Zm297.37-95.532c3.4 0 6.64-1.442 8.91-3.967a11.954 11.954 0 0 0 3.02-9.277c-2.02-20.133-8.75-36.222-19.93-47.724-13.53-13.922-33.6-20.643-59.27-20.643h-57.88c-23.8 0-42.94 6.241-57.4 19.203-14.47 12.962-21.47 31.204-21.47 54.247s7 40.805 21 52.807c13.53 12.001 33.14 18.242 58.81 18.242h58.8c14.01 0 24.74 3.36 32.21 10.561 7 7.201 10.73 17.283 10.73 29.764 0 24.483-14.47 36.485-42.94 36.485h-58.8c-15.41 0-26.14-3.36-32.67-10.561-4.98-5.117-8.06-12.737-9.25-23.073a11.98 11.98 0 0 0-11.89-10.517c-4.25-.015-9.11-.015-13.46-.015-3.4 0-6.64 1.442-8.92 3.967a12.03 12.03 0 0 0-3.02 9.278c2.03 20.132 8.75 36.221 19.93 47.723 13.54 13.922 33.61 21.123 59.28 21.123h58.8c24.74 0 44.34-6.721 58.81-19.683 14.47-12.961 21.47-31.684 21.47-55.207 0-24.483-7-43.685-21.47-57.607-14.47-13.442-34.07-20.163-58.81-20.163h-58.8c-28.47 0-42.48-11.041-42.48-33.124 0-23.523 14.01-35.525 41.54-35.525h57.88c15.4 0 26.13 3.361 32.67 10.082 4.97 5.116 8.05 12.736 9.24 23.072a11.984 11.984 0 0 0 11.9 10.518c4.25.014 9.1.014 13.46.014Zm124.55 110.374c0-27.363 7.94-48.486 23.34-63.368-15.4-13.922-23.34-35.045-23.34-62.888V285.339c0-15.842-3.26-26.884-9.8-34.085-6.53-6.721-17.27-10.081-32.67-10.081h-17.87c-6.63 0-12-5.373-12-12v-14.405c0-6.627 5.37-12 12-12h17.87c25.67 0 45.74 7.201 59.27 21.123 13.54 14.402 20.54 35.044 20.54 61.448v101.773c0 15.362 3.27 26.403 9.8 33.124 7 7.201 13.07 10.562 28.47 10.562h1.07c3.18 0 6.24 1.264 8.49 3.514a12 12 0 0 1 3.51 8.486v14.404a12 12 0 0 1-3.51 8.486 12.016 12.016 0 0 1-8.49 3.514h-1.07c-15.4 0-21.47 3.361-28.47 10.082-6.53 7.201-9.8 18.242-9.8 34.084v101.293c0 26.404-7 47.046-20.54 61.448-13.53 13.922-33.6 21.123-59.27 21.123h-17.87c-6.63 0-12-5.373-12-12v-14.405c0-6.627 5.37-12 12-12h17.87c15.4 0 26.14-3.36 32.67-10.081 6.54-7.201 9.8-18.243 9.8-34.085V513.368Z" style="fill:#0080ff;fill-rule:nonzero"/></svg>
