<?xml version="1.0" encoding="UTF-8" standalone="no"?>
<svg width="100%" height="100%" viewBox="0 0 1024 1024" xmlns="http://www.w3.org/2000/svg">
    <path d="M13.755,604.322c-1.17,-0.076 -0.675,-1.444 -1.944,-1.111c-1.27,0.335 -2.11,1.085 -2.324,2.062c-0.297,1.406 -0.231,2.819 0.576,4.134c-1.104,0.485 -2.192,-0.864 -3.032,0.233c-0.709,0.907 -0.561,1.723 0.115,2.621c1.236,1.666 -0.972,4.916 -3.478,5.184c-0.329,0.037 -0.84,-0.065 -1.021,-0.237c-0.396,-0.378 -0.33,-0.922 0.164,-1.167c1.846,-0.948 3.56,-1.804 0.89,-3.411c-0.28,-0.16 0.281,-1.046 0.478,-1.59c0.347,-1.069 0.314,-1.866 -1.664,-1.163c-0.726,0.26 -1.434,0.634 -2.094,0.028c-0.791,-0.723 -0.28,-1.499 0.017,-2.242c0.313,-0.771 1.022,-0.719 1.879,-0.478c1.731,0.496 2.472,-0.185 3.115,-1.248c0.907,-1.504 1.286,-3.316 4.351,-3.604c1.006,-0.095 1.187,-2.945 0.215,-3.628c-0.413,-0.292 -1.006,-0.464 -1.105,-0.925c-0.247,-1.236 -0.346,-2.809 1.088,-3.348c1.813,-0.674 1.797,1.099 2.423,1.799c2.159,2.46 2.489,5.164 1.351,8.091Zm554.73,-437.693c1.584,-0.573 3.164,-1.147 4.687,-1.783c3.626,-1.52 5.999,-4.593 7.895,-7.514c1.763,-2.727 3.89,-5.482 4.252,-8.438c0.396,-3.274 2.39,-6.441 0.973,-9.902c-1.467,-3.636 2.241,-8.064 7.417,-8.932c7.07,-1.189 12.312,-4.777 18.641,-6.902c6.279,-2.113 12.394,-4.743 19.696,-4.697c0.494,0.004 1.071,-0.152 1.467,-0.016c5.686,1.946 11.57,0.064 17.339,0.475c2.538,0.182 4.367,-0.867 5.01,-2.442c2.308,-5.582 7.928,-9.086 14.307,-12.06c2.851,-1.337 4.928,-3.243 7.713,-4.632c5.027,-2.507 10.697,-3.98 16.219,-5.656c2.389,-0.727 3.609,-2.321 5.768,-3.197c4.351,-1.771 8.488,-3.83 12.856,-5.574c1.583,-0.627 3.923,0.17 5.291,-1.263c0.61,-0.637 1.417,-1.182 2.176,-1.734c0.461,-0.329 1.054,-0.929 1.697,-0.34c1.088,1.008 1.731,0.506 2.506,-0.183c0.477,-0.424 1.285,-0.641 1.862,-0.3c2.703,1.601 4.005,0.278 5.324,-1.214c0.395,-0.452 0.725,-1.233 1.615,-1.055c0.989,0.195 0.544,0.958 0.494,1.492c-0.033,0.576 -0.247,1.284 0.808,1.383c1.17,0.108 1.055,-0.682 1.104,-1.217c0.083,-0.771 0.511,-1.551 0.05,-2.322c-0.857,-1.398 -0.116,-2.49 1.252,-3.455c1.121,-0.78 1.846,-1.744 1.912,-2.826c0.149,-2.426 1.813,-4.656 1.649,-7.125c-0.05,-0.594 0.23,-1.392 0.774,-1.785c4.681,-3.324 4.549,-7.676 5.011,-11.886c0.164,-1.462 0.099,-2.749 1.417,-4.165c1.451,-1.561 1.879,-1.099 3,0.284c0.231,-2.216 1.681,-3.938 1.615,-5.947c-0.115,-3.959 2.044,-7.576 3.511,-11.289c0.379,-0.946 1.121,-1.631 2.538,-0.728c0.643,0.408 1.022,1.17 2.126,0.615c0.89,-0.44 1.319,-1.097 1.203,-1.849c-0.099,-0.773 -0.362,-1.538 -0.593,-2.299c-0.247,-0.817 -0.824,-1.62 -0.115,-2.49c1.12,0.069 0.956,0.783 1.236,1.255c0.264,0.47 0.049,1.32 1.302,1.055c0.857,-0.183 1.846,-0.66 1.45,-1.386c-1.434,-2.664 1.055,-4.568 2.291,-6.721c0.561,-0.983 1.138,-1.966 1.616,-2.971c0.807,-1.68 3.395,-2.587 5.735,-1.986c1.632,0.42 0.923,1.192 0.627,1.923c-0.231,0.563 -0.462,1.197 0.527,1.456c0.824,0.212 1.187,-0.338 1.566,-0.754c1.417,-1.532 2.06,-3.382 4.499,-4.505c1.27,-0.581 1.286,-1.917 -0.609,-2.569c-0.61,-0.215 -1.368,-0.325 -1.138,-1.017c0.149,-0.495 0.643,-0.656 1.302,-0.696c0.379,-0.023 0.989,-0.073 1.088,-0.238c2.242,-3.656 4.566,-0.677 6.56,0.074c1.467,0.552 -0.033,2.189 1.253,3.238c1.747,-1.146 2.818,-2.628 4.071,-4.048c1.285,0.771 0.082,1.658 0.857,2.4c1.45,-0.275 1.401,-1.131 1.368,-1.962c-0.05,-1.233 0.807,-2.217 2.34,-2.458c4.368,-0.699 8.917,-2.446 13.038,0.561c0.527,0.376 1.351,0.575 2.093,0.74c2.489,0.562 4.186,2.496 3.346,4.208c-0.643,1.316 -0.841,2.597 -0.726,3.974c0.099,1.33 -0.197,2.57 -1.071,3.879c-1.22,1.814 -0.824,3.887 -0.066,5.86c0.758,1.927 1.451,3.79 -0.791,5.623c-0.972,0.803 -1.055,2.15 -0.429,3.285c0.38,0.684 0.907,1.524 0.264,2.038c-2.142,1.68 -1.335,3.376 -0.725,5.245c0.429,1.288 -0,2.662 -1.483,3.752c-1.286,0.931 -0.825,2.153 -0.462,3.253c0.478,1.533 0.923,3.052 0.874,4.643c-0.033,1.574 -0.297,2.954 -2.621,3.724c-1.384,0.463 -1.797,1.433 -0.791,2.315c1.516,1.338 2.011,2.899 2.489,4.511c0.313,1.048 0.972,1.559 2.423,0.65c1.977,-1.243 4.944,-1.159 6.592,-2.891c0.198,0.169 0.396,0.336 0.594,0.503c-1.401,1.452 -2.819,2.891 -4.17,4.364c-0.396,0.426 -1.484,0.892 -0.693,1.426c0.775,0.526 1.368,-0.21 1.912,-0.576c3.841,-2.598 8.588,-4.285 12.823,-6.503c0.297,-0.157 0.89,-0.358 1.055,-0.266c2.192,1.247 3.989,0.186 6,-0.375c2.225,-0.62 2.884,1.356 4.648,1.785c1.401,0.34 2.604,1.128 4.203,1.401c2.472,0.421 3.626,3.752 2.126,5.747c-3.297,4.365 -5.324,8.842 -4.945,13.999c0.231,2.934 -1.17,5.922 -3.098,8.775c-2.275,3.365 -4.945,6.561 -7.236,9.909c-0.181,0.252 -0.396,0.707 -0.577,0.702c-2.934,-0.064 -2.373,1.601 -2.654,2.78c-1.318,5.566 -2.324,11.174 -4.087,16.842c-1.401,-0.363 -1.681,-1.174 -2.044,-1.942c-0.264,-0.552 0.033,-1.607 -1.121,-1.47c-1.17,0.138 -2.373,0.721 -2.472,1.857c-0.082,0.902 0.214,1.744 0.972,2.413c3.182,2.805 3.116,6.264 3.594,9.559c0.23,1.51 -0.379,3.15 -2.951,3.752c-0.791,0.184 -1.121,0.625 -0.807,1.177c1.928,3.308 0.609,6.729 0.725,10.1c0.066,2.719 -0.841,5.3 -1.961,7.871c-0.413,0.93 -0.413,1.963 0.181,3.214c2.291,-2.801 4.631,1.06 7.021,-0.365c-0.033,-0.104 -0.082,-0.304 -0.165,-0.499c-0.313,-0.762 -2.554,-0.473 -1.945,-1.533c0.561,-0.962 2.16,-0.526 3.247,-0.45c1.5,0.106 2.885,0.056 4.335,-0.259c1.203,-0.256 2.687,-0.818 3.445,0.63c0.297,0.554 1.269,0.245 1.862,0.41c1.715,0.482 3.923,-0.152 5.275,1.29c0.428,0.45 1.45,0.273 2.241,0.117c3.297,-0.637 4.961,0.016 5.67,2.406c0.61,2.019 2.242,2.443 4.78,2.032c1.763,-0.287 3.049,-0.429 4.977,0.773c2.127,1.31 5.176,2.574 8.472,2.693c1.665,0.061 3.412,0.456 4.187,1.383c1.598,1.929 4.071,3.012 6.428,4.289c2.076,1.126 1.944,2.726 -0,4.003c-0.149,0.095 -0.297,0.2 -0.478,0.255c-8.604,2.655 -8.538,8.817 -10.697,14.004c-0.775,1.845 -0.627,4.258 -1.599,5.71c-1.78,2.67 -1.005,5.249 -1.582,7.828c-0.264,1.158 -0.05,2.24 0.593,3.335c0.659,1.145 0.478,2.39 0.247,3.592c-0.132,0.773 -0.873,1.32 -1.928,1.449c-1.187,0.147 -1.418,-0.633 -1.714,-1.214c-0.61,-1.203 -1.104,-2.436 -1.714,-3.636c-0.346,-0.651 -0.693,-1.511 -1.945,-1.36c-1.302,0.158 -1.072,0.999 -1.039,1.727c0.182,3.648 1.731,7.206 1.237,10.912c-0.149,1 0.379,2.343 2.39,2.223c1.763,-0.106 1.73,-1.294 1.944,-2.307c0.281,-1.522 -1.285,-3.251 1.055,-4.764c1.072,2.026 3.593,2.614 5.785,3.474c2.077,0.814 2.143,2.593 3.775,3.784c2.093,-1.603 -0.083,-3.199 0.049,-4.741c0.017,-0.185 -0.313,-0.374 -0.362,-0.578c-0.198,-0.764 -1.813,-1.553 -0.445,-2.266c1.681,-0.876 2.175,0.687 3.312,1.259c1.138,-1.182 2.736,-2.078 3.033,-3.898c2.852,2.03 3.247,0.461 3.692,-1.026c0.659,-2.216 0.626,-4.535 1.961,-6.657c0.33,-0.511 0.281,-1.066 -0.494,-1.527c-2.126,-1.261 -2.143,-4.177 -0.099,-5.688c2.884,-2.145 2.621,-2.03 4.665,0.501c1.697,2.087 1.664,4.328 2.208,6.893c2.093,-1.834 4.632,-2.092 7.302,-1.944c1.565,0.086 2.9,0.404 1.977,1.846c-0.477,0.76 -0.28,1.49 0.347,2.013c2.126,1.787 1.714,3.878 1.664,5.954c-0.016,0.393 -0.791,1.143 0.445,1.14c0.989,-0.001 2.11,-0.446 1.731,-1.351c-0.527,-1.234 -0.165,-1.718 1.681,-1.724c1.385,-0.006 0.907,-0.882 1.038,-1.465c0.314,-1.477 0.956,-3.051 3.346,-3.04c2.258,0.011 4.5,0.82 5.604,-1.511c0.182,-0.413 1.088,0.508 1.632,0.867c0.923,0.615 1.352,1.3 3.247,0.422c1.632,-0.753 4.499,-0.249 6.774,-0.069c0.972,0.076 0.923,0.998 0.874,1.647c-0.05,0.656 -0.429,1.046 -1.467,1.034c-2.753,-0.035 -4.665,0.272 -3.61,2.936c0.528,1.325 -1.269,2.472 -2.571,3.439c-1.005,0.757 -2.406,1.228 -3.099,2.238c-0.197,0.298 -0.659,0.642 -1.186,0.46c-0.66,-0.224 -0.577,-0.758 -0.38,-1.128c0.627,-1.116 1.352,-2.2 2.044,-3.296c0.363,-0.597 0.874,-1.298 -0.247,-1.669c-1.22,-0.409 -1.797,0.374 -2.192,1.008c-0.626,1.004 0.099,2.867 -2.983,2.126c-0.478,-0.114 -0.61,0.476 -0.66,0.829c-0.181,1.145 -0.412,2.242 -1.73,3.085c-0.659,0.432 -0.594,1.016 0.016,1.531c0.709,0.589 1.072,1.238 0.281,1.916c-0.643,0.534 -1.583,0.679 -2.456,0.533c-1.401,-0.236 -0.314,-1.099 -0.594,-1.521c-0.593,-0.894 -2.307,-1.723 0.693,-1.892c-0.38,-1.043 -1.632,-1.061 -2.16,-0.776c-2.076,1.145 -5.208,1.658 -5.587,3.963c-0.264,1.676 -2.291,2.283 -3.593,3.638c-0.511,-1.718 0.873,-2.958 1.269,-4.33c0.165,-0.54 0.742,-1.074 0.066,-1.599c-0.379,-0.302 -0.907,-0.192 -1.368,-0.033c-0.989,0.346 -1.104,0.939 -0.857,1.628c0.099,0.273 0.313,0.562 0.264,0.822c-0.116,0.573 -0.429,1.291 -1.303,1.25c-1.203,-0.057 -0.741,-0.836 -0.609,-1.348c0.247,-0.978 0.494,-1.961 0.89,-2.911c0.708,-1.719 0.956,-3.353 -0.956,-4.798c-0.313,-0.249 -0.495,-0.605 -0.725,-0.914c-0.445,-0.575 0.28,-1.816 -0.989,-1.729c-1.22,0.085 -2.736,0.76 -3.017,1.822c-0.84,3.176 -0.412,6.349 0.528,9.489c0.115,0.369 0.511,0.678 1.022,0.685c0.956,0.015 1.829,-0.003 1.681,0.971c-0.066,0.49 0.082,1.107 -0.709,1.303c-1.071,0.268 -1.434,-0.594 -2.159,-0.893c-0.082,-0.032 -0.198,-0.019 -0.297,-0.028c-0.066,0.126 -0.214,0.325 -0.164,0.369c3.659,2.684 2.01,5.826 1.516,8.874c-0.099,0.708 -0.874,1.551 0.593,2.05c1.022,0.347 2.308,0.863 1.962,-0.628c-0.346,-1.488 1.203,-2.685 0.824,-4.178c-0.182,-0.692 1.055,-1.055 1.895,-1.111c1.747,-0.118 0.412,1.162 1.582,1.734c1.434,-1.374 0.726,-2.991 0.61,-4.352c-0.115,-1.431 0.214,-2.213 2.242,-2.37c1.5,-0.115 1.862,-0.874 2.109,-1.768c0.165,-0.595 -0.181,-1.306 0.825,-1.863c1.219,0.896 2.785,1.537 0.857,3.054c-0.857,0.677 -1.138,1.807 -1.418,2.772c-0.231,0.801 0.017,1.572 1.55,1.677c2.488,0.17 2.983,0.955 1.846,2.62c-0.446,0.65 -2.325,1.355 -0.693,2.041c1.187,0.502 3,0.739 4.368,-0.303c0.89,-0.681 1.862,-1.505 3.016,-0.164c0.083,0.092 0.445,0.185 0.495,0.153c2.835,-2.236 2.703,0.449 3.444,1.184c1.088,1.093 3,1.038 4.22,1.875c0.527,0.362 2.027,-0.423 1.978,0.721c-0.033,0.851 -0.248,1.71 -1.434,2.22c-0.594,0.254 -1.22,0.51 -1.681,0.865c-0.627,0.499 -0.792,1.157 -0.462,1.803c0.363,0.738 1.236,0.52 2.011,0.496c1.467,-0.047 2.934,-0.088 4.351,0.357c-0.115,0.896 -1.055,1.287 -1.895,1.538c-1.797,0.53 -2.819,1.565 -3.725,2.657c-0.808,0.982 -1.434,1.992 -3,2.535c-0.841,0.289 -1.154,0.976 -0.972,1.664c0.115,0.407 0.642,0.513 1.153,0.544c0.923,0.058 1.846,-0.001 2.291,-0.701c0.791,-1.296 1.269,-2.789 4.055,-2.405c0.28,0.04 0.89,-0.7 1.17,-1.139c1.22,-2.003 4.483,-3.096 4.747,-5.536c0.016,-0.113 0.56,-0.328 0.659,-0.283c0.28,0.149 0.61,0.375 0.692,0.613c0.38,1.116 -0.164,2.091 -0.956,3.036c-0.412,0.486 -0.84,1.084 -0.181,1.584c0.791,0.617 1.104,-0.119 1.582,-0.404c0.709,-0.422 1.072,0.022 1.385,0.366c0.428,0.472 0.61,1.523 0.461,1.49c-1.549,-0.339 -1.466,0.799 -1.433,1.043c0.214,1.48 -0.825,2.889 -0.478,4.319c0.263,1.097 -0.165,1.896 -0.989,2.769c-3.824,4.069 -6.857,8.353 -8.95,13.126c-1.269,2.871 -3.148,5.709 -4.698,8.586c-1.351,2.539 -3.51,4.864 -3.724,7.7c-0.033,0.366 -0.561,0.731 -0.923,1.059c-1.698,1.539 -2.324,3.337 -3.116,5.202c-1.384,3.295 -3.494,6.461 -5.653,9.55c-1.335,1.904 -2.522,3.879 -3.313,5.861c-1.137,2.804 -2.769,5.468 -3.873,8.268c-0.363,0.911 -0.56,2.25 -2.818,1.95c-0.61,-0.081 -0.792,0.434 -0.66,0.767c0.676,1.609 -0.626,2.899 -1.252,4.296c-0.149,0.333 -0.396,0.941 -0.544,0.935c-4.22,-0.163 -1.467,2.096 -2.209,3.106c-0.445,0.616 1.187,2.679 -1.961,1.771c-0.05,-0.018 -0.33,0.184 -0.346,0.297c-0.511,3.119 -3.115,6.269 0.115,9.342c0.808,0.77 1.549,1.732 3.132,1.775c0.758,0.02 1.054,0.188 1.17,0.715c0.148,0.73 -0.462,1.972 0.774,2.052c1.451,0.091 3.149,0.074 4.583,-0.539c0.659,-0.285 1.104,-0.988 1.961,-0.835c1.137,0.199 0.115,0.828 0.297,1.236c0.049,0.102 0.263,0.17 0.412,0.243c3.708,1.897 3.708,1.897 5.307,4.324c0.676,-0.743 0.972,-1.29 1.285,-2.143c-0.247,2.261 2.258,4.434 -0.033,6.828c-0.923,0.963 0.594,1.545 1.945,1.879c1.863,0.462 2.769,4.781 1.253,5.727c-2.868,1.792 -2.505,1.829 -3.016,4.372c-0.61,3.13 -2.011,6.236 -4.071,8.985c-1.616,2.133 0.049,4.222 -1.022,6.215c-0.066,0.117 0.61,0.587 1.005,0.643c0.857,0.123 1.187,-0.349 1.335,-0.886c0.116,-0.385 -0.132,-0.972 0.775,-0.949c0.659,0.017 0.939,0.459 1.22,0.843c1.977,2.65 1.78,4.758 -0.165,6.67c-1.286,1.281 -1.863,0.662 -2.407,-0.246c-0.428,-0.712 -0.593,-1.492 -0.23,-2.296c0.296,-0.657 -0.182,-0.946 -1.072,-0.862c-0.807,0.076 -0.873,0.41 -0.61,0.915c1.138,2.105 1.237,4.451 2.901,6.432c0.445,0.54 0.198,1.103 0.182,1.667c-0.033,0.631 -0.808,1.637 1.417,0.889c1.022,-0.344 0.412,0.894 0.231,1.399c-0.775,2.251 0.148,3.067 3.247,3.046c0.972,-0.007 1.434,-0.359 1.912,-0.813c0.544,-0.524 0.609,-1.237 -0.066,-1.544c-1.302,-0.583 -0.462,0.95 -1.484,0.824c-0.049,-0.029 -0.296,-0.147 -0.263,-0.213c0.346,-0.947 -0.874,-2.23 0.346,-2.756c0.61,-0.255 2.274,0.514 3.56,0.661c1.187,0.133 2.159,0.425 2.62,-0.636c0.363,-0.881 0.066,-1.46 -1.367,-1.734c-1.072,-0.206 -1.879,-0.844 -1.846,-1.738c0.032,-0.957 0.988,-0.738 1.911,-0.794c1.385,-0.083 0.792,-0.971 0.742,-1.521c-0.066,-0.777 -0.297,-1.47 1.368,-1.304c0.659,0.067 1.401,-0.525 1.187,-0.736c-1.764,-1.712 1.038,-3.337 0.016,-5.091c-0.807,-1.354 0.231,-3.328 1.714,-3.424c2.852,-0.186 2.341,1.933 2.72,3.332c-1.038,0.562 -1.533,-1.166 -2.456,-0.272c-1.121,1.078 0.066,2.178 0.148,3.414c1.385,-2.273 6.264,1.418 6.379,-2.31c1.005,0.154 1.088,0.482 0.989,0.864c-0.132,0.417 -0.379,0.865 0.429,1.06c0.609,0.151 1.285,-0.006 1.615,-0.345c1.236,-1.32 3.593,-2.019 3.955,-3.806c0.874,0.249 0.165,1.056 1.055,1.184c0.511,-0.729 1.55,-5.872 1.385,-6.585c-0.544,-2.389 -1.797,-4.737 -1.121,-7.625c1.879,1.412 1.154,3.488 3.824,4.208c0.329,-1.562 1.747,-2.545 3.84,-3.394c-1.055,-0.544 -3,-0.022 -2.967,-1.316c0.033,-1.171 1.533,-0.055 2.143,-0.728c-2.752,-1.827 -0.923,-3.738 0.165,-5.552c1.269,-2.082 0.873,-3.092 -2.044,-3.959c-0.791,-0.231 -1.912,-0.155 -1.928,-1.041c-0,-0.216 0.329,-0.535 0.626,-0.634c0.923,-0.306 1.879,-0.098 2.439,0.404c2.341,2.095 5.439,3.218 8.967,3.88c0.923,0.173 1.186,0.909 1.681,1.432c0.873,0.919 1.45,1.99 3.675,1.361c1.434,-0.402 1.698,0.544 1.549,1.46c-0.148,0.971 -1.252,1.955 -0.164,2.984c1.351,-0.32 0.197,-1.288 1.269,-1.72c0.89,0.616 -0.017,1.654 0.939,2.3c0.182,-0.044 0.66,-0.113 0.66,-0.161c-0.215,-2.391 3.164,-2.013 4.648,-3.1c0.494,-0.367 0.988,0.188 1.351,0.523c0.544,0.505 1.137,0.622 1.615,-0.001c0.627,-0.8 1.352,-1.09 2.258,-0.289c0.808,0.712 1.863,1.558 0.693,2.451c-1.138,0.882 -2.275,1.956 -4.269,1.909c-0.561,-0.013 -1.105,0.031 -1.105,0.463c0.017,1.208 1.335,1.868 2.423,2.546c1.055,0.658 1.813,0.075 2.357,-0.591c0.725,-0.879 1.451,-1.33 3.115,-0.913c1.418,0.356 2.637,-2.256 1.5,-3.666c-1.038,-1.286 -1.071,-2.53 -0.527,-4.108c1.78,0.914 4.054,1.17 4.351,3.058c0.082,0.513 0.28,1.138 -0.247,1.424c-3.593,1.979 -0.742,4.42 -0.956,6.628c-0.05,0.417 0.28,1.121 1.285,0.764c0.775,-0.269 0.89,-0.623 0.132,-1.137c-1.862,-1.241 1.583,-1.334 1.072,-2.403c-0.215,-0.459 0.445,-0.912 0.956,-1.262c0.807,-0.552 -0.099,-1.647 1.252,-2.017c0.643,1.304 1.599,0.352 2.555,0.241c1.384,-0.165 1.681,0.794 2.208,1.451c0.726,0.891 1.402,0.462 2.11,-0.019c0.544,-0.373 1.22,-1.022 1.797,-0.104c0.412,0.632 -0.182,1.073 -1.088,1.241c-0.198,0.036 -0.396,0.04 -0.593,0.086c-0.792,0.201 -1.632,0.582 -1.204,1.206c0.445,0.647 1.467,0.617 2.324,0.23c0.478,-0.216 0.61,-0.752 1.599,-0.761c-0.313,2.064 0.544,3.777 3.231,4.803c0.131,0.05 0.263,0.295 0.214,0.365c-2.357,2.903 0.478,7.81 -6.725,8.67c0.198,0.356 0.231,0.571 0.346,0.596c1.467,0.323 8.274,-0.377 9.412,-0.976c0.395,-0.212 0.758,-0.523 1.252,-0.228c0.445,0.26 0.247,0.649 0.181,1.001c-0.412,1.887 -3.593,4.018 -6.296,4.628c-2.439,0.551 -2.686,2.432 -3.758,3.757c1.088,0.866 1.83,-0.628 2.753,-0.011c0.198,3.067 -2.786,5.242 -4.302,7.822c-0.626,1.072 -1.5,2.095 -1.137,3.23c0.709,2.157 -0.676,4.228 -0.264,6.358c0.066,0.329 -0.049,0.76 -0.313,1.029c-2.373,2.432 -2.505,4.659 0.775,6.794c0.708,0.465 0.527,1.4 0.066,2.038c-0.577,0.784 -1.105,-0.1 -1.665,-0.127c-1.747,-0.086 -1.038,1.025 -0.725,1.252c2.142,1.553 2.769,3.754 4.631,5.408c1.121,0.988 2.72,1.06 4.038,0.724c1.154,-0.299 1.253,-1.285 0.742,-2.219c-0.346,-0.631 -0.082,-1.318 0.923,-1.594c0.758,-0.208 1.796,-0.25 2.093,0.374c0.791,1.656 2.423,1.281 3.956,0.9c0.362,0.544 0.099,0.867 -0.214,1.128c-1.072,0.875 -0.61,1.728 0.445,2.188c1.351,0.58 2.109,-0.406 2.324,-1.074c0.692,-2.264 2.752,-1.651 4.829,-1.457c2.818,0.26 2.604,1.869 2.489,3.071c-0.297,2.789 0.016,5.471 1.021,8.175c0.61,1.654 -0.412,3.279 -1.532,4.67c-1.302,1.596 -1.401,3.314 -2.16,5.244c1.813,-0.375 1.484,-1.256 1.632,-1.923c0.594,-2.849 1.747,-3.366 5.522,-2.744c0.989,0.162 2.274,0.035 3.164,-0.3c2.11,-0.779 3.198,0.235 4.203,1.13c0.643,0.571 1.681,1.672 -0.824,1.592c-0.544,-0.018 -1.137,0.197 -1.154,0.545c-0.132,2.991 -5.637,3.967 -4.681,7.597c-1.499,-1.056 -0.049,-2.234 -1.153,-2.661c-4.417,1.653 -5.143,4.839 -6.725,7.693c-0.742,1.322 -2.934,1.946 -3.379,3.558c-0.264,0.948 -0.84,1.873 -1.071,2.866c-0.198,0.897 -0.264,1.679 -2.308,1.534c-2.241,-0.159 -2.835,1.617 -1.73,2.342c3.444,2.259 2.241,4.739 1.483,7.289c-0.478,1.663 -0.379,3.28 -0.198,5.001c0.231,2.237 -0.313,4.944 -1.978,6.742c-1.862,2 -0.972,4.139 -2.208,6.022c-0.148,0.239 -0.148,0.533 -0.297,1.097c-1.434,-1.168 -0.643,-2.306 -0.84,-3.321c-0.66,-3.382 1.631,-6.282 2.933,-9.323c0.363,-0.852 0.709,-1.614 0.429,-2.441c-0.429,-1.216 -0.478,-2.345 0.313,-3.525c0.758,-1.1 0.033,-1.992 -1.434,-2.42c-1.829,-0.528 -2.472,0.42 -2.934,1.44c-1.368,3.041 -1.384,6.298 -2.867,9.326c-0.429,0.868 -0.363,1.88 -0.907,2.69c-2.802,4.132 -1.764,8.28 0.148,12.292c1.171,2.506 -0.56,4.607 -0.741,6.902c-0.033,0.581 -0.89,0.727 -1.632,0.609c-1.154,-0.185 -2.027,-0.667 -2.143,-1.556c-0.148,-1.343 -0.56,-2.673 -0.263,-4.043c0.164,-0.821 0.395,-1.683 -0.231,-2.514c-1.071,0.156 -1.055,0.844 -1.203,1.328c-1.187,3.641 -3.017,7.172 -3.379,10.951c-0.165,1.626 0.873,3.049 1.137,4.597c0.083,0.513 0.429,0.615 1.236,0.455c2.093,-0.423 2.637,0.349 2.654,1.783c0.016,1.407 0.873,2.814 0.28,4.232c-0.379,0.932 -0.165,2.597 -2.818,1.568c-0.264,-0.104 -0.94,0.345 -1.484,0.563c-0.89,-1.821 1.846,-3.343 0.758,-5.131c-1.879,2.221 -2.093,5.183 -1.12,7.462c0.741,1.73 0.494,3.556 -0.841,5.227c-0.379,-0.144 -0.478,-0.162 -0.544,-0.209c-0.692,-0.53 -0.132,-2.162 -1.796,-1.618c-1.237,0.404 -0.956,1.632 -0.182,2.648c0.874,1.144 2.324,2.427 0.033,3.752c-0.445,-0.422 -0.89,-0.843 -1.796,-1.684c-0,3.029 -2.011,5.242 -2.588,7.974c1.236,-0.415 0.874,-1.446 2.308,-1.632c-0.264,1.294 -0.61,2.514 -0.775,3.743c-0.148,1.246 -0.61,2.639 1.401,3.408c0.972,0.376 0.494,0.896 0.313,1.279c-1.45,3.251 1.236,6.473 0.099,9.72c-0.115,0.29 0.132,0.753 0.428,0.986c1.566,1.207 1.566,2.529 0.594,4.081c-1.879,-1.207 -2.885,-0.858 -3.082,0.963c-0.116,0.973 -0.841,1.789 -2.242,2.069c-1.566,0.316 -1.467,1.46 -2.143,2.04c-2.422,2.104 0.281,4.02 -0.197,5.993c-0.314,1.243 -0.709,2.496 -0.94,3.714c-0.725,3.697 -3.675,7.416 -2.357,10.943c0.89,2.435 0.363,4.825 1.335,7.227c0.033,-2.088 1.286,-3.538 3.906,-4.445c0.033,0.829 -0.049,1.57 1.5,1.956c1.022,0.255 2.11,1.201 0.973,2.264c-0.627,0.59 0.148,1.086 0.115,1.618c-0.082,1.206 1.055,2.789 -1.895,3.167c-0.66,0.083 -1.088,1.11 -0.66,1.209c3.725,0.871 1.797,3.072 1.962,4.59c0.214,2.1 1.055,3.481 3.939,3.513c4.483,0.05 8.109,1.598 11.801,3.036c1.319,0.513 2.72,0.236 4.088,0.913c3.444,1.706 3.988,4.177 0.741,6.176c1.352,0.715 3.709,0.708 3.05,2.741c-0.89,2.668 -1.154,5.455 -5.884,6.15c-5.753,0.846 -9.692,3.39 -13.186,6.695c-2.126,2.003 -3.61,4.227 -5.472,6.307c-4.681,5.27 -8.488,10.859 -9.131,17.288c-0.099,0.976 -0.61,1.934 -0.989,2.888c-2.291,5.76 -2.67,11.794 -4.615,17.564c-1.764,5.289 -3.264,10.619 -4.928,15.924c-1.286,4.159 -3.198,8.223 -4.302,12.365c-1.038,3.81 -1.797,7.666 -3.181,11.432c-0.396,1.049 0.033,1.91 1.368,2.333c5.868,1.862 10.944,4.709 16.482,6.974c5.093,2.081 11.125,2.549 15.608,5.278c2.934,1.787 6.346,3.112 9.066,5.104c1.269,0.929 2.258,1.845 1.911,3.153c-0.379,1.476 -2.175,1.695 -3.856,1.907c-1.269,0.158 -2.555,0.219 -3.808,0.375c-2.62,0.324 -4.021,2.244 -5.043,3.885c-1.038,1.673 -1.565,3.471 -2.289,5.227c0.842,1.011 0.333,1.463 -0.846,2.419c2.216,0.231 3.938,1.681 5.947,1.615c3.959,-0.115 7.576,2.044 11.289,3.511c0.946,0.379 1.631,1.121 0.728,2.538c-0.408,0.643 -1.17,1.022 -0.615,2.126c0.44,0.89 1.097,1.319 1.849,1.203c0.773,-0.099 1.538,-0.362 2.299,-0.593c0.817,-0.247 1.62,-0.824 2.49,-0.115c-0.069,1.12 -0.783,0.956 -1.255,1.236c-0.47,0.264 -1.32,0.049 -1.055,1.302c0.183,0.857 0.66,1.846 1.386,1.45c2.664,-1.434 4.568,1.055 6.721,2.291c0.983,0.561 1.966,1.138 2.971,1.616c1.68,0.807 2.587,3.395 1.986,5.735c-0.42,1.632 -1.192,0.923 -1.923,0.627c-0.563,-0.231 -1.197,-0.462 -1.456,0.527c-0.212,0.824 0.338,1.187 0.754,1.566c1.532,1.417 3.382,2.06 4.505,4.499c0.581,1.27 1.917,1.286 2.569,-0.609c0.215,-0.61 0.325,-1.368 1.017,-1.138c0.495,0.149 0.656,0.643 0.696,1.302c0.023,0.379 0.073,0.989 0.238,1.088c3.656,2.242 0.677,4.566 -0.074,6.56c-0.552,1.467 -2.189,-0.033 -3.238,1.253c1.146,1.747 2.628,2.818 4.048,4.071c-0.771,1.285 -1.658,0.082 -2.4,0.857c0.275,1.45 1.131,1.401 1.962,1.368c1.233,-0.05 2.217,0.807 2.458,2.34c0.699,4.368 2.446,8.917 -0.561,13.038c-0.376,0.527 -0.575,1.351 -0.74,2.093c-0.562,2.489 -2.496,4.186 -4.208,3.346c-1.316,-0.643 -2.597,-0.841 -3.974,-0.726c-1.33,0.099 -2.57,-0.197 -3.879,-1.071c-1.814,-1.22 -3.887,-0.824 -5.86,-0.066c-1.927,0.758 -3.79,1.451 -5.623,-0.791c-0.803,-0.972 -2.15,-1.055 -3.285,-0.429c-0.684,0.38 -1.524,0.907 -2.038,0.264c-1.68,-2.142 -3.376,-1.335 -5.245,-0.725c-1.288,0.429 -2.662,-0 -3.752,-1.483c-0.931,-1.286 -2.153,-0.825 -3.253,-0.462c-1.533,0.478 -3.052,0.923 -4.643,0.874c-1.574,-0.033 -2.954,-0.297 -3.724,-2.621c-0.463,-1.384 -1.433,-1.797 -2.315,-0.791c-1.338,1.516 -2.899,2.011 -4.511,2.489c-1.048,0.313 -1.559,0.972 -0.65,2.423c1.243,1.977 1.159,4.944 2.891,6.592c-0.169,0.198 -0.336,0.396 -0.503,0.594c-1.452,-1.401 -2.891,-2.819 -4.364,-4.17c-0.426,-0.396 -0.892,-1.484 -1.426,-0.693c-0.526,0.775 0.21,1.368 0.576,1.912c2.598,3.841 4.285,8.588 6.503,12.823c0.157,0.297 0.358,0.89 0.266,1.055c-1.247,2.192 -0.186,3.989 0.375,6c0.62,2.225 -1.356,2.884 -1.785,4.648c-0.34,1.401 -1.128,2.604 -1.401,4.203c-0.421,2.472 -3.752,3.626 -5.747,2.126c-4.365,-3.297 -8.842,-5.324 -13.999,-4.945c-1.936,0.152 -3.896,-0.406 -5.825,-1.358c-2.338,1.997 -4.234,4.28 -5.003,7.014c-0.61,2.133 -3.56,2.939 -5.423,4.342c-0.906,0.681 -1.846,1.245 -2.043,2.382c1.351,0.108 1.104,-1.235 2.225,-1.116c0.692,0.302 0.461,0.743 0.231,1.116c-2.143,3.421 -3.462,7.186 -7.632,9.774c-1.829,1.141 -3.939,2.035 -5.027,3.748c-1.186,1.867 -2.39,3.691 -4.631,5.161c-1.302,0.839 -2.555,2.292 -1.203,3.863c0.132,0.149 0.132,0.538 -0,0.6c-2.885,1.319 -2.654,3.957 -4.78,5.749c-2.093,1.761 -4.088,4.046 -4.236,6.698c-0.016,0.322 -0.313,0.871 -0.593,0.917c-3.626,0.58 -4.071,3.42 -6.577,4.909c-1.846,1.105 -3.543,3.171 -4.433,5.133c-0.594,1.334 -0.726,2.772 -1.088,4.19c0.791,0.352 0.939,-0.289 1.368,-0.473c0.346,-0.158 0.709,-0.291 1.055,-0.07c0.478,0.304 0.28,0.645 -0.033,0.946c-1.088,1.012 -2.143,2.045 -3.297,3.022c-0.972,0.827 -1.879,1.588 -1.483,2.831c0.214,0.678 -0.478,1.398 -1.335,1.495c-2.406,0.269 -3.56,2.004 -5.802,2.373c-0.593,0.097 -0.791,0.399 -0.89,0.759c-0.445,1.628 -1.533,2.586 -4.087,2.155c-0.808,-0.134 -1.698,0.389 -1.418,0.777c1.137,1.577 -1.236,2.435 -1.252,3.754c-0.017,0.577 -0.544,1.149 -1.55,1.004c-2.571,-0.364 -2.538,0.523 -1.73,1.793c0.791,1.266 0.494,2.329 -0.94,3.273c-1.088,0.711 -2.142,1.457 -3.115,2.245c-2.209,1.779 -4.813,3.345 -4.598,6.174c0.066,0.817 -1.22,1.744 -2.061,2.527c-1.73,1.621 -2.324,3.437 -2.044,5.42c0.165,1.11 -0.164,2.145 -0.791,3.117c-0.445,0.713 -0.445,2.421 -2.505,0.812c-0.461,-0.359 -1.285,-0.042 -1.483,0.344c-1.335,2.585 -2.802,1.983 -4.17,0.027c-1.467,0.691 0.61,2.52 -1.467,2.463c-2.258,-0.059 -2.456,-1.766 -2.786,-3.238c-2.653,0.687 -3.362,2.492 -4.845,3.73c-1.566,1.308 -2.374,3.199 -5.571,2.947c-0.857,-0.067 -1.154,0.693 -1.665,1.115c-1.401,1.144 -2.439,2.469 -4.977,2.714c-1.616,0.155 -2.39,1.421 -2.671,2.6c-0.296,1.191 -0.478,2.397 -0.708,3.595c-0.099,0.47 0.099,1.125 -0.824,1.205c-0.808,0.069 -1.187,-0.51 -1.418,-0.954c-0.725,-1.389 -1.368,-2.801 -1.994,-4.214c-0.28,-0.636 -0.593,-1.261 -1.665,-1.324c-0.939,-0.056 -1.302,0.499 -1.714,1.002c-1.22,1.498 -1.5,3.232 -2.34,4.826c-0.198,0.385 -0.248,0.878 0.609,0.998c0.412,0.058 0.973,0.315 0.759,0.492c-1.583,1.352 -0.61,3.558 -2.473,4.586c-3.148,1.737 -5.521,3.685 -7.103,6.356c-0.676,1.134 -2.275,2.021 -2.753,3.402c-0.313,0.954 -0.742,1.764 -0.379,2.852c0.593,1.818 -2.621,5.411 -5.093,6.088c-0.429,0.118 -1.071,0.216 -1.401,0.073c-2.077,-0.862 -4.401,-0.717 -6.626,-0.994c-0.89,-0.113 -1.895,-0.036 -1.153,-1.292c0.741,-1.289 -0.94,-2.238 -1.896,-3.257c-1.055,0.534 -0.379,0.898 -0.247,1.251c0.33,0.884 0.247,1.634 -1.302,1.697c-1.401,0.057 -2.588,-0.66 -2.225,-1.528c0.791,-1.851 0.346,-3.038 -2.242,-3.727c-0.461,-0.124 -0.791,-0.456 -0.692,-0.86c0.148,-0.647 0.873,-0.64 1.582,-0.702c2.275,-0.193 3.033,-1.124 2.225,-3.152c-0.494,1.958 -2.67,1.382 -4.038,1.965c-1.137,0.492 -1.005,-0.568 -0.692,-1.201c0.923,-1.872 -0.083,-3.969 1.318,-5.818c0.231,-0.302 -0.313,-0.931 -0.576,-1.387c-0.198,-0.357 -0.215,-0.963 -1.072,-0.784c-0.527,0.11 -0.626,0.543 -0.428,0.901c0.626,1.141 -0.775,1.595 -1.714,2.944c-0.05,-1.699 -0.182,-2.722 -1.302,-3.63c-1.039,-0.837 0.065,-2.053 -0.198,-3.103c-1.599,-0.167 -2.126,2.256 -3.923,0.942c-1.994,-1.464 0.94,-2.684 0.775,-4.312c-2.357,0.212 -3.412,1.619 -4.352,2.734c-1.021,1.187 0.792,3.008 -1.516,4.217c-0.511,-0.71 -0.56,-1.511 -0.692,-2.314c-0.297,-1.886 -1.022,-2.104 -3.132,-1.014c-0.494,0.247 -0.972,0.498 -1.467,0.735c-0.395,0.195 -0.84,0.483 -1.318,0.167c-0.594,-0.383 0.544,-0.72 -0.05,-1.336c-2.241,1.583 -5.06,2.741 -5.29,5.343c-0.033,0.333 -0.215,0.8 -0.544,0.953c-3.593,1.637 -3.824,4.748 -6.016,6.979c-3.231,3.293 -6.214,6.705 -10.664,9.33c-2.505,1.488 -5.208,2.88 -8.01,3.83c-2.703,0.922 -5.868,1.174 -9.362,-0.026c-4.038,-1.39 -5.571,-4.084 -8.455,-6.026c-1.286,-0.865 -3,-1.286 -4.352,-2.147c-1.73,-1.095 -1.582,-3.171 -4.087,-3.803c-0.363,-0.093 -0.264,-0.615 0.066,-0.738c2.159,-0.838 1.467,-2.429 2.076,-3.692c2.736,-5.561 2.044,-11.564 4.533,-17.135c0.214,-0.453 0.494,-0.956 -0.544,-1.514c-4.055,4.866 -10.829,8.006 -14.916,12.977c-2.786,3.361 -7.153,6.048 -9.758,9.607c-2.9,3.951 -6.774,7.391 -11.685,10.041c-7.351,3.962 -17.751,3.028 -22.844,-1.308c-0.066,-0.055 -0.198,-0.09 -0.215,-0.148c-0.098,-0.23 -0.204,-0.452 -0.318,-0.666c0.164,2.513 0.599,5.674 0.99,6.417c0.212,0.395 0.523,0.758 0.228,1.252c-0.26,0.445 -0.649,0.247 -1.001,0.181c-1.887,-0.412 -4.018,-3.593 -4.628,-6.296c-0.551,-2.439 -2.432,-2.686 -3.757,-3.758c-0.866,1.088 0.628,1.83 0.011,2.753c-3.067,0.198 -5.242,-2.786 -7.822,-4.302c-1.072,-0.626 -2.095,-1.5 -3.23,-1.137c-2.157,0.709 -4.228,-0.676 -6.358,-0.264c-0.329,0.066 -0.76,-0.049 -1.029,-0.313c-2.432,-2.373 -4.659,-2.505 -6.794,0.775c-0.465,0.708 -1.4,0.527 -2.038,0.066c-0.784,-0.577 0.1,-1.105 0.127,-1.665c0.086,-1.747 -1.025,-1.038 -1.252,-0.725c-1.553,2.142 -3.754,2.769 -5.408,4.631c-0.988,1.121 -1.06,2.72 -0.724,4.038c0.299,1.154 1.285,1.253 2.219,0.742c0.631,-0.346 1.318,-0.082 1.594,0.923c0.208,0.758 0.25,1.796 -0.374,2.093c-1.656,0.791 -1.281,2.423 -0.9,3.956c-0.544,0.362 -0.867,0.099 -1.128,-0.214c-0.875,-1.072 -1.728,-0.61 -2.188,0.445c-0.58,1.351 0.406,2.109 1.074,2.324c2.264,0.692 1.651,2.752 1.457,4.829c-0.26,2.818 -1.869,2.604 -3.071,2.489c-2.789,-0.297 -5.471,0.016 -8.175,1.021c-1.654,0.61 -3.279,-0.412 -4.67,-1.532c-1.596,-1.302 -3.314,-1.401 -5.244,-2.16c0.375,1.813 1.256,1.484 1.923,1.632c2.849,0.594 3.366,1.747 2.744,5.522c-0.162,0.989 -0.035,2.274 0.3,3.164c0.779,2.11 -0.235,3.198 -1.13,4.203c-0.571,0.643 -1.672,1.681 -1.592,-0.824c0.018,-0.544 -0.197,-1.137 -0.545,-1.154c-2.991,-0.132 -3.967,-5.637 -7.597,-4.681c1.056,-1.499 2.234,-0.049 2.661,-1.153c-1.653,-4.417 -4.839,-5.143 -7.693,-6.725c-1.322,-0.742 -1.946,-2.934 -3.558,-3.379c-0.948,-0.264 -1.873,-0.84 -2.866,-1.071c-0.897,-0.198 -1.679,-0.264 -1.534,-2.308c0.159,-2.241 -1.617,-2.835 -2.342,-1.73c-2.259,3.444 -4.739,2.241 -7.289,1.483c-1.663,-0.478 -3.28,-0.379 -5.001,-0.198c-2.237,0.231 -4.944,-0.313 -6.742,-1.978c-2,-1.862 -4.139,-0.972 -6.022,-2.208c-0.239,-0.148 -0.533,-0.148 -1.097,-0.297c1.168,-1.434 2.306,-0.643 3.321,-0.84c3.382,-0.66 6.282,1.631 9.323,2.933c0.852,0.363 1.614,0.709 2.441,0.429c1.216,-0.429 2.345,-0.478 3.525,0.313c1.1,0.758 1.992,0.033 2.42,-1.434c0.528,-1.829 -0.42,-2.472 -1.44,-2.934c-3.041,-1.368 -6.298,-1.384 -9.326,-2.867c-0.868,-0.429 -1.88,-0.363 -2.69,-0.907c-4.132,-2.802 -8.28,-1.764 -12.292,0.148c-2.506,1.171 -4.607,-0.56 -6.902,-0.741c-0.581,-0.033 -0.727,-0.89 -0.609,-1.632c0.185,-1.154 0.667,-2.027 1.556,-2.143c1.343,-0.148 2.673,-0.56 4.043,-0.263c0.821,0.164 1.683,0.395 2.514,-0.231c-0.156,-1.071 -0.844,-1.055 -1.328,-1.203c-3.641,-1.187 -7.172,-3.017 -10.951,-3.379c-1.626,-0.165 -3.049,0.873 -4.597,1.137c-0.513,0.083 -0.615,0.429 -0.455,1.236c0.423,2.093 -0.349,2.637 -1.783,2.654c-1.407,0.016 -2.814,0.873 -4.232,0.28c-0.932,-0.379 -2.597,-0.165 -1.568,-2.818c0.104,-0.264 -0.345,-0.94 -0.563,-1.484c1.821,-0.89 3.343,1.846 5.131,0.758c-2.221,-1.879 -5.183,-2.093 -7.462,-1.12c-1.73,0.741 -3.556,0.494 -5.227,-0.841c0.144,-0.379 0.162,-0.478 0.209,-0.544c0.53,-0.692 2.162,-0.132 1.618,-1.796c-0.082,-0.249 -0.196,-0.436 -0.336,-0.57c-0.335,0.495 -0.689,0.987 -1.026,1.483c-0.544,0.782 -1.286,1.563 -2.555,1.628c-1.302,0.069 -2.258,-0.546 -2.505,-1.496c-0.347,-1.335 -2.094,-0.726 -3.231,-1.252c0.757,-0.913 1.049,-1.814 1.08,-2.708c-1.359,-0.6 -2.665,-1.311 -4.117,-1.618c0.415,1.236 1.446,0.874 1.632,2.308c-1.294,-0.264 -2.514,-0.61 -3.743,-0.775c-0.563,-0.067 -1.155,-0.198 -1.706,-0.136c0.241,0.823 0.616,1.647 1.135,2.481c1.698,2.737 3.049,5.691 0.989,8.825c2.703,-1.085 1.335,-3.201 2.637,-4.785c0.989,0.989 0.362,2.767 2.686,2.547c1.649,-0.158 0.841,-1.404 1.303,-2.417c0.741,0.7 2.356,0.097 2.406,1.104c0.049,1.175 -0.824,2.327 -2.423,2.693c-2.472,0.564 -3.511,1.605 -3.461,3.448c0.016,1.237 -0.94,2.274 -2.077,3.31c-0.84,-0.6 0.28,-1.129 -0.231,-1.667c-0.214,0.057 -0.527,0.072 -0.675,0.194c-1.368,1.069 -1.204,2.381 -0.923,3.646c0.214,0.965 -0.05,1.804 -0.495,2.699c-0.478,0.953 -1.401,1.589 -2.62,1.31c-1.303,-0.302 -0.462,-1.173 -0.182,-1.804c0.116,-0.278 0.165,-0.497 -0.016,-0.798c-0.379,-0.651 -2.341,1.121 -1.813,-0.595c0.181,-0.557 1.12,-0.974 1.582,-1.51c0.313,-0.359 0.379,-0.812 -0.082,-1.195c-3.643,2.162 -4.022,3.827 -1.912,8.854c-0.874,-0.325 -1.616,-0.818 -2.341,0.01c-1.236,1.422 -2.884,2.566 -3.28,4.431c-0.494,2.392 -3.675,3.812 -5.126,5.914c-1.252,1.84 -3.84,3.038 -4.631,5.119c-0.181,0.483 -0.923,0.961 -1.582,1.222c-1.286,0.515 -3.495,-0.011 -3.593,1.768c-2.11,-0.197 -4.418,0.44 -6.264,-0.69c-1.285,-0.796 -2.785,-0.891 -4.186,-1.165c-0.709,0.889 0.709,1.057 0.659,1.622c-0.395,0.26 -0.791,0.131 -1.088,-0.033c-1.631,-0.906 -3.296,-1.591 -5.422,-0.815c-0.676,0.246 -1.335,0.122 -1.929,-0.23c-1.368,-0.813 -2.785,-0.69 -4.45,-0.389c-3.28,0.598 -5.801,-1.001 -5.109,-3.057c0.066,-0.199 0.115,-0.566 0.214,-0.574c3.494,-0.225 2.176,-2.191 2.489,-3.554c0.148,-0.658 0.346,-1.321 1.467,-1.394c1.022,-0.065 1.252,0.527 1.5,1.093c0.148,0.335 0.329,0.679 0.61,0.961c0.346,0.347 0.84,0.701 1.466,0.396c0.495,-0.24 0.297,-0.695 0.033,-0.97c-0.939,-0.974 -1.483,-2.198 -3.082,-2.767c-0.544,-0.189 -1.483,-0.51 -1.088,-0.775c1.698,-1.125 -0.148,-1.877 -0.28,-2.797c-0.231,-1.774 -1.467,-3.519 -0.478,-5.348c0.346,-0.659 -0.511,-1.678 1.599,-1.832c1.104,-0.082 0.264,-1.022 -0.429,-1.408c-1.433,-0.805 -0.494,-1.656 -0.543,-2.559c-0.149,-2.87 3.181,-5.042 2.389,-7.906c-0.576,-2.167 0.05,-4.162 2.539,-5.814c-1.599,2.117 1.285,4.017 0.214,6.127c-0.643,1.261 0.214,2.604 0.692,3.747c1.072,2.483 -0.346,5.263 1.912,7.549c0.115,0.106 0.198,0.31 0.132,0.406c-2.604,3.6 2.538,6.274 1.599,10.166c2.489,-2.393 3.329,-6.131 1.961,-8.716c-0.61,-1.142 -0.363,-1.795 0.577,-2.659c1.121,-1.056 3.115,-1.937 1.797,-3.686c-0.38,-0.496 0.477,-0.394 0.857,-0.54c2.455,-0.943 1.944,-2.81 1.796,-4.188c-0.099,-0.958 -1.895,-0.383 -2.835,0.121c-1.055,0.581 -1.417,1.728 -3.362,2.055c0.28,-2.525 0.148,-4.947 1.961,-7.149c0.099,-0.122 0.116,-0.307 0.264,-0.375c3.675,-1.808 4.846,-3.926 4.186,-7.874c-0.131,-0.863 -0.313,-1.686 0.182,-2.514c0.412,-0.672 1.087,-0.996 2.093,-0.945c0.989,0.05 0.972,0.844 1.401,1.081c2.225,1.234 1.187,4.084 4.813,4.7c0.906,0.154 1.615,1.626 2.521,2.46c1.286,1.181 -0.857,1.597 -1.582,2.335c-1.665,1.706 0.099,4.466 2.967,4.638c1.005,0.06 1.879,0.162 1.747,1.044c-0.247,1.538 1.088,3.093 -0.132,4.619c-0.264,0.322 -0.33,0.74 0.313,0.87c0.561,0.115 0.956,-0.226 1.055,-0.573c0.379,-1.3 1.385,-2.268 2.621,-3.233c1.055,-0.817 0.643,-1.475 -0.841,-1.753c-0.478,-0.089 -0.758,-0.226 -0.709,-0.517c0.363,-1.887 -2.571,-3.362 -1.186,-5.495c0.313,-0.48 -1.022,-1.897 -2.061,-2.375c-2.703,-1.254 -2.851,-2.677 -1.384,-4.506c0.158,-0.197 0.216,-0.435 0.258,-0.681c-0.087,-0.125 -0.167,-0.263 -0.237,-0.414c-2.126,0.862 -3.492,-0.467 -4.619,-1.302c-1.429,-1.061 -0.24,-1.922 1.073,-2.616c-1.637,-0.582 -3.185,1.084 -4.769,0.701c-1.243,-0.314 -2.496,-0.709 -3.714,-0.94c-1.011,-0.198 -2.024,-0.563 -3.034,-0.962c-0.07,0.569 -0.113,1.132 0.834,1.548c1.088,0.475 0.94,4.293 -0.181,4.665c-1.203,0.396 -1.549,-0.229 -1.615,-0.967c-0.05,-0.535 0.626,-1.582 -1.154,-0.945c-2.34,0.837 -1.681,-0.251 -1.533,-1.138c0.182,-1.058 1.434,-1.668 1.764,-2.799c0.114,-0.379 0.14,-0.735 0.104,-1.075c-2.078,-0.81 -4.134,-1.429 -6.128,-0.684c-2.435,0.89 -4.825,0.363 -7.227,1.335c2.088,0.033 3.538,1.286 4.445,3.906c-0.829,0.033 -1.57,-0.049 -1.956,1.5c-0.255,1.022 -1.201,2.11 -2.264,0.973c-0.59,-0.627 -1.086,0.148 -1.618,0.115c-1.206,-0.082 -2.789,1.055 -3.167,-1.895c-0.083,-0.66 -1.11,-1.088 -1.209,-0.66c-0.871,3.725 -3.072,1.797 -4.59,1.962c-2.1,0.214 -3.481,1.055 -3.513,3.939c-0.05,4.483 -1.598,8.109 -3.036,11.801c-0.513,1.319 -0.236,2.72 -0.913,4.088c-1.706,3.444 -4.177,3.988 -6.176,0.741c-0.715,1.352 -0.708,3.709 -2.741,3.05c-2.668,-0.89 -5.455,-1.154 -6.15,-5.884c-0.846,-5.753 -3.39,-9.692 -6.695,-13.186c-2.003,-2.126 -4.227,-3.61 -6.307,-5.472c-5.27,-4.681 -10.859,-8.488 -17.288,-9.131c-0.976,-0.099 -1.934,-0.61 -2.888,-0.989c-5.76,-2.291 -11.794,-2.67 -17.564,-4.615c-5.289,-1.764 -10.619,-3.264 -15.924,-4.928c-4.159,-1.286 -8.223,-3.198 -12.365,-4.302c-3.81,-1.038 -7.666,-1.797 -11.432,-3.181c-1.049,-0.396 -1.91,0.033 -2.333,1.368c-1.862,5.868 -4.709,10.944 -6.974,16.482c-2.081,5.093 -2.549,11.125 -5.278,15.608c-1.787,2.934 -3.112,6.346 -5.104,9.066c-0.929,1.269 -1.845,2.258 -3.153,1.911c-1.476,-0.379 -1.695,-2.175 -1.907,-3.856c-0.158,-1.269 -0.219,-2.555 -0.375,-3.808c-0.324,-2.62 -2.244,-4.021 -3.885,-5.043c-3.296,-2.044 -7.078,-2.11 -10.062,-5.588c-2.243,-2.62 -4.91,-4.961 -8.214,-4.235c-0.136,0.033 -0.399,-0 -0.401,-0.017c-0.073,-3.148 -2.179,-1.961 -3.073,-2.967c-1.059,-1.17 -2.354,-2.076 -3.265,-3.527c-2.18,-3.478 -5.858,-1.137 -6.879,2.027c-0.884,2.753 -1.805,3.874 -3.837,1.83c-0.693,-0.692 -1.811,-0.033 -2.677,-0.692c-0.672,-0.528 -1.383,-0.511 -1.93,0.412c-0.303,0.511 -0.442,1.104 0.091,1.467c0.795,0.527 0.485,3.082 2.067,2.142c0.544,-0.329 1.186,-1.219 1.671,-0.082c0.508,1.203 -0.476,1.632 -0.984,2.423c0.425,0.198 0.759,0.313 1.06,0.511c0.632,0.412 1.105,1.088 0.766,2.093c-0.287,0.857 -0.883,0.758 -1.491,0.56c-1.647,-0.544 -3.309,-1.005 -4.963,-1.5c-0.05,0.347 -0.116,0.528 -0.092,0.693c0.165,1.054 1.976,0.642 1.304,1.961c-0.588,1.154 -1.552,-0.28 -2.166,-0.956c-1.361,-1.467 -2.326,-3.741 -4.324,-3.873c-0.582,-0.05 -1.316,-0.28 -1.38,0.741c-0.068,1.055 0.714,0.973 1.277,1.022c0.58,0.05 1.556,-0.774 1.628,0.429c0.084,1.368 -1.081,0.775 -1.681,1.088c-0.641,0.329 -1.26,-0 -1.876,-0.28c0.396,2.67 -0.175,3.477 -1.921,2.67c-0.539,-0.248 -1.054,-0.792 -1.627,-0.561c-3.107,1.269 -4.63,-2.011 -6.064,-4.549c-2.113,-3.741 -4.531,-6.856 -7.363,-9.411c-0.557,-0.511 -0.71,-1.154 -0.864,-1.912c-0.452,-2.258 -1.47,-3.099 -3.068,-2.159c-0.718,0.412 -1.46,0.676 -1.965,-0.214c-1.768,-3.148 -4.537,-3.626 -6.815,-5.374c-0.973,-0.741 -2.008,-2.587 -3.02,-3.873c-2.034,-2.604 -4.256,-4.483 -7.299,-4.582c-2.879,-0.115 -5.652,-0.791 -8.01,-4.236c-2.579,-3.791 -5.605,-7.301 -9.588,-8.422c-2.133,-0.61 -2.939,-3.56 -4.342,-5.423c-0.681,-0.906 -1.245,-1.846 -2.382,-2.043c-0.108,1.351 1.235,1.104 1.116,2.225c-0.302,0.692 -0.743,0.461 -1.116,0.231c-3.421,-2.143 -7.186,-3.462 -9.774,-7.632c-1.141,-1.829 -2.035,-3.939 -3.748,-5.027c-1.867,-1.186 -3.691,-2.39 -5.161,-4.631c-0.839,-1.302 -2.292,-2.555 -3.863,-1.203c-0.149,0.132 -0.538,0.132 -0.6,-0c-1.319,-2.885 -3.957,-2.654 -5.749,-4.78c-1.761,-2.093 -4.046,-4.088 -6.698,-4.236c-0.322,-0.016 -0.871,-0.313 -0.917,-0.593c-0.58,-3.626 -3.42,-4.071 -4.909,-6.577c-1.105,-1.846 -3.171,-3.543 -5.133,-4.433c-1.334,-0.594 -2.772,-0.726 -4.19,-1.088c-0.352,0.791 0.289,0.939 0.473,1.368c0.158,0.346 0.291,0.709 0.07,1.055c-0.304,0.478 -0.645,0.28 -0.946,-0.033c-1.012,-1.088 -2.045,-2.143 -3.022,-3.297c-0.827,-0.972 -1.588,-1.879 -2.831,-1.483c-0.678,0.214 -1.398,-0.478 -1.495,-1.335c-0.269,-2.406 -2.004,-3.56 -2.373,-5.802c-0.097,-0.593 -0.399,-0.791 -0.759,-0.89c-1.628,-0.445 -2.586,-1.533 -2.155,-4.087c0.134,-0.808 -0.389,-1.698 -0.777,-1.418c-1.577,1.137 -2.435,-1.236 -3.754,-1.252c-0.577,-0.017 -1.149,-0.544 -1.004,-1.55c0.364,-2.571 -0.523,-2.538 -1.793,-1.73c-1.266,0.791 -2.329,0.494 -3.273,-0.94c-0.711,-1.088 -1.457,-2.142 -2.245,-3.115c-1.779,-2.209 -3.345,-4.813 -6.174,-4.598c-0.817,0.066 -1.744,-1.22 -2.527,-2.061c-1.621,-1.73 -3.437,-2.324 -5.42,-2.044c-1.11,0.165 -2.145,-0.164 -3.117,-0.791c-0.713,-0.445 -2.421,-0.445 -0.812,-2.505c0.359,-0.461 0.042,-1.285 -0.344,-1.483c-2.585,-1.335 -1.983,-2.802 -0.027,-4.17c-0.691,-1.467 -2.52,0.61 -2.463,-1.467c0.059,-2.258 1.766,-2.456 3.238,-2.786c-0.687,-2.653 -2.492,-3.362 -3.73,-4.845c-1.308,-1.566 -3.199,-2.374 -2.947,-5.571c0.067,-0.857 -0.693,-1.154 -1.115,-1.665c-1.144,-1.401 -2.469,-2.439 -2.714,-4.977c-0.155,-1.616 -1.421,-2.39 -2.6,-2.671c-1.191,-0.296 -2.397,-0.478 -3.595,-0.708c-0.47,-0.099 -1.125,0.099 -1.205,-0.824c-0.069,-0.808 0.51,-1.187 0.954,-1.418c1.389,-0.725 2.801,-1.368 4.214,-1.994c0.636,-0.28 1.261,-0.593 1.324,-1.665c0.056,-0.939 -0.499,-1.302 -1.002,-1.714c-1.498,-1.22 -3.232,-1.5 -4.826,-2.34c-0.385,-0.198 -0.878,-0.248 -0.998,0.609c-0.058,0.412 -0.315,0.973 -0.492,0.759c-1.352,-1.583 -3.558,-0.61 -4.586,-2.473c-1.737,-3.148 -3.685,-5.521 -6.356,-7.103c-1.134,-0.676 -2.021,-2.275 -3.402,-2.753c-0.954,-0.313 -1.764,-0.742 -2.852,-0.379c-1.818,0.593 -5.411,-2.621 -6.088,-5.093c-0.118,-0.429 -0.216,-1.071 -0.073,-1.401c0.862,-2.077 0.717,-4.401 0.994,-6.626c0.113,-0.89 0.036,-1.895 1.292,-1.153c1.289,0.741 2.238,-0.94 3.257,-1.896c-0.534,-1.055 -0.898,-0.379 -1.251,-0.247c-0.884,0.33 -1.634,0.247 -1.697,-1.302c-0.057,-1.401 0.66,-2.588 1.528,-2.225c1.851,0.791 3.038,0.346 3.727,-2.242c0.124,-0.461 0.456,-0.791 0.86,-0.692c0.647,0.148 0.64,0.873 0.702,1.582c0.193,2.275 1.124,3.033 3.152,2.225c-1.958,-0.494 -1.382,-2.67 -1.965,-4.038c-0.492,-1.137 0.568,-1.005 1.201,-0.692c0.345,0.17 0.698,0.275 1.055,0.341c-0.112,-0.254 -0.231,-0.508 -0.357,-0.762c-0.643,-1.286 -0.412,-2.657 -0.313,-4.016c0.148,-1.829 0.363,-3.732 -1.747,-5.177c-1.418,-0.973 -3.247,-1.786 -2.159,-3.564c0.148,-0.235 -0.116,-0.631 -0.577,-0.62c-0.33,0.008 -0.709,0.222 -0.956,0.41c-6.181,4.412 -13.219,8.077 -20.224,11.718c-2.834,1.472 -5.62,3.081 -8.735,4.255c-1.516,0.568 -3.132,1.964 -5.011,0.684c-1.944,-1.319 -3.148,-2.972 -2.225,-5.001c0.363,-0.808 0.956,-1.562 1.385,-2.36c0.247,-0.46 0.692,-1.072 0.478,-1.417c-1.599,-2.434 0.049,-4.211 2.555,-6.098c-1.319,0.063 -2.506,0.434 -2.258,-0.865c0.164,-0.952 0.478,-1.809 1.186,-2.597c1.418,-1.609 2.407,-3.403 2.192,-5.262c-0.164,-1.461 1.649,-1.732 2.291,-2.709c1.237,-1.907 1.632,-4.15 3.593,-5.754c3.511,-2.869 3.462,-6.568 4.863,-9.928c0.148,-0.337 0.148,-0.82 0.478,-0.985c3.758,-1.944 4.351,-5.26 6.642,-7.84c0.56,-0.65 1.384,-1.183 2.077,-1.783c0.313,-0.28 0.626,-0.642 0.214,-0.951c-0.462,-0.341 -0.907,-0.059 -1.236,0.209c-1.039,0.856 -2.093,1.714 -3.082,2.594c-0.627,0.546 -1.302,0.896 -2.308,0.558c-0.989,-0.343 -0.923,-0.981 -0.873,-1.652c0.115,-1.544 1.813,-2.483 2.587,-3.754c0.923,-1.514 1.434,-3.152 2.324,-5.17c1.319,1.752 0.61,3.385 1.945,4.828c0.006,-0.347 0.033,-0.688 0.079,-1.024c-0.147,-1.813 0.054,-3.769 0.766,-5.841c1.39,-4.038 4.084,-5.571 6.026,-8.455c0.865,-1.286 1.286,-3 2.147,-4.352c1.095,-1.73 3.171,-1.582 3.803,-4.087c0.093,-0.363 0.615,-0.264 0.738,0.066c0.1,0.256 0.21,0.472 0.329,0.655c0.713,-0.698 1.58,-1.328 2.66,-1.852c1.566,-0.758 1.533,-2.098 1.236,-3.328c-0.181,-0.796 -1.005,-0.871 -1.747,-0.423c-0.758,0.449 -1.318,1.048 -2.39,1.52c0.577,-1.827 -2.39,-3.353 -0.379,-5.217c0.462,-0.426 0.313,-1.032 -0.231,-1.383c-2.67,-1.744 -0.824,-3.14 0.824,-4.304c0.827,-0.579 1.427,-1.287 2.046,-1.982c-0.824,-0.843 -1.679,-1.627 -2.591,-2.295c-3.951,-2.9 -7.391,-6.774 -10.041,-11.685c-3.962,-7.351 -3.028,-17.751 1.308,-22.844c0.055,-0.066 0.09,-0.198 0.148,-0.215c5.968,-2.538 6.397,-10.581 8.64,-16.795c0.656,-1.829 1.491,-3.527 2.793,-4.335c4.231,-2.62 6.768,-7.631 9.577,-12.361c0.544,-0.912 1.126,-1.767 1.738,-2.576c0.118,-1.264 0.978,-2.322 2.419,-3.266c1.055,-0.691 0.891,-1.352 -0.494,-1.807c-1.352,-0.442 -2.654,-0.946 -3.956,-1.425c-0.989,-0.356 -1.697,-0.909 -1.203,-1.703c0.577,-0.937 1.599,-0.539 2.522,-0.236c2.258,0.744 4.516,1.28 6.329,-0.578c0.577,-0.588 1.187,-1.309 0.396,-1.944c-0.759,-0.595 -1.368,0.236 -2.061,0.376c-1.236,0.249 -2.818,1.148 -3.609,-0.113c-0.66,-1.04 0.428,-1.931 1.73,-2.661c1.121,-0.625 3.247,-0.001 3.511,-1.201c0.412,-1.877 0.643,-3.849 0.28,-5.71c-0.247,-1.236 -0.148,-2.067 1.137,-2.807c1.467,-0.848 1.253,-2.204 1.978,-3.267c0.808,-1.205 1.665,-2.43 3.363,-3.165l0.054,-0.024c-0.62,-0.402 -1.253,-0.987 -1.923,-1.249c-1.026,0.191 -2.059,0.374 -3.092,0.574c-1.039,0.206 -1.995,0.059 -2.72,-0.489c-0.824,-0.62 -0.56,-1.355 0.017,-1.972c1.038,-1.126 1.615,-2.356 1.598,-3.684c1.451,-0.042 1.022,1.247 1.978,1.216c1.83,-0.059 2.687,1.961 4.417,1.281c1.358,-0.529 1.994,-1.654 3.036,-2.527c-0.805,-0.864 -1.628,-1.684 -2.468,-2.458c-1.428,0.61 -3.404,0.418 -5.034,0.322c-1.253,-0.075 -2.143,-1.04 -1.006,-2.125c0.462,-0.448 1.269,-0.996 0.495,-1.47c-0.973,-0.59 -1.203,0.36 -1.714,0.698c-0.396,0.27 -0.627,0.859 -1.368,0.561c-0.577,-0.233 -0.478,-0.738 -0.429,-1.165c0.082,-0.839 0.692,-1.649 0.247,-2.547c-1.236,-0.393 -0.84,1.489 -2.06,0.843c-0.972,-0.525 -0.28,-1.326 -0.082,-1.989c0.015,-0.05 0.03,-0.103 0.045,-0.157c-1.206,-0.412 -2.451,-0.521 -3.753,-0.086c-0.212,1.162 -0.588,2.304 -1.451,3.385c-0.445,0.576 -0.297,1.49 0.972,1.744c1.121,0.228 1.599,-0.311 1.78,-1.036c0.099,-0.33 0.05,-0.79 0.791,-0.721c0.528,0.051 0.857,0.362 0.907,0.739c0.132,0.99 0.346,1.987 0.297,2.975c-0.066,1.201 -1.484,2.45 0.824,3.482c0.61,0.276 -0.017,1.344 -0.594,1.956c-1.038,1.12 -2.258,2.163 -2.456,3.593c-0.049,0.334 -0.329,0.699 -0.972,0.676c-3.148,-0.11 -3.148,-0.113 -3.741,2.423c-1.154,-1.286 -2.061,-2.613 -1.401,-3.737c1.285,-2.208 -0.281,-3.843 -1.352,-5.631c-0.659,-1.091 -1.928,-1.945 -2.423,-3.194c-0.478,1.195 -2.818,2.341 0.462,3.394c1.632,0.522 1.846,3.16 0.428,4.468c-1.038,0.952 -1.516,1.974 -1.813,3.099c-0.247,0.952 -0.082,2.085 -2.175,2.046c-0.561,-0.01 -0.874,0.449 -0.726,0.795c0.759,1.632 -2.291,2.36 -1.747,4.031c0.215,0.634 -0.873,0.375 -1.565,0.254c-1.698,-0.295 -0.61,1.929 -2.11,1.432c-1.451,-0.483 0.214,-1.515 -0.066,-2.303c-2.786,0.722 -1.846,-2.484 -4.582,-2.233c-0.824,0.075 -1.83,-1.502 -2.225,-2.588c-0.264,-0.753 -0.429,-1.7 -2.456,-1.809c2.983,3.069 -1.384,5.902 0.033,8.892c1.071,-0.285 0.692,-0.869 0.791,-1.31c0.181,-0.723 -0.33,-1.825 1.137,-1.926c1.253,-0.086 2.819,0.4 2.951,1.417c0.329,2.568 2.357,4.822 2.521,7.369c0.132,1.986 -1.911,3.597 -1.747,5.904c-2.818,-1.874 -2.835,-1.923 -0.939,-3.621c0.395,-0.354 0.824,-0.786 0.56,-1.149c-1.467,-1.98 -0.511,-4.211 -1.236,-6.363c-0.923,0.426 -1.813,0.697 -2.423,1.159c-0.939,0.713 -1.846,1.498 -2.489,2.359c-1.038,1.378 1.055,1.347 1.846,1.914c0.61,0.428 0.61,1.002 0.61,1.727c-0.989,-0.366 -1.912,-1.708 -2.62,-0.048c-0.132,0.326 -0.495,0.325 -0.956,0.257c-2.423,-0.353 -2.901,-0.043 -1.962,1.73c0.528,0.995 0.841,1.974 0.857,3.071c1.583,-0.241 1.022,-1.391 1.896,-1.829c1.714,1.591 1.368,1.79 0.066,3.351c-1.912,2.264 -5.423,3.204 -7.664,5.504c-1.105,-1.569 -1.237,-3.038 -0.874,-4.518c0.462,-0.196 0.692,-0.105 0.874,0.096c0.346,0.4 0.461,1.008 1.384,0.948c0.56,-0.037 0.808,-0.356 0.923,-0.728c0.165,-0.641 -0.115,-1.149 -0.989,-1.381c-2.011,-0.537 -1.994,-1.291 -0.742,-2.409c0.808,-0.717 1.517,-1.672 -0.675,-1.945c-1.121,-0.139 -0.874,-0.667 -0.61,-1.126c0.33,-0.616 0.807,-1.331 0.033,-1.794c-2.588,-1.524 -2.489,-3.906 -3.84,-5.814c-0.38,-0.537 -0.709,-1.041 -0.116,-1.577c0.148,-0.135 0.561,-0.268 0.742,-0.212c0.725,0.234 0.857,0.792 0.873,1.262c0.033,1.179 1.006,1.969 2.143,2.867c0.593,-0.122 0.396,-2.085 1.945,-0.632c0.313,0.3 0.857,0.41 1.318,0.143c0.544,-0.326 0.528,-0.807 0.116,-1.146c-1.335,-1.079 -0.758,-2.006 0.099,-3.09c0.758,-0.982 1.269,-2.176 0.857,-3.301c-0.643,-1.784 0.165,-3.219 1.549,-4.588c1.368,-1.355 1.319,-3.114 2.538,-4.51c0.643,-0.736 0.792,-1.847 2.753,-1.112c1.269,0.476 3.576,0.033 2.456,2.019c-0.281,0.486 -0.445,1.234 0.412,1.536c0.906,0.32 1.285,-0.494 1.961,-0.74c1.088,-0.408 0.709,-1.431 1.764,-2.155c0.61,2.035 0.741,3.882 -0.165,5.706c-0.379,0.755 -0.643,1.496 -0.528,2.291c0.083,0.412 0.017,0.971 0.676,1.094c0.643,0.122 0.396,-0.803 1.22,-0.728c0.544,0.302 0.346,0.772 0.461,1.169c0.116,0.353 0.231,0.766 0.857,0.67c0.297,-0.045 0.561,-0.358 0.759,-0.587c1.12,-1.307 0.527,-2.616 -0.099,-3.893c-1.418,-2.897 -0.643,-5.869 -0.808,-8.816c-0.132,-2.659 1.797,-4.908 2.126,-7.501c0.165,-1.316 -0.329,-3.748 2.703,-4.662c0.61,-0.183 0.083,-0.901 -0.066,-1.383c-0.758,-2.341 -3.395,-4.409 -1.17,-7.184c0.808,-1.026 -0.56,-2.68 -0.428,-4.156c0.197,-2.474 1.12,-4.757 2.39,-6.993c0.51,-0.902 0.51,-1.586 -0.445,-2.327c-2.736,-2.126 -2.852,-3.395 -0.61,-5.81c0.824,-0.884 1.483,-1.876 2.736,-2.502c0.725,-0.355 1.467,-0.849 2.39,-0.273c0.758,0.484 0.791,1.076 0.478,1.753c-0.726,1.504 -2.16,2.706 -3.198,4.077c-0.313,0.432 -0.923,0.824 -0.313,1.335c0.478,0.417 1.022,0.078 1.582,0.025c3.824,-0.364 4.747,0.538 3.247,3.079c-0.975,1.631 -1.379,2.306 -0.92,2.91c0.084,-0.16 0.172,-0.317 0.264,-0.471c0.515,-0.857 1.053,-1.929 2.087,-0.693c0.167,0.208 0.336,0.254 0.501,0.206c0.406,-0.93 1.103,-1.772 2.222,-2.536c0.989,-0.685 0.89,-1.93 0.395,-3.047c-0.807,-1.785 -0.84,-3.478 0.478,-5.321c1.484,-2.086 1.418,-4.341 -1.384,-6.118c-1.533,-0.976 -1.418,-1.975 -0.198,-3.148c1.253,-1.194 2.027,-2.566 1.665,-4.17c-0.165,-0.773 0.412,-1.42 1.598,-1.536c1.55,-0.154 3.231,-0.429 4.582,0.325c0.956,0.531 0.396,1.387 -0.033,1.975c-0.774,1.06 -0.461,1.993 -0.066,3.069c0.61,1.697 0.94,3.473 -2.258,4.182c-0.708,0.156 -1.351,0.49 -1.038,1.087c0.494,0.935 1.137,1.986 2.687,2.087l0.088,0.006c-0.188,-0.218 -0.326,-0.508 -0.375,-0.922c-0.118,-0.989 0.562,-1.187 0.917,-1.764c1.078,-1.697 2.653,-1.285 3.944,-1.714c1.675,-0.544 3.312,-2.175 5.365,-0.989c-0.852,-1.104 -1.576,-2.01 -0.385,-3.197c0.988,-0.989 0.135,-2.11 -0.117,-2.852c-0.278,-0.84 -0.832,-0.362 -1.555,0.033c-1.467,0.808 -3.303,0.445 -4.973,0.297c-0.696,-0.066 -0.785,-0.989 -0.266,-1.78c0.635,-0.989 0.61,-1.401 -0.187,-1.632c-0.611,-0.164 -1.283,-0.181 -1.9,-0.033c-1.758,0.412 -3.26,0.379 -3.471,-2.834c-0.056,-0.874 -0.602,-0.989 -1.07,-1.22c-2.906,-1.401 -5.523,-3.626 -8.206,-5.654c-0.452,-0.346 -1.262,-0.609 -0.856,-1.648c0.281,-0.708 1.07,-0.923 1.539,-0.511c1.355,1.171 3.086,0.857 4.354,2.242c0.566,0.626 1.142,0.84 1.747,0.198c0.348,-0.363 0.243,-0.907 0.043,-1.335c-0.367,-0.759 -0.51,-2.225 -1.427,-1.813c-2.849,1.302 -5.122,-0.66 -7.471,-2.258c-0.782,-0.544 -1.563,-1.286 -1.628,-2.555c-0.069,-1.302 0.546,-2.258 1.496,-2.505c1.335,-0.347 0.726,-2.094 1.252,-3.231c3.042,2.522 5.949,-0.115 8.938,-0.379c-0.508,-2.456 3.214,-1.698 1.957,-4.945c-0.146,-0.379 0.975,-1.747 -0.201,-3.23c1.758,0.33 3.04,0.33 4.363,0.659c1.874,0.445 3.732,-0.741 5.471,-1.566c1.235,-0.587 2.392,-1.013 3.663,-0.989l0.02,0.033c0.009,-0.001 0.019,-0.002 0.028,-0.003l-0.008,-0.029c-0.013,-0.001 -0.027,-0.001 -0.04,-0.001c-1.223,-2.063 -2.596,-3.911 -4.368,-4.977c-1.654,-1.005 -2.387,-3.577 -4.236,-4.318c-2.697,-1.072 -5.525,0.609 -8.139,-1.286c1.88,3.544 4.688,3.824 7.328,4.631c0.467,0.132 1.106,-0.115 1.283,0.709c0.175,0.841 -0.403,1.105 -0.797,1.517c-1.208,1.302 -2.048,1.499 -3.526,0.131c-1.291,-1.203 -2.844,0.281 -3.959,-1.17c-0.948,4.45 2.324,2.967 3.483,4.945c-1.659,0.692 -3.544,-1.104 -4.82,1.335c0.599,1.285 2.057,0.626 2.692,2.143c-0.271,0.082 -0.469,0.247 -0.627,0.181c-2.76,-0.956 -5.356,-0.791 -8.057,0.89c-2.737,1.698 -5.691,3.049 -8.825,0.989c1.085,2.703 3.201,1.335 4.785,2.637c-0.989,0.989 -2.767,0.362 -2.547,2.686c0.158,1.649 1.404,0.841 2.417,1.303c-0.7,0.741 -0.097,2.356 -1.104,2.406c-1.175,0.049 -2.327,-0.824 -2.693,-2.423c-0.564,-2.472 -1.605,-3.511 -3.448,-3.461c-1.237,0.016 -2.274,-0.94 -3.31,-2.077c0.6,-0.84 1.129,0.28 1.667,-0.231c-0.057,-0.214 -0.072,-0.527 -0.194,-0.675c-1.069,-1.368 -2.381,-1.204 -3.646,-0.923c-0.965,0.214 -1.804,-0.05 -2.699,-0.495c-0.953,-0.478 -1.589,-1.401 -1.31,-2.62c0.302,-1.303 1.173,-0.462 1.804,-0.182c0.278,0.116 0.497,0.165 0.798,-0.016c0.651,-0.379 -1.121,-2.341 0.595,-1.813c0.557,0.181 0.974,1.12 1.51,1.582c0.359,0.313 0.812,0.379 1.195,-0.082c-2.162,-3.643 -3.827,-4.022 -8.854,-1.912c0.325,-0.874 0.818,-1.616 -0.01,-2.341c-1.422,-1.236 -2.566,-2.884 -4.431,-3.28c-2.392,-0.494 -3.812,-3.675 -5.914,-5.126c-1.84,-1.252 -3.038,-3.84 -5.119,-4.631c-0.483,-0.181 -0.961,-0.923 -1.222,-1.582c-0.515,-1.286 0.011,-3.495 -1.768,-3.593c0.197,-2.11 -0.44,-4.418 0.69,-6.264c0.796,-1.285 0.891,-2.785 1.165,-4.186c-0.889,-0.709 -1.057,0.709 -1.622,0.659c-0.26,-0.395 -0.131,-0.791 0.033,-1.088c0.906,-1.631 1.591,-3.296 0.815,-5.422c-0.246,-0.676 -0.122,-1.335 0.23,-1.929c0.813,-1.368 0.69,-2.785 0.389,-4.45c-0.598,-3.28 1.001,-5.801 3.057,-5.109c0.199,0.066 0.566,0.115 0.574,0.214c0.225,3.494 2.191,2.176 3.554,2.489c0.658,0.148 1.321,0.346 1.394,1.467c0.065,1.022 -0.527,1.252 -1.093,1.5c-0.335,0.148 -0.679,0.329 -0.961,0.61c-0.347,0.346 -0.701,0.84 -0.396,1.466c0.24,0.495 0.695,0.297 0.97,0.033c0.974,-0.939 2.198,-1.483 2.767,-3.082c0.189,-0.544 0.51,-1.483 0.775,-1.088c1.125,1.698 1.877,-0.148 2.797,-0.28c1.774,-0.231 3.519,-1.467 5.348,-0.478c0.659,0.346 1.678,-0.511 1.832,1.599c0.082,1.104 1.022,0.264 1.408,-0.429c0.805,-1.433 1.656,-0.494 2.559,-0.543c2.87,-0.149 5.042,3.181 7.906,2.389c2.167,-0.576 4.162,0.05 5.814,2.539c-2.117,-1.599 -4.017,1.285 -6.127,0.214c-1.261,-0.643 -2.604,0.214 -3.747,0.692c-2.483,1.072 -5.263,-0.346 -7.549,1.912c-0.106,0.115 -0.31,0.198 -0.406,0.132c-3.6,-2.604 -6.274,2.538 -10.166,1.599c2.393,2.489 6.131,3.329 8.716,1.961c1.142,-0.61 1.795,-0.363 2.659,0.577c1.056,1.121 1.937,3.115 3.686,1.797c0.496,-0.38 0.394,0.477 0.54,0.857c0.943,2.455 2.81,1.944 4.188,1.796c0.958,-0.099 0.383,-1.895 -0.121,-2.835c-0.581,-1.055 -1.728,-1.417 -2.055,-3.362c2.525,0.28 4.947,0.148 7.149,1.961c0.122,0.099 0.307,0.116 0.375,0.264c1.808,3.675 3.926,4.846 7.874,4.186c0.863,-0.131 1.686,-0.313 2.514,0.182c0.672,0.412 0.996,1.087 0.945,2.093c-0.05,0.989 -0.844,0.972 -1.081,1.401c-1.234,2.225 -4.084,1.187 -4.7,4.813c-0.154,0.906 -1.626,1.615 -2.46,2.521c-1.181,1.286 -1.597,-0.857 -2.335,-1.582c-1.706,-1.665 -4.466,0.099 -4.638,2.967c-0.06,1.005 -0.162,1.879 -1.044,1.747c-1.538,-0.247 -3.093,1.088 -4.619,-0.132c-0.322,-0.264 -0.74,-0.33 -0.87,0.313c-0.115,0.561 0.226,0.956 0.573,1.055c1.3,0.379 2.268,1.385 3.233,2.621c0.817,1.055 1.475,0.643 1.753,-0.841c0.089,-0.478 0.226,-0.758 0.517,-0.709c1.887,0.363 3.362,-2.571 5.495,-1.186c0.48,0.313 1.897,-1.022 2.375,-2.061c1.254,-2.703 2.677,-2.851 4.506,-1.384c0.34,0.273 0.805,0.249 1.217,0.354c-0.102,0.376 -0.778,0.852 -0.299,0.981c1.922,0.462 3.791,1.978 5.845,0.775c0.581,-0.33 1.293,-0.313 1.276,-1.583c-0.003,-0.329 0.325,-0.972 0.367,-0.956c2.846,1.418 3.849,-4.516 7.013,-3.197c1.205,0.511 3.105,-1.055 4.945,-0.709c2.379,0.445 2.793,0.692 2.246,4.846c2.172,-3.016 4.624,0.758 6.7,-1.582c0.086,-0.099 0.362,0.115 0.551,0.197c-0.543,2.671 1.105,1.22 1.705,1.698c0.951,0.758 2.008,1.022 2.932,2.176c0.811,1.022 2.386,0.939 3.641,1.17c1.065,0.181 1.613,1.137 2.123,2.225c0.246,0.527 0.265,1.137 -0.022,1.665c-0.489,0.939 -4.451,1.879 -5.132,1.153c-1.187,-1.252 -2.497,-1.73 -3.984,-1.763c-1.316,-0.033 -2.643,-0 -3.726,-1.615c-0.59,-0.89 -1.589,-0.132 -2.542,0.181c0.481,1.302 1.337,1.5 2.098,1.879c0.855,0.412 2.972,-0.083 0.832,2.406c-0.407,0.478 1.943,3.791 2.77,4.038c2.704,0.759 5.228,0.396 7.815,-1.186c1.797,-1.088 3.813,1.038 5.79,0.28c0.255,-0.099 0.571,0.247 0.461,0.742c-0.181,0.807 -0.559,1.615 -1.189,1.417c-1.263,-0.396 -1.955,0.989 -2.905,1.516c-1.013,0.577 -0.924,1.401 -0.036,2.061c1.936,1.466 4.194,0.774 5.64,-1.649c0.427,-0.708 0.872,-1.318 1.723,-0.692c-0.256,1.533 -2.022,2.588 -1.202,4.269c0.634,1.302 2.19,0.016 3.086,1.302c0.56,-1.384 -0.171,-1.764 -0.623,-2.291c-0.297,-0.346 -0.916,-0.461 -0.599,-1.253c0.222,-0.56 0.751,-0.741 1.142,-0.511c1.114,0.61 2.516,1.368 2.613,3.05c0.119,2.06 -1.404,2.291 -2.521,2.241c-2.542,-0.099 -4.71,1.681 -7.069,2.473c-1.555,0.51 -2.073,1.944 -1.18,4.005c0.68,1.582 0.352,2.258 -0.942,1.945c-0.725,-0.182 -1.411,-0.017 -2.117,0.164c-0.894,0.215 -1.712,0.627 -2.015,1.879c-0.38,1.583 0.934,1.714 1.363,2.654c0.529,1.121 1.444,0.906 2.076,0.165c0.655,-0.775 1.934,-0.66 1.817,-2.736c-0.051,-0.907 0.9,-0.709 1.357,-0.116c1.57,2.011 3.351,2.786 5.5,2.357c1.09,-0.23 1.588,1.385 2.472,2.077c-0.723,1.253 -1.364,-0.28 -2.012,0.198c0.365,1.714 1.067,2.258 2.447,2.307c2.115,0.066 4.198,0.099 6.308,-0.263c0.513,-0.09 1.156,-0.223 1.617,0.07c-0.428,-0.671 -1.09,-1.142 -2.897,-0.673c-0.725,0.186 -1.121,-0.708 -0.61,-1.293c0.577,-0.662 1.22,-1.324 2.225,-1.672c1.665,-0.568 2.373,-1.551 2.835,-2.794c0.593,-1.643 2.34,-2.86 3.593,-4.265c0.346,-0.388 0.89,-0.561 1.599,-0.315c0.494,0.345 1.73,-0.499 1.862,0.46c0.066,0.638 -0.89,0.606 -1.533,0.763c-2.109,0.518 -3.362,3.59 -1.994,5.649c0.709,1.067 0.972,1.793 -0.412,2.577c-0.89,0.514 -0.692,1.095 -0.049,1.67c0.145,0.13 0.292,0.26 0.437,0.391c0.14,-0.295 0.26,-0.607 0.353,-0.931c0.326,-1.121 1.518,-2.654 2.154,-2.522c0.968,0.198 2.286,0.61 2.86,2.225c0.162,0.478 0.218,1.072 -0.131,1.352c-1.088,0.873 -2.301,2.505 -3.309,2.307c-0.268,-0.054 -0.516,-0.074 -0.747,-0.064c-0.221,0.421 -0.645,0.796 -1.024,1.115c-0.433,0.365 -0.757,0.299 -1.054,0.105c-0.535,0.652 -1.027,1.507 -1.616,2.421c2.053,-0 3.789,0.625 5.455,1.49c0.554,-0.162 0.891,-0.457 0.742,-1.005c-0.198,-0.725 -0.956,-0.52 -1.648,-0.429c-0.94,0.122 -2.209,0.458 -2.456,-0.54c-0.214,-0.854 1.17,-0.767 1.879,-1.074c1.28,-0.553 2.512,-0.983 4.035,-0.995c0.223,-0.612 0.822,-0.977 1.408,-1.007c1.526,-0.083 2.547,-1.302 3.796,-2.176c1.63,-1.156 3.511,-1.818 5.369,-2.181c0.223,-1.531 1.3,-3.086 2.912,-3.779c3.099,-1.331 3.659,-2.255 2.687,-4.884c-0.235,-0.615 -0.168,-0.988 0.366,-1.381c-1.796,-1.762 -3.549,-3.603 -5.144,-5.74c-0.289,-0.379 -0.743,-0.709 -1.135,-0.742c-4.44,-0.396 -7.033,-5.208 -10.246,-8.406c-3.517,-3.494 -6.827,-7.4 -10.288,-11.043c-2.842,-2.983 -5.719,-6.279 -7.408,-10.894c-0.63,-1.714 -0.638,-3.61 -2.089,-5.044c-1.108,-1.104 0.015,-3.758 0.925,-4.862c1.352,-1.648 1.239,-2.736 0.105,-4.285c-0.458,-0.61 -0.908,-1.78 -0.527,-2.407c1.78,-3 1.141,-7.038 2.696,-10.334c1.508,-3.197 3.494,-6.197 4.228,-10.087c0.175,-0.923 0.534,-1.813 -0.273,-2.654c-1.364,-1.417 -0.857,-2.867 0.164,-4.137c1.379,-1.714 2.745,-3.461 4.225,-4.994c0.947,-0.989 1.502,-2.027 1.385,-3.692c-0.234,-3.313 0.56,-6.675 -0.338,-9.955c-0.331,-1.203 0.165,-2.142 0.615,-2.999c2.396,-4.582 3.984,-9.857 7.097,-13.878c1.775,-2.291 2.647,-6 3.774,-9.181c0.888,-2.505 1.881,-4.747 3.353,-6.757c1.432,-1.962 2.554,-4.484 3.465,-7.005c1.579,-4.368 3.794,-7.813 6.702,-10.483c0.353,-0.33 0.78,-0.659 0.969,-1.154c2.267,-5.785 6.279,-5.702 10.188,-5.752c1.627,-0.016 2.922,-0.989 3.552,-2.703c1.201,-3.296 2.713,-5.505 5.256,-7.137c1.506,-0.972 2.875,-2.076 4.562,-2.423c1.059,-0.214 1.963,-0.296 2.708,0.973c0.574,0.972 1.524,1.351 2.085,0.544c1.503,-2.176 2.752,-1.236 4.096,0.148c0.285,0.297 0.66,0.363 1.157,-0.115c-1.076,-1.863 -1.36,-4.698 -3.986,-4.055c-2.099,0.511 -3.315,-3.28 -5.574,-2.802c-0.24,0.05 -0.421,-0.461 -0.333,-0.923c0.611,-3.181 2.863,-4.961 4.99,-3.543c2.036,1.351 3.788,1.087 5.144,-1.22c0.532,-0.907 2.105,0.264 1.719,-1.747c-0.315,-1.648 -0.759,-3.395 -2.505,-2.06c-1.728,1.335 -2.486,-1.154 -3.288,-2.225c-0.612,-0.808 0.701,-2.028 1.276,-2.951c0.303,-0.478 1.404,0.462 1.136,-1.038c-0.189,-1.038 -1.142,-1.912 -1.633,-1.418c-2.633,2.671 -3.96,0.033 -5.522,-2.192c-0.389,-0.544 -0.891,-0.989 -1.131,-1.697c-0.327,-0.973 -1.813,-1.105 -1.328,-2.275c0.595,-1.45 1.286,0.181 1.93,0.544c0.372,0.214 0.704,0.066 0.925,-0.395c0.315,-0.676 0.284,-1.368 -0.142,-1.879c-0.423,-0.528 -0.949,-0.874 -1.371,-1.401c-0.355,-0.445 -0.851,-1.006 -0.468,-1.731c0.325,-0.626 0.77,-0.165 1.118,0.165c0.409,0.379 0.805,0.494 1.127,-0.116c0.37,-0.692 -0.105,-0.989 -0.363,-1.45c-1.15,-2.06 -2.823,-3.643 -3.058,-6.543c-0.021,-0.264 -0.154,-0.693 -0.293,-0.759c-2.491,-0.906 -3.408,-4.664 -5.679,-5.966c-0.518,-0.297 -1.053,-0.907 -1.571,-0.214c-0.534,0.708 -0.445,1.681 -0.149,2.488c0.353,0.956 0.863,1.814 1.293,2.72c0.838,1.747 1.959,3.148 2.237,5.538c0.206,1.764 1.763,2.703 2.95,3.626c0.559,0.429 1.19,0.725 1.428,1.665c0.142,0.577 0.257,1.153 -0.068,1.681c-0.338,0.544 -0.762,0.445 -1.173,0.198c-0.258,-0.149 -0.548,-0.314 -0.731,-0.594c-2.637,-4.054 -6.896,-5.373 -8.993,-10.317c-0.036,-0.083 -0.093,-0.215 -0.14,-0.215c-2.705,0.066 -2.54,-3.197 -3.143,-5.406c-0.7,-2.571 -3.143,-2.291 -3.81,-4.813c-0.027,-0.098 -0.565,-0.098 -0.76,0.066c-2.131,1.929 -3.237,-0.082 -3.546,-2.357c-0.447,-3.279 -1.332,-5.406 -3.818,-6.164c-0.616,-0.181 -0.878,-0.725 -1.252,0.363c-0.741,2.175 -1.791,1.566 -2.712,0.296c-0.808,-1.104 -1.442,-2.34 -2.735,-2.571c-0.923,-0.165 -0.928,-1.631 -1.166,-2.62c-0.291,-1.204 -0.283,-2.555 -0.864,-3.626c-0.382,-0.709 -0.753,-1.616 -1.484,-1.467c-0.814,0.164 -0.565,1.153 -0.545,1.912c0.017,0.642 -0.039,1.269 -0.623,1.236c-0.478,-0.05 -0.799,-0.577 -0.832,-1.187c-0.114,-2.11 -0.168,-4.203 -2.409,-2.752c-0.156,0.098 -0.54,-0.248 -0.724,-0.495c-1.477,-2.11 -3.445,-3.115 -5.222,-4.549c-0.686,-0.56 -1.432,-1.055 -1.677,-2.176c-0.377,-1.714 -1.046,-2.703 -2.434,-2.637c-0.684,0.033 -1.371,-0.395 -1.109,-1.598c0.235,-1.105 0.902,-0.544 1.449,-0.462c2.07,0.313 4.06,2.126 6.231,0.676c0.186,-0.132 0.56,-0.033 0.609,-0.182c1.278,-3.939 4.053,-2.785 6.259,-3.626c1.227,-0.445 2.094,-3.56 1.615,-5.323c-0.468,-1.731 0.192,-3.626 -0.01,-5.06c-0.528,-3.758 1.565,-6.148 2.066,-9.346c0.588,-3.757 0.366,-7.482 0.873,-11.158c0.253,-1.846 0.459,-3.313 2.258,-3.494c1.829,-0.198 3.6,-1.121 5.414,0.198c0.371,0.263 0.991,0.049 1.455,-0.132c3.856,-1.566 7.451,-1.022 10.724,2.39c0.521,0.544 1.205,1.219 1.755,0.61c1.571,-1.731 2.875,-0.363 4.352,0.263c1.593,0.66 3.359,0.429 4.903,1.533c0.717,0.495 1.711,0.593 1.589,2.308c-0.079,1.087 0.567,0.906 1.06,0.824c3.177,-0.478 5.639,1.186 8.125,3.988c1.648,1.863 3.723,3.231 6.387,3.099c3.33,-0.148 6.82,1.45 9.176,5.126c1.541,2.406 3.509,3.313 5.41,3.626c4.358,0.742 7.651,4.631 11.562,6.576c3.903,1.945 7.013,5.835 10.869,7.978c2.671,1.499 4.658,5.274 8.013,4.647c0.113,-0.016 0.305,0.132 0.364,0.281c1.486,3.659 4.312,2.933 6.615,4.005c2.02,0.923 3.551,3.247 5.642,4.252c1.248,0.61 -0.008,2.159 -0.155,3.313c0.809,-0.249 1.59,-0.297 2.351,-0.214c0.428,-0.174 0.914,-0.306 1.434,-0.404c0.859,-0.162 1.563,-0.432 2.034,-0.811c-1.189,-1.107 -2.425,-2.113 -3.837,-2.741c-1.532,-0.676 -2.953,-1.961 -4.323,-3.197c-4.614,-4.137 -9.771,-6.939 -14.386,-10.961c-3.528,-3.082 -6.965,-6.428 -10.498,-9.527c-5.531,-4.862 -11.377,-9.114 -16.611,-14.52c-5.35,-5.522 -11.097,-10.236 -16.28,-16.087c-2.241,-2.521 -4.919,-4.301 -7.394,-6.428c-0.604,-0.527 -1.236,-1.005 -1.79,-1.615c-1.527,-1.665 -1.412,-2.967 0.317,-4.022c0.782,-0.478 1.533,-1.153 2.352,-1.4c3.645,-1.105 5.165,-4.962 5.667,-9.346c0.547,-4.763 1.095,-9.625 0.727,-14.537c-0.134,-1.78 0.735,-3.296 1.525,-4.335c1.074,-1.401 2.081,-2.983 3.272,-4.17c1.122,-1.104 1.939,-1.945 1.153,-4.005c-0.295,-0.758 0.262,-1.154 0.601,-1.681c1.358,-2.06 3.878,-2.72 3.969,-6.362c0.016,-0.61 0.562,-0.429 0.866,-0.148c0.976,0.906 2.042,0.445 3.284,0.593c-0.529,-2.308 -2.045,-2.423 -3.307,-3.461c2.149,-0.627 3.97,0.198 5.767,0.873c1.838,0.693 3.128,-0.313 3.421,-2.604c0.25,-1.945 0.655,-3.906 0.547,-6.016c-0.076,-1.5 1.138,-2.538 2.17,-3.164c0.501,-0.314 1.164,-0.099 1.663,-0.412c0.855,-0.528 2.457,-0.165 1.67,-2.901c-0.299,-1.022 0.533,-2.456 0.562,-3.906c0.018,-0.874 0.937,-0.347 1.426,0.016c0.838,0.593 1.418,0.462 1.427,-1.022c0.01,-1.698 0.836,-1.846 1.734,-1.928c0.497,-0.05 1.001,-0.149 1.492,-0.083c6.374,0.89 12.815,1.583 18.961,4.055c3.11,1.269 6.233,2.604 9.36,3.84c4.194,1.648 8.409,3.099 12.463,5.439c2.591,1.484 6.66,-0.675 8.288,-3.873c0.553,-1.088 1.301,-1.78 2.016,-2.588c1.699,-1.945 1.648,-3.016 0.009,-4.895c-3.933,-4.516 -8.054,-8.636 -12.279,-12.642c-4.208,-3.988 -8.218,-8.438 -12.437,-12.443c-3.628,-3.445 -7.156,-7.071 -10.792,-10.5c-3.384,-3.197 -6.868,-6.164 -10.338,-9.131c-1.848,-1.565 -3.478,-3.28 -4.935,-5.455c-0.818,-1.236 -0.689,-1.747 0.398,-2.209c3.924,-1.648 7.911,-2.835 12.026,-2.752c2.434,0.033 2.991,-0.61 2.668,-3.841c-0.354,-3.527 1.11,-5.57 3.63,-4.746c2.999,0.972 5.834,0.527 8.622,-1.105c0.616,-0.362 1.352,-0.725 1.829,-0.082c1.307,1.764 2.725,-0.033 4.063,0.412c0.435,0.148 0.742,-0.478 0.815,-1.137c0.094,-0.824 -2.543,-4.797 -3.086,-4.533c-1.274,0.626 -2.078,-0.198 -2.198,-1.73c-0.126,-1.599 1.023,-1.665 1.857,-1.715c0.92,-0.049 1.852,0.264 2.766,0.165c0.62,-0.049 1.806,0.28 1.128,-1.73c-0.239,-0.709 -0.022,-0.989 0.786,-0.742c3.021,0.923 5.901,0.297 8.769,-1.121c1.286,-0.643 2.657,-0.412 4.016,-0.313c1.829,0.148 3.732,0.363 5.177,-1.747c0.973,-1.418 1.786,-3.247 3.564,-2.159c0.235,0.148 0.631,-0.116 0.62,-0.577c-0.008,-0.33 -0.222,-0.709 -0.41,-0.956c-4.412,-6.181 -8.077,-13.219 -11.718,-20.224c-1.472,-2.834 -3.081,-5.62 -4.255,-8.735c-0.568,-1.516 -1.964,-3.132 -0.684,-5.011c1.319,-1.944 2.972,-3.148 5.001,-2.225c0.808,0.363 1.562,0.956 2.36,1.385c0.46,0.247 1.072,0.692 1.417,0.478c2.434,-1.599 4.211,0.049 6.098,2.555c-0.063,-1.319 -0.434,-2.506 0.865,-2.258c0.952,0.164 1.809,0.478 2.597,1.186c1.609,1.418 3.403,2.407 5.262,2.192c1.461,-0.164 1.732,1.649 2.709,2.291c1.907,1.237 4.15,1.632 5.754,3.593c2.869,3.511 6.568,3.462 9.928,4.863c0.337,0.148 0.82,0.148 0.985,0.478c1.944,3.758 5.26,4.351 7.84,6.642c0.65,0.56 1.183,1.384 1.783,2.077c0.28,0.313 0.642,0.626 0.951,0.214c0.341,-0.462 0.059,-0.907 -0.209,-1.236c-0.856,-1.039 -1.714,-2.093 -2.594,-3.082c-0.546,-0.627 -0.896,-1.302 -0.558,-2.308c0.343,-0.989 0.981,-0.923 1.652,-0.873c1.544,0.115 2.483,1.813 3.754,2.587c1.514,0.923 3.152,1.434 5.17,2.324c-1.752,1.319 -3.385,0.61 -4.828,1.945c4.68,0.082 8.325,3.939 12.544,5.34c0.859,0.28 1.448,1.22 2.073,2.028c1.467,1.911 3.111,3.263 5.069,4.202c1.984,0.956 3.918,2.324 5.204,4.978c0.758,1.566 2.098,1.533 3.328,1.236c0.796,-0.181 0.871,-1.005 0.423,-1.747c-0.449,-0.758 -1.048,-1.318 -1.52,-2.39c1.827,0.577 3.353,-2.39 5.217,-0.379c0.426,0.462 1.032,0.313 1.383,-0.231c1.744,-2.67 3.14,-0.824 4.304,0.824c1.328,1.896 3.335,2.605 4.31,5.06c0.228,0.577 0.977,0.907 1.351,0.478c1.628,-1.862 2.784,-0.445 4.137,0.742c1.177,1.038 2.53,1.599 3.442,-0.791c0.312,-0.824 1.007,-0.989 1.506,-0.593c1.507,1.236 2.154,0.099 3.104,-1.434c0.991,-1.599 2.402,-2.588 4.208,-2.044c1.506,0.461 3.096,0.758 4.667,0.297c0.455,-0.116 1.155,0.098 1.187,-0.825c0.014,-0.412 -0.45,-0.955 -0.776,-1.302c-0.49,-0.511 -1.048,-0.906 -1.531,-1.648c2.627,0.132 5.216,0.462 7.744,1.451c0.469,0.181 0.965,0.906 1.338,0.774c1.924,-0.675 3.123,0.33 3.94,2.703c0.183,0.528 0.713,0.594 1.334,0.132c-1.142,-1.302 -0.947,-3.148 -0.199,-4.153c0.772,-1.039 2.069,-0.28 2.946,0.56c0.684,0.643 1.521,1.582 1.684,2.571c0.481,2.951 1.986,3.577 3.77,3.89c1.163,0.214 2.109,1.071 3.076,1.945c1.664,1.516 2.038,1.121 2.942,-1.088c0.657,-1.599 2.063,-1.022 3.123,-0.659c0.944,0.346 1.751,1.401 2.385,-0.692c0.279,-0.923 0.987,-0.396 1.429,0.197c1.404,1.896 3.109,2.44 5.017,2.819c2.327,0.461 4.003,3.181 6.141,4.466c0.498,0.297 0.882,1.055 1.505,0.89c1.869,-0.51 3.322,0.38 4.574,2.291c0.691,1.055 1.352,0.891 1.807,-0.494c0.442,-1.352 0.946,-2.654 1.425,-3.956c0.356,-0.989 0.909,-1.697 1.703,-1.203c0.937,0.577 0.539,1.599 0.236,2.522c-0.744,2.258 -1.28,4.516 0.578,6.329c0.588,0.577 1.309,1.187 1.944,0.396c0.595,-0.759 -0.236,-1.368 -0.376,-2.061c-0.249,-1.236 -1.148,-2.818 0.113,-3.609c1.04,-0.66 1.931,0.428 2.661,1.73c0.625,1.121 0.001,3.247 1.201,3.511c1.877,0.412 3.849,0.643 5.71,0.28c1.236,-0.247 2.067,-0.148 2.807,1.137c0.848,1.467 2.204,1.253 3.267,1.978c1.205,0.808 2.43,1.665 3.165,3.363c0.233,0.527 0.491,1.055 0.997,0.774c0.584,-0.329 0.586,-1.005 0.445,-1.747c-0.255,-1.318 -0.484,-2.653 -0.743,-3.988c-0.206,-1.039 -0.059,-1.995 0.489,-2.72c0.62,-0.824 1.355,-0.56 1.972,0.017c1.126,1.038 2.356,1.615 3.684,1.598c0.042,1.451 -1.247,1.022 -1.216,1.978c0.059,1.83 -1.961,2.687 -1.281,4.417c0.719,1.846 2.539,2.357 3.333,4.368c0.213,0.544 0.925,0.148 1.357,-0.28c1.378,-1.368 2.286,0.165 2.394,1.45c0.322,3.791 2.367,3.709 4.224,4.22c0.137,0.033 0.287,0.033 0.427,-0c3.327,-0.577 5.981,0.972 8.057,4.664c0.516,0.907 1.209,2.637 2.132,1.863c0.896,-0.775 -0.355,-2.061 -0.368,-3.165c-0.028,-2.406 -1.566,-2.802 -2.591,-3.873c-0.782,-0.841 -2.031,-1.566 0.293,-3.363c-2.654,0.116 -4.647,0.89 -6.498,-0.576c-0.505,-0.396 -0.907,0.115 -1.12,0.906c-0.656,2.423 -1.652,1.368 -2.382,0.214c-1.119,-1.78 -2.233,-3.461 -3.638,-4.895c-1.349,-1.368 -1.077,-3.956 -0.957,-5.999c0.075,-1.253 1.04,-2.143 2.125,-1.006c0.448,0.462 0.996,1.269 1.47,0.495c0.59,-0.973 -0.36,-1.203 -0.698,-1.714c-0.27,-0.396 -0.859,-0.627 -0.561,-1.368c0.233,-0.577 0.738,-0.478 1.165,-0.429c0.839,0.082 1.649,0.692 2.547,0.247c0.393,-1.236 -1.489,-0.84 -0.843,-2.06c0.525,-0.972 1.326,-0.28 1.989,-0.082c0.549,0.164 1.385,0.313 1.552,0.824c1.109,3.329 3.453,3.263 5.475,4.17c1.553,0.708 2.983,1.071 4.492,-0.264c1.183,-1.038 2.471,-0.626 3.691,0.148c0.712,0.445 1.406,1.088 2.156,1.269c1.241,0.297 2.65,-0.197 3.238,-1.565c0.612,-1.434 -0.75,-2.341 -1.439,-3.198c-1.191,-1.5 -2.687,-2.456 -4.267,-2.456c-2.27,0 -4.496,-1.203 -6.795,-0.313c-1.241,0.462 -2.04,-1.22 -3.15,-1.566c-2.679,-0.84 -5.558,-0.181 -8.095,-2.208c-0.576,-0.445 -1.49,-0.297 -1.744,0.972c-0.228,1.121 0.311,1.599 1.036,1.78c0.33,0.099 0.79,0.05 0.721,0.791c-0.051,0.528 -0.362,0.857 -0.739,0.907c-0.99,0.132 -1.987,0.346 -2.975,0.297c-1.201,-0.066 -2.45,-1.484 -3.482,0.824c-0.276,0.61 -1.344,-0.017 -1.956,-0.594c-1.12,-1.038 -2.163,-2.258 -3.593,-2.456c-0.334,-0.049 -0.699,-0.329 -0.676,-0.972c0.11,-3.148 0.113,-3.148 -2.423,-3.741c1.286,-1.154 2.613,-2.061 3.737,-1.401c2.208,1.285 3.843,-0.281 5.631,-1.352c1.091,-0.659 1.945,-1.928 3.194,-2.423c-1.195,-0.478 -2.341,-2.818 -3.394,0.462c-0.522,1.632 -3.16,1.846 -4.468,0.428c-0.952,-1.038 -1.974,-1.516 -3.099,-1.813c-0.952,-0.247 -2.085,-0.082 -2.046,-2.175c0.01,-0.561 -0.449,-0.874 -0.795,-0.726c-1.632,0.759 -2.36,-2.291 -4.031,-1.747c-0.634,0.215 -0.375,-0.873 -0.254,-1.565c0.295,-1.698 -1.929,-0.61 -1.432,-2.11c0.483,-1.451 1.515,0.214 2.303,-0.066c-0.722,-2.786 2.484,-1.846 2.233,-4.582c-0.075,-0.824 1.502,-1.83 2.588,-2.225c0.753,-0.264 1.7,-0.429 1.809,-2.456c-3.069,2.983 -5.902,-1.384 -8.892,0.033c0.285,1.071 0.869,0.692 1.31,0.791c0.723,0.181 1.825,-0.33 1.926,1.137c0.086,1.253 -0.4,2.819 -1.417,2.951c-2.568,0.329 -4.822,2.357 -7.369,2.521c-1.986,0.132 -3.597,-1.911 -5.904,-1.747c1.874,-2.818 1.923,-2.835 3.621,-0.939c0.354,0.395 0.786,0.824 1.149,0.56c1.98,-1.467 4.211,-0.511 6.363,-1.236c-0.426,-0.923 -0.697,-1.813 -1.159,-2.423c-0.713,-0.939 -1.498,-1.846 -2.359,-2.489c-1.378,-1.038 -1.347,1.055 -1.914,1.846c-0.428,0.61 -1.002,0.61 -1.727,0.61c0.366,-0.989 1.708,-1.912 0.048,-2.62c-0.326,-0.132 -0.325,-0.495 -0.257,-0.956c0.353,-2.423 0.043,-2.901 -1.73,-1.962c-0.995,0.528 -1.974,0.841 -3.071,0.857c0.241,1.583 1.391,1.022 1.829,1.896c-1.591,1.714 -1.79,1.368 -3.351,0.066c-2.264,-1.912 -3.204,-5.423 -5.504,-7.664c1.569,-1.105 3.038,-1.237 4.518,-0.874c0.196,0.462 0.105,0.692 -0.096,0.874c-0.4,0.346 -1.008,0.461 -0.948,1.384c0.037,0.56 0.356,0.808 0.728,0.923c0.641,0.165 1.149,-0.115 1.381,-0.989c0.537,-2.011 1.291,-1.994 2.409,-0.742c0.717,0.808 1.672,1.517 1.945,-0.675c0.139,-1.121 0.667,-0.874 1.126,-0.61c0.616,0.33 1.331,0.807 1.794,0.033c1.524,-2.588 3.906,-2.489 5.814,-3.84c0.537,-0.38 1.041,-0.709 1.577,-0.116c0.135,0.148 0.268,0.561 0.212,0.742c-0.234,0.725 -0.792,0.857 -1.262,0.873c-1.179,0.033 -1.969,1.006 -2.867,2.143c0.122,0.593 2.085,0.396 0.632,1.945c-0.3,0.313 -0.41,0.857 -0.143,1.318c0.326,0.544 0.807,0.528 1.146,0.116c1.079,-1.335 2.006,-0.758 3.09,0.099c0.982,0.758 2.176,1.269 3.301,0.857c1.784,-0.643 3.219,0.165 4.588,1.549c1.355,1.368 3.114,1.319 4.51,2.538c0.736,0.643 1.847,0.792 1.112,2.753c-0.476,1.269 -0.033,3.576 -2.019,2.456c-0.486,-0.281 -1.234,-0.445 -1.536,0.412c-0.32,0.906 0.494,1.285 0.74,1.961c0.408,1.088 1.431,0.709 2.155,1.764c-2.035,0.61 -3.882,0.741 -5.706,-0.165c-0.755,-0.379 -1.496,-0.643 -2.291,-0.528c-0.412,0.083 -0.971,0.017 -1.094,0.676c-0.122,0.643 0.803,0.396 0.728,1.22c-0.302,0.544 -0.772,0.346 -1.169,0.461c-0.353,0.116 -0.766,0.231 -0.67,0.857c0.045,0.297 0.358,0.561 0.587,0.759c1.307,1.12 2.616,0.527 3.893,-0.099c2.897,-1.418 5.869,-0.643 8.816,-0.808c2.659,-0.132 4.908,1.797 7.501,2.126c1.316,0.165 3.748,-0.329 4.662,2.703c0.183,0.61 0.901,0.083 1.383,-0.066c2.341,-0.758 4.409,-3.395 7.184,-1.17c1.026,0.808 2.68,-0.56 4.156,-0.428c2.474,0.197 4.757,1.12 6.993,2.39c0.902,0.51 1.586,0.51 2.327,-0.445c2.126,-2.736 3.395,-2.852 5.81,-0.61c0.884,0.824 1.876,1.483 2.502,2.736c0.355,0.725 0.849,1.467 0.273,2.39c-0.484,0.758 -1.076,0.791 -1.753,0.478c-1.504,-0.726 -2.706,-2.16 -4.077,-3.198c-0.432,-0.313 -0.824,-0.923 -1.335,-0.313c-0.417,0.478 -0.078,1.022 -0.025,1.582c0.364,3.824 -0.538,4.747 -3.079,3.247c-2.784,-1.665 -2.784,-1.665 -4.396,1.451c1.956,0.033 3.595,0.675 4.98,2.703c0.685,0.989 1.93,0.89 3.047,0.395c1.785,-0.807 3.478,-0.84 5.321,0.478c2.086,1.484 4.341,1.418 6.118,-1.384c0.976,-1.533 1.975,-1.418 3.148,-0.198c1.194,1.253 2.566,2.027 4.17,1.665c0.773,-0.165 1.42,0.412 1.536,1.598c0.154,1.55 0.429,3.231 -0.325,4.582c-0.531,0.956 -1.387,0.396 -1.975,-0.033c-1.06,-0.774 -1.993,-0.461 -3.069,-0.066c-1.697,0.61 -3.473,0.94 -4.182,-2.258c-0.156,-0.708 -0.49,-1.351 -1.087,-1.038c-0.935,0.494 -1.986,1.137 -2.087,2.687c-0.177,2.686 -1.177,1.763 -2.186,1.302c-0.06,-1.171 1.398,-1.302 0.824,-2.489c-0.626,-1.302 -1.928,-1.22 -2.519,-0.643c-1.858,1.83 -3.453,1.731 -5.136,-0.956c0.201,2.934 0.202,2.934 -1.571,2.357c-0.873,-0.28 -1.92,-0.33 -2.29,0.824c-0.456,1.418 0.51,1.962 1.341,2.456c1.194,0.725 2.392,1.236 3.716,1.104c1.175,-0.132 2.217,0.412 3.264,1.154c0.595,0.412 1.652,1.665 1.591,-0.989c-0.021,-0.939 0.941,-0.264 1.417,-0.049c0.444,0.214 1.201,1.022 0.735,1.384c-3.006,2.324 -0.755,3.544 0.42,4.763c0.06,1.368 -1.835,0.231 -1.141,2.209c0.463,1.319 0.923,2.357 2.187,2.209c1.288,-0.149 2.462,-0.726 3.073,-2.225c0.559,-1.385 0.998,-1.253 1.56,-0.297c0.795,1.351 1.884,1.582 2.912,1.203c1.582,-0.61 2.897,-0.478 4.408,0.643c0.851,0.643 1.807,0.84 2.295,2.192c0.478,1.319 1.621,0.874 2.348,1.434c-0.162,1.253 -1.194,0.775 -1.427,1.698c0.952,1.499 1.866,2.9 3.581,2.192c0.517,-0.215 1.303,0.791 0.971,1.483c-1.289,2.67 0.28,3.626 1.332,4.961c0.342,0.429 1.035,0.742 0.694,1.582c-0.283,0.693 -0.911,0.495 -1.366,0.248c-1.639,-0.89 -3.593,0.428 -5.126,-1.665c-0.573,-0.791 -1.64,0.049 -2.387,0.643c-0.61,0.494 -1.132,1.219 -1.947,0.725c-0.926,-0.56 -1.297,0.214 -1.489,1.335c-0.221,1.286 0.114,2.159 1.023,2.489c1.158,0.445 2.356,0.544 3.484,1.302c1.415,0.956 2.896,1.681 3.715,3.741c0.033,0.083 0.089,0.182 0.15,0.215c2.227,0.972 2.495,3.115 2.462,6.131c-0.024,2.093 -0.429,3.066 -1.727,4.038c0.334,-2.621 -0.595,-3.873 -2.164,-4.714c-2.242,-1.203 -4.423,-2.621 -6.631,-3.956c-0.393,-0.23 -0.833,-0.543 -1.135,0.099c-0.24,0.511 0.054,0.973 0.329,1.269c0.766,0.825 0.54,1.945 0.123,2.638c-0.7,1.157 -0.436,2.12 -0.054,3.193l-0.008,0.004l-0.003,0.017l0.024,0.016l-0.013,-0.037c1.686,-0.823 3.347,-1.626 5.186,-0.721c1.006,0.494 1.735,1.318 2.303,2.505c0.393,0.808 0.453,1.615 -0.44,1.632c-1.722,0.016 -1.338,1.384 -1.072,2.802c0.214,1.154 0.341,2.324 0.496,3.478c0.117,0.89 0.399,1.549 1.127,1.351c0.725,-0.198 0.52,-0.956 0.429,-1.648c-0.122,-0.94 -0.458,-2.209 0.54,-2.456c0.854,-0.214 0.767,1.17 1.074,1.879c0.656,1.516 1.137,2.967 0.958,4.912c-0.186,2.027 1.596,2.835 1.93,4.928c0.238,1.493 0.306,2.587 0.105,3.35c0.818,-0.289 1.66,-0.544 2.501,-0.781c5.775,-1.626 11.599,-3.212 17.58,-4.464c-0.028,-0.066 -0.036,-0.148 -0.015,-0.248c0.529,-2.522 -0.897,-2.423 -1.811,-3.066c-0.663,-0.445 -0.962,-1.186 -0.8,-2.175c0.172,-1.039 0.807,-0.841 1.381,-0.874c2.366,-0.148 2.365,-0.165 2.737,-2.637c0.742,0.264 1.167,0.956 1.07,1.549c-0.396,2.423 -0.881,4.813 -1.466,7.154c-0.007,0.027 -0.015,0.053 -0.026,0.077c0.561,-0.113 1.124,-0.223 1.689,-0.331c1.302,-0.245 2.489,-0.518 3.395,0.522c0.725,0.819 1.714,0.515 2.637,0.222c4.764,-1.502 9.412,-1.119 14.043,0.325c2.275,0.706 4.648,0.474 7.005,0.309c1.764,-0.123 3.247,0.028 3.148,1.709c-0.049,0.767 0.346,0.891 1.516,1.059c2.637,0.377 5.093,1.334 7.17,2.619c0.775,0.468 -0.428,4.045 -1.549,4.67c-2.918,1.623 -4.632,3.712 -5.851,6.246c-0.989,2.076 -2.901,3.966 -4.698,5.791c-1.614,1.641 -3.236,3.279 -4.841,4.923c0.485,-0.012 0.854,0.332 0.961,1.18c0.146,1.17 -0.008,2.176 -0.764,2.852c-1.178,1.021 -2.443,0.692 -3.396,-0.33c-0.062,-0.066 -0.122,-0.132 -0.182,-0.199c-1.934,2.035 -3.824,4.091 -5.63,6.186c-0.019,0.184 -0.042,0.369 -0.067,0.556c-0.15,1.105 0.696,1.583 0.554,2.736c-0.098,0.775 0.94,1.632 -0.075,2.621c-0.4,0.396 0.146,1.038 0.449,1.417c0.097,0.125 0.195,0.244 0.295,0.358c1.721,0.452 2.841,1.219 3.582,2.47l0.044,0.073c0.499,0.242 1.001,0.474 1.497,0.725c0.264,-0.031 0.544,-0.122 0.832,-0.271c1.034,-0.535 2.109,-1.016 3.208,-1.466c0.059,-0.339 0.034,-0.705 -0.12,-1.081c-0.308,-0.742 -0.861,-1.154 -1.459,-0.824c-2.037,1.154 -3.09,-2.027 -4.85,-2.093c-0.093,-0 -0.295,-0.726 -0.236,-1.055c0.296,-1.615 0.027,-3.049 -0.838,-4.187c1.048,-1.203 2.126,1.039 2.72,-0.395c0.573,-1.368 -0.851,-1.78 -1.316,-3.297c2.224,0.182 3.885,1.83 5.197,3.445c1.238,1.517 2.446,2.176 3.946,2.324c0.684,0.066 0.823,-0.016 0.911,1.368c0.079,1.234 0.053,2.782 0.693,4.041Zm-549.126,388.731c-0.824,0.062 -1.598,0.01 -2.109,-0.54c-0.544,-0.59 -0.017,-1.057 0.329,-1.572c1.665,-2.574 4.582,-4.333 7.582,-6.033c0.56,-0.313 1.071,-0.677 1.83,-0.437c0.906,0.282 0.89,0.853 0.824,1.445c-0.149,1.312 -0.314,2.648 -2.638,2.88c-1.071,0.107 -1.104,0.513 -1.203,1.156c-0.28,1.967 -1.978,3.046 -4.615,3.101Zm9.758,0.673c1.516,1.148 2.093,2.459 2.175,3.892c0.083,1.363 0.346,2.709 1.451,3.862c0.791,0.826 0.725,1.627 -0.033,2.377c-0.923,0.913 -1.599,0.034 -2.456,-0.191c-3.445,-0.908 -4.945,-3.56 -3.148,-5.87c0.511,-0.671 1.5,-1.148 1.665,-1.98c0.131,-0.695 0.23,-1.394 0.346,-2.09Zm5.505,-7.276c-3.857,-2.478 -4.797,-4.983 -2.736,-6.767c1.137,-0.993 1.483,-1.024 3.164,0.101c2.983,2.019 2.225,3.298 0,5.003c-0.379,0.297 -0.247,0.939 -0.428,1.663Zm1.76,-71.609c1.151,-0.314 2.036,-0.594 3.123,0.329c1.277,1.105 3.205,0.956 4.171,-0.132c0.869,-0.972 -1.14,-1.944 -1.371,-3.329c-0.046,-0.28 -0.176,-0.544 -0.303,-0.775c-0.607,-1.137 -1.539,-1.401 -2.272,-0.741c-1.883,1.681 -3.395,4.351 -6.133,3.642c1.341,1.434 2.418,3 4.138,2.819c-0.23,-1.105 -1.152,-0.61 -1.353,-1.813Zm7.856,76.486c-0.083,-0.211 -0.154,-0.432 -0.206,-0.669c-0.079,-0.363 -0.235,-0.73 -0.376,-1.093c-0.372,0.44 -0.536,0.968 0.031,1.358c0.194,0.132 0.378,0.266 0.551,0.404Zm3.075,36.448c0.725,-0.488 -0.412,-2.582 2.406,-1.281c0.66,0.303 1.352,0.132 1.945,-0.118c1.352,-0.553 2.374,-0.261 3.379,0.502c1.253,0.928 0.049,1.545 -0.396,2.247c-0.28,0.443 -0.659,0.89 -1.137,1.227c-0.742,0.531 -1.582,0.838 -1.632,-0.364c-0.066,-1.093 -0.478,-1.408 -1.977,-0.764c-2.077,0.897 -2.16,-0.413 -2.588,-1.449Zm16.371,-145.684c-1.096,1.632 -2.143,1.483 -3.09,1.747c-0.866,0.231 -1.497,0.709 -1.289,2.159c0.131,0.907 -0.448,2.225 0.392,2.67c0.963,0.511 2.334,0.725 2.999,-0.247c1.149,-1.665 2.139,-0.247 3.177,-0.231c0.336,0 0.451,0.791 0.307,1.253c-0.424,1.351 -1.312,-0.099 -1.928,0.643c-0.247,1.022 1.532,0.791 0.835,2.01c-0.461,0.808 -1.204,0.05 -1.82,0.05c-1.277,-0.033 -2.457,-2.011 -3.839,-0.346c0,1.302 1.13,0.527 1.558,2.241c-1.412,-0.906 -2.785,-0.132 -3.698,-1.813c-0.45,-0.84 0.089,-1.417 0.627,-1.846c0.16,-0.132 0.257,-0.412 0.452,-0.725c-1.631,-1.351 -3.247,0.198 -4.758,-0.099c-0.231,-0.807 0.165,-0.956 0.435,-1.219c0.438,-0.429 1.221,-0.33 1.281,-1.336c0.033,-0.56 -0.411,-0.791 -0.766,-0.791c-0.736,0.017 -1.544,-0.461 -2.094,0.791c-0.475,1.088 -4.293,0.94 -4.665,-0.181c-0.396,-1.203 0.229,-1.549 0.967,-1.615c0.535,-0.05 1.582,0.626 0.945,-1.154c-0.837,-2.34 0.251,-1.681 1.138,-1.533c1.058,0.182 1.668,1.434 2.799,1.764c2.237,0.676 3.684,-1.731 5.677,-1.879c1.318,-0.115 2.62,-0.412 4.358,-0.313Zm-14.652,19.45c-1.128,-2.305 0.289,-3.748 1.164,-4.929c1.113,-1.5 2.007,-0.116 2.719,1.269c0.28,0.544 0.992,0.923 1.01,1.401c0.039,1.071 0.918,2.01 0.45,2.917c-0.448,0.873 -1.158,-0.148 -1.767,-0.198c-1.194,-0.098 -2.384,-0.295 -3.576,-0.46Zm0.006,0.029l-0.022,-0.006c0.002,-0.008 0.004,-0.016 0.006,-0.024l0.01,0.001c0.005,0.011 0.011,0.021 0.016,0.032l-0.01,-0.003Zm8.221,75.114c0.508,-1.567 0.422,-1.587 -2.271,-1.403l-0.006,-0.006l-0.044,-0.043c0.31,-0.198 0.583,-0.395 0.822,-0.591c0.39,0.983 1.529,-0.198 2.263,0.128c0.107,0.05 0.175,0.264 0.381,0.577c-0.38,0.448 -0.758,0.888 -1.145,1.338Zm-1.122,-6.165c-0.103,-0.121 -0.216,-0.242 -0.336,-0.364c-0.577,-0.591 -0.659,-1.893 0.643,-2.519c1.187,-0.574 1.318,0.884 2.489,0.824c0.192,-0.421 0.465,-0.841 0.523,-1.2c0.65,0.301 1.318,0.614 2.047,0.957c-0.143,0.28 -0.28,0.589 -0.224,0.794c-0.219,-0.009 -0.425,0.038 -0.633,0.204c0.174,0.939 1.294,0.824 1.003,2.11c-0.207,0.049 -0.431,0.181 -0.609,0.115c-0.953,-0.379 -1.889,-0.857 -2.841,-1.236c-0.743,-0.304 -1.65,-0.583 -2.062,0.315Zm3.851,-37.96c1.333,0.824 -0.113,3.609 1.717,3.857c0.901,0.131 2.011,0.939 2.41,0.857c1.777,-0.379 3.613,1.73 5.191,-0c1.164,-1.269 1.601,-1.863 3.333,-0.495c1.597,1.269 4.341,0.907 6.838,-0.659c-2.165,-1.302 -3.963,-2.373 -5.645,-4.022c-1.382,-1.368 -3.921,-1.252 -5.71,-1.17c-2.569,0.132 -5.213,1.253 -8.134,1.632Zm4.078,-33.047c-0.944,0.017 -1.697,-0.247 -2.14,0.857c-0.309,0.775 -0.302,1.467 0.095,2.192c0.599,1.088 1.274,0.627 2.071,0.528c1.153,-0.132 2.756,-0.94 2.902,2.225c0.081,1.764 1.325,1.385 2.23,1.121c0.583,-0.181 1.565,0.148 1.597,-0.956c0.039,-1.368 -0.909,-1.83 -1.773,-2.093c-0.415,-0.132 -0.921,-0.099 -1.225,-0.429c-0.663,-0.709 -2.102,-0.363 -2.088,-1.384c0.031,-2.291 -1.023,-1.863 -1.669,-2.061Zm1.215,-4.697c1.527,-2.11 3.496,-2.538 5.229,-1.648c2.178,1.104 4.164,2.835 6.659,1.648c-1.143,1.582 -2.29,1.615 -3.871,1.5c-2.705,-0.181 -5.22,-2.093 -8.017,-1.5Zm3.447,23.368c0.425,-0.04 1.133,0.081 1.186,-0.128c0.716,-2.819 2.019,-1.154 3.287,-1.319c2.82,-0.396 1.643,2.555 1.723,3.626c0.129,1.731 -1.31,1.368 -2.122,1.236c-1.694,-0.262 -3.344,-0.852 -4.074,-3.415Zm18.395,10.882c-0.675,-2.176 -2.78,-2.588 -2.548,-5.341c0.01,-0.098 -0.396,-0.445 -0.505,-0.362c-1.905,1.22 -3.38,-0.989 -5.1,-1.22c-0.868,-0.115 -1.485,-0.313 -2.202,0.907c-1.151,1.978 -0.442,3.609 0.068,5.307c0.387,1.302 1.283,0.742 2.037,0.873c2.741,0.478 5.397,-3.56 8.25,-0.164Zm10.094,17.335c-0.103,-1.092 -1.31,-1.253 -1.869,-1.974c-0.313,-0.396 -0.57,-0.874 -0.881,-1.286c-1.244,-1.598 -2.637,-2.686 -4.423,-2.456c-0.633,0.099 -1.287,0.099 -1.893,0.33c-0.593,0.231 -0.851,1.071 -0.316,1.549c1.094,0.989 2.253,2.011 3.491,2.473c1.015,0.362 2.324,-0.429 1.605,2.291c-0.156,0.577 0.666,1.73 1.36,1.318c0.243,-0.141 0.521,-0.21 0.806,-0.259c0.258,-0.153 0.541,-0.293 0.854,-0.418c0.083,-0.033 0.182,-0.089 0.215,-0.15c0.265,-0.607 0.617,-1.069 1.051,-1.418Zm12.137,-12.786c-0.965,0.148 -1.798,-0.182 -2.675,0.659c-0.996,0.972 -1.938,0.264 -2.883,-0.725c-1.784,-1.863 -3.305,-1.022 -3.631,1.994c-0.12,1.121 -0.549,0.989 -1.016,0.989c-0.654,-0 -1.098,-0.363 -1.009,-1.434c0.079,-0.956 0.587,-1.829 0.164,-3.099c-1.182,0.66 -2.418,1.286 -3.751,1.022c-0.609,-0.132 -1.34,0.116 -1.527,-1.104c-0.161,-1.038 0.241,-1.681 0.811,-2.192c0.237,-0.214 0.434,-0.626 0.685,-0.692c2.03,-0.561 3.995,-1.352 5.914,-2.44c0.369,-0.214 1.588,-0.774 1.165,1.302c-0.15,0.726 0.726,0.594 1.182,0.627c2.06,0.148 2.06,0.148 1.671,3.098c1.93,-0.708 3.582,-0.115 4.9,1.995Zm-10.692,23.343c0.141,-0.077 0.267,-0.176 0.371,-0.273c0.825,-0.766 1.945,-0.54 2.638,-0.123c1.157,0.7 2.12,0.436 3.193,0.054l0.004,0.008l0.017,0.003l0.016,-0.024l-0.037,0.013c-0.444,-0.91 -0.882,-1.813 -1.049,-2.74c-1.428,0.639 -2.541,-0.073 -3.703,-1.307c-0.079,-0.083 -0.177,-0.153 -0.287,-0.21c-0.69,1.136 -1.401,2.267 -2.09,3.405c0.422,0.224 0.697,0.682 0.927,1.194Zm10.316,3.835c0.401,-0.36 0.857,-0.657 1.078,-1.4c-0.513,-1.154 -2.057,-0.775 -1.825,-1.945c0.016,-0.083 0.03,-0.162 0.043,-0.239c-0.651,-0.075 -1.483,-0.231 -2.549,-0.441c-0.274,-0.055 -0.565,-0.095 -0.84,-0.141c-0.456,0.678 -0.896,1.358 -1.368,2.067c0.329,0.002 0.635,0.004 0.919,0.006c0.832,-1.21 1.624,-0.449 2.569,0.144c1.093,0.203 1.405,0.7 1.973,1.949Zm0.46,-15.8c-0.399,0.049 -0.798,-0.021 -1.173,-0.237c-0.292,-0.164 -0.523,-0.329 -0.5,-0.807c0.017,-0.355 0.003,-0.652 -0.036,-0.901c0.093,0.156 0.196,0.304 0.32,0.436c0.466,0.493 0.809,1.089 1.389,1.509Zm3.193,-22.586c0.264,-0.742 0.956,-1.167 1.549,-1.07c2.423,0.396 4.813,0.881 7.154,1.466c0.609,0.149 0.708,1.249 0.049,1.111c-2.522,-0.529 -2.423,0.897 -3.066,1.811c-0.445,0.663 -1.186,0.962 -2.175,0.8c-1.039,-0.172 -0.841,-0.807 -0.874,-1.381c-0.148,-2.366 -0.165,-2.365 -2.637,-2.737Zm18.357,34.601c0.538,-0.994 1.417,-1.667 2.443,-2.363c0.116,-0.071 -0.033,-0.525 -0.164,-0.559c-2.028,-0.507 -1.583,-1.678 -1.649,-2.803c-0.049,-0.841 -1.203,-0.816 -2.093,-0.827c-0.041,-0 -0.082,0 -0.123,0.001c0.015,0.05 0.032,0.1 0.049,0.151c0.274,0.774 0.761,1.417 1.11,2.159c0.288,0.61 0.953,1.17 0.45,2.027c-0.422,0.709 -1.041,0.429 -1.599,0.214c-0.029,-0.011 -0.058,-0.023 -0.087,-0.035c-0.602,0.451 -1.242,0.62 -1.898,0.389c1.509,1.405 1.918,1.608 3.561,1.646Zm3.167,-10.246c-0.54,-3.253 -1.265,-3.313 -3.142,-1.03c0.348,1.608 1.162,1.895 3.142,1.03Zm5.752,-10.66c-0.034,-0.039 -0.068,-0.077 -0.104,-0.114c-0.846,-0.879 -1.709,-1.725 -2.578,-2.561c-0.852,1.185 -1.913,2.32 -1.091,3.871c0.277,0.523 0.377,1.116 0.123,1.643c0.256,-0.044 0.513,-0.084 0.77,-0.118c0.273,-0.035 0.544,-0.082 0.813,-0.117c-0.181,-1.012 0.462,-1.777 2.067,-2.604Zm-3.741,10.133c0.101,-0.003 0.205,-0.003 0.315,0c4.415,0.112 5.584,-0.593 4.269,-2.872c-0.231,0.07 -0.508,0.057 -0.803,0.009c-1.333,-0.196 -2.954,1.13 -3.781,2.863Zm73.769,-256.752c-2.984,-4.846 -4.369,-6.016 -8.793,-7.549c-0.576,-0.181 -1.306,-1.154 -1.736,-0.165c-0.483,1.105 0.46,1.962 0.955,2.258c3.066,1.879 6.194,3.56 9.574,5.456Zm27.486,7.997c1.373,0.598 2.737,1.272 4.16,1.546c-0.501,-0.391 -0.985,-0.816 -1.461,-1.257c-0.565,0.127 -1.226,0.094 -1.962,-0.248c-0.274,-0.126 -0.518,-0.117 -0.737,-0.041Zm182.257,-246.031c0.076,-1.17 1.444,-0.675 1.111,-1.944c-0.335,-1.27 -1.085,-2.11 -2.062,-2.324c-1.406,-0.297 -2.819,-0.231 -4.134,0.576c-0.485,-1.104 0.864,-2.192 -0.233,-3.032c-0.907,-0.709 -1.723,-0.561 -2.621,0.115c-1.666,1.236 -4.916,-0.972 -5.184,-3.478c-0.037,-0.329 0.065,-0.84 0.237,-1.021c0.378,-0.396 0.922,-0.33 1.167,0.164c0.948,1.846 1.804,3.56 3.411,0.89c0.16,-0.28 1.046,0.281 1.59,0.478c1.069,0.347 1.866,0.314 1.163,-1.664c-0.26,-0.726 -0.634,-1.434 -0.028,-2.094c0.723,-0.791 1.499,-0.28 2.242,0.017c0.771,0.313 0.719,1.022 0.478,1.879c-0.496,1.731 0.185,2.472 1.248,3.115c1.504,0.907 3.316,1.286 3.604,4.351c0.095,1.006 2.945,1.187 3.628,0.215c0.292,-0.413 0.464,-1.006 0.925,-1.105c1.236,-0.247 2.809,-0.346 3.348,1.088c0.674,1.813 -1.099,1.797 -1.799,2.423c-2.46,2.159 -5.164,2.489 -8.091,1.351Zm14.24,33.558c0.488,0.725 2.582,-0.412 1.281,2.406c-0.303,0.66 -0.132,1.352 0.118,1.945c0.553,1.352 0.261,2.374 -0.502,3.379c-0.928,1.253 -1.545,0.049 -2.247,-0.396c-0.443,-0.28 -0.89,-0.659 -1.227,-1.137c-0.531,-0.742 -0.838,-1.582 0.364,-1.632c1.093,-0.066 1.408,-0.478 0.764,-1.977c-0.897,-2.077 0.413,-2.16 1.449,-2.588Zm19.899,29.733c0.145,0.248 0.245,0.544 0.41,0.676c2.696,2.324 5.336,4.829 8.585,5.489c0.491,0.099 1.056,0.362 1.29,-0.478c0.263,-0.94 -0.293,-1.368 -0.753,-1.863c-2.333,-2.456 -5.471,-2.357 -7.839,-4.78c-0.497,-0.51 -1.396,-0.362 -1.693,0.956Zm14.15,-47.929c-1.148,1.516 -2.459,2.093 -3.892,2.175c-1.363,0.083 -2.709,0.346 -3.862,1.451c-0.826,0.791 -1.627,0.725 -2.377,-0.033c-0.913,-0.923 -0.034,-1.599 0.191,-2.456c0.908,-3.445 3.56,-4.945 5.87,-3.148c0.671,0.511 1.148,1.5 1.98,1.665c0.695,0.131 1.394,0.23 2.09,0.346Zm12.084,22.597c-0.847,-2.671 -2.358,-2.489 -3.928,-2.16c1.081,-3.049 0.891,-3.626 -1.429,-4.433c-0.832,-0.28 -1.653,-0.511 -2.359,-1.269c-0.471,-0.495 -1.112,-0.824 -1.565,-0.165c-2.198,3.23 -5.097,3.543 -8.064,4.087c5.647,2.572 11.635,2.077 17.345,3.94Zm-11.411,-32.355c-0.062,-0.824 -0.01,-1.598 0.54,-2.109c0.59,-0.544 1.057,-0.017 1.572,0.329c2.574,1.665 4.333,4.582 6.033,7.582c0.313,0.56 0.677,1.071 0.437,1.83c-0.282,0.906 -0.853,0.89 -1.445,0.824c-1.312,-0.149 -2.648,-0.314 -2.88,-2.638c-0.107,-1.071 -0.513,-1.104 -1.156,-1.203c-1.967,-0.28 -3.046,-1.978 -3.101,-4.615Zm19.743,86.02c0.253,-4.12 -2.008,-6.444 -3.462,-9.312c-0.208,-0.396 -0.933,-0.61 -1.363,-0c-0.911,1.285 -2.641,1.516 -2.615,4.021c0.009,0.923 -0.668,1.203 -1.095,1.022c-1.334,-0.577 -2.97,-0.28 -3.75,-2.587c-0.528,-1.55 -1.709,-2.654 -2.774,-2.127c-1.261,0.61 -2.476,1.929 -3.346,3.379c-0.604,0.989 0.332,1.549 1.011,1.286c1.33,-0.511 2.607,0.016 3.331,1.252c1.203,2.061 2.781,3.05 4.34,4.302c1.976,1.582 3.897,2.242 6.05,0.989c0.575,-0.346 1.147,-1.038 1.786,-0.379c2.091,2.143 1.753,-0.313 1.887,-1.846Zm-11.235,882.239c-0.314,-1.151 -0.594,-2.036 0.329,-3.123c1.105,-1.277 0.956,-3.205 -0.132,-4.171c-0.972,-0.869 -1.944,1.14 -3.329,1.371c-0.28,0.046 -0.544,0.176 -0.775,0.303c-1.137,0.607 -1.401,1.539 -0.741,2.272c1.681,1.883 4.351,3.395 3.642,6.133c1.434,-1.341 3,-2.418 2.819,-4.138c-1.105,0.23 -0.61,1.152 -1.813,1.353Zm-1.905,-952.996c2.478,-3.857 4.983,-4.797 6.767,-2.736c0.993,1.137 1.024,1.483 -0.101,3.164c-2.019,2.983 -3.298,2.225 -5.003,0c-0.297,-0.379 -0.939,-0.247 -1.663,-0.428Zm15.161,34.76c-2.098,-2.027 -3.792,-5.06 -6.683,-2.505c-0.561,0.478 -1.367,0.412 -2.059,-0.049c-0.39,-0.264 -0.896,-0.445 -1.075,0.296c-0.21,0.857 0.299,1.302 0.804,1.385c1.023,0.165 1.934,0.329 2.211,2.076c0.088,0.561 0.64,0.808 1.079,0.709c1.861,-0.395 3.862,0.099 5.723,-1.912Zm-6.103,5.307c-1.073,-0.379 -1.407,1.253 -2.175,1.846c-0.501,0.396 -1.521,-0.461 -1.533,0.907c-0.01,1.121 0.805,1.764 1.403,2.472c0.942,1.105 2.435,0.66 3.203,2.126c0.593,1.121 1.226,0.627 1.901,0.38c0.817,-0.297 1.087,-1.138 1.176,-2.209c0.215,-2.588 -1.765,-5.423 -3.975,-5.522Zm28.036,8.357c-1.488,-1.78 -3.26,-2.884 -4.448,-4.467c-1.785,-2.357 -3.211,-1.994 -5.091,-1.186c-1.414,0.593 -2.86,1.104 -4.243,-0.528c-0.615,-0.709 -1.345,-0.791 -1.733,0.857c-0.234,1.006 -1.006,2.044 -1.941,2.011c-0.995,-0.033 -0.854,-1.45 -1.004,-2.291c-0.516,-2.884 -2.012,-3 -3.757,-3c0.283,1.962 1.983,2.061 2.162,3.676c0.334,2.999 1.891,3.445 3.593,3.56c1.776,0.132 3.559,0.033 5.336,0.115c0.851,0.05 1.711,0.247 0.932,1.896c-0.26,0.56 -0.773,1.087 -0.219,1.78c0.415,0.511 0.968,0.445 1.412,0.099c0.977,-0.742 2.011,-1.022 3.09,-0.857c2.039,0.28 3.867,-0.693 5.911,-1.665Zm-18.333,16.086c-0.456,0.165 -0.777,0.313 -1.103,0.412c-0.555,0.182 -1.252,0.297 -1.075,1.385c0.14,0.873 0.734,2.011 1.267,1.698c2.227,-1.319 4.082,0.197 6.079,0.988c0.661,0.264 1.74,1.253 2.225,-0.362c0.505,-1.698 -0.21,-3.115 -1.311,-3.478c-2.134,-0.709 -3.351,-3.066 -5.001,-4.631c-0.609,-0.577 -2.095,-3.445 -2.042,0.725c0.008,0.676 -1.059,0.264 -0.906,1.368c0.436,0.775 1.404,0.445 1.867,1.895Zm-0.314,12.032c-1.195,-0.181 -1.648,0.659 -1.035,2.357c0.732,2.011 1.625,3.873 1.868,6.197c0.122,1.138 0.978,1.385 1.69,1.385c0.934,-0 1.911,-0.396 2.432,-1.451c0.425,-0.873 -0.027,-1.977 -0.555,-2.637c-0.921,-1.137 -1.618,-2.488 -2.154,-3.972c-0.482,-1.351 -1.3,-1.714 -2.246,-1.879Zm1.499,852.486l-0.383,-0.058c0.022,0.14 0.042,0.28 0.06,0.42c0.094,-0.153 0.215,-0.269 0.354,-0.358l-0.031,-0.004Zm9.878,-858.765c-0.046,0.275 -0.086,0.566 -0.141,0.84c-0.912,4.632 -0.815,4.829 2.586,5.06c2.009,0.148 3.254,3.379 2.184,5.752c-0.732,1.616 -2.256,1.286 -2.515,0.314c-1.126,-4.187 -4.634,-3.973 -6.269,-7.055c-0.116,-0.214 -0.258,-0.412 -0.402,-0.643c2.465,-1.104 2.465,-1.104 2.49,-5.636c0.709,0.472 1.389,0.912 2.067,1.368Zm-0.105,867.417c-0.052,-0.173 -0.166,-0.348 -0.355,-0.526c-0.363,-0.348 -0.907,-0.243 -1.335,-0.043c-0.556,0.269 -1.493,0.418 -1.791,0.839c0.311,0.136 0.621,0.291 0.932,0.454c0.775,0.412 1.299,0.198 2.099,-0.396c0.148,-0.112 0.298,-0.221 0.45,-0.328Zm3.797,-840.589c0.501,-0.159 1.083,-0.061 1.652,-0.095c0.841,-0.049 0.816,-1.203 0.827,-2.093c0.009,-0.857 -0.312,-1.928 -0.043,-2.538c0.69,-1.549 -0.043,-2.176 -0.74,-2.851c-0.462,-0.445 -1.064,-0.956 -1.554,-0.264c-0.594,0.824 -0.558,2.011 -0.338,3.066c0.146,0.708 0.766,1.285 0.126,2.06c-0.549,0.676 -1.094,1.401 -1.848,0.478c-0.717,-0.857 -0.869,-1.797 -0.107,-2.753c0.545,-0.692 0.752,-1.566 0.347,-2.39c-0.561,-1.137 -0.924,0.297 -1.407,0.363c-0.281,0.049 -0.573,0.165 -0.838,0.082c-1.34,-0.362 -1.815,0.132 -1.067,1.912c-0.017,0.132 -0.024,0.231 -0.041,0.313c-0.244,1.401 -0.227,3.495 0.469,3.758c1.007,0.392 1.702,1.092 2.346,1.956c1.02,-0.04 1.081,-0.898 1.789,-1.21c0.191,0.033 0.326,0.107 0.427,0.206Zm1.111,838.865c0.095,0.006 0.191,0.014 0.287,0.025c1.415,0.165 2.001,1.813 1.179,3.148c-0.492,0.808 -0.07,1.286 0.196,1.797c0.626,1.186 1.642,1.236 2.526,1.203c0.988,-0.066 1.637,0.296 2.287,1.879c-0.153,-3.791 1.596,-2.918 2.981,-3.148c1.295,-0.215 3.084,0.989 3.554,-2.258c0.151,-1.039 0.973,-0.709 1.091,0.362c0.203,1.912 0.961,1.055 1.51,0.61c0.627,-0.511 1.834,-0.544 1.665,-1.879c-0.172,-1.351 -1.182,-1.022 -1.972,-0.857c-0.898,0.198 -1.784,0.626 -2.147,-1.351c-0.187,-1.006 -1.698,-0.907 -1.707,-0.38c-0.047,2.489 -1.029,1.039 -1.532,0.775c-1.326,-0.692 -2.702,-0.725 -4.008,-0.379c-1.646,0.429 -3.186,-0.448 -4.758,-0.821c-0.713,0.114 -0.828,0.616 -1.042,1.05l-0.11,0.224Zm20.811,-856.661c-0.345,0.494 0.499,1.73 -0.46,1.862c-0.638,0.066 -0.606,-0.89 -0.763,-1.533c-0.518,-2.109 -3.59,-3.362 -5.649,-1.994c-1.067,0.709 -1.793,0.972 -2.577,-0.412c-0.514,-0.89 -1.095,-0.692 -1.67,-0.049c-0.443,0.494 -0.885,1.005 -1.365,1.417c-1.009,0.874 -1.87,-0.066 -2.508,-0.824c-0.779,-0.923 0.404,-1.352 0.6,-2.077c0.32,-1.187 1.223,-1.599 1.921,-2.258c0.998,-0.939 2.932,-0.692 2.132,-3.774c-0.186,-0.725 0.708,-1.121 1.293,-0.61c0.662,0.577 1.324,1.22 1.672,2.225c0.568,1.665 1.551,2.373 2.794,2.835c1.643,0.593 2.86,2.34 4.265,3.593c0.388,0.346 0.561,0.89 0.315,1.599Zm59.212,791.851c-0.129,-0.117 -0.265,-0.216 -0.413,-0.285c-0.77,-0.362 -1.661,0.573 -2.386,-0.163c-1.331,-0.16 -1.448,-1.36 -1.72,-2.33c-0.533,0.517 -1.311,0.384 -2.049,0.492c-0.081,0.075 -0.156,0.149 -0.214,0.224c-0.124,0.162 -0.261,0.314 -0.409,0.458c1.924,2.071 4.04,2.847 6.249,3.089c0.097,-0.305 0.192,-0.601 0.39,-0.809c0.21,-0.221 0.393,-0.446 0.552,-0.676Zm-1.851,75.334c-0.197,1.121 0.312,1.319 0.98,1.154c0.864,-0.198 1.547,0.181 2.079,1.088c1.747,2.999 2.432,2.966 5.038,1.763c1.222,-0.544 2.265,-2.637 3.828,-1.434c0.431,0.33 0.821,0.956 1.321,0.33c0.427,-0.544 0.311,-1.302 0.159,-1.945c-0.195,-0.824 -0.85,-0.989 -1.241,-0.725c-1.396,0.956 -3.276,-0.692 -4.426,1.648c-0.135,0.28 -0.817,0.198 -1.203,0.049c-1.67,-0.609 -3.609,-0.379 -4.672,-2.95c-0.258,-0.626 -0.866,-0.593 -1.376,-0.445c-0.595,0.165 -0.52,0.791 -0.487,1.467Zm1.39,-39.943c0.454,0.131 0.909,0.272 1.366,0.414c0.17,0.078 0.351,0.135 0.545,0.17c-0.182,-0.057 -0.364,-0.114 -0.545,-0.17c-0.475,-0.217 -0.863,-0.588 -1.202,-1.045l-0.041,0.153c-0.027,0.103 -0.053,0.206 -0.08,0.309l-0.043,0.169Zm170.893,-897.493c-0.56,-1.412 -1.054,-2.921 -1.763,-4.38c-0.313,-0.647 -1.286,-0.635 -2.028,-0.338c-0.791,0.328 -0.543,0.858 -0.065,1.271c1.236,1.115 0.642,2.581 1.466,3.816c0.528,0.795 -0.23,1.501 -1.697,1.47c-0.94,-0.019 -1.5,0.271 -1.517,0.987c0,0.636 0.495,0.942 1.286,1.254c2.159,0.857 3.395,0.727 3.577,-1.277c0.066,-0.91 0.461,-1.805 0.741,-2.803Zm44.634,214.255c-1.072,-2.436 -1.154,-5.217 -2.061,-7.889c-0.313,-0.938 -1.302,-0.765 -1.994,-0.19c-0.742,0.611 -0.593,1.385 -0.033,1.992c0.94,0.991 0.593,1.882 0.33,2.982c-0.643,2.69 -0.841,5.44 -1.105,8.171c-0.049,0.508 0,1.25 0.94,1.428c1.022,0.194 1.566,-0.391 2.093,-0.934c1.549,-1.616 1.203,-3.548 1.83,-5.56Zm5.422,-20.669c0.198,0.711 -0.494,1.889 0.758,2.044c1.22,0.15 1.352,-0.992 1.599,-1.741c0.099,-0.344 0.149,-0.742 0.412,-1.003c0.462,-0.442 1.302,-0.372 1.203,0.172c-0.412,2.299 1.105,4.698 -0.659,6.916c-0.494,0.625 -0.939,1.256 -0.873,2.003c0.033,0.42 0.016,0.909 0.692,1.089c0.659,0.183 1.187,-0.149 1.45,-0.512c1.105,-1.467 2.028,-1.242 2.983,0.074c0.297,0.424 0.808,0.695 1.401,0.266c0.495,-0.359 0.396,-0.746 -0.181,-1.087c-1.615,-0.959 -0.807,-1.758 0.511,-2.315c1.698,-0.724 1.912,-1.548 1.137,-2.821c-1.203,-2.006 1.797,-4.254 -0.527,-6.252c2.291,-1.367 1.104,-3.478 2.11,-5.118c0.329,-0.535 -0.033,-1.6 1.681,-1.233c0.857,0.183 0.89,-0.406 0.989,-0.79c0.115,-0.426 0.049,-0.8 -0.594,-1.084c-3.049,-1.351 -6.18,-0.447 -6.164,2.173c0.017,3.341 -2.192,5.278 -5.966,6.64c-1.533,0.552 -2.209,1.353 -1.962,2.579Zm6.28,-21.323c2.258,0.019 2.802,-0.775 2.291,-2.184c-0.198,-0.536 -0.445,-1.308 0.56,-1.45c1.187,-0.168 1.813,0.619 1.879,1.32c0.099,0.906 -0.247,1.828 -0.313,2.746c-0.033,0.712 -0.016,1.466 1.088,1.835c0.494,0.169 0.972,0.025 1.335,-0.248c0.742,-0.56 1.005,-1.161 0.527,-1.936c-1.747,-2.767 -1.038,-5.994 -3.395,-8.632c1.203,-0.391 1.665,0.812 2.901,0.123c-1.319,-0.241 -0.808,-1.723 -2.456,-1.611c-0.906,0.063 -1.483,0.713 -1.714,1.351c-1.055,2.848 -2.917,5.573 -2.703,8.686Zm9.658,-18.867c1.83,2.206 1.484,5.083 2.621,7.723c0.066,0.131 0.181,0.259 0.313,0.358c0.511,0.384 1.451,0.313 1.335,-0.081c-0.461,-1.606 1.006,-2.846 1.5,-4.218c1.121,-3.101 -1.483,-5.936 -0.593,-8.955c0.263,-0.886 -0.742,-1.46 -1.896,-1.628c-1.219,-0.18 -1.763,0.435 -1.961,1.215c-0.412,1.745 -0.824,3.494 -1.319,5.586Zm16.433,9.902c-3.28,2.095 -4.203,7.047 -2.093,9.299c0.675,0.711 2.011,1.776 0.28,2.233c-1.286,0.338 -1.187,0.836 -1.615,1.417c-1.352,1.828 -0.643,3.95 -1.764,5.797c-0.198,0.335 -0.264,0.751 0.28,0.932c0.66,0.216 1.121,-0.14 1.5,-0.467c0.445,-0.365 0.181,-0.818 0.264,-1.225c0.593,-2.8 2.241,-5.057 5.241,-7.084c1.385,-0.94 2.044,-3.532 1.253,-4.792c-0.989,-1.577 -0.989,-2.925 -0.874,-4.45c0.017,-0.187 -0.148,-0.382 -0.214,-0.534c-0.989,-0.247 -1.137,0.839 -2.143,0.578c-0.033,-0.459 -0.066,-0.931 -0.115,-1.704Zm18.064,-9.827c0.083,0.881 -0.181,1.651 0.725,2.163c0.577,0.317 1.138,0.093 1.599,-0.201c0.775,-0.497 1.22,-1.083 0.923,-1.881c-1.137,-3.073 0.989,-5.941 1.352,-8.922c0.198,-1.725 0.132,-3.734 1.45,-5.443c0.313,-0.424 0.33,-1.209 -0.807,-1.343c-1.022,-0.121 -1.665,0.32 -1.995,0.991c-0.296,0.623 -0.428,1.328 0,1.874c1.286,1.621 0.544,3.142 -0.115,4.722c-0.544,1.318 -1.302,1.958 -3.033,0.842c-0.643,-0.405 -1.187,-0.757 -1.994,-0.153c-1.269,0.959 -0.346,4.399 1.368,4.4c2.983,0.002 1.5,0.849 0.972,1.693c-0.28,0.439 -0.346,0.951 -0.445,1.258Zm24.278,125.676c-0.263,-0.556 0.544,-1.766 -0.972,-1.773c-1.203,-0.006 -1.286,1.131 -1.17,1.907c0.115,0.743 -0.297,1.378 -0.445,2.063c-0.445,1.987 -2.605,3.674 -1.929,5.84c0.28,0.937 0.099,1.467 -1.467,1.837c-1.516,0.359 -1.533,1.567 -0.972,2.566c0.692,1.201 1.796,0.679 2.934,0.316c2.406,-0.78 3.082,-2.054 2.291,-3.819c-1.039,-2.355 -0.726,-4.625 0.923,-6.79c0.478,-0.637 0.774,-1.301 0.807,-2.147Zm-3.758,-109.057c-1.203,0.005 -0.708,-1.284 -1.846,-0.904c-0.824,0.275 -0.807,0.922 -0.609,1.507c0.692,2.112 1.78,4.234 -0.61,6.202c-0.379,0.315 -0.248,0.694 0.395,0.806c0.742,0.129 4.665,-2.189 4.648,-2.769c-0.016,-0.707 -0.148,-1.413 -0.231,-2.118c-0.214,-1.609 1.484,-2.21 3.05,-2.555c0.708,-0.153 1.879,1.009 2.455,-0.315c0.33,-0.741 0.676,-1.498 0.38,-2.296c-0.149,-0.399 -0.116,-0.927 -0.726,-1.095c-0.692,-0.186 -1.071,0.274 -1.417,0.595c-0.973,0.911 -1.896,1.384 -3.362,0.37c-0.874,-0.597 -1.434,0.054 -1.665,0.62c-0.231,0.602 -0.297,1.243 -0.462,1.952Zm22.498,227.837c3.28,-2.83 3.61,-6.096 3.495,-9.472c-0,1.061 -1.434,1.522 -1.846,2.399c-0.396,0.842 0.758,1.827 -0.412,2.583c-0.594,-0.021 -0.676,-0.307 -0.66,-0.591c0,-1.443 -1.236,0.119 -1.928,-0.408c-0.627,-0.487 -1.039,0.346 -1.236,0.781c-0.165,0.364 -0.66,1.053 -0.033,1.111c3.23,0.295 1.631,2.283 2.62,3.597Zm37.739,-8.391c-1.107,2.424 -6.26,2.59 -6.06,5.567c-3.824,2.075 0.412,1.16 1.121,1.552c0.131,0.918 -1.467,1.496 -1.006,2.615c3.181,-1.105 2.654,-3.376 3.313,-5.425c0.885,1.29 1.415,2.422 1.851,3.625l0.086,0.241c-0.942,-2.781 -0.158,-5.438 0.695,-8.175c0.078,-0.17 0.135,-0.351 0.17,-0.545l-0.17,0.545Zm37.057,74.453c-3.791,0.153 -2.918,-1.596 -3.148,-2.981c-0.215,-1.295 0.989,-3.084 -2.258,-3.554c-1.039,-0.151 -0.709,-0.973 0.362,-1.091c1.912,-0.203 1.055,-0.961 0.61,-1.51c-0.511,-0.627 -0.544,-1.834 -1.879,-1.665c-1.351,0.172 -1.022,1.182 -0.857,1.972c0.198,0.898 0.626,1.784 -1.351,2.147c-1.006,0.187 -0.907,1.698 -0.38,1.707c2.489,0.047 1.039,1.029 0.775,1.532c-0.692,1.326 -0.725,2.702 -0.379,4.008c0.626,2.403 -1.533,4.583 -0.84,6.962c0.049,0.17 -0.413,0.577 -0.693,0.611c-4.17,0.487 -3.527,2.912 -3.923,4.946c-0.824,4.282 -0.626,8.643 -2.159,12.883c-0.642,1.753 -1.813,3.492 -1.351,5.415c0.148,0.637 0.099,1.331 1.187,1.563c0.988,0.212 2.01,0.201 2.752,-0.395c0.824,-0.681 1.665,-1.335 1.681,-2.4c0.017,-2.661 0.313,-5.321 0.33,-7.981c0.033,-2.079 1.137,-3.108 4.12,-2.555c1.368,0.253 1.78,-0.106 1.319,-0.93c-0.956,-1.669 -0.33,-3.208 0.478,-4.752c0.412,-0.775 0.198,-1.299 -0.396,-2.099c-1.285,-1.706 -2.258,-3.618 -2.027,-5.645c0.165,-1.415 1.813,-2.001 3.148,-1.179c0.808,0.492 1.286,0.07 1.797,-0.196c1.186,-0.626 1.236,-1.642 1.203,-2.526c-0.066,-0.988 0.296,-1.637 1.879,-2.287Zm1.704,252.67c1.412,-0.56 2.921,-1.054 4.38,-1.763c0.647,-0.313 0.635,-1.286 0.338,-2.028c-0.328,-0.791 -0.858,-0.543 -1.271,-0.065c-1.115,1.236 -2.581,0.642 -3.816,1.466c-0.795,0.528 -1.501,-0.23 -1.47,-1.697c0.019,-0.94 -0.271,-1.5 -0.987,-1.517c-0.636,0 -0.942,0.495 -1.254,1.286c-0.857,2.159 -0.727,3.395 1.277,3.577c0.91,0.066 1.805,0.461 2.803,0.741Zm0.768,-324.367c1.121,0.197 1.319,-0.312 1.154,-0.98c-0.198,-0.864 0.181,-1.547 1.088,-2.079c2.999,-1.747 2.966,-2.432 1.763,-5.038c-0.544,-1.222 -2.637,-2.265 -1.434,-3.828c0.33,-0.431 0.956,-0.821 0.33,-1.321c-0.544,-0.427 -1.302,-0.311 -1.945,-0.159c-0.824,0.195 -0.989,0.85 -0.725,1.241c0.956,1.396 -0.692,3.276 1.648,4.426c0.28,0.135 0.198,0.817 0.049,1.203c-0.609,1.67 -0.379,3.609 -2.95,4.672c-0.626,0.258 -0.593,0.866 -0.445,1.376c0.165,0.595 0.791,0.52 1.467,0.487Z" fill-rule="nonzero"/>
</svg>
