<svg xmlns="http://www.w3.org/2000/svg" viewBox="0 0 1024 1024"><path fill="#252525" d="M512 924c180.54 0 280.9 0 346.45-65.55C924 792.9 924 692.54 924 512s0-280.9-65.55-346.45C792.9 100 692.54 100 512 100s-280.9 0-346.45 65.55C100 231.1 100 331.46 100 512s0 280.9 65.55 346.45C231.1 924 331.46 924 512 924Z"/><path fill="#0080ff" d="M236.51 573.82c0-26.7-7.74-47.3-22.77-61.82 15.03-13.58 22.77-34.19 22.77-61.35v-99.29c0-15.45 3.19-26.22 9.56-33.25 6.38-6.55 16.85-9.83 31.87-9.83h17.14a12 12 0 0 0 12-12V282.8a12 12 0 0 0-12-12h-17.14c-25.04 0-44.62 7.03-57.82 20.6-13.2 14.06-20.03 34.2-20.03 59.95v99.29c0 14.99-3.2 25.76-9.57 32.31-6.83 7.03-12.75 10.3-27.77 10.3H162a12 12 0 0 0-12 12v13.47a12 12 0 0 0 12 12h.75c15.02 0 20.94 3.28 27.77 9.84 6.38 7.02 9.56 17.8 9.56 33.25v98.81c0 25.76 6.83 45.9 20.04 59.95 13.2 13.58 32.78 20.6 57.82 20.6h17.14a12 12 0 0 0 12-12v-13.46a12 12 0 0 0-12-12h-17.14c-15.02 0-25.5-3.28-31.87-9.83-6.37-7.03-9.56-17.8-9.56-33.26v-98.81Zm281.7 65.6a12 12 0 0 0 12-12v-160.8c0-15.46 3.19-26.23 10.02-32.8 6.37-6.55 16.85-9.83 31.87-9.83h28.69c15.02 0 25.5 3.28 32.32 9.84 6.38 6.56 9.57 17.33 9.57 32.78v160.81a12 12 0 0 0 3.51 8.49 12 12 0 0 0 8.49 3.51h12.42a12 12 0 0 0 12-12v-160.8c0-25.77-6.83-45.9-20.03-59.49-13.66-13.58-33.24-20.6-58.28-20.6H572.1c-26.86 0-46.9 7.5-60.1 22.95-13.2-15.46-32.78-22.95-59.65-22.95h-29.14c-25.5 0-45.07 7.02-58.28 20.6-13.2 13.59-20.03 33.72-20.03 59.48v160.81a12 12 0 0 0 12 12h12.42a12 12 0 0 0 8.49-3.51 12 12 0 0 0 3.51-8.49v-160.8c0-15.46 3.2-26.23 10.02-32.8 6.38-6.55 16.85-9.83 31.87-9.83h29.14c14.57 0 25.05 3.28 31.88 9.84 6.37 6.56 9.56 17.33 9.56 32.78v160.81a12 12 0 0 0 12 12h12.42Zm269.28-65.6c0-26.7 7.74-47.3 22.77-61.82-15.03-13.58-22.77-34.19-22.77-61.35v-99.29c0-15.45-3.19-26.22-9.56-33.25-6.38-6.55-16.85-9.83-31.87-9.83h-17.14a12 12 0 0 1-12-12V282.8a12 12 0 0 1 12-12h17.14c25.04 0 44.62 7.03 57.82 20.6 13.2 14.06 20.04 34.2 20.04 59.95v99.29c0 14.99 3.18 25.76 9.56 32.31 6.83 7.03 12.75 10.3 27.77 10.3h.75a12 12 0 0 1 12 12v13.47a12 12 0 0 1-12 12h-.75c-15.02 0-20.94 3.28-27.77 9.84-6.38 7.02-9.57 17.8-9.57 33.25v98.81c0 25.76-6.82 45.9-20.03 59.95-13.2 13.58-32.78 20.6-57.82 20.6h-17.14a12 12 0 0 1-12-12v-13.46a12 12 0 0 1 12-12h17.14c15.02 0 25.5-3.28 31.87-9.83 6.37-7.03 9.56-17.8 9.56-33.26v-98.81Z"/></svg>
