<?xml version="1.0" encoding="UTF-8" standalone="no"?>
<!DOCTYPE svg PUBLIC "-//W3C//DTD SVG 1.1//EN" "http://www.w3.org/Graphics/SVG/1.1/DTD/svg11.dtd">
<svg width="100%" height="100%" viewBox="0 0 1024 1024" version="1.1" xmlns="http://www.w3.org/2000/svg" xmlns:xlink="http://www.w3.org/1999/xlink" xml:space="preserve" xmlns:serif="http://www.serif.com/" style="fill-rule:evenodd;clip-rule:evenodd;stroke-linejoin:round;stroke-miterlimit:2;">
    <rect id="icon-mask-mono" x="0" y="0" width="1024" height="1024" style="fill:none;"/>
    <clipPath id="_clip1">
        <rect id="icon-mask-mono1" serif:id="icon-mask-mono" x="0" y="0" width="1024" height="1024"/>
    </clipPath>
    <g clip-path="url(#_clip1)">
        <rect x="0" y="0" width="1024" height="1024" style="fill:#0080ff;"/>
        <g>
            <path d="M236.51,573.819c-0,-26.695 -7.74,-47.301 -22.766,-61.819c15.026,-13.581 22.766,-34.188 22.766,-61.351l-0,-99.284c-0,-15.455 3.187,-26.226 9.562,-33.251c6.374,-6.557 16.846,-9.835 31.872,-9.835c-0,-0 9.108,-0 17.14,-0c6.627,-0 12,-5.373 12,-12l-0,-13.466c-0,-6.628 -5.373,-12 -12,-12c-8.032,-0 -17.14,-0 -17.14,-0c-25.043,-0 -44.621,7.025 -57.825,20.606c-13.205,14.05 -20.034,34.188 -20.034,59.946l-0,99.284c-0,14.987 -3.188,25.758 -9.562,32.315c-6.83,7.025 -12.749,10.303 -27.774,10.303c-0,0 -0.277,0 -0.749,0c-6.627,0 -12,5.373 -12,12c-0,4.306 -0,9.16 -0,13.466c0,6.627 5.373,12 12,12c0.472,-0 0.749,-0 0.749,-0c15.025,-0 20.944,3.278 27.774,9.835c6.374,7.025 9.562,17.796 9.562,33.251l-0,98.816c-0,25.758 6.829,45.896 20.034,59.946c13.204,13.581 32.782,20.606 57.825,20.606c-0,0 9.108,0 17.14,0c6.627,0 12,-5.372 12,-12l-0,-13.466c-0,-6.627 -5.373,-12 -12,-12c-8.032,0 -17.14,0 -17.14,0c-15.026,0 -25.498,-3.278 -31.872,-9.835c-6.375,-7.025 -9.562,-17.796 -9.562,-33.251l-0,-98.816Z" style="fill:#fff;fill-rule:nonzero;"/>
            <path d="M518.213,639.423c3.182,0 6.234,-1.264 8.485,-3.514c2.25,-2.251 3.515,-5.303 3.515,-8.486c-0,-39.174 -0,-160.811 -0,-160.811c-0,-15.455 3.187,-26.227 10.017,-32.783c6.374,-6.557 16.846,-9.835 31.872,-9.835l28.685,0c15.025,0 25.497,3.278 32.327,9.835c6.374,6.556 9.562,17.328 9.562,32.783l-0,160.811c-0,3.183 1.264,6.235 3.514,8.486c2.251,2.25 5.303,3.514 8.486,3.514c3.991,0 8.434,0 12.425,0c3.182,0 6.235,-1.264 8.485,-3.514c2.25,-2.251 3.515,-5.303 3.515,-8.486c-0,-39.174 -0,-160.811 -0,-160.811c-0,-25.758 -6.83,-45.896 -20.034,-59.478c-13.66,-13.581 -33.238,-20.606 -58.28,-20.606l-28.685,0c-26.864,0 -46.898,7.493 -60.102,22.948c-13.204,-15.455 -32.783,-22.948 -59.646,-22.948l-29.141,0c-25.497,0 -45.076,7.025 -58.28,20.606c-13.204,13.582 -20.034,33.72 -20.034,59.478l0,160.811c0,3.183 1.265,6.235 3.515,8.486c2.25,2.25 5.303,3.514 8.485,3.514c3.991,0 8.434,0 12.425,0c3.183,0 6.235,-1.264 8.486,-3.514c2.25,-2.251 3.514,-5.303 3.514,-8.486c0,-39.174 0,-160.811 0,-160.811c0,-15.455 3.188,-26.227 10.017,-32.783c6.375,-6.557 16.847,-9.835 31.872,-9.835l29.141,0c14.57,0 25.042,3.278 31.872,9.835c6.374,6.556 9.561,17.328 9.561,32.783l0,160.811c0,3.183 1.265,6.235 3.515,8.486c2.251,2.25 5.303,3.514 8.485,3.514c3.991,0 8.435,0 12.426,0Z" style="fill:#fff;fill-rule:nonzero;"/>
            <path d="M787.49,573.819c0,-26.695 7.74,-47.301 22.766,-61.819c-15.026,-13.581 -22.766,-34.188 -22.766,-61.351l0,-99.284c0,-15.455 -3.187,-26.226 -9.562,-33.251c-6.374,-6.557 -16.846,-9.835 -31.872,-9.835c0,-0 -9.108,-0 -17.14,-0c-6.627,-0 -12,-5.373 -12,-12l0,-13.466c0,-6.628 5.373,-12 12,-12c8.032,-0 17.14,-0 17.14,-0c25.043,-0 44.621,7.025 57.825,20.606c13.205,14.05 20.034,34.188 20.034,59.946l0,99.284c0,14.987 3.188,25.758 9.562,32.315c6.83,7.025 12.749,10.303 27.774,10.303c0,0 0.277,0 0.749,0c6.627,0 12,5.373 12,12c-0,4.306 -0,9.16 -0,13.466c-0,6.627 -5.373,12 -12,12c-0.472,-0 -0.749,-0 -0.749,-0c-15.025,-0 -20.944,3.278 -27.774,9.835c-6.374,7.025 -9.562,17.796 -9.562,33.251l0,98.816c0,25.758 -6.829,45.896 -20.034,59.946c-13.204,13.581 -32.782,20.606 -57.825,20.606c0,0 -9.108,0 -17.14,0c-6.627,0 -12,-5.372 -12,-12l0,-13.466c0,-6.627 5.373,-12 12,-12c8.032,0 17.14,0 17.14,0c15.026,0 25.498,-3.278 31.872,-9.835c6.375,-7.025 9.562,-17.796 9.562,-33.251l0,-98.816Z" style="fill:#fff;fill-rule:nonzero;"/>
        </g>
    </g>
</svg>
