<?xml version="1.0" encoding="UTF-8" standalone="no"?>
<!DOCTYPE svg PUBLIC "-//W3C//DTD SVG 1.1//EN" "http://www.w3.org/Graphics/SVG/1.1/DTD/svg11.dtd">
<svg width="100%" height="100%" viewBox="0 0 2000 900" version="1.1" xmlns="http://www.w3.org/2000/svg" xmlns:xlink="http://www.w3.org/1999/xlink" xml:space="preserve" xmlns:serif="http://www.serif.com/" style="fill-rule:evenodd;clip-rule:evenodd;stroke-linejoin:round;stroke-miterlimit:2;">
    <rect id="logo-mini" x="0" y="0" width="2000" height="900" style="fill:none;"/>
    <g id="logo-mini1" serif:id="logo-mini">
        <g>
            <path d="M288.669,513.368c-0,-27.363 -7.934,-48.486 -23.336,-63.368c15.402,-13.922 23.336,-35.045 23.336,-62.888l-0,-101.773c-0,-15.842 3.267,-26.884 9.801,-34.085c6.534,-6.721 17.268,-10.081 32.669,-10.081l17.87,0c3.183,0 6.235,-1.264 8.485,-3.515c2.251,-2.25 3.515,-5.302 3.515,-8.485l0,-14.405c0,-3.182 -1.264,-6.235 -3.515,-8.485c-2.25,-2.251 -5.302,-3.515 -8.485,-3.515l-17.87,0c-25.669,0 -45.737,7.201 -59.272,21.123c-13.535,14.402 -20.535,35.044 -20.535,61.448l-0,101.773c-0,15.362 -3.267,26.403 -9.801,33.124c-7.001,7.201 -13.068,10.562 -28.47,10.562l-1.067,-0c-3.183,-0 -6.235,1.264 -8.486,3.514c-2.25,2.251 -3.515,5.303 -3.515,8.486c0,4.587 0,9.817 0,14.404c0,3.183 1.265,6.235 3.515,8.486c2.251,2.25 5.303,3.514 8.486,3.514c0.664,0 1.067,0 1.067,0c15.402,0 21.469,3.361 28.47,10.082c6.534,7.201 9.801,18.242 9.801,34.084l-0,101.293c-0,26.404 7,47.046 20.535,61.448c13.535,13.922 33.603,21.123 59.272,21.123l17.87,-0c3.183,-0 6.235,-1.264 8.485,-3.515c2.251,-2.25 3.515,-5.303 3.515,-8.485l0,-14.405c0,-3.183 -1.264,-6.235 -3.515,-8.485c-2.25,-2.251 -5.302,-3.515 -8.485,-3.515l-17.87,-0c-15.401,-0 -26.135,-3.36 -32.669,-10.081c-6.534,-7.201 -9.801,-18.243 -9.801,-34.085l-0,-101.293Z" style="fill:#0080ff;fill-rule:nonzero;"/>
            <g>
                <path d="M585.429,580.617c6.627,-0 12,-5.373 12,-12c-0,-39.83 -0,-165.143 -0,-165.143c-0,-15.842 3.267,-26.883 10.267,-33.604c6.534,-6.721 17.269,-10.082 32.67,-10.082l29.403,0c15.401,0 26.136,3.361 33.136,10.082c6.534,6.721 9.801,17.762 9.801,33.604c0,-0 0,125.313 0,165.143c0,6.627 5.373,12 12,12c4.268,-0 9.07,-0 13.337,-0c6.628,-0 12,-5.373 12,-12c0,-39.83 0,-165.143 0,-165.143c0,-26.403 -7,-47.046 -20.535,-60.968c-14.001,-13.922 -34.07,-21.123 -59.739,-21.123l-29.403,0c-27.536,0 -48.071,7.681 -61.606,23.523c-13.534,-15.842 -33.603,-23.523 -61.139,-23.523l-29.87,0c-26.135,0 -46.204,7.201 -59.739,21.123c-13.534,13.922 -20.535,34.565 -20.535,60.968c-0,-0 -0,125.313 -0,165.143c-0,6.627 5.373,12 12,12c4.267,-0 9.07,-0 13.337,-0c6.627,-0 12,-5.373 12,-12c-0,-39.83 -0,-165.143 -0,-165.143c-0,-15.842 3.267,-26.883 10.268,-33.604c6.534,-6.721 17.268,-10.082 32.669,-10.082l29.87,0c14.935,0 25.669,3.361 32.67,10.082c6.534,6.721 9.801,17.762 9.801,33.604c-0,-0 -0,125.313 -0,165.143c-0,6.627 5.372,12 12,12c4.267,-0 9.069,-0 13.337,-0Z" style="fill:#0080ff;fill-rule:nonzero;"/>
                <path d="M837.19,403.474c6.05,-0 11.154,-4.504 11.907,-10.506c1.19,-10.35 4.357,-17.978 9.69,-23.098c6.534,-6.721 17.269,-10.082 32.67,-10.082l58.806,0c14.934,0 25.669,3.361 32.67,10.082c6.533,6.721 9.8,17.762 9.8,33.604l0,27.844l-106.877,-0c-15.401,-0 -28.936,2.4 -39.67,7.201c-11.201,5.28 -19.602,11.521 -24.736,19.682c-5.6,8.161 -9.334,15.842 -11.668,23.523c-2.333,8.161 -3.733,16.322 -3.733,24.483c-0,8.161 1.4,15.842 4.2,24.003c2.334,8.161 6.534,15.842 12.135,24.003c5.6,8.161 14.001,14.402 24.735,19.203c10.735,4.801 23.803,7.201 38.737,7.201l64.407,-0c25.669,-0 45.737,-7.201 59.272,-21.123c13.535,-13.922 20.535,-34.564 20.535,-60.968l0,-95.052c0,-26.403 -7,-47.046 -20.535,-60.968c-13.535,-13.922 -33.603,-21.123 -59.272,-21.123l-58.806,0c-25.669,0 -45.738,7.201 -59.272,21.123c-11.566,11.5 -18.355,27.586 -20.367,47.717c-0.354,3.374 0.739,6.741 3.01,9.262c2.27,2.522 5.504,3.961 8.897,3.961c4.356,0.028 9.213,0.028 13.465,0.028Zm113.073,139.218l-64.407,-0c-28.469,-0 -42.47,-12.002 -42.47,-36.485c-0,-24.483 14.001,-36.484 42.47,-36.484l106.877,-0l0,28.803c0,15.842 -3.267,26.884 -9.8,33.605c-7.001,7.201 -17.736,10.561 -32.67,10.561Z" style="fill:#0080ff;fill-rule:nonzero;"/>
                <path d="M1086.08,498.526c-0,26.404 7,47.046 20.535,60.968c13.535,13.922 33.603,21.123 59.739,21.123l63.94,-0c25.669,-0 45.737,-7.201 59.272,-21.123c13.535,-13.922 20.535,-34.564 20.535,-60.968c0,0 0,-208.437 0,-261.155c0,-6.627 -5.372,-12 -12,-12c-4.267,0 -9.069,0 -13.337,0c-6.627,0 -11.999,5.373 -12,12c0,27.674 0,93.614 0,93.614c-11.667,-6.241 -26.135,-9.602 -42.47,-9.602l-63.94,0c-26.136,0 -46.204,7.201 -59.739,21.123c-13.535,13.922 -20.535,34.565 -20.535,60.968l-0,95.052Zm37.337,-95.052c-0,-15.842 3.267,-26.883 10.267,-33.604c6.534,-6.721 17.269,-10.082 32.67,-10.082l63.94,0c14.468,0 25.202,2.881 32.203,9.122c7.001,6.24 10.267,16.322 10.267,30.243l0,99.373c0,15.842 -3.266,26.884 -9.8,33.605c-6.534,6.72 -17.269,10.081 -32.67,10.081l-63.94,-0c-15.401,-0 -26.136,-3.361 -32.67,-10.081c-7,-6.721 -10.267,-17.763 -10.267,-33.605l-0,-95.052Z" style="fill:#0080ff;fill-rule:nonzero;"/>
                <path d="M1579.94,403.954c3.392,0 6.626,-1.436 8.901,-3.952c2.275,-2.516 3.379,-5.877 3.039,-9.252c-1.996,-20.522 -8.727,-36.695 -19.954,-48.244c-13.535,-13.922 -33.604,-21.123 -59.273,-21.123l-63.939,0c-26.136,0 -46.205,7.201 -59.739,21.123c-13.535,13.922 -20.536,34.565 -20.536,60.968l0,95.052c0,26.404 7.001,47.046 20.536,60.968c13.534,13.922 33.603,21.123 59.739,21.123l63.939,-0c25.669,-0 45.738,-7.201 59.273,-21.123c11.182,-11.502 17.904,-27.591 19.903,-47.726c0.352,-3.373 -0.744,-6.738 -3.014,-9.257c-2.271,-2.519 -5.503,-3.958 -8.895,-3.958c-4.354,-0.027 -9.208,-0.027 -13.459,-0.027c-6.059,0 -11.167,4.517 -11.91,10.53c-1.173,10.338 -4.254,17.958 -9.228,23.075c-6.534,6.72 -17.268,10.081 -32.67,10.081l-63.939,-0c-15.402,-0 -26.136,-3.361 -32.67,-10.081c-7.001,-6.721 -10.268,-17.763 -10.268,-33.605l0,-95.052c0,-15.842 3.267,-26.883 10.268,-33.604c6.534,-6.721 17.268,-10.082 32.67,-10.082l63.939,0c15.402,0 26.136,3.361 32.67,10.082c4.974,5.482 8.055,13.19 9.243,23.547c0.739,6.009 5.842,10.523 11.896,10.523c4.257,0.014 9.119,0.014 13.478,0.014Z" style="fill:#0080ff;fill-rule:nonzero;"/>
            </g>
            <path d="M1711.27,513.368c0,-27.363 7.934,-48.486 23.336,-63.368c-15.402,-13.922 -23.336,-35.045 -23.336,-62.888l0,-101.773c0,-15.842 -3.267,-26.884 -9.801,-34.085c-6.534,-6.721 -17.268,-10.081 -32.669,-10.081l-17.87,0c-3.183,0 -6.235,-1.264 -8.485,-3.515c-2.251,-2.25 -3.515,-5.302 -3.515,-8.485l-0,-14.405c-0,-3.182 1.264,-6.235 3.515,-8.485c2.25,-2.251 5.302,-3.515 8.485,-3.515l17.87,0c25.669,0 45.737,7.201 59.272,21.123c13.535,14.402 20.535,35.044 20.535,61.448l0,101.773c0,15.362 3.267,26.403 9.801,33.124c7.001,7.201 13.068,10.562 28.47,10.562l1.067,-0c3.183,-0 6.235,1.264 8.486,3.514c2.25,2.251 3.515,5.303 3.514,8.486c0,4.587 0,9.817 0,14.404c0,3.183 -1.264,6.235 -3.514,8.486c-2.251,2.25 -5.303,3.514 -8.486,3.514c-0.664,0 -1.067,0 -1.067,0c-15.402,0 -21.469,3.361 -28.47,10.082c-6.534,7.201 -9.801,18.242 -9.801,34.084l0,101.293c0,26.404 -7,47.046 -20.535,61.448c-13.535,13.922 -33.603,21.123 -59.272,21.123l-17.87,-0c-3.183,-0 -6.235,-1.264 -8.485,-3.515c-2.251,-2.25 -3.515,-5.303 -3.515,-8.485l-0,-14.405c-0,-3.183 1.264,-6.235 3.515,-8.485c2.25,-2.251 5.302,-3.515 8.485,-3.515c8.305,-0 17.87,-0 17.87,-0c15.401,-0 26.135,-3.36 32.669,-10.081c6.534,-7.201 9.801,-18.243 9.801,-34.085l0,-101.293Z" style="fill:#0080ff;fill-rule:nonzero;"/>
        </g>
    </g>
</svg>
