<?xml version="1.0" encoding="UTF-8" standalone="no"?>
<!DOCTYPE svg PUBLIC "-//W3C//DTD SVG 1.1//EN" "http://www.w3.org/Graphics/SVG/1.1/DTD/svg11.dtd">
<svg width="100%" height="100%" viewBox="0 0 3500 900" version="1.1" xmlns="http://www.w3.org/2000/svg" xmlns:xlink="http://www.w3.org/1999/xlink" xml:space="preserve" xmlns:serif="http://www.serif.com/" style="fill-rule:evenodd;clip-rule:evenodd;stroke-linejoin:round;stroke-miterlimit:2;">
    <rect id="logo-talks" x="0" y="0" width="3500" height="900" style="fill:none;"/>
    <g id="logo-talks1" serif:id="logo-talks">
        <g transform="matrix(150,0,0,150,3369.75,790)">
        </g>
        <text x="1726.2px" y="790px" style="font-family:'Mecano-Light', 'Mecano';font-weight:300;font-size:150px;fill:#ff8000;">------------Talks----</text>
        <g>
            <path d="M288.662,510.545c0,-27.359 -7.933,-48.478 -23.332,-63.357c15.399,-13.919 23.332,-35.038 23.332,-62.877l0,-101.755c0,-15.839 3.267,-26.879 9.8,-34.078c6.533,-6.72 17.266,-10.08 32.665,-10.08c-0,0 9.562,0 17.865,0c6.628,0 12,-5.372 12,-12c0,-4.586 0,-9.812 0,-14.398c0,-6.627 -5.372,-12 -12,-12c-8.303,0 -17.865,0 -17.865,0c-25.665,0 -45.731,7.2 -59.264,21.119c-13.532,14.399 -20.532,35.038 -20.532,61.437l-0,101.755c-0,15.359 -3.267,26.399 -9.8,33.118c-6.999,7.2 -13.066,10.56 -28.465,10.56c0,-0 -0.402,-0 -1.066,-0c-6.627,-0 -12,5.373 -12,12c-0,4.586 -0,9.812 -0,14.398c0,6.628 5.373,12 12,12c0.664,0 1.066,0 1.066,0c15.399,0 21.466,3.36 28.465,10.08c6.533,7.199 9.8,18.239 9.8,34.078l-0,101.275c-0,26.399 7,47.038 20.532,61.437c13.533,13.919 33.599,21.119 59.264,21.119c-0,0 9.562,0 17.865,0c6.628,0 12,-5.372 12,-12c0,-4.586 0,-9.812 0,-14.398c0,-6.627 -5.372,-12 -12,-12c-8.303,-0 -17.865,-0 -17.865,-0c-15.399,-0 -26.132,-3.36 -32.665,-10.08c-6.533,-7.199 -9.8,-18.239 -9.8,-34.078l0,-101.275Z" style="fill:#0080ff;fill-rule:nonzero;"/>
            <path d="M578.581,577.782c3.183,-0 6.235,-1.265 8.485,-3.515c2.251,-2.25 3.515,-5.303 3.515,-8.485c0,-39.826 0,-165.112 0,-165.112c0,-15.839 3.267,-26.878 10.266,-33.598c6.533,-6.72 17.266,-10.08 32.665,-10.08l29.399,0c15.399,0 26.132,3.36 33.132,10.08c6.533,6.72 9.799,17.759 9.799,33.598c0,0 0,125.286 0,165.112c0,3.182 1.264,6.235 3.515,8.485c2.25,2.25 5.303,3.515 8.485,3.515c4.266,-0 9.066,-0 13.332,-0c3.182,-0 6.235,-1.265 8.485,-3.515c2.25,-2.25 3.515,-5.303 3.515,-8.485c-0,-39.826 -0,-165.112 -0,-165.112c-0,-26.398 -7,-47.037 -20.533,-60.957c-13.999,-13.919 -34.065,-21.119 -59.73,-21.119l-29.399,0c-27.532,0 -48.064,7.68 -61.597,23.519c-13.532,-15.839 -33.598,-23.519 -61.13,-23.519l-29.865,0c-26.132,0 -46.198,7.2 -59.731,21.119c-13.532,13.92 -20.532,34.559 -20.532,60.957c-0,0 -0,125.286 -0,165.112c-0,3.182 1.264,6.235 3.515,8.485c2.25,2.25 5.302,3.515 8.485,3.515c4.266,-0 9.066,-0 13.331,-0c3.183,-0 6.235,-1.265 8.486,-3.515c2.25,-2.25 3.514,-5.303 3.514,-8.485c0,-39.826 0,-165.112 0,-165.112c0,-15.839 3.267,-26.878 10.267,-33.598c6.533,-6.72 17.265,-10.08 32.665,-10.08l29.865,0c14.933,0 25.665,3.36 32.665,10.08c6.533,6.72 9.8,17.759 9.8,33.598c-0,0 -0,125.286 -0,165.112c-0,3.182 1.264,6.235 3.514,8.485c2.251,2.25 5.303,3.515 8.486,3.515c4.265,-0 9.065,-0 13.331,-0Z" style="fill:#0080ff;fill-rule:nonzero;"/>
            <path d="M830.306,400.67c6.05,0 11.154,-4.503 11.907,-10.506c1.191,-10.347 4.356,-17.973 9.689,-23.092c6.533,-6.72 17.266,-10.08 32.665,-10.08l58.797,0c14.933,0 25.665,3.36 32.665,10.08c6.533,6.72 9.8,17.759 9.8,33.598l-0,27.839l-106.862,-0c-15.399,-0 -28.932,2.4 -39.665,7.2c-11.199,5.279 -19.599,11.519 -24.732,19.679c-5.599,8.159 -9.333,15.839 -11.666,23.519c-2.333,8.159 -3.733,16.319 -3.733,24.478c0,8.16 1.4,15.84 4.2,23.999c2.333,8.16 6.533,15.839 12.133,23.999c5.599,8.16 13.999,14.399 24.732,19.199c10.732,4.8 23.799,7.2 38.731,7.2l64.397,-0c25.665,-0 45.731,-7.2 59.264,-21.119c13.533,-13.92 20.532,-34.559 20.532,-60.957l0,-95.036c0,-26.398 -6.999,-47.037 -20.532,-60.957c-13.533,-13.919 -33.599,-21.119 -59.264,-21.119l-58.797,0c-25.666,0 -45.731,7.2 -59.264,21.119c-11.563,11.498 -18.351,27.58 -20.363,47.705c-0.355,3.375 0.739,6.742 3.009,9.263c2.271,2.522 5.505,3.962 8.898,3.962c4.354,0.027 9.209,0.027 13.459,0.027Zm113.058,139.194l-64.397,-0c-28.465,-0 -42.464,-12 -42.464,-36.479c-0,-24.478 13.999,-36.478 42.464,-36.478l106.862,0l-0,28.799c-0,15.839 -3.267,26.878 -9.8,33.598c-7,7.2 -17.732,10.56 -32.665,10.56Z" style="fill:#0080ff;fill-rule:nonzero;"/>
            <path d="M1079.16,495.706c0,26.398 7,47.037 20.533,60.957c13.532,13.919 33.598,21.119 59.73,21.119l63.93,-0c25.666,-0 45.732,-7.2 59.264,-21.119c13.533,-13.92 20.533,-34.559 20.533,-60.957c-0,-0 -0,-208.395 -0,-261.107c-0,-6.628 -5.373,-12 -12,-12c-4.266,-0 -9.066,-0 -13.332,-0c-3.183,-0 -6.235,1.264 -8.485,3.515c-2.251,2.25 -3.515,5.302 -3.515,8.485c0,27.67 0,93.595 0,93.595c-11.666,-6.24 -26.132,-9.6 -42.465,-9.6l-63.93,0c-26.132,0 -46.198,7.2 -59.73,21.119c-13.533,13.92 -20.533,34.559 -20.533,60.957l0,95.036Zm37.332,-95.036c-0,-15.839 3.266,-26.878 10.266,-33.598c6.533,-6.72 17.266,-10.08 32.665,-10.08l63.93,0c14.466,0 25.199,2.88 32.199,9.12c7,6.24 10.266,16.319 10.266,30.238l0,99.356c0,15.839 -3.266,26.878 -9.799,33.598c-6.533,6.72 -17.266,10.08 -32.666,10.08l-63.93,-0c-15.399,-0 -26.132,-3.36 -32.665,-10.08c-7,-6.72 -10.266,-17.759 -10.266,-33.598l-0,-95.036Z" style="fill:#0080ff;fill-rule:nonzero;"/>
            <path d="M1572.94,401.15c3.392,0 6.626,-1.435 8.901,-3.952c2.275,-2.516 3.379,-5.877 3.039,-9.252c-1.995,-20.517 -8.726,-36.687 -19.951,-48.233c-13.533,-13.919 -33.598,-21.119 -59.264,-21.119l-63.93,0c-26.132,0 -46.198,7.2 -59.731,21.119c-13.532,13.92 -20.532,34.559 -20.532,60.957l0,95.036c0,26.398 7,47.037 20.532,60.957c13.533,13.919 33.599,21.119 59.731,21.119l63.93,-0c25.666,-0 45.731,-7.2 59.264,-21.119c11.18,-11.5 17.901,-27.585 19.9,-47.715c0.352,-3.374 -0.744,-6.738 -3.014,-9.257c-2.27,-2.52 -5.503,-3.958 -8.895,-3.958c-4.352,-0.027 -9.204,-0.027 -13.454,-0.027c-6.058,-0 -11.167,4.516 -11.909,10.529c-1.173,10.335 -4.254,17.954 -9.227,23.069c-6.533,6.72 -17.266,10.08 -32.665,10.08l-63.93,-0c-15.399,-0 -26.132,-3.36 -32.665,-10.08c-7,-6.72 -10.266,-17.759 -10.266,-33.598l-0,-95.036c-0,-15.839 3.266,-26.878 10.266,-33.598c6.533,-6.72 17.266,-10.08 32.665,-10.08l63.93,0c15.399,0 26.132,3.36 32.665,10.08c4.974,5.481 8.054,13.187 9.241,23.542c0.739,6.008 5.843,10.522 11.896,10.522c4.256,0.014 9.116,0.014 13.473,0.014Z" style="fill:#0080ff;fill-rule:nonzero;"/>
            <path d="M1667.93,400.67c6.049,0 11.153,-4.503 11.906,-10.506c1.191,-10.347 4.357,-17.973 9.689,-23.092c6.533,-6.72 17.266,-10.08 32.665,-10.08l58.797,0c14.933,0 25.666,3.36 32.665,10.08c6.533,6.72 9.8,17.759 9.8,33.598l-0,27.839l-106.862,-0c-15.399,-0 -28.932,2.4 -39.664,7.2c-11.2,5.279 -19.6,11.519 -24.733,19.679c-5.599,8.159 -9.332,15.839 -11.666,23.519c-2.333,8.159 -3.733,16.319 -3.733,24.478c0,8.16 1.4,15.84 4.2,23.999c2.333,8.16 6.533,15.839 12.133,23.999c5.599,8.16 13.999,14.399 24.732,19.199c10.733,4.8 23.799,7.2 38.731,7.2l64.397,-0c25.666,-0 45.731,-7.2 59.264,-21.119c13.533,-13.92 20.532,-34.559 20.532,-60.957l0,-95.036c0,-26.398 -6.999,-47.037 -20.532,-60.957c-13.533,-13.919 -33.598,-21.119 -59.264,-21.119l-58.797,0c-25.665,0 -45.731,7.2 -59.264,21.119c-11.563,11.498 -18.351,27.58 -20.363,47.705c-0.355,3.375 0.739,6.742 3.009,9.263c2.271,2.522 5.505,3.962 8.898,3.962c4.354,0.027 9.209,0.027 13.46,0.027Zm113.057,139.194l-64.397,-0c-28.465,-0 -42.464,-12 -42.464,-36.479c-0,-24.478 13.999,-36.478 42.464,-36.478l106.862,0l-0,28.799c-0,15.839 -3.267,26.878 -9.8,33.598c-6.999,7.2 -17.732,10.56 -32.665,10.56Z" style="fill:#0080ff;fill-rule:nonzero;"/>
            <path d="M2097.04,577.782c3.183,-0 6.235,-1.265 8.485,-3.515c2.251,-2.25 3.515,-5.303 3.515,-8.485c-0,-39.826 -0,-165.112 -0,-165.112c-0,-15.839 3.266,-26.878 10.266,-33.598c6.533,-6.72 17.266,-10.08 32.665,-10.08l29.399,0c15.399,0 26.132,3.36 33.132,10.08c6.533,6.72 9.799,17.759 9.799,33.598c0,0 0,125.286 0,165.112c0,3.182 1.264,6.235 3.515,8.485c2.25,2.25 5.302,3.515 8.485,3.515c4.266,-0 9.066,-0 13.332,-0c3.182,-0 6.234,-1.265 8.485,-3.515c2.25,-2.25 3.515,-5.303 3.515,-8.485c-0,-39.826 -0,-165.112 -0,-165.112c-0,-26.398 -7,-47.037 -20.533,-60.957c-13.999,-13.919 -34.065,-21.119 -59.73,-21.119l-29.399,0c-27.532,0 -48.064,7.68 -61.597,23.519c-13.532,-15.839 -33.598,-23.519 -61.13,-23.519l-29.865,0c-26.132,0 -46.198,7.2 -59.731,21.119c-13.533,13.92 -20.532,34.559 -20.532,60.957c-0,0 -0,125.286 -0,165.112c-0,3.182 1.264,6.235 3.515,8.485c2.25,2.25 5.302,3.515 8.485,3.515c4.265,-0 9.066,-0 13.331,-0c3.183,-0 6.235,-1.265 8.486,-3.515c2.25,-2.25 3.514,-5.303 3.514,-8.485c0,-39.826 0,-165.112 0,-165.112c0,-15.839 3.267,-26.878 10.266,-33.598c6.534,-6.72 17.266,-10.08 32.666,-10.08l29.865,0c14.932,0 25.665,3.36 32.665,10.08c6.533,6.72 9.799,17.759 9.799,33.598c0,0 0,125.286 0,165.112c0,3.182 1.265,6.235 3.515,8.485c2.251,2.25 5.303,3.515 8.485,3.515c4.266,-0 9.066,-0 13.332,-0Z" style="fill:#0080ff;fill-rule:nonzero;"/>
            <path d="M2546.29,400.67c0,-26.398 -6.999,-47.037 -20.532,-60.957c-13.533,-13.919 -33.598,-21.119 -59.264,-21.119l-63.93,0c-26.132,0 -46.198,7.2 -59.73,21.119c-13.533,13.92 -20.533,34.559 -20.533,60.957c0,0 0,221.073 0,275.506c0,3.183 1.265,6.235 3.515,8.486c2.25,2.25 5.303,3.514 8.485,3.514c4.266,0 9.066,0 13.332,0c3.182,0 6.235,-1.264 8.485,-3.514c2.251,-2.251 3.515,-5.303 3.515,-8.486c-0,-30.39 -0,-107.994 -0,-107.994c11.666,6.24 26.132,9.6 42.931,9.6l63.93,-0c25.666,-0 45.731,-7.2 59.264,-21.119c13.533,-13.92 20.532,-34.559 20.532,-60.957l0,-95.036Zm-37.331,95.036c-0,15.839 -3.267,26.878 -9.8,33.598c-6.533,6.72 -17.265,10.08 -32.665,10.08l-63.93,-0c-14.466,-0 -25.199,-3.36 -32.198,-9.6c-7,-6.24 -10.733,-15.839 -10.733,-29.759l-0,-99.355c-0,-15.839 3.266,-26.878 10.266,-33.598c6.533,-6.72 17.266,-10.08 32.665,-10.08l63.93,0c15.4,0 26.132,3.36 32.665,10.08c6.533,6.72 9.8,17.759 9.8,33.598l-0,95.036Z" style="fill:#0080ff;fill-rule:nonzero;"/>
            <path d="M2826.27,400.67c-0,-26.398 -7,-47.037 -20.532,-60.957c-13.533,-13.919 -33.599,-21.119 -59.264,-21.119l-63.93,0c-26.133,0 -46.198,7.2 -59.731,21.119c-13.533,13.92 -20.532,34.559 -20.532,60.957l-0,95.036c-0,26.398 6.999,47.037 20.532,60.957c13.533,13.919 33.598,21.119 59.731,21.119l63.93,-0c25.665,-0 45.731,-7.2 59.264,-21.119c13.532,-13.92 20.532,-34.559 20.532,-60.957l-0,-95.036Zm-37.332,95.036c0,15.839 -3.266,26.878 -9.799,33.598c-6.533,6.72 -17.266,10.08 -32.665,10.08l-63.93,-0c-15.4,-0 -26.133,-3.36 -32.666,-10.08c-6.999,-6.72 -10.266,-17.759 -10.266,-33.598l0,-95.036c0,-15.839 3.267,-26.878 10.266,-33.598c6.533,-6.72 17.266,-10.08 32.666,-10.08l63.93,0c15.399,0 26.132,3.36 32.665,10.08c6.533,6.72 9.799,17.759 9.799,33.598l0,95.036Z" style="fill:#0080ff;fill-rule:nonzero;"/>
            <path d="M3086.25,400.19c3.4,0 6.639,-1.441 8.915,-3.966c2.275,-2.526 3.373,-5.897 3.021,-9.278c-2.026,-20.128 -8.747,-36.213 -19.927,-47.713c-13.533,-13.919 -33.599,-20.639 -59.264,-20.639l-57.864,0c-23.799,0 -42.931,6.24 -57.397,19.199c-14.466,12.96 -21.466,31.199 -21.466,54.238c0,23.039 7,40.798 20.999,52.797c13.533,12 33.132,18.239 58.797,18.239l58.797,0c14,0 24.733,3.36 32.199,10.56c7,7.199 10.733,17.279 10.733,29.758c-0,24.479 -14.466,36.479 -42.932,36.479l-58.797,-0c-15.399,-0 -26.132,-3.36 -32.665,-10.56c-4.973,-5.115 -8.053,-12.734 -9.241,-23.067c-0.741,-6.006 -5.843,-10.517 -11.895,-10.517c-4.249,-0.014 -9.102,-0.014 -13.454,-0.014c-3.399,-0 -6.639,1.441 -8.915,3.966c-2.275,2.526 -3.373,5.897 -3.021,9.278c2.027,20.128 8.748,36.213 19.928,47.713c13.532,13.919 33.598,21.119 59.263,21.119l58.797,-0c24.733,-0 44.332,-6.72 58.798,-19.679c14.466,-12.96 21.465,-31.679 21.465,-55.198c0,-24.478 -6.999,-43.678 -21.465,-57.597c-14.466,-13.439 -34.065,-20.159 -58.798,-20.159l-58.797,0c-28.465,0 -42.464,-11.039 -42.464,-33.118c-0,-23.519 13.999,-35.519 41.531,-35.519l57.864,0c15.399,0 26.132,3.36 32.665,10.08c4.973,5.115 8.053,12.734 9.241,23.067c0.741,6.006 5.844,10.517 11.895,10.517c4.25,0.014 9.102,0.014 13.454,0.014Z" style="fill:#0080ff;fill-rule:nonzero;"/>
            <path d="M3210.79,510.545c-0,-27.359 7.933,-48.478 23.332,-63.357c-15.399,-13.919 -23.332,-35.038 -23.332,-62.877l-0,-101.755c-0,-15.839 -3.267,-26.879 -9.8,-34.078c-6.533,-6.72 -17.266,-10.08 -32.665,-10.08c0,0 -9.562,0 -17.865,0c-6.628,0 -12,-5.372 -12,-12c-0,-4.586 -0,-9.812 -0,-14.398c-0,-6.627 5.372,-12 12,-12c8.303,0 17.865,0 17.865,0c25.665,0 45.731,7.2 59.264,21.119c13.532,14.399 20.532,35.038 20.532,61.437l0,101.755c0,15.359 3.267,26.399 9.8,33.118c6.999,7.2 13.066,10.56 28.465,10.56c-0,-0 0.402,-0 1.066,-0c6.627,-0 12,5.373 12,12c0,4.586 0,9.812 0,14.398c-0,6.628 -5.373,12 -12,12c-0.664,0 -1.066,0 -1.066,0c-15.399,0 -21.466,3.36 -28.465,10.08c-6.533,7.199 -9.8,18.239 -9.8,34.078l0,101.275c0,26.399 -7,47.038 -20.532,61.437c-13.533,13.919 -33.599,21.119 -59.264,21.119c0,0 -9.562,0 -17.865,0c-6.628,0 -12,-5.372 -12,-12c-0,-4.586 -0,-9.812 -0,-14.398c-0,-6.627 5.372,-12 12,-12c8.303,-0 17.865,-0 17.865,-0c15.399,-0 26.132,-3.36 32.665,-10.08c6.533,-7.199 9.8,-18.239 9.8,-34.078l-0,-101.275Z" style="fill:#0080ff;fill-rule:nonzero;"/>
        </g>
    </g>
</svg>
