<?xml version="1.0" encoding="UTF-8" standalone="no"?>
<!DOCTYPE svg PUBLIC "-//W3C//DTD SVG 1.1//EN" "http://www.w3.org/Graphics/SVG/1.1/DTD/svg11.dtd">
<svg width="100%" height="100%" viewBox="0 0 2000 900" version="1.1" xmlns="http://www.w3.org/2000/svg" xmlns:xlink="http://www.w3.org/1999/xlink" xml:space="preserve" xmlns:serif="http://www.serif.com/" style="fill-rule:evenodd;clip-rule:evenodd;stroke-linejoin:round;stroke-miterlimit:2;">
    <rect id="logo-talks-mini" x="0" y="0" width="2000" height="900" style="fill:none;"/>
    <g id="logo-talks-mini1" serif:id="logo-talks-mini">
        <g transform="matrix(150,0,0,150,1869.75,790)">
        </g>
        <text x="1019.7px" y="790px" style="font-family:'Mecano-Light', 'Mecano';font-weight:300;font-size:150px;fill:#ff8000;">--Talks----</text>
        <g>
            <path d="M288.678,513.368c0,-27.363 -7.934,-48.486 -23.336,-63.368c15.402,-13.922 23.336,-35.045 23.336,-62.888l0,-101.773c0,-15.842 3.267,-26.884 9.801,-34.085c6.535,-6.721 17.269,-10.081 32.671,-10.081l17.871,0c6.627,0 12,-5.373 12,-12c-0,-4.588 -0,-9.817 -0,-14.405c-0,-6.627 -5.373,-12 -12,-12c-8.305,0 -17.871,0 -17.871,0c-25.67,0 -45.739,7.201 -59.274,21.123c-13.535,14.402 -20.536,35.044 -20.536,61.448l-0,101.773c-0,15.362 -3.267,26.403 -9.801,33.124c-7.001,7.201 -13.069,10.562 -28.471,10.562l-1.068,-0c-3.183,-0 -6.235,1.264 -8.485,3.514c-2.251,2.251 -3.515,5.303 -3.515,8.486c-0,4.587 -0,9.817 -0,14.404c-0,3.183 1.264,6.235 3.515,8.486c2.25,2.25 5.302,3.514 8.485,3.514c0.665,0 1.068,0 1.068,0c15.402,0 21.47,3.361 28.471,10.082c6.534,7.201 9.801,18.242 9.801,34.084l-0,101.293c-0,26.404 7.001,47.046 20.536,61.448c13.535,13.922 33.604,21.123 59.274,21.123c0,-0 9.566,-0 17.871,-0c6.627,-0 12,-5.373 12,-12c-0,-4.588 -0,-9.817 -0,-14.405c-0,-6.627 -5.373,-12 -12,-12c-8.305,-0 -17.871,-0 -17.871,-0c-15.402,-0 -26.136,-3.36 -32.671,-10.081c-6.534,-7.201 -9.801,-18.243 -9.801,-34.085l0,-101.293Z" style="fill:#0080ff;fill-rule:nonzero;"/>
            <g>
                <path d="M585.448,580.617c6.627,-0 12,-5.373 12,-12c0,-39.83 0,-165.143 0,-165.143c0,-15.842 3.267,-26.883 10.268,-33.604c6.534,-6.721 17.269,-10.082 32.671,-10.082l29.404,0c15.402,0 26.136,3.361 33.137,10.082c6.535,6.721 9.802,17.762 9.802,33.604c-0,-0 -0,125.313 -0,165.143c-0,6.627 5.372,12 12,12c4.267,-0 9.07,-0 13.338,-0c6.627,-0 12,-5.373 12,-12c-0,-39.83 -0,-165.143 -0,-165.143c-0,-26.403 -7.001,-47.046 -20.536,-60.968c-14.002,-13.922 -34.071,-21.123 -59.741,-21.123l-29.404,0c-27.537,0 -48.073,7.681 -61.608,23.523c-13.535,-15.842 -33.604,-23.523 -61.141,-23.523l-29.871,0c-26.136,0 -46.206,7.201 -59.741,21.123c-13.535,13.922 -20.536,34.565 -20.536,60.968c0,-0 0,125.313 0,165.143c0,6.627 5.373,12 12,12c4.268,-0 9.071,-0 13.338,-0c6.628,-0 12,-5.373 12,-12c0,-39.83 0,-165.143 0,-165.143c0,-15.842 3.267,-26.883 10.268,-33.604c6.535,-6.721 17.269,-10.082 32.671,-10.082l29.871,0c14.935,0 25.67,3.361 32.671,10.082c6.534,6.721 9.801,17.762 9.801,33.604c-0,-0 -0,125.313 -0,165.143c-0,6.627 5.372,12 12,12c4.268,-0 9.07,-0 13.338,-0Z" style="fill:#0080ff;fill-rule:nonzero;"/>
                <path d="M837.218,403.474c6.05,-0 11.153,-4.504 11.906,-10.506c1.191,-10.35 4.357,-17.978 9.691,-23.098c6.534,-6.721 17.269,-10.082 32.671,-10.082l58.808,0c14.935,0 25.67,3.361 32.67,10.082c6.535,6.721 9.802,17.762 9.802,33.604l-0,27.844l-106.881,-0c-15.402,-0 -28.937,2.4 -39.672,7.201c-11.201,5.28 -19.602,11.521 -24.736,19.682c-5.601,8.161 -9.335,15.842 -11.668,23.523c-2.334,8.161 -3.734,16.322 -3.734,24.483c-0,8.161 1.4,15.842 4.201,24.003c2.333,8.161 6.534,15.842 12.134,24.003c5.601,8.161 14.002,14.402 24.737,19.203c10.735,4.801 23.803,7.201 38.738,7.201l64.409,-0c25.67,-0 45.739,-7.201 59.274,-21.123c13.535,-13.922 20.536,-34.564 20.536,-60.968l-0,-95.052c-0,-26.403 -7.001,-47.046 -20.536,-60.968c-13.535,-13.922 -33.604,-21.123 -59.274,-21.123l-58.808,0c-25.67,0 -45.739,7.201 -59.274,21.123c-11.566,11.5 -18.355,27.586 -20.367,47.716c-0.355,3.375 0.739,6.742 3.009,9.263c2.271,2.522 5.504,3.961 8.897,3.961c4.357,0.028 9.214,0.028 13.467,0.028Zm113.076,139.218l-64.409,-0c-28.47,-0 -42.472,-12.002 -42.472,-36.485c0,-24.483 14.002,-36.484 42.472,-36.484l106.881,-0l-0,28.803c-0,15.842 -3.267,26.884 -9.802,33.605c-7,7.201 -17.735,10.561 -32.67,10.561Z" style="fill:#0080ff;fill-rule:nonzero;"/>
                <path d="M1086.11,498.526c0,26.404 7.001,47.046 20.536,60.968c13.535,13.922 33.604,21.123 59.741,21.123l63.942,-0c25.67,-0 45.739,-7.201 59.274,-21.123c13.535,-13.922 20.536,-34.564 20.536,-60.968l0,-261.155c0,-6.627 -5.373,-12 -12,-12c-4.268,0 -9.071,0 -13.338,0c-6.628,0 -12,5.373 -12,12c-0,27.674 -0,93.614 -0,93.614c-11.668,-6.241 -26.137,-9.602 -42.472,-9.602l-63.942,0c-26.137,0 -46.206,7.201 -59.741,21.123c-13.535,13.922 -20.536,34.565 -20.536,60.968l0,95.052Zm37.338,-95.052c0,-15.842 3.267,-26.883 10.268,-33.604c6.534,-6.721 17.269,-10.082 32.671,-10.082l63.942,0c14.468,0 25.203,2.881 32.204,9.122c7.001,6.24 10.268,16.322 10.268,30.243l-0,99.373c-0,15.842 -3.267,26.884 -9.801,33.605c-6.535,6.72 -17.269,10.081 -32.671,10.081l-63.942,-0c-15.402,-0 -26.137,-3.361 -32.671,-10.081c-7.001,-6.721 -10.268,-17.763 -10.268,-33.605l0,-95.052Z" style="fill:#0080ff;fill-rule:nonzero;"/>
                <path d="M1579.99,403.954c3.392,0 6.626,-1.436 8.901,-3.952c2.275,-2.516 3.379,-5.877 3.038,-9.252c-1.995,-20.522 -8.726,-36.695 -19.954,-48.244c-13.535,-13.922 -33.605,-21.123 -59.275,-21.123l-63.941,0c-26.137,0 -46.206,7.201 -59.741,21.123c-13.535,13.922 -20.536,34.565 -20.536,60.968l-0,95.052c-0,26.404 7.001,47.046 20.536,60.968c13.535,13.922 33.604,21.123 59.741,21.123l63.941,-0c25.67,-0 45.74,-7.201 59.275,-21.123c11.182,-11.502 17.904,-27.591 19.904,-47.726c0.351,-3.373 -0.744,-6.738 -3.015,-9.257c-2.27,-2.519 -5.502,-3.958 -8.894,-3.958c-4.354,-0.027 -9.209,-0.027 -13.461,-0.027c-6.059,0 -11.167,4.517 -11.909,10.53c-1.173,10.338 -4.254,17.958 -9.229,23.075c-6.534,6.72 -17.269,10.081 -32.671,10.081l-63.941,-0c-15.402,-0 -26.137,-3.361 -32.671,-10.081c-7.001,-6.721 -10.268,-17.763 -10.268,-33.605l0,-95.052c0,-15.842 3.267,-26.883 10.268,-33.604c6.534,-6.721 17.269,-10.082 32.671,-10.082l63.941,0c15.402,0 26.137,3.361 32.671,10.082c4.975,5.482 8.056,13.19 9.243,23.547c0.739,6.009 5.843,10.523 11.896,10.523c4.258,0.014 9.121,0.014 13.48,0.014Z" style="fill:#0080ff;fill-rule:nonzero;"/>
            </g>
            <path d="M1711.32,513.368c-0,-27.363 7.934,-48.486 23.336,-63.368c-15.402,-13.922 -23.336,-35.045 -23.336,-62.888l-0,-101.773c-0,-15.842 -3.267,-26.884 -9.801,-34.085c-6.535,-6.721 -17.269,-10.081 -32.671,-10.081c-0,0 -9.566,0 -17.871,0c-6.627,0 -12,-5.373 -12,-12c0,-4.588 0,-9.817 0,-14.405c0,-6.627 5.373,-12 12,-12c8.305,0 17.871,0 17.871,0c25.67,0 45.739,7.201 59.274,21.123c13.535,14.402 20.536,35.044 20.536,61.448l0,101.773c0,15.362 3.267,26.403 9.801,33.124c7.001,7.201 13.069,10.562 28.471,10.562l1.068,-0c3.183,-0 6.235,1.264 8.485,3.514c2.251,2.251 3.515,5.303 3.515,8.486l0,14.404c0,3.183 -1.264,6.235 -3.515,8.486c-2.25,2.25 -5.302,3.514 -8.485,3.514c-0.665,0 -1.068,0 -1.068,0c-15.402,0 -21.47,3.361 -28.471,10.082c-6.534,7.201 -9.801,18.242 -9.801,34.084l0,101.293c0,26.404 -7.001,47.046 -20.536,61.448c-13.535,13.922 -33.604,21.123 -59.274,21.123c-0,-0 -9.566,-0 -17.871,-0c-6.627,-0 -12,-5.373 -12,-12c0,-4.588 0,-9.817 0,-14.405c0,-6.627 5.373,-12 12,-12c8.305,-0 17.871,-0 17.871,-0c15.402,-0 26.136,-3.36 32.671,-10.081c6.534,-7.201 9.801,-18.243 9.801,-34.085l-0,-101.293Z" style="fill:#0080ff;fill-rule:nonzero;"/>
        </g>
    </g>
</svg>
