<?xml version="1.0" encoding="UTF-8" standalone="no"?>
<!DOCTYPE svg PUBLIC "-//W3C//DTD SVG 1.1//EN" "http://www.w3.org/Graphics/SVG/1.1/DTD/svg11.dtd">
<svg width="100%" height="100%" viewBox="0 0 1100 900" version="1.1" xmlns="http://www.w3.org/2000/svg" xmlns:xlink="http://www.w3.org/1999/xlink" xml:space="preserve" xmlns:serif="http://www.serif.com/" style="fill-rule:evenodd;clip-rule:evenodd;stroke-linejoin:round;stroke-miterlimit:2;">
    <rect id="logo-proj-micro" x="0" y="0" width="1100" height="900" style="fill:none;"/>
    <g id="logo-proj-micro1" serif:id="logo-proj-micro">
        <g transform="matrix(150,0,0,150,982,790)">
        </g>
        <text x="352.6px" y="790px" style="font-family:'Mecano-Light', 'Mecano';font-weight:300;font-size:150px;fill:#ff8000;">--Proj.--</text>
        <g>
            <path d="M288.678,513.368c0,-27.363 -7.934,-48.486 -23.336,-63.368c15.402,-13.922 23.336,-35.045 23.336,-62.888l0,-101.773c0,-15.842 3.267,-26.884 9.801,-34.085c6.535,-6.721 17.269,-10.081 32.671,-10.081l17.871,0c6.627,0 12,-5.373 12,-12c-0,-4.588 -0,-9.817 -0,-14.405c-0,-6.627 -5.373,-12 -12,-12c-8.305,0 -17.871,0 -17.871,0c-25.67,0 -45.739,7.201 -59.274,21.123c-13.535,14.402 -20.536,35.044 -20.536,61.448l-0,101.773c-0,15.362 -3.267,26.403 -9.801,33.124c-7.001,7.201 -13.069,10.562 -28.471,10.562c0,-0 -0.403,-0 -1.068,-0c-3.183,-0 -6.235,1.264 -8.485,3.514c-2.251,2.251 -3.515,5.303 -3.515,8.486c0,4.587 0,9.817 0,14.404c-0,3.183 1.264,6.235 3.515,8.486c2.25,2.25 5.302,3.514 8.485,3.514l1.068,0c15.402,0 21.47,3.361 28.471,10.082c6.534,7.201 9.801,18.242 9.801,34.084l-0,101.293c-0,26.404 7.001,47.046 20.536,61.448c13.535,13.922 33.604,21.123 59.274,21.123l17.871,-0c6.627,-0 12,-5.373 12,-12c-0,-4.588 -0,-9.817 -0,-14.405c-0,-6.627 -5.373,-12 -12,-12c-8.305,-0 -17.871,-0 -17.871,-0c-15.402,-0 -26.136,-3.36 -32.671,-10.081c-6.534,-7.201 -9.801,-18.243 -9.801,-34.085l0,-101.293Z" style="fill:#0080ff;fill-rule:nonzero;"/>
            <path d="M556.924,580.617c6.628,-0 12,-5.373 12,-12c0,-39.83 0,-165.143 0,-165.143c0,-15.842 3.267,-26.883 10.268,-33.604c6.534,-6.721 17.269,-10.082 32.671,-10.082l29.404,0c15.402,0 26.137,3.361 33.138,10.082c6.534,6.721 9.801,17.762 9.801,33.604c-0,-0 -0,125.313 -0,165.143c-0,6.627 5.372,12 12,12c4.267,-0 9.07,-0 13.338,-0c6.627,-0 12,-5.373 12,-12c-0,-39.83 -0,-165.143 -0,-165.143c-0,-26.403 -7.001,-47.046 -20.536,-60.968c-14.002,-13.922 -34.071,-21.123 -59.741,-21.123l-29.404,0c-27.537,0 -48.073,7.681 -61.608,23.523c-13.535,-15.842 -33.604,-23.523 -61.141,-23.523l-29.871,0c-26.136,0 -46.206,7.201 -59.741,21.123c-13.535,13.922 -20.536,34.565 -20.536,60.968c0,-0 0,125.313 0,165.143c0,6.627 5.373,12 12,12c4.268,-0 9.071,-0 13.339,-0c6.627,-0 12,-5.373 12,-12c-0,-39.83 -0,-165.143 -0,-165.143c-0,-15.842 3.267,-26.883 10.268,-33.604c6.534,-6.721 17.268,-10.082 32.67,-10.082l29.871,0c14.935,0 25.67,3.361 32.671,10.082c6.534,6.721 9.801,17.762 9.801,33.604c0,-0 0,125.313 0,165.143c0,6.627 5.373,12 12,12c4.268,-0 9.071,-0 13.338,-0Z" style="fill:#0080ff;fill-rule:nonzero;"/>
            <path d="M811.832,513.368c0,-27.363 7.935,-48.486 23.337,-63.368c-15.402,-13.922 -23.337,-35.045 -23.337,-62.888l0,-101.773c0,-15.842 -3.267,-26.884 -9.801,-34.085c-6.534,-6.721 -17.269,-10.081 -32.671,-10.081c0,0 -9.565,0 -17.87,0c-6.628,0 -12,-5.373 -12,-12c-0,-4.588 -0,-9.817 -0,-14.405c-0,-6.627 5.372,-12 12,-12c8.305,0 17.87,0 17.87,0c25.67,0 45.739,7.201 59.274,21.123c13.536,14.402 20.536,35.044 20.536,61.448l0,101.773c0,15.362 3.268,26.403 9.802,33.124c7.001,7.201 13.068,10.562 28.47,10.562c0,-0 0.403,-0 1.068,-0c3.183,-0 6.235,1.264 8.486,3.514c2.25,2.251 3.514,5.303 3.514,8.486l0,14.404c0,3.183 -1.264,6.235 -3.514,8.486c-2.251,2.25 -5.303,3.514 -8.486,3.514l-1.068,0c-15.402,0 -21.469,3.361 -28.47,10.082c-6.534,7.201 -9.802,18.242 -9.802,34.084l0,101.293c0,26.404 -7,47.046 -20.536,61.448c-13.535,13.922 -33.604,21.123 -59.274,21.123c0,-0 -9.565,-0 -17.87,-0c-6.628,-0 -12,-5.373 -12,-12c-0,-4.588 -0,-9.817 -0,-14.405c-0,-6.627 5.372,-12 12,-12c8.305,-0 17.87,-0 17.87,-0c15.402,-0 26.137,-3.36 32.671,-10.081c6.534,-7.201 9.801,-18.243 9.801,-34.085l0,-101.293Z" style="fill:#0080ff;fill-rule:nonzero;"/>
        </g>
    </g>
</svg>
