<svg xmlns="http://www.w3.org/2000/svg" width="369" height="489" viewBox="0 0 369 489" enable-background="new 0 0 369 489"><polygon fill="#0080FF" points="30.72,489.3 30.72,74.218 184.759,228.413 338.798,74.218 338.798,489.3 369.519,489.3 369.519,0 184.759,184.946 0,0 0,489.3 30.72,489.3 30.72,489.3"/><polygon fill="#0080FF" points="184.759,234.513 338.798,489.3 359.602,475.968 184.759,184.946 9.917,475.968 30.72,489.3"/><path fill="#0080FF" d="M274.428 358.491c-58.716.064-92.28 30.262-92.381 64.204.101 33.94 33.665 64.14 92.381 64.202h7.679v-15.359h-7.679c-54.218-.308-76.943-26.262-77.02-48.843.076-22.583 22.802-48.537 77.02-48.846h7.679v-15.358h-7.679z"/><polyline fill="#0080FF" points="83.12,375.187 83.12,354.706 286.398,354.706 286.398,375.187 83.12,375.187"/><path fill="#0080FF" d="M94.94 373.85c54.217.309 76.941 26.263 77.02 48.846-.078 22.581-22.802 48.535-77.02 48.843l7.681 7.681v-113.049l-7.681 7.679v-7.679h-7.681v120.727h7.681c58.714-.063 92.278-30.262 92.379-64.202-.101-33.942-33.665-64.14-92.379-64.204h-7.681v7.68h7.681v7.678z"/></svg>