<?xml version="1.0" encoding="UTF-8" standalone="no"?>
<!DOCTYPE svg PUBLIC "-//W3C//DTD SVG 1.1//EN" "http://www.w3.org/Graphics/SVG/1.1/DTD/svg11.dtd">
<svg width="100%" height="100%" viewBox="0 0 1024 1024" version="1.1" xmlns="http://www.w3.org/2000/svg" xmlns:xlink="http://www.w3.org/1999/xlink" xml:space="preserve" xmlns:serif="http://www.serif.com/" style="fill-rule:evenodd;clip-rule:evenodd;stroke-linejoin:round;stroke-miterlimit:2;">
    <rect id="social" x="0" y="0" width="1023.97" height="1024" style="fill:none;"/>
    <g id="social1" serif:id="social">
        <path d="M511.983,1004c215.585,0 335.431,0 413.708,-78.279c78.276,-78.279 78.276,-198.129 78.276,-413.721c0,-215.592 0,-335.442 -78.276,-413.721c-78.277,-78.279 -198.123,-78.279 -413.708,-78.279c-215.584,-0 -335.431,-0 -413.707,78.279c-78.277,78.279 -78.277,198.129 -78.277,413.721c0,215.592 0,335.442 78.277,413.721c78.276,78.279 198.123,78.279 413.707,78.279Z" style="fill:url(#_Radial1);fill-rule:nonzero;"/>
        <g>
            <path d="M236.502,573.819c0,-26.695 -7.74,-47.301 -22.765,-61.819c15.025,-13.581 22.765,-34.188 22.765,-61.351l0,-99.284c0,-15.455 3.187,-26.226 9.562,-33.251c6.374,-6.557 16.846,-9.835 31.871,-9.835l17.139,-0c3.182,-0 6.235,-1.264 8.485,-3.515c2.251,-2.25 3.515,-5.303 3.515,-8.485c-0,-4.306 -0,-9.16 -0,-13.466c-0,-3.183 -1.264,-6.235 -3.515,-8.485c-2.25,-2.251 -5.303,-3.515 -8.485,-3.515c-8.032,-0 -17.139,-0 -17.139,-0c-25.042,-0 -44.62,7.025 -57.824,20.606c-13.203,14.05 -20.033,34.188 -20.033,59.946l0,99.284c0,14.987 -3.187,25.758 -9.561,32.315c-6.83,7.025 -12.749,10.303 -27.773,10.303c-0,0 -0.277,0 -0.749,0c-6.627,0 -12,5.373 -12,12l0,13.466c0,6.627 5.373,12 12,12c0.472,-0 0.749,-0 0.749,-0c15.024,-0 20.943,3.278 27.773,9.835c6.374,7.025 9.561,17.796 9.561,33.251l0,98.816c0,25.758 6.83,45.896 20.033,59.946c13.204,13.581 32.782,20.606 57.824,20.606l17.139,0c3.182,0 6.235,-1.264 8.485,-3.515c2.251,-2.25 3.515,-5.302 3.515,-8.485c-0,-4.306 -0,-9.16 -0,-13.466c-0,-3.182 -1.264,-6.235 -3.515,-8.485c-2.25,-2.251 -5.303,-3.515 -8.485,-3.515c-8.032,0 -17.139,0 -17.139,0c-15.025,0 -25.497,-3.278 -31.871,-9.835c-6.375,-7.025 -9.562,-17.796 -9.562,-33.251l0,-98.816Z" style="fill:#0080ff;fill-rule:nonzero;"/>
            <path d="M518.195,639.423c3.183,0 6.235,-1.264 8.486,-3.514c2.25,-2.251 3.514,-5.303 3.514,-8.486c0,-39.174 0,-160.811 0,-160.811c0,-15.455 3.187,-26.227 10.017,-32.783c6.374,-6.557 16.846,-9.835 31.871,-9.835l28.684,0c15.025,0 25.497,3.278 32.326,9.835c6.375,6.556 9.562,17.328 9.562,32.783l-0,160.811c-0,3.183 1.264,6.235 3.514,8.486c2.251,2.25 5.303,3.514 8.486,3.514c3.99,0 8.433,0 12.424,0c3.182,0 6.235,-1.264 8.485,-3.514c2.25,-2.251 3.515,-5.303 3.515,-8.486c-0,-39.174 -0,-160.811 -0,-160.811c-0,-25.758 -6.83,-45.896 -20.034,-59.478c-13.659,-13.581 -33.236,-20.606 -58.278,-20.606l-28.684,0c-26.863,0 -46.896,7.493 -60.1,22.948c-13.203,-15.455 -32.781,-22.948 -59.644,-22.948l-29.139,0c-25.497,0 -45.075,7.025 -58.279,20.606c-13.203,13.582 -20.033,33.72 -20.033,59.478l0,160.811c0,3.183 1.264,6.235 3.515,8.486c2.25,2.25 5.302,3.514 8.485,3.514c3.991,0 8.433,0 12.424,0c3.183,0 6.235,-1.264 8.485,-3.514c2.251,-2.251 3.515,-5.303 3.515,-8.486c0,-39.174 0,-160.811 0,-160.811c0,-15.455 3.187,-26.227 10.017,-32.783c6.374,-6.557 16.846,-9.835 31.871,-9.835l29.139,0c14.57,0 25.042,3.278 31.871,9.835c6.374,6.556 9.561,17.328 9.561,32.783l0,160.811c0,3.183 1.265,6.235 3.515,8.486c2.25,2.25 5.303,3.514 8.485,3.514c3.991,0 8.434,0 12.424,0Z" style="fill:#0080ff;fill-rule:nonzero;"/>
            <path d="M787.464,573.819c0,-26.695 7.741,-47.301 22.766,-61.819c-15.025,-13.581 -22.766,-34.188 -22.766,-61.351l0,-99.284c0,-15.455 -3.187,-26.226 -9.561,-33.251c-6.374,-6.557 -16.846,-9.835 -31.871,-9.835l-17.139,-0c-3.183,-0 -6.235,-1.264 -8.485,-3.515c-2.251,-2.25 -3.515,-5.303 -3.515,-8.485c-0,-4.306 -0,-9.16 -0,-13.466c-0,-3.183 1.264,-6.235 3.515,-8.485c2.25,-2.251 5.302,-3.515 8.485,-3.515c8.032,-0 17.139,-0 17.139,-0c25.042,-0 44.62,7.025 57.823,20.606c13.204,14.05 20.034,34.188 20.034,59.946l-0,99.284c-0,14.987 3.187,25.758 9.561,32.315c6.829,7.025 12.748,10.303 27.773,10.303c0,0 0.277,0 0.749,0c6.627,0 12,5.373 12,12l-0,13.466c-0,6.627 -5.373,12 -12,12c-0.472,-0 -0.749,-0 -0.749,-0c-15.025,-0 -20.944,3.278 -27.773,9.835c-6.374,7.025 -9.561,17.796 -9.561,33.251l-0,98.816c-0,25.758 -6.83,45.896 -20.034,59.946c-13.203,13.581 -32.781,20.606 -57.823,20.606l-17.139,0c-3.183,0 -6.235,-1.264 -8.485,-3.515c-2.251,-2.25 -3.515,-5.302 -3.515,-8.485c-0,-4.306 -0,-9.16 -0,-13.466c-0,-3.182 1.264,-6.235 3.515,-8.485c2.25,-2.251 5.302,-3.515 8.485,-3.515c8.032,0 17.139,0 17.139,0c15.025,0 25.497,-3.278 31.871,-9.835c6.374,-7.025 9.561,-17.796 9.561,-33.251l0,-98.816Z" style="fill:#0080ff;fill-rule:nonzero;"/>
        </g>
    </g>
    <defs>
        <radialGradient id="_Radial1" cx="0" cy="0" r="1" gradientUnits="userSpaceOnUse" gradientTransform="matrix(6.26999e-14,1024,-1023.97,6.27019e-14,511.983,-2.66454e-15)"><stop offset="0" style="stop-color:#4e4e4e;stop-opacity:1"/><stop offset="1" style="stop-color:#252525;stop-opacity:1"/></radialGradient>
    </defs>
</svg>
