<?xml version="1.0" encoding="UTF-8" standalone="no"?><!DOCTYPE svg PUBLIC "-//W3C//DTD SVG 1.1//EN" "http://www.w3.org/Graphics/SVG/1.1/DTD/svg11.dtd"><svg width="100%" height="100%" viewBox="0 0 1024 1024" version="1.1" xmlns="http://www.w3.org/2000/svg" xmlns:xlink="http://www.w3.org/1999/xlink" xml:space="preserve" xmlns:serif="http://www.serif.com/" style="fill-rule:evenodd;clip-rule:evenodd;stroke-linejoin:round;stroke-miterlimit:2;"><rect id="social-proj" x="0" y="0" width="1024" height="1024" style="fill:none;"/><g id="social-proj1" serif:id="social-proj"><path d="M512,1004C727.592,1004 847.442,1004 925.721,925.721C1004,847.442 1004,727.592 1004,512C1004,296.408 1004,176.558 925.721,98.279C847.442,20 727.592,20 512,20C296.408,20 176.558,20 98.279,98.279C20,176.558 20,296.408 20,512C20,727.592 20,847.442 98.279,925.721C176.558,1004 296.408,1004 512,1004Z" style="fill:url(#_Radial1);fill-rule:nonzero;"/><rect x="347.95" y="801.2" width="55.35" height="6.45" style="fill:#ff8000;fill-rule:nonzero;"/><rect x="427.3" y="801.2" width="55.35" height="6.45" style="fill:#ff8000;fill-rule:nonzero;"/><path d="M508.15,849.5L514.75,849.5L514.75,809.15L554.05,809.15C570.25,809.15 578.35,801.05 578.35,785L578.35,770.15C578.35,754.1 570.25,746 554.05,746L508.15,746L508.15,849.5ZM554.05,752.45C560.2,752.45 564.7,753.8 567.55,756.65C570.4,759.5 571.75,764 571.75,770.15L571.75,785C571.75,791.15 570.4,795.65 567.55,798.5C564.7,801.35 560.2,802.7 554.05,802.7L514.75,802.7L514.75,752.45L554.05,752.45Z" style="fill:#ff8000;fill-rule:nonzero;"/><path d="M585.1,849.5L629.65,849.5L629.65,843.2L606.7,843.2L606.7,794.15C606.7,788 608.05,783.5 610.9,780.65C613.75,777.8 618.1,776.45 624.25,776.45L639.4,776.45L639.4,770L624.25,770C616.3,770 610.3,772.1 606.25,776.15C602.2,780.2 600.1,786.2 600.1,794.15L600.1,843.2L585.1,843.2L585.1,849.5Z" style="fill:#ff8000;fill-rule:nonzero;"/><path d="M726.1,794.15C726.1,778.1 718,770 701.95,770L680.2,770C664,770 655.9,778.1 655.9,794.15L655.9,825.5C655.9,841.55 664,849.5 680.2,849.5L701.95,849.5C718,849.5 726.1,841.55 726.1,825.5L726.1,794.15ZM719.5,825.5C719.5,831.65 718.15,836 715.3,838.85C712.45,841.7 708.1,843.05 701.95,843.05L680.2,843.05C674.05,843.05 669.55,841.7 666.7,838.85C663.85,836 662.5,831.65 662.5,825.5L662.5,794.15C662.5,788 663.85,783.5 666.7,780.65C669.55,777.8 674.05,776.45 680.2,776.45L701.95,776.45C708.1,776.45 712.45,777.8 715.3,780.65C718.15,783.5 719.5,788 719.5,794.15L719.5,825.5Z" style="fill:#ff8000;fill-rule:nonzero;"/><path d="M756.55,859.85C756.55,866.15 755.2,870.65 752.35,873.5C749.5,876.2 745.15,877.55 739,877.55L723.85,877.55L723.85,884L739,884C755.05,884 763.15,875.9 763.15,859.85L763.15,770L738.4,770L738.4,776.3L756.55,776.3L756.55,859.85ZM764.35,748.25C764.35,746.15 764.05,744.8 763.6,744.05C763,743.45 761.65,743.15 759.7,743.15C757.6,743.15 756.25,743.45 755.8,744.05C755.2,744.8 754.9,746.15 754.9,748.25C754.9,750.2 755.2,751.4 755.65,751.85C756.1,752.45 757.45,752.75 759.7,752.75C761.8,752.75 763.15,752.45 763.6,751.85C764.05,751.4 764.35,750.2 764.35,748.25Z" style="fill:#ff8000;fill-rule:nonzero;"/><path d="M784.6,843.05C784.6,844.85 785.2,846.35 786.55,847.55C787.75,848.9 789.25,849.5 791.05,849.5C792.85,849.5 794.35,848.9 795.7,847.55C797.05,846.35 797.65,844.85 797.65,843.05C797.65,841.25 797.05,839.75 795.7,838.4C794.35,837.05 792.85,836.45 791.05,836.45C789.25,836.45 787.75,837.05 786.55,838.4C785.2,839.75 784.6,841.25 784.6,843.05Z" style="fill:#ff8000;fill-rule:nonzero;"/><rect x="818.65" y="801.2" width="55.35" height="6.45" style="fill:#ff8000;fill-rule:nonzero;"/><g><path d="M236.51,573.819C236.51,547.124 228.77,526.518 213.744,512C228.77,498.419 236.51,477.812 236.51,450.649L236.51,351.365C236.51,335.91 239.697,325.139 246.072,318.114C252.446,311.557 262.918,308.279 277.944,308.279C277.944,308.279 287.052,308.279 295.084,308.279C301.711,308.279 307.084,302.906 307.084,296.279C307.084,291.973 307.084,287.119 307.084,282.813C307.084,276.185 301.711,270.813 295.084,270.813C287.052,270.813 277.944,270.813 277.944,270.813C252.901,270.813 233.323,277.838 220.119,291.419C206.914,305.469 200.085,325.607 200.085,351.365L200.085,450.649C200.085,465.636 196.897,476.407 190.523,482.964C183.693,489.989 177.774,493.267 162.749,493.267L162,493.267C155.373,493.267 150,498.64 150,505.267L150,518.733C150,525.36 155.373,530.733 162,530.733C162.472,530.733 162.749,530.733 162.749,530.733C177.774,530.733 183.693,534.011 190.523,540.568C196.897,547.593 200.085,558.364 200.085,573.819L200.085,672.635C200.085,698.393 206.914,718.531 220.119,732.581C233.323,746.162 252.901,753.187 277.944,753.187C277.944,753.187 287.052,753.187 295.084,753.187C301.711,753.187 307.084,747.815 307.084,741.187C307.084,736.881 307.084,732.027 307.084,727.721C307.084,721.094 301.711,715.721 295.084,715.721C287.052,715.721 277.944,715.721 277.944,715.721C262.918,715.721 252.446,712.443 246.072,705.886C239.697,698.861 236.51,688.09 236.51,672.635L236.51,573.819Z" style="fill:#0080ff;fill-rule:nonzero;"/><path d="M518.213,639.423C521.395,639.423 524.447,638.159 526.698,635.909C528.948,633.658 530.213,630.606 530.213,627.423C530.213,588.249 530.213,466.612 530.213,466.612C530.213,451.157 533.4,440.385 540.23,433.829C546.604,427.272 557.076,423.994 572.102,423.994L600.787,423.994C615.812,423.994 626.284,427.272 633.114,433.829C639.488,440.385 642.676,451.157 642.676,466.612L642.676,627.423C642.676,630.606 643.94,633.658 646.19,635.909C648.441,638.159 651.493,639.423 654.676,639.423C658.667,639.423 663.11,639.423 667.101,639.423C670.283,639.423 673.336,638.159 675.586,635.909C677.836,633.658 679.101,630.606 679.101,627.423C679.101,588.249 679.101,466.612 679.101,466.612C679.101,440.854 672.271,420.716 659.067,407.134C645.407,393.553 625.829,386.528 600.787,386.528L572.102,386.528C545.238,386.528 525.204,394.021 512,409.476C498.796,394.021 479.217,386.528 452.354,386.528L423.213,386.528C397.716,386.528 378.137,393.553 364.933,407.134C351.729,420.716 344.899,440.854 344.899,466.612L344.899,627.423C344.899,630.606 346.164,633.658 348.414,635.909C350.664,638.159 353.717,639.423 356.899,639.423C360.89,639.423 365.333,639.423 369.324,639.423C372.507,639.423 375.559,638.159 377.81,635.909C380.06,633.658 381.324,630.606 381.324,627.423C381.324,588.249 381.324,466.612 381.324,466.612C381.324,451.157 384.512,440.385 391.341,433.829C397.716,427.272 408.188,423.994 423.213,423.994L452.354,423.994C466.924,423.994 477.396,427.272 484.226,433.829C490.6,440.385 493.787,451.157 493.787,466.612C493.787,466.612 493.787,588.249 493.787,627.423C493.787,630.606 495.052,633.658 497.302,635.909C499.553,638.159 502.605,639.423 505.787,639.423C509.778,639.423 514.222,639.423 518.213,639.423Z" style="fill:#0080ff;fill-rule:nonzero;"/><path d="M787.49,573.819C787.49,547.124 795.23,526.518 810.256,512C795.23,498.419 787.49,477.812 787.49,450.649L787.49,351.365C787.49,335.91 784.303,325.139 777.928,318.114C771.554,311.557 761.082,308.279 746.056,308.279C746.056,308.279 736.948,308.279 728.916,308.279C722.289,308.279 716.916,302.906 716.916,296.279C716.916,291.973 716.916,287.119 716.916,282.813C716.916,276.185 722.289,270.813 728.916,270.813C736.948,270.813 746.056,270.813 746.056,270.813C771.099,270.813 790.677,277.838 803.881,291.419C817.086,305.469 823.915,325.607 823.915,351.365L823.915,450.649C823.915,465.636 827.103,476.407 833.477,482.964C840.307,489.989 846.226,493.267 861.251,493.267C861.251,493.267 861.528,493.267 862,493.267C868.627,493.267 874,498.64 874,505.267L874,518.733C874,525.36 868.627,530.733 862,530.733C861.528,530.733 861.251,530.733 861.251,530.733C846.226,530.733 840.307,534.011 833.477,540.568C827.103,547.593 823.915,558.364 823.915,573.819L823.915,672.635C823.915,698.393 817.086,718.531 803.881,732.581C790.677,746.162 771.099,753.187 746.056,753.187C746.056,753.187 736.948,753.187 728.916,753.187C722.289,753.187 716.916,747.815 716.916,741.187C716.916,736.881 716.916,732.027 716.916,727.721C716.916,721.094 722.289,715.721 728.916,715.721C736.948,715.721 746.056,715.721 746.056,715.721C761.082,715.721 771.554,712.443 777.928,705.886C784.303,698.861 787.49,688.09 787.49,672.635L787.49,573.819Z" style="fill:#0080ff;fill-rule:nonzero;"/></g></g><defs><radialGradient id="_Radial1" cx="0" cy="0" r="1" gradientUnits="userSpaceOnUse" gradientTransform="matrix(6.27019e-14,1024,-1024,6.27019e-14,512,5.39124e-13)"><stop offset="0" style="stop-color:#4e4e4e;stop-opacity:1"/><stop offset="1" style="stop-color:#252525;stop-opacity:1"/></radialGradient></defs></svg>