<svg xmlns="http://www.w3.org/2000/svg" xmlns:xlink="http://www.w3.org/1999/xlink" xml:space="preserve" fill-rule="evenodd" stroke-linejoin="round" stroke-miterlimit="2" clip-rule="evenodd" viewBox="0 0 335 60">
  <clipPath id="b">
    <path d="M0 0h335v60H0z"/>
  </clipPath>
  <g clip-path="url(#b)" fill="lightpink" stroke="lavenderblush" stroke-width="2" paint-order="stroke">
    <path d="M0 19.611V0h335v19.611c0 3.6-2.072 6.74-4.736 7.881 1.749 2.35 2.008 6.128.248 9.246-1.76 3.117-5.09 4.777-7.955 4.403.365 2.93-1.258 6.335-4.307 8.135-3.049 1.8-6.744 1.535-9.043-.254-1.116 2.724-4.186 4.843-7.707 4.843s-6.591-2.119-7.707-4.843c-2.299 1.789-5.994 2.054-9.043.254-3.049-1.8-4.672-5.205-4.307-8.135-2.865.374-6.195-1.286-7.955-4.403-1.76-3.118-1.501-6.896.248-9.246-2.664-1.141-4.736-4.281-4.736-7.881 0 3.6-2.072 6.74-4.736 7.881 1.749 2.35 2.008 6.128.248 9.246-1.76 3.117-5.09 4.777-7.955 4.403.365 2.93-1.258 6.335-4.307 8.135-3.049 1.8-6.744 1.535-9.043-.254-1.116 2.724-4.186 4.843-7.707 4.843s-6.591-2.119-7.707-4.843c-2.299 1.789-5.994 2.054-9.043.254-3.049-1.8-4.672-5.205-4.307-8.135-2.865.374-6.195-1.286-7.955-4.403-1.76-3.118-1.501-6.896.248-9.246-2.664-1.141-4.736-4.281-4.736-7.881 0 3.6-2.072 6.74-4.736 7.881 1.749 2.35 2.008 6.128.248 9.246-1.76 3.117-5.09 4.777-7.955 4.403.365 2.93-1.258 6.335-4.307 8.135-3.049 1.8-6.744 1.535-9.043-.254-1.116 2.724-4.186 4.843-7.707 4.843s-6.591-2.119-7.707-4.843c-2.299 1.789-5.994 2.054-9.043.254-3.049-1.8-4.672-5.205-4.307-8.135-2.865.374-6.195-1.286-7.955-4.403-1.76-3.118-1.501-6.896.248-9.246-2.664-1.141-4.736-4.281-4.736-7.881 0 3.6-2.072 6.74-4.736 7.881 1.749 2.35 2.008 6.128.248 9.246-1.76 3.117-5.09 4.777-7.955 4.403.365 2.93-1.258 6.335-4.307 8.135-3.049 1.8-6.744 1.535-9.043-.254-1.116 2.724-4.186 4.843-7.707 4.843s-6.591-2.119-7.707-4.843c-2.299 1.789-5.994 2.054-9.043.254-3.049-1.8-4.672-5.205-4.307-8.135-2.865.374-6.195-1.286-7.955-4.403-1.76-3.118-1.501-6.896.248-9.246C69.072 26.351 67 23.211 67 19.611c0 3.6-2.072 6.74-4.736 7.881 1.749 2.35 2.008 6.128.248 9.246-1.76 3.117-5.09 4.777-7.955 4.403.365 2.93-1.258 6.335-4.307 8.135-3.049 1.8-6.744 1.535-9.043-.254-1.116 2.724-4.186 4.843-7.707 4.843s-6.591-2.119-7.707-4.843c-2.299 1.789-5.994 2.054-9.043.254-3.049-1.8-4.672-5.205-4.307-8.135-2.865.374-6.195-1.286-7.955-4.403-1.76-3.118-1.501-6.896.248-9.246C2.072 26.351 0 23.211 0 19.611Zm332.487 0H321.6s3.282 4.067 6.909 4.067c2.196 0 3.978-1.822 3.978-4.067Zm-51.087 0h-10.888c0 2.245 1.783 4.067 3.979 4.067 3.627 0 6.909-4.067 6.909-4.067Zm-15.913 0H254.6s3.282 4.067 6.909 4.067c2.196 0 3.978-1.822 3.978-4.067Zm-51.087 0h-10.888c0 2.245 1.783 4.067 3.979 4.067 3.627 0 6.909-4.067 6.909-4.067Zm-15.913 0H187.6s3.282 4.067 6.909 4.067c2.196 0 3.978-1.822 3.978-4.067Zm-51.087 0h-10.888c0 2.245 1.783 4.067 3.979 4.067 3.627 0 6.909-4.067 6.909-4.067Zm-15.913 0H120.6s3.282 4.067 6.909 4.067c2.196 0 3.978-1.822 3.978-4.067Zm-51.087 0H69.512c.001 2.245 1.783 4.067 3.979 4.067 3.627 0 6.909-4.067 6.909-4.067Zm-15.913 0H53.6s3.282 4.067 6.909 4.067c2.196 0 3.978-1.822 3.978-4.067Zm-51.087 0H2.513c0 2.245 1.782 4.067 3.978 4.067 3.627 0 6.909-4.067 6.909-4.067Zm20.1 23.688c-1.146-2.279-3.438-2.279-4.584-1.166-1.146 1.113-1.146 3.34 0 5.566.802 1.67 2.865 3.34 4.584 4.453 1.719-1.113 3.782-2.783 4.584-4.453 1.146-2.226 1.146-4.453 0-5.566-1.146-1.113-3.438-1.113-4.584 1.166Zm10.05-5.889s-1.804 4.94.01 8.152c1.097 1.944 3.532 2.611 5.434 1.489 1.901-1.123 2.554-3.612 1.456-5.557-1.814-3.212-6.9-4.084-6.9-4.084Zm-27.457-7.523s-4.832-1.845-7.973.01c-1.901 1.122-2.554 3.612-1.456 5.556 1.098 1.945 3.533 2.612 5.434 1.489 3.142-1.854 3.995-7.055 3.995-7.055Zm34.814 0s.853 5.201 3.995 7.055c1.901 1.123 4.336.456 5.434-1.489 1.098-1.944.445-4.434-1.456-5.556-3.141-1.855-7.973-.01-7.973-.01ZM23.45 37.41s-5.086.872-6.9 4.084c-1.098 1.945-.445 4.434 1.456 5.557 1.902 1.122 4.337.455 5.434-1.489 1.814-3.212.01-8.152.01-8.152Zm77.05 5.889c-1.146-2.279-3.438-2.279-4.584-1.166-1.146 1.113-1.146 3.34 0 5.566.802 1.67 2.865 3.34 4.584 4.453 1.719-1.113 3.782-2.783 4.584-4.453 1.146-2.226 1.146-4.453 0-5.566-1.146-1.113-3.438-1.113-4.584 1.166ZM83.093 29.887s-4.832-1.845-7.973.01c-1.901 1.122-2.554 3.612-1.456 5.556 1.098 1.945 3.533 2.612 5.434 1.489 3.142-1.854 3.995-7.055 3.995-7.055Zm7.357 7.523s-5.086.872-6.9 4.084c-1.098 1.945-.445 4.434 1.456 5.557 1.902 1.122 4.337.455 5.434-1.489 1.814-3.212.01-8.152.01-8.152Zm27.457-7.523s.853 5.201 3.995 7.055c1.901 1.123 4.336.456 5.434-1.489 1.098-1.944.445-4.434-1.456-5.556-3.141-1.855-7.973-.01-7.973-.01Zm-7.357 7.523s-1.804 4.94.01 8.152c1.097 1.944 3.532 2.611 5.434 1.489 1.901-1.123 2.554-3.612 1.456-5.557-1.814-3.212-6.9-4.084-6.9-4.084Zm141.357-7.523s.853 5.201 3.995 7.055c1.901 1.123 4.336.456 5.434-1.489 1.098-1.944.445-4.434-1.456-5.556-3.141-1.855-7.973-.01-7.973-.01ZM234.5 43.299c-1.146-2.279-3.438-2.279-4.584-1.166-1.146 1.113-1.146 3.34 0 5.566.802 1.67 2.865 3.34 4.584 4.453 1.719-1.113 3.782-2.783 4.584-4.453 1.146-2.226 1.146-4.453 0-5.566-1.146-1.113-3.438-1.113-4.584 1.166Zm-17.407-13.412s-4.832-1.845-7.973.01c-1.901 1.122-2.554 3.612-1.456 5.556 1.098 1.945 3.533 2.612 5.434 1.489 3.142-1.854 3.995-7.055 3.995-7.055Zm7.357 7.523s-5.086.872-6.9 4.084c-1.098 1.945-.445 4.434 1.456 5.557 1.902 1.122 4.337.455 5.434-1.489 1.814-3.212.01-8.152.01-8.152Zm20.1 0s-1.804 4.94.01 8.152c1.097 1.944 3.532 2.611 5.434 1.489 1.901-1.123 2.554-3.612 1.456-5.557-1.814-3.212-6.9-4.084-6.9-4.084Zm-87.1 0s-5.086.872-6.9 4.084c-1.098 1.945-.445 4.434 1.456 5.557 1.902 1.122 4.337.455 5.434-1.489 1.814-3.212.01-8.152.01-8.152Zm27.457-7.523s.853 5.201 3.995 7.055c1.901 1.123 4.336.456 5.434-1.489 1.098-1.944.445-4.434-1.456-5.556-3.141-1.855-7.973-.01-7.973-.01Zm-7.357 7.523s-1.804 4.94.01 8.152c1.097 1.944 3.532 2.611 5.434 1.489 1.901-1.123 2.554-3.612 1.456-5.557-1.814-3.212-6.9-4.084-6.9-4.084Zm-10.05 5.889c-1.146-2.279-3.438-2.279-4.584-1.166-1.146 1.113-1.146 3.34 0 5.566.802 1.67 2.865 3.34 4.584 4.453 1.719-1.113 3.782-2.783 4.584-4.453 1.146-2.226 1.146-4.453 0-5.566-1.146-1.113-3.438-1.113-4.584 1.166Zm-17.407-13.412s-4.832-1.845-7.973.01c-1.901 1.122-2.554 3.612-1.456 5.556 1.098 1.945 3.533 2.612 5.434 1.489 3.142-1.854 3.995-7.055 3.995-7.055ZM181.738 8.3c0-.83-.66-1.505-1.472-1.505h-8.782c-.812 0-1.471.675-1.471 1.505 0 .831.659 1.505 1.471 1.505h8.782c.812 0 1.472-.674 1.472-1.505Zm-167.5 0c0-.83-.66-1.505-1.472-1.505H3.984c-.812 0-1.471.675-1.471 1.505 0 .831.659 1.505 1.471 1.505h8.782c.812 0 1.472-.674 1.472-1.505Zm201 0c0-.83-.66-1.505-1.472-1.505h-8.782c-.812 0-1.471.675-1.471 1.505 0 .831.659 1.505 1.471 1.505h8.782c.812 0 1.472-.674 1.472-1.505Zm16.75 0c0-.83-.66-1.505-1.472-1.505h-8.782c-.812 0-1.471.675-1.471 1.505 0 .831.659 1.505 1.471 1.505h8.782c.812 0 1.472-.674 1.472-1.505Zm-33.5 0c0-.83-.66-1.505-1.472-1.505h-8.782c-.812 0-1.471.675-1.471 1.505 0 .831.659 1.505 1.471 1.505h8.782c.812 0 1.472-.674 1.472-1.505Zm100.5 0c0-.83-.66-1.505-1.472-1.505h-8.782c-.812 0-1.472.675-1.472 1.505 0 .831.66 1.505 1.472 1.505h8.782c.812 0 1.471-.674 1.471-1.505Zm33.5 0c0-.83-.659-1.505-1.471-1.505h-8.782c-.812 0-1.472.675-1.472 1.505 0 .831.66 1.505 1.472 1.505h8.782c.812 0 1.471-.674 1.471-1.505Zm-16.75 0c0-.83-.659-1.505-1.471-1.505h-8.782c-.812 0-1.471.675-1.471 1.505 0 .831.659 1.505 1.471 1.505h8.782c.812 0 1.471-.674 1.471-1.505Zm-217.749 0c0-.83-.66-1.505-1.472-1.505h-8.782c-.812 0-1.471.675-1.471 1.505 0 .831.659 1.505 1.471 1.505h8.782c.812 0 1.472-.674 1.472-1.505Zm-33.5 0c0-.83-.66-1.505-1.472-1.505h-8.782c-.812 0-1.471.675-1.471 1.505 0 .831.659 1.505 1.471 1.505h8.782c.812 0 1.472-.674 1.472-1.505Zm16.75 0c0-.83-.66-1.505-1.472-1.505h-8.782c-.812 0-1.471.675-1.471 1.505 0 .831.659 1.505 1.471 1.505h8.782c.812 0 1.472-.674 1.472-1.505Zm167.499 0c0-.83-.659-1.505-1.471-1.505h-8.782c-.812 0-1.471.675-1.471 1.505 0 .831.659 1.505 1.471 1.505h8.782c.812 0 1.471-.674 1.471-1.505Zm-217.749 0c0-.83-.66-1.505-1.472-1.505h-8.782c-.812 0-1.471.675-1.471 1.505 0 .831.659 1.505 1.471 1.505h8.782c.812 0 1.472-.674 1.472-1.505Zm16.75 0c0-.83-.66-1.505-1.472-1.505h-8.782c-.812 0-1.471.675-1.471 1.505 0 .831.659 1.505 1.471 1.505h8.782c.812 0 1.472-.674 1.472-1.505Zm67 0c0-.83-.66-1.505-1.472-1.505h-8.782c-.812 0-1.471.675-1.471 1.505 0 .831.659 1.505 1.471 1.505h8.782c.812 0 1.472-.674 1.472-1.505Zm16.75 0c0-.83-.66-1.505-1.472-1.505h-8.782c-.812 0-1.471.675-1.471 1.505 0 .831.659 1.505 1.471 1.505h8.782c.812 0 1.472-.674 1.472-1.505Zm133.999 0c0-.83-.659-1.505-1.471-1.505h-8.782c-.812 0-1.472.675-1.472 1.505 0 .831.66 1.505 1.472 1.505h8.782c.812 0 1.471-.674 1.471-1.505Zm16.75 0c0-.83-.659-1.505-1.471-1.505h-8.782c-.812 0-1.472.675-1.472 1.505 0 .831.66 1.505 1.472 1.505h8.782c.812 0 1.471-.674 1.471-1.505Zm-133.999 0c0-.83-.66-1.505-1.472-1.505h-8.782c-.812 0-1.471.675-1.471 1.505 0 .831.659 1.505 1.471 1.505h8.782c.812 0 1.472-.674 1.472-1.505Zm16.75 0c0-.83-.66-1.505-1.472-1.505h-8.782c-.812 0-1.471.675-1.471 1.505 0 .831.659 1.505 1.471 1.505h8.782c.812 0 1.472-.674 1.472-1.505Zm153.919 21.587s.853 5.201 3.995 7.055c1.901 1.123 4.336.456 5.434-1.489 1.098-1.944.445-4.434-1.456-5.556-3.141-1.855-7.973-.01-7.973-.01Zm-34.814 0s-4.832-1.845-7.973.01c-1.901 1.122-2.554 3.612-1.456 5.556 1.098 1.945 3.533 2.612 5.434 1.489 3.142-1.854 3.995-7.055 3.995-7.055Zm27.457 7.523s-1.804 4.94.01 8.152c1.097 1.944 3.532 2.611 5.434 1.489 1.901-1.123 2.554-3.612 1.456-5.557-1.814-3.212-6.9-4.084-6.9-4.084Zm-20.1 0s-5.086.872-6.9 4.084c-1.098 1.945-.445 4.434 1.456 5.557 1.902 1.122 4.337.455 5.434-1.489 1.814-3.212.01-8.152.01-8.152Zm10.05 5.889c-1.146-2.279-3.438-2.279-4.584-1.166-1.146 1.113-1.146 3.34 0 5.566.802 1.67 2.865 3.34 4.584 4.453 1.719-1.113 3.782-2.783 4.584-4.453 1.146-2.226 1.146-4.453 0-5.566-1.146-1.113-3.438-1.113-4.584 1.166Z"/>
  </g>
</svg>
