<svg xmlns="http://www.w3.org/2000/svg" xml:space="preserve" fill-rule="evenodd" stroke-linejoin="round" stroke-miterlimit="2" clip-rule="evenodd" viewBox="0 0 1024 768">
  <path fill="lavenderblush" d="M469.934 294.003s2.684-23.052-6.479-35.104c-9.163-12.045-36.002-15.539-36.002-15.539s-30.425-62.514-64.573-106.017C328.733 93.842 256.019 28.511 202.75 30.815c-53.252 2.31-71.777 25.162-89.734 54.625-17.957 29.461-20.38 64.772-17.801 84.961 2.563 20.18 7.201 44.897 32.246 59.897 25.063 15.008 38.623 21.266 76.546 40.029 37.906 18.756 162.359 52.14 162.359 52.14l12.942-40.636-67.231-43.909s-12.046-.264-36.031-8.288c-23.987-8.022-101.103-42.156-116.454-57.773-15.331-15.618-18.613-43.619-18.613-43.619s18.221-4.965 48.331 14.845c30.109 19.814 61.602 34.817 80.156 53.956 18.554 19.136 109.842 84.788 109.842 84.788s-15.946 33.175-10.515 50.39c5.43 17.218 14.573 24.767 24.289 29.904 9.717 5.138 18.04-16.586 18.04-16.586s15.203 5.837 38.69 14.635c23.486 8.797 74.363 28.786 90.755 30.002 16.388 1.211 90.738 20.653 104.909 31.465 14.175 10.819 50.404 50.977 54.572 66.757 4.171 15.782 14.754 25.438 3.084 28.3-11.662 2.861-79.618-14.421-107.848-26.61-28.229-12.184-63.833-32.253-82.372-46.436-18.539-14.189-32.294-27.818-39.226-41.339-6.93-13.527-10.857-37.22-10.857-37.22l-51.707-19.554s-11.294.165-6.874 12.228c4.424 12.064 18.848 51.155 37.997 78.111 19.154 26.964 44.471 43.955 58.855 56.414 14.39 12.465 80.355 62.755 144.709 70.776 64.355 8.029 70.134-5.772 87.565-20.083 17.427-14.308 35.969-31.741 39.338-57.535 3.364-25.801.125-68.395-43.274-109.075-43.396-40.682-83.975-49.227-123.273-58.301-39.303-9.078-136.231-24.071-136.231-24.071Z"/>
  <path fill="lavenderblush" d="M404.248 357.767s3.483 30.567-1.898 54.242c-5.381 23.68.25 52.771-2.786 89.314-3.033 36.55 2.991 54.968 5.191 86.789 2.198 31.818 7.352 51.747 16.276 84.11 8.927 32.361 21.893 57.197 27.807 61.178 5.914 3.985 5.933 11.098 23.044 1.198 17.117-9.904 29.76-22.403 44.218-22.299 14.456.107 38.237-.03 50.27-2.535 12.028-2.502 21.157-6.598 9.285-18.808-11.871-12.213-59.5-73.898-69.06-98.466-9.565-24.561-35.518-86.271-40.583-103.205-5.067-16.932-5.323-32.368-5.323-32.368s-22.233-20.954-31.381-43.953c-9.154-22.996-25.06-55.197-25.06-55.197Zm-40.213-37.106s-39.572-8.777-63.144-16.501c-23.573-7.716-85.75-28.889-85.75-28.889s-28.708 6.051-57.489-4.52c-28.764-10.564-61.949-28.554-71.848-35.836-9.901-7.277-18.927-29.887-32.098-21.762-13.191 8.124-32.25 37.087-32.885 59.122-.655 22.034-2.725 30.473 25.153 46.33 27.86 15.855 55.544 26.404 91.203 34.591 35.66 8.186 63.865 15.016 106.248 12.873 42.348-2.152 76.938-8.856 87.842-14.546 10.9-5.688 38.394-21.476 38.394-21.476l-5.626-9.386Z"/>
  <path fill="darkorchid" d="M469.293 292.559c-1.698 2.577-4.636 4.717-8.06 6.569-3.826 2.083-8.343 3.779-11.062 6.168-20.633 18.137-31.891 32.005-42.824 57.608-.918 2.162-3.425 3.166-5.596 2.246a4.272 4.272 0 0 1-2.244-5.598c11.514-26.942 23.314-41.568 45.029-60.656 2.678-2.358 6.741-4.261 10.641-6.228 2.842-1.422 5.651-2.76 7.008-4.816a4.278 4.278 0 0 1 5.913-1.204 4.264 4.264 0 0 1 1.195 5.911Z"/>
  <path fill="darkorchid" d="M465.011 282.692c2.604-10.078-3.305-19.894-11.749-26.537-8.622-6.774-20.099-10.455-29.168-7.211-19.194 6.875-42.007 32.88-49.562 58.593-4.756 16.26-3.351 32.525 10.27 43.238 1.994 1.574 3.964 3.736 6.047 5.694 1.443 1.351 2.893 2.662 4.597 3.119a4.265 4.265 0 0 1 3.012 5.22 4.26 4.26 0 0 1-5.219 3.015c-2.445-.656-4.743-2.099-6.881-3.935-2.39-2.049-4.601-4.658-6.832-6.413-16.543-13.013-18.962-32.593-13.176-52.343 8.324-28.296 33.744-56.646 54.867-64.213 11.554-4.127 26.33-.095 37.319 8.536 11.152 8.769 18.167 22.062 14.727 35.374a4.262 4.262 0 0 1-5.189 3.053 4.257 4.257 0 0 1-3.063-5.19Z"/>
  <path fill="darkorchid" d="M425.859 243.785C387.514 171.63 334.317 92.238 260.445 52.738c-40.28-21.538-74.963-22.08-102.205-7.233-27.418 14.937-47.17 45.209-57.658 84.351a4.25 4.25 0 0 1-5.221 3.014 4.262 4.262 0 0 1-3.014-5.22c11.177-41.714 32.589-73.706 61.813-89.635 29.401-16.019 66.857-16.028 110.3 7.195 75.317 40.281 129.829 121.012 168.932 194.569 1.098 2.077.309 4.665-1.767 5.762a4.268 4.268 0 0 1-5.766-1.756Z"/>
  <path fill="darkorchid" d="M373.95 282.805c-59.68-35.106-106.173-85.492-162.72-124.054-29.386-20.03-68.444-36.191-103.374-20.052a4.264 4.264 0 0 1-5.663-2.079c-.988-2.132-.042-4.668 2.105-5.652 37.69-17.425 80.032-.883 111.729 20.741 56.404 38.458 102.734 88.741 162.247 123.758a4.271 4.271 0 0 1 1.518 5.837c-1.189 2.025-3.824 2.7-5.842 1.501Z"/>
  <path fill="darkorchid" d="M145.688 141.549a4.246 4.246 0 0 0-3.153-4.206 4.262 4.262 0 0 0-5.221 3.014c-.254.949-.202 2.671.547 4.632.662 1.716 2.273 5.075 2.355 5.266 3.396 16.289 17.271 25.131 32.199 35.369 28.105 19.272 104.353 51.039 135.751 58.734 2.282.567 4.581-.842 5.153-3.118a4.268 4.268 0 0 0-3.127-5.156c-30.736-7.536-105.438-38.613-132.947-57.483-6.814-4.669-13.49-8.929-18.819-13.889-4.81-4.481-8.51-9.556-9.885-16.278-.249-1.202-2.525-6.193-2.853-6.885Z"/>
  <path fill="darkorchid" d="M362.232 324.478c-13.312-.936-27.979-7.675-40.899-11.137-35.53-9.52-68.137-18.238-101.962-33.41-21.632-9.71-42.202-19.55-62.446-31.953-10.714-6.584-25.572-10.978-34.823-19.186-24.913-22.098-35.348-62.165-31.478-94.286a4.258 4.258 0 0 1 4.743-3.715 4.253 4.253 0 0 1 3.716 4.73c-3.568 29.571 5.734 66.557 28.683 86.899 8.897 7.898 23.293 11.957 33.636 18.293 19.897 12.206 40.169 21.879 61.462 31.435 33.382 14.98 65.589 23.557 100.676 32.958 12.423 3.329 26.488 9.972 39.297 10.868 2.334.16 4.125 2.209 3.954 4.55a4.276 4.276 0 0 1-4.559 3.954Zm345.02 231.867c1.265-4.211 2.759-8.479 2.967-9.176 3.303-10.667 4.253-19.195 3.38-30.427-2.24-28.931-19.959-60.419-41.102-79.884-30.407-27.993-67.896-38.474-107.284-47.362-20.495-4.622-40.626-10.876-61.512-12.896-8.734-.857-18.184-6.868-25.899-10.463-15.605-7.278-41.099-17.62-57.755-22.083a4.266 4.266 0 0 0-5.221 3.014 4.268 4.268 0 0 0 3.014 5.221c16.259 4.356 41.129 14.467 56.357 21.569 8.502 3.975 19.051 10.283 28.687 11.219 20.531 1.992 40.307 8.191 60.452 12.731 37.918 8.559 74.119 18.374 103.388 45.32 19.668 18.116 36.282 47.354 38.382 74.275.773 10.062-.065 17.698-3.024 27.245-.301.96-2.873 8.385-4.225 13.709-.775 3.048-1.034 5.598-.837 6.722.241 1.402.902 2.29 1.537 2.852.898.802 1.986 1.223 3.293 1.137.849-.048 3.136-.9 6.018-2.789 7.81-5.12 23.91-17.904 26.804-20.036 9.976-7.339 22.927-15.973 29.599-26.775 23.4-37.887 13.336-96.29-14.3-129.481-56.485-67.842-128.747-73.033-209.422-87.606-20.488-3.698-52.574-13.992-70.862-11.214a4.272 4.272 0 0 0-3.572 4.856 4.278 4.278 0 0 0 4.853 3.581c17.581-2.671 48.368 7.604 68.075 11.167 78.62 14.203 149.324 18.564 204.376 84.674 25.536 30.653 35.204 84.551 13.597 119.543-6.136 9.917-18.23 17.647-27.397 24.385-2.419 1.781-14.122 11.055-22.367 16.972Z"/>
  <path fill="darkorchid" d="M417.131 368.708c18.579 58.926 49.161 96.204 101.601 132.902 25.01 17.498 51.518 35.94 80.593 45.99 13.093 4.537 36.825 12.519 58.79 15.222 13.828 1.712 26.945 1.451 35.838-3.676a4.264 4.264 0 0 1 5.819 1.559 4.266 4.266 0 0 1-1.558 5.818c-10.214 5.897-25.243 6.719-41.138 4.761-22.62-2.783-47.055-10.953-60.535-15.627-29.821-10.313-57.056-29.13-82.692-47.062-54.157-37.898-85.658-76.463-104.85-137.324a4.26 4.26 0 0 1 2.789-5.341 4.249 4.249 0 0 1 5.343 2.778Z"/>
  <path fill="darkorchid" d="M697.91 521.967c.723 2.136 3.01 3.342 5.199 2.731a4.283 4.283 0 0 0 2.94-5.269c-.867-3.055-3.456-5.233-7.3-6.242-5.255-1.376-13.492-.4-16.571-.706-23.179-2.245-45.658-10.549-67.147-19.023-35.465-13.988-64.837-30.1-95.39-52.956-8.782-6.574-20.656-12.334-27.645-20.974-12.206-15.087-19.034-33.823-26.067-51.352-.881-2.179-3.363-3.245-5.541-2.366a4.265 4.265 0 0 0-2.373 5.537c7.345 18.304 14.608 37.793 27.359 53.545 7.398 9.163 19.846 15.47 29.159 22.441 31.193 23.324 61.16 39.777 97.367 54.049 22.229 8.766 45.493 17.259 69.457 19.587 2.511.249 8.625-.479 13.455.136.934.113 1.802.281 2.531.573.183.07.441.214.567.289ZM577.741 703.403l-7.201 3.086c-7.27 3.103-15.11 2.952-23.025 2.37-8.881-.662-17.864-1.892-26.424-.864-11.506 1.37-22.005 7.424-32.34 13.416-9.232 5.356-18.29 10.703-28.167 11.303a4.252 4.252 0 0 0-3.997 4.508 4.258 4.258 0 0 0 4.508 3.997c11.146-.673 21.514-6.39 31.938-12.433 9.318-5.406 18.692-11.093 29.07-12.333 8.019-.958 16.448.281 24.779.902 9.297.688 18.482.614 27.01-3.03 1.079-.464 8.437-2.906 11.29-5.164 2.038-1.628 2.689-3.574 2.596-5.095-.016-.407-.117-1.104-.563-1.974-.313-.615-1.173-1.875-2.447-3.532-5.224-6.756-18.297-21.927-19.687-23.753-13.294-17.478-26.353-36.24-37.953-54.899-29.463-47.436-46.433-102.695-63.198-155.523a4.274 4.274 0 0 0-5.354-2.783 4.27 4.27 0 0 0-2.771 5.358c16.976 53.499 34.24 109.411 64.082 157.447 11.73 18.884 24.951 37.87 38.412 55.562 1.374 1.801 14.159 16.63 19.442 23.434ZM412.335 376.397c-11.569 27.936-7.228 58.682-6.988 88.148.134 16.953-2.164 33.767-2.19 50.729-.03 25.926 4.152 51.527 7.077 77.186 2.619 22.964 2.251 47.209 10.579 69.094 1.894 4.974 11.253 35.675 20.319 54.608 2.175 4.55 4.3 8.376 6.314 10.879.733.906 1.244 1.689 1.886 1.862a4.264 4.264 0 0 1 3.014 5.22 4.27 4.27 0 0 1-5.22 3.012c-1.553-.416-3.281-1.449-4.997-3.237-2.698-2.802-5.708-7.829-8.686-14.058-9.174-19.163-18.682-50.224-20.591-55.253-8.583-22.548-8.388-47.507-11.086-71.163-2.956-25.982-7.167-51.911-7.135-78.154.02-16.942 2.33-33.721 2.191-50.655-.245-30.591-4.376-62.481 7.637-91.484.9-2.167 3.392-3.197 5.571-2.306a4.268 4.268 0 0 1 2.305 5.572Zm-48.947-40.546c-24.907 19.198-61.436 29.447-100.649 32.749-58.249 4.917-122.385-5.396-162.271-23.222-11.839-5.293-25.183-9.589-37.571-15.391-13.034-6.091-24.978-13.832-33.3-25.651a4.242 4.242 0 0 1 1.001-5.936c1.942-1.357 4.597-.901 5.946 1.021 7.471 10.593 18.282 17.382 29.962 22.846 12.341 5.768 25.648 10.055 37.437 15.325 38.849 17.367 101.336 27.301 158.083 22.522 37.427-3.166 72.391-12.688 96.152-31.015a4.252 4.252 0 0 1 5.975.773c1.441 1.862 1.087 4.535-.765 5.979ZM24.744 288.443c-.144-.528-.598-2.241-.661-3.498-.217-4.938.962-11.114 1.466-12.993 2.073-7.74 11.478-32.829 20.887-46.93 1.84-2.752 3.659-5.066 5.415-6.652.973-.863 1.747-1.622 2.609-1.57 6.487.422 12.295 5.297 17.97 10.596 6.698 6.238 13.059 13.236 19.271 16.957 30.91 18.529 74.57 38.597 111.25 37.511a4.27 4.27 0 0 0 4.144-4.394 4.266 4.266 0 0 0-4.391-4.126c-35.202 1.038-76.981-18.526-106.61-36.3-7.03-4.215-14.185-13.007-21.915-19.512-6.04-5.075-12.439-8.806-19.17-9.242-2.282-.143-4.793.637-7.326 2.494-2.658 1.97-5.527 5.295-8.33 9.508-9.936 14.861-19.836 41.303-22.021 49.458-.717 2.673-2.507 12.48-1.432 18.688.766 4.384 3.046 7.232 6.081 8.045a4.262 4.262 0 0 0 5.22-3.013c.557-2.078-.528-4.204-2.457-5.027Z"/>
  <path fill="palegoldenrod" fill-rule="nonzero" stroke="darkorchid" stroke-width="9.16" d="m220.624 563.22-46.208-14.695-38.273 29.696c-8.476 6.504-20.726.59-20.803-10.099l-.238-48.49-40.106-27.258c-8.797-5.976-6.899-19.494 3.256-22.843l45.97-15.244 13.593-46.544c2.935-10.234 16.372-12.63 22.742-4.009l28.676 39.028 48.402-1.47c10.681-.359 17.11 11.712 10.852 20.376l-28.231 39.345 16.414 45.628c3.572 10.042-5.914 19.853-16.046 16.579Z"/>
  <path fill="white" d="M272.448 579.268c6.829 6.829 6.829 17.919 0 24.748-6.83 6.83-17.92 6.83-24.749 0-6.83-6.829-6.83-17.919 0-24.748 6.829-6.83 17.919-6.83 24.749 0Zm-18.814 96.37c8.586 8.586 8.586 22.527 0 31.113-8.586 8.585-22.527 8.585-31.113 0-8.586-8.586-8.586-22.527 0-31.113 8.586-8.586 22.527-8.586 31.113 0Zm-67.781-38.333c-7.637 2.046-15.499-2.493-17.545-10.13-2.047-7.637 2.492-15.499 10.13-17.546 7.637-2.046 15.499 2.493 17.545 10.13 2.046 7.638-2.493 15.499-10.13 17.546Zm702.474-53.686c9.329 2.5 14.874 12.104 12.374 21.433-2.5 9.33-12.104 14.874-21.433 12.375-9.329-2.5-14.874-12.104-12.374-21.433 2.499-9.33 12.103-14.875 21.433-12.375Zm-2.044 92.628c11.729 3.142 18.699 15.216 15.557 26.944-3.143 11.728-15.216 18.699-26.945 15.556-11.728-3.142-18.699-15.216-15.556-26.944 3.143-11.728 15.216-18.699 26.944-15.556Zm62.636-39.441c10.49 2.811 16.725 13.609 13.914 24.099-2.811 10.49-13.609 16.724-24.099 13.914-10.49-2.811-16.724-13.609-13.913-24.099 2.81-10.49 13.609-16.724 24.098-13.914Z"/>
  <path fill="palegoldenrod" fill-rule="nonzero" stroke="darkorchid" stroke-width="9.16" d="M838.779 648.555c-20.556 11.812-30.778 32.249-35.827 48.454-1.517 4.78-8.202 4.78-9.715 0-5.054-16.205-15.27-36.601-35.826-48.454-3.382-1.982-3.382-6.84 0-8.781 20.556-11.852 30.772-32.254 35.826-48.458 1.513-4.78 8.198-4.78 9.715 0 5.049 16.204 15.271 36.606 35.827 48.458 3.381 1.941 3.381 6.799 0 8.781Zm-713.343 29.872c-13.732 7.891-20.56 21.543-23.933 32.368-1.014 3.193-5.48 3.193-6.49 0-3.376-10.825-10.201-24.45-23.932-32.368-2.259-1.324-2.259-4.569 0-5.865 13.731-7.918 20.556-21.547 23.932-32.371 1.01-3.194 5.476-3.194 6.49 0 3.373 10.824 10.201 24.453 23.933 32.371 2.258 1.296 2.258 4.541 0 5.865Z"/>
</svg>
