<svg xmlns="http://www.w3.org/2000/svg" xml:space="preserve" fill-rule="evenodd" stroke-linejoin="round" stroke-miterlimit="2" clip-rule="evenodd" viewBox="0 0 1024 768">
  <path fill="lavenderblush" d="M622.468 300.779s42.484-19.307 107.212-22.786c64.739-3.496 138.318 16.345 192.552 45.582 54.216 29.227 74.766 55.664 69.256 80.998-5.528 25.324-5.445 43.838-32.977 67.417-27.56 23.585-41.268 37.029-46.527 51.712-5.278 14.674-12.748 55.477-42.678 100.614-29.94 45.155-53.13 90.569-90.024 113.079-36.903 22.482-56.183 23.125-64.784 20.817-8.618-2.317-45.152-13.991-73.309-40.296-28.167-26.289-34.853-41.2-57.867-72.861-23.042-31.652-59.447-93.264-67.068-107.97-7.648-14.698-13.188-49.769-13.188-49.769s-11.833-.141-24.535-8.71c-12.721-8.58-18.019-24.603-18.019-24.603s-19.096.727-37.795 2.382c-18.681 1.665-172.89 29.12-236.947 22.47-64.05-6.622-79.14-8.269-106.71-25.819-27.552-17.539-43.782-29.288-43.557-75.393.225-46.106 5.778-53.299 39.457-95.642 33.67-42.325 54.525-56.235 67.629-78.165 13.114-21.947 22.995-60.425 24.044-72.014 1.038-11.572 2.533-77.929 30.376-99.742 27.825-21.824 74.532-35.241 141.04-15.309 66.536 19.925 94.564 39.628 122.082 85.173 27.508 45.563 54.12 101.521 58.295 123.447 4.168 21.899 4.73 47.054 4.73 47.054s2.107 2.57 13.087-3.122c11.008-5.699 11.87-12.966 22.953-2.883 11.072 10.1 10.133 31.031 10.133 31.031s7.716-3.309 24.952-3.64c17.235-.332 28.187 6.948 28.187 6.948Z"/>
  <path fill="darkorchid" d="M493.469 433.953c.07.041.15.064.237.114 9.451 4.267 20.382 10.695 31.249 8.552 25.827-5.117 48.557-26.152 58.26-50.348 9.48-23.648 6.231-50.449-19.718-68.019-30.574-20.706-68.537 2.119-82.898 31.717-5.828 11.953-7.015 26.447-6.711 39.61.163 7.391-1.243 15.44 2.035 22.322 1.191 2.46 3.551 4.148 6.015 5.735 3.347 2.118 6.978 4.028 9.751 6.212a4.649 4.649 0 0 1 1.78 4.105Zm-6.352 3.934a4.147 4.147 0 0 1-1.224-.706c-3.145-2.469-7.484-4.484-11.109-7.09-3.113-2.241-5.741-4.877-7.299-8.155-3.856-8.102-2.77-17.454-2.972-26.151-.336-14.603 1.206-30.641 7.667-43.931 16.64-34.274 61.153-59.357 96.586-35.355 30.244 20.469 34.187 51.681 23.142 79.252-10.812 27.006-36.305 50.363-65.125 56.06-12.79 2.526-25.829-4.21-36.927-9.218a4.68 4.68 0 0 1-2.739-4.706Z"/>
  <path fill="darkorchid" d="M610.134 419.914c-.59-.271-1.495-.723-1.877-.99a5.451 5.451 0 0 1-1.403-1.487c-1.038-1.555-1.33-3.309-.119-5.408.465-.804 1.605-2.011 3.575-2.879 1.887-.846 5.079-1.731 7.753-2.565 1.106-.341 2.106-.58 2.541-.888 8.882-5.854 16.719-17.651 18.376-28.235 2.003-12.717-6.306-26.514-19.016-29.376-2.045-.457-6.314.436-9.482.472-2.545.046-4.669-.435-5.928-1.162-1.364-.787-2.135-1.955-2.324-3.486-.102-.712-.159-2.027.887-3.475.65-.884 5.3-4.495 5.347-4.537 3.177-2.433 5.462-4.331 6.737-8.235 3.167-9.807.28-18.981-6.137-26.766-3.667-4.472-10.27-4.95-17.127-3.896-11.659 1.779-24.465 8.492-28.85 15.24-1.432 2.157-4.328 2.77-6.478 1.366a4.707 4.707 0 0 1-1.384-6.488c1.982-3.029 5.317-6.14 9.422-8.97-1.67-1.267-2.348-3.524-1.485-5.544 2.797-6.662 2.201-13.465-1.252-18.186-3.35-4.616-9.403-7.015-17.094-5.486-.98.203-1.928.915-2.93 1.642-1.583 1.208-3.143 2.616-4.681 3.827-3.117 2.49-6.319 3.999-9.131 3.821-2.659-.16-5.855-1.772-9.507-3.927-5.583-3.293-13.109-7.988-23.487-1.925-5.7 3.33-12.567 9.368-15.807 15.868-1.296 2.609-2.025 5.243-1.442 7.748.582 2.505 2.496 4.682 5.871 6.631 3.987 2.302 2.32 5.956 2.143 6.343-.371.765-1.744 3.143-5.1 2.535-.528-.095-4.089-1.521-5.502-1.941-3.944-1.204-7.691-2.388-11.828-1.28-12.974 3.492-21.467 10.083-27.968 21.345-3.797 6.575-7.026 22.547-4.453 33.033.773 3.104 1.908 5.741 4.302 6.844 1.568.718 3.524.682 5.961.014l.89 3.265 1.542 5.81-.79.197c-1.918 1.061-3.968 1.906-5.804 3.107-4.08 2.705-6.875 6.617-9.12 10.869-7.182 13.691-4.425 35.731 5.912 47.388 3.669 4.147 10.485 4.981 15.523 4.695.712-.264 4.696-1.672 6.833-2.303 1.813-.516 3.341-.659 4.115-.586 2.741.301 3.905 1.999 4.342 3.626.595 2.279.72 4.567.823 6.934.114 2.467.182 5.095 1.652 8.042 4.654 9.425 15.107 15.833 26.463 19.102 11.586 3.356 24.254 3.465 33.298-.407 4.419-1.879 9.875-3.858 12.639-7.999.577-.879.626-2.296.847-3.567.331-1.745.729-3.403 1.328-4.643 1.373-2.822 3.536-4.347 6.809-4.16 2.361.151 4.773 1.264 7.15 2.8 1.853 1.233 3.638 2.986 5.666 3.271 9.291 1.353 18.559-4.441 25.95-9.57 9.969-6.928 19.947-21.102 22.763-33.047.194-.82.346-1.689.046-2.421Zm-37.296-126.502c5.545-2.698 11.703-4.762 17.683-5.669 10.453-1.589 20.185.415 25.767 7.182 8.525 10.355 12.014 22.605 7.814 35.615-1.103 3.444-2.647 5.957-4.67 8.169.994.015 1.885.086 2.591.237 17.352 3.91 28.967 22.6 26.215 39.967-2.054 12.967-11.598 27.439-22.45 34.604-.979.647-3.137 1.476-5.597 2.224-.459.108-.958.286-1.475.454 1.103 2.572 1.176 5.435.497 8.307-3.306 13.924-14.893 30.48-26.543 38.583-9.212 6.386-21.043 12.822-32.649 11.158-2.403-.362-4.754-1.579-7.017-3.072-1.096-.726-2.179-1.515-3.236-2.149-.184.804-.376 1.742-.524 2.403-.397 1.939-1.001 3.712-1.886 5.043-3.747 5.601-10.771 8.843-16.751 11.406-10.76 4.583-25.788 4.767-39.553.783-13.998-4.024-26.544-12.34-32.288-23.957-1.814-3.682-2.32-7.005-2.512-10.147-.057-.709-.061-1.388-.083-2.077-1.006.329-1.984.65-2.659.89-1.515.524-2.688.78-3.124.808-7.584.494-17.896-1.473-23.513-7.817-12.633-14.264-15.982-41.216-7.179-57.957 2.36-4.49 5.268-8.64 9.095-11.957-4.77-3.57-7.404-10.477-7.922-18.586-.786-11.926 2.667-26.346 6.464-32.922 7.824-13.552 18.036-21.506 33.658-25.707a22.36 22.36 0 0 1 7.827-.634c-.027-.155-.081-.303-.108-.459-1.067-4.533-.151-9.39 2.166-14.091 4.038-8.044 12.41-15.638 19.479-19.764 12.628-7.375 22.328-3.943 29.826.153 2.111 1.149 4.019 2.367 5.736 3.311 1.034.551 1.888 1.091 2.727 1.132.316.019.57-.301.916-.497 1.08-.659 2.194-1.578 3.3-2.525 3.286-2.743 6.814-5.462 10.128-6.114 12.02-2.363 21.26 1.946 26.508 9.172 4.697 6.443 6.23 15.419 3.342 24.5Z"/>
  <path fill="darkorchid" d="M622.936 305.945c96.118-32.081 210.597-36.961 297.296 21.699 10.763 7.286 24.999 13.966 37.435 22.312 11.489 7.682 21.52 16.761 24.988 29.652 3.851 14.371 3.1 23.87-1.2 37.779-14.334 46.353-25.672 43.375-55.997 77.162-20.653 23.05-23.606 49.045-34.834 76.044-19.024 45.791-55.68 100.801-89.95 136.251-14.631 15.125-29.481 34.182-49.457 42.49-17.619 7.338-36.999 5.406-55.612-1.447-28.873-10.608-55.988-33.024-72.572-53.044-26.22-31.599-43.769-69.454-68.747-101.992-7.132-9.294-30.554-47.112-40.703-74.562-2.485-6.681-4.176-12.717-4.523-17.487-.163-2.262-.102-4.185.666-5.514a4.676 4.676 0 0 0-1.715-6.4 4.688 4.688 0 0 0-6.399 1.715c-1.535 2.658-2.217 6.344-1.902 10.886.396 5.452 2.242 12.393 5.075 20.044 10.511 28.359 34.699 67.435 42.057 77.023 25.063 32.633 42.697 70.583 68.966 102.258 17.496 21.106 46.134 44.682 76.547 55.852 20.924 7.697 42.678 9.555 62.468 1.325 21.118-8.792 37.1-28.64 52.589-44.645 35.003-36.193 72.436-92.387 91.862-139.158 10.805-25.985 13.276-51.185 33.171-73.367 31.569-35.214 43.015-32.383 57.964-80.689 4.892-15.782 5.669-26.619 1.294-42.948-4.053-15.07-15.4-26.028-28.82-35.012-12.435-8.345-26.637-15.006-37.381-22.282-89.107-60.306-206.747-55.805-305.534-22.817a4.67 4.67 0 0 0-2.952 5.92c.803 2.446 3.465 3.773 5.92 2.952Z"/>
  <path fill="darkorchid" d="M539.811 488.409c8.239.955 18.396 7.916 28.544 16.549 16.25 13.813 32.195 32.275 39.868 41.601 14.072 17.101 30.829 32.581 45.572 49.207 23.233 26.191 53.33 75.791 67.028 107.878 4.759 11.141 3.817 20.041 3.053 27.947-.621 6.286-1.058 12.049.457 17.704.656 2.5 3.226 3.984 5.736 3.311a4.668 4.668 0 0 0 3.312-5.735c-1.582-5.903-.323-11.961.199-18.841.639-8.095.515-17.167-4.133-28.057-14.032-32.84-44.873-83.615-68.639-110.417-14.666-16.558-31.366-31.935-45.353-48.941-9.25-11.239-30.091-35.233-49.523-49.553-8.967-6.599-17.725-11.096-25.037-11.961a4.71 4.71 0 0 0-5.196 4.112c-.289 2.561 1.561 4.889 4.112 5.196Zm-13.769-220.196c2.961-10.298 1.147-25.288-2.993-41.016-5.891-22.427-16.246-46.452-21.848-59.525C464.04 80.675 390.24 1.974 287.959 4.709c-26.975.724-55.207 1.445-79.861 14.141-16.606 8.529-26.606 23.67-32.897 41.349-8.895 25.059-10.256 55.283-13.975 77.151-3.21 18.805-9.821 37.768-18.3 54.837-13.715 27.591-34.24 45.656-53.99 65.567-20.577 20.739-40.374 43.397-51.766 79.605-3.897 12.323-7.686 25.267-7.743 38.128-.211 48.422 28.484 76.017 68.465 91.01 57.782 21.679 139.579 16.42 186.729 11.606 20.417-2.085 41.015-4.929 61.266-8.183 26.379-4.215 52.955-7.035 79.535-10.225a4.692 4.692 0 0 0 4.086-5.218c-.306-2.579-2.64-4.393-5.219-4.086-26.68 3.202-53.374 6.024-79.901 10.294-20.059 3.201-40.483 6.028-60.727 8.097-46.067 4.716-126.01 10.113-182.501-11.054-36.194-13.598-62.554-38.33-62.371-82.222.063-11.902 3.705-23.905 7.305-35.35 10.873-34.502 29.861-56.042 49.485-75.816 20.451-20.601 41.528-39.42 55.736-67.986 8.871-17.868 15.789-37.726 19.143-57.427 3.058-17.937 4.423-41.584 9.884-63.239 5.153-20.435 13.839-39.155 32.031-48.494 23.412-12.038 50.223-12.437 75.82-13.117 98.303-2.63 168.693 73.659 204.401 157.276 5.466 12.785 15.635 36.283 21.393 58.213 3.648 13.834 5.653 27 3.045 36.08-.692 2.491.744 5.092 3.225 5.802a4.67 4.67 0 0 0 5.785-3.235Z"/>
  <path fill="darkorchid" d="M74.517 441.763c22.004-15.578 57.191-22.286 95.54-24.417 58.72-3.288 124.869 4.382 164.376 9.495 8.608 1.123 42.488 6.531 65.771 8.688 10.733.997 19.37 1.181 22.873.242 2.483-.665 3.977-3.253 3.312-5.735-.673-2.511-3.243-3.995-5.736-3.312-2.997.788-10.378.327-19.564-.523-23.175-2.142-56.892-7.549-65.438-8.659-39.947-5.157-106.79-12.878-166.136-9.556-40.356 2.255-77.254 9.747-100.419 26.124-2.108 1.511-2.609 4.439-1.116 6.537 1.483 2.115 4.411 2.617 6.537 1.116Zm383.357-146.829c-18.589-28.663-55.372-53.677-86.975-66.583-2.365-.993-5.103.155-6.098 2.565-.975 2.375.173 5.112 2.565 6.097 29.978 12.249 65.012 35.81 82.649 63.013a4.676 4.676 0 0 0 6.485 1.366c2.156-1.39 2.782-4.293 1.374-6.458Zm-40.017 34.743c-20.06-3.864-41.014-4.886-61.405-5.631-2.572-.109-4.747 1.923-4.839 4.505a4.698 4.698 0 0 0 4.494 4.856c19.914.725 40.382 1.7 59.968 5.454a4.706 4.706 0 0 0 5.496-3.705c.488-2.54-1.192-5.002-3.714-5.479Zm228.383 70.466c31.409 10.416 62.173 19.364 91.411 36.245a4.675 4.675 0 0 0 6.399-1.715 4.687 4.687 0 0 0-1.714-6.399c-29.798-17.204-61.117-26.402-93.156-37.019a4.68 4.68 0 1 0-2.94 8.888Zm-34.457 35.412c16.416 6.377 28.201 16.375 39.041 27.483 11.397 11.64 21.796 24.522 35.038 36.154a4.676 4.676 0 0 0 6.612-.426c1.699-1.933 1.514-4.885-.427-6.611-13.062-11.459-23.29-24.196-34.524-35.671-11.753-12.032-24.561-22.761-42.348-29.673-2.395-.94-5.118.263-6.068 2.676a4.722 4.722 0 0 0 2.676 6.068Z"/>
  <path fill="palegoldenrod" fill-rule="nonzero" stroke="darkorchid" stroke-width="9.16" d="m338.541 632.542-47.364 10.377-18.298 44.854c-4.088 9.871-17.654 10.874-23.065 1.656l-24.452-41.875-48.361-3.553c-10.606-.777-15.722-13.432-8.602-21.411l32.19-36.186-11.501-47.105c-2.575-10.33 7.864-19.124 17.69-14.843l44.349 19.462 41.183-25.475c9.07-5.652 20.673 1.588 19.586 12.221l-4.777 48.188 37.029 31.309c8.114 6.91 4.805 20.15-5.607 22.381Z"/>
  <path fill="white" d="M414.327 583.619c9.329 2.5 14.874 12.104 12.374 21.433-2.5 9.33-12.104 14.874-21.433 12.375-9.329-2.5-14.874-12.104-12.374-21.433 2.499-9.33 12.103-14.875 21.433-12.375Zm-2.044 92.628c11.729 3.142 18.699 15.216 15.557 26.944-3.143 11.728-15.216 18.699-26.945 15.556-11.728-3.142-18.699-15.216-15.556-26.944 3.143-11.728 15.216-18.699 26.944-15.556Zm62.636-39.441c10.49 2.811 16.725 13.609 13.914 24.099-2.811 10.49-13.609 16.724-24.099 13.914-10.49-2.811-16.724-13.609-13.913-24.099 2.81-10.49 13.609-16.724 24.098-13.914ZM618.084 43.633c6.09-3.516 13.889-1.426 17.405 4.664 3.516 6.09 1.426 13.889-4.663 17.405-6.09 3.516-13.889 1.426-17.405-4.664-3.516-6.09-1.427-13.889 4.663-17.405Zm46.635 48.739c7.656-4.42 17.46-1.793 21.88 5.862 4.42 7.656 1.793 17.461-5.863 21.881-7.656 4.42-17.46 1.793-21.88-5.863-4.42-7.656-1.793-17.46 5.863-21.88Zm11.942-52.551c6.847-3.954 15.616-1.604 19.569 5.243 3.953 6.848 1.604 15.616-5.244 19.57-6.847 3.953-15.616 1.603-19.569-5.244-3.953-6.847-1.604-15.616 5.244-19.569Zm190.666 40.86c9.329 2.499 14.874 12.103 12.374 21.433-2.5 9.329-12.104 14.874-21.433 12.374s-14.874-12.104-12.374-21.433c2.499-9.329 12.103-14.874 21.433-12.374Zm-2.044 92.627c11.729 3.143 18.699 15.216 15.557 26.944-3.143 11.729-15.216 18.699-26.945 15.557-11.728-3.143-18.699-15.216-15.556-26.945 3.143-11.728 15.216-18.699 26.944-15.556Zm62.636-39.44c10.49 2.81 16.725 13.609 13.914 24.098-2.811 10.49-13.609 16.725-24.099 13.914-10.49-2.811-16.724-13.609-13.913-24.099 2.81-10.49 13.609-16.724 24.098-13.913Z"/>
  <path fill="palegoldenrod" fill-rule="nonzero" stroke="darkorchid" stroke-width="9.16" d="M817.779 145.617c-20.556 11.811-30.778 32.248-35.827 48.453-1.517 4.78-8.202 4.78-9.715 0-5.054-16.205-15.27-36.601-35.826-48.453-3.382-1.983-3.382-6.84 0-8.781 20.556-11.853 30.772-32.254 35.826-48.459 1.513-4.78 8.198-4.78 9.715 0 5.049 16.205 15.271 36.606 35.827 48.459 3.381 1.941 3.381 6.798 0 8.781ZM655.016 181.8c-13.732 7.89-20.56 21.543-23.933 32.368-1.014 3.193-5.479 3.193-6.49 0-3.376-10.825-10.2-24.45-23.932-32.368-2.259-1.324-2.259-4.569 0-5.866 13.732-7.917 20.556-21.546 23.932-32.371 1.011-3.193 5.476-3.193 6.49 0 3.373 10.825 10.201 24.454 23.933 32.371 2.259 1.297 2.259 4.542 0 5.866Z"/>
</svg>
