<svg xmlns="http://www.w3.org/2000/svg" xml:space="preserve" fill-rule="evenodd" stroke-linecap="round" stroke-linejoin="round" stroke-miterlimit="1.5" clip-rule="evenodd" viewBox="0 0 1080 1080">
  <path fill="lavenderblush" d="M711.933 712.306s6.386-4.661 10.455-21.606c4.074-16.946 43.039-95.486 57.311-125.374 14.274-29.885 50.005-66.678 60.588-63.979 10.582 2.699 16.754 12.912 23.022 24.721 6.268 11.809 22.469 27.849 34.543 30.588 12.075 2.738 25.348 5.791 29.549 13.74 4.199 7.948 7.488 16.533 4.85 24.228-2.639 7.692-20.645 31.178-36.531 47.815-15.888 16.636-47.587 45.177-47.587 45.177s21.101-4.826 42.74-8.804c21.638-3.978 66.231-15.551 77.661-12.509 11.429 3.041 17.626 2.223 17.626 2.223s-21.127 10.313-26.403 18.83c-5.264 8.514-11.5 11.605-.859 23.572 10.641 11.969 22.936 28.103 22.936 28.103s-10.08.518-15.659 1.799c-5.593 1.282-46.251 3.007-75.124 3.299-28.884.3-48.644-2.98-76.809 3.252-28.175 6.239-62.77 4.729-62.77 4.729s-.113 6.3-12.48 17.404c-12.369 11.104-21.814 15.633-21.814 15.633s-6.178 33.481-12.826 55.608c-6.643 22.128-15.992 45.847-19.481 61.757-3.489 15.913-8.569 30.216-9.643 39.365-1.074 9.149-5.586 29.417-6.239 40.523-.658 11.107.387 40.156-6.614 39.407-7-.749-11.884-7.72-17.8-18.742-5.917-11.018-13.42-23.812-16.22-25.501-2.8-1.688-8.466-2.147-13.727 8.335-5.261 10.481-13.143 26.695-18.361 33.025-5.219 6.33-8.547.66-9.61-11.746-1.059-12.409 2.34-51.749 2.34-51.749s-28.156 15.973-40.083 3.19c-11.922-12.785-9.456-15.513-13.406-33.091-3.948-17.582-8.457-21.368-17.382-29.277-8.923-7.907-19.926-18.956-23.657-36.352-3.729-17.395-6.525-29.264 10.76-46.967 17.284-17.704 73.278-45.965 99.723-53.248 26.445-7.282 79.539-16.292 79.539-16.292s-1.863-8.668 6.715-15.796c8.575-7.126 20.727-15.29 20.727-15.29Z"/>
  <path fill="darkorchid" d="M682.827 747.07c15.726 14.001 17.251 15.269 28.656 34.268a2.865 2.865 0 0 0 3.917.979 2.848 2.848 0 0 0 .973-3.915c-11.837-19.727-13.425-21.051-29.755-35.596a2.864 2.864 0 0 0-4.033.236 2.858 2.858 0 0 0 .242 4.028Z"/>
  <path fill="darkorchid" d="M685.898 743.227a2.847 2.847 0 0 1-.317 3.667 2.855 2.855 0 0 1-4.034-.014c-.895-.901-1.418-2.154-1.369-3.775.065-1.998 1.254-4.963 3.391-8.259 4.313-6.661 12.425-15.117 19.161-19.519 3.369-2.209 6.52-3.375 8.834-3.296 1.44.047 3.096.568 4.869 1.588 2.121 1.222 4.503 3.193 6.975 5.64 8.928 8.86 19.305 24.19 22.948 29.216a2.856 2.856 0 0 1-.633 3.985 2.853 2.853 0 0 1-3.98-.64c-3.556-4.893-13.64-19.874-22.351-28.509-2.069-2.046-4.03-3.725-5.803-4.744-.821-.476-1.552-.819-2.217-.839-.665-.02-1.437.222-2.298.594-1.774.753-3.788 2.054-5.866 3.671-5.517 4.28-11.461 10.724-14.853 15.953-1.098 1.686-1.919 3.217-2.302 4.485a5.398 5.398 0 0 0-.155.796Z"/>
  <path fill="darkorchid" d="M719.064 785.123c4.693-.765 10.346-4.209 15.619-8.905 7.598-6.751 14.466-15.993 16.798-22.289a2.84 2.84 0 0 0-1.68-3.664 2.846 2.846 0 0 0-3.665 1.681c-2.104 5.671-8.399 13.927-15.238 20.013-4.35 3.865-8.891 6.906-12.749 7.536a2.855 2.855 0 0 0-2.359 3.276 2.86 2.86 0 0 0 3.274 2.352Zm-3.024-75.055a2.852 2.852 0 0 1-4.861 2.816c-.993-1.18-1.201-2.502-.862-3.887.184-.748.572-1.53 1.054-2.255.387-.586.868-1.115 1.075-1.503 3.135-5.775 4.935-12.159 7.339-18.268 8.977-22.767 19.121-45.229 30.029-67.124 16.629-33.387 31.402-69.142 55.865-97.774 5.128-6.009 12.049-14.863 20.092-19.705 5.959-3.577 12.506-5.049 19.414-2.313 4.232 1.679 7.7 4.877 10.605 8.764 3.942 5.264 6.867 11.788 9.657 16.722 4.712 8.298 10.927 16.217 18.576 21.984 6.584 4.951 15.763 5.945 24.153 7.993 9.658 2.365 18.31 6.013 22.397 16.016a2.842 2.842 0 0 1-1.556 3.714 2.857 2.857 0 0 1-3.726-1.549c-3.325-8.134-10.621-10.715-18.481-12.637-9.127-2.239-19.046-3.58-26.215-8.979-8.27-6.237-15.03-14.756-20.107-23.732-2.263-3.991-4.592-9.069-7.525-13.607-2.623-4.067-5.711-7.734-9.878-9.389-6.523-2.575-12.537.146-17.876 4.338-6.003 4.721-11.168 11.357-15.205 16.089-24.152 28.279-38.662 63.634-55.088 96.611-10.826 21.743-20.907 44.051-29.819 66.667-2.495 6.324-4.392 12.926-7.633 18.899-.215.385-.569.879-.964 1.415a7.736 7.736 0 0 0-.46.694Z"/>
  <path fill="darkorchid" d="M753.387 745.258c15.332-3.752 38.08-19.109 50.613-28.258 32.121-23.434 62.898-49.269 90.873-77.558 13.445-13.586 27.905-26.138 34.005-44.802.418-1.299 2.385-6.652 2.604-10.862.041-.855.026-1.655-.165-2.306-.049-.197-.071-.421-.273-.448-2.391-.261-4.792 1.11-7.123 2.867-4.389 3.287-8.408 8.146-11.243 10.722-14.506 13.131-28.948 26.284-43.29 39.566-15.464 14.315-31.579 27.89-46.731 42.561-18.672 18.082-35.792 37.84-54.433 55.846-4.688 4.518-9.862 8.482-14.837 12.672Zm-2.127 1.82a143.65 143.65 0 0 0-2.958 2.66 2.847 2.847 0 0 1-4.025-.136 2.861 2.861 0 0 1 .139-4.031c6.368-5.959 13.554-11.019 19.845-17.087 18.64-18.006 35.751-37.753 54.424-55.833 15.18-14.7 31.333-28.308 46.822-42.657 14.373-13.304 28.823-26.47 43.338-39.611 2.933-2.657 7.118-7.655 11.647-11.05 3.61-2.712 7.483-4.383 11.174-3.971 3.275.359 5.025 2.642 5.439 6.109.598 4.99-2.235 13.173-2.806 14.935-6.378 19.531-21.309 32.827-35.368 47.05-28.188 28.5-59.211 54.536-91.56 78.151-13.051 9.523-36.841 25.38-52.767 29.223a2.85 2.85 0 0 1-3.439-2.102 2.77 2.77 0 0 1 .095-1.65Zm-69.155-3.636c-3.415-.838-6.876-.163-10.292.958-2.756.91-5.488 2.125-8.138 2.579-19.131 3.269-38.688 4.924-57.46 10.147-10.205 2.841-20.309 6.607-30.206 10.385-20.481 7.824-46.589 19.891-64.766 36.786-18.776 17.449-29.21 39.963-17.476 68.162 3.774 9.067 9.81 15.929 16.424 22.344 6.258 6.065 13.036 11.734 18.65 18.745 3.196 3.993 4.634 8.824 5.546 13.82.997 5.462 1.347 11.139 2.269 16.342 1.027 5.772 2.774 10.981 6.413 14.952 3.672 4.01 9.287 6.864 18.309 7.53 12.553.931 28.629-7.604 37.794-15.704 23.31-20.601 42.189-47.493 60.384-72.602 16.025-22.099 27.803-46.023 40.404-69.93 4.305-8.172 9.661-15.372 13.574-23.841a2.862 2.862 0 0 0-1.397-3.786 2.863 2.863 0 0 0-3.786 1.398c-3.865 8.378-9.184 15.493-13.436 23.567-12.476 23.67-24.116 47.37-39.975 69.25-17.959 24.773-36.54 51.342-59.544 71.672-8.172 7.224-22.402 15.116-33.593 14.291-7.113-.53-11.638-2.535-14.528-5.696-2.929-3.197-4.173-7.453-4.997-12.096-.929-5.215-1.287-10.895-2.28-16.367-1.08-5.938-2.909-11.621-6.705-16.358-5.769-7.203-12.703-13.05-19.128-19.28-6.07-5.887-11.676-12.124-15.137-20.446-10.642-25.585-.942-45.952 16.098-61.792 17.642-16.401 43.04-28.042 62.919-35.635 9.729-3.715 19.662-7.427 29.699-10.222 18.581-5.164 37.952-6.78 56.896-10.016 2.915-.5 5.924-1.781 8.958-2.78 2.378-.783 4.777-1.423 7.155-.84a2.86 2.86 0 0 0 3.451-2.095 2.848 2.848 0 0 0-2.099-3.442Z"/>
  <path fill="darkorchid" d="M560.696 958.323c5.058-15.969 19.798-35.143 29.54-49.006 12.815-18.245 25.718-36.363 40.559-53.118 8.316-9.392 18.157-17.036 27.118-25.746 15.093-14.658 30.148-30.304 47.893-41.731a2.848 2.848 0 1 0-3.087-4.79c-18.061 11.624-33.416 27.504-48.785 42.434-9.058 8.808-18.998 16.549-27.41 26.046-14.981 16.924-28.013 35.207-40.958 53.625-10.033 14.284-25.097 34.117-30.307 50.564a2.86 2.86 0 0 0 1.862 3.581 2.852 2.852 0 0 0 3.575-1.859Zm99.65 62.347c1.29-1.595 1.931-3.963 2.385-6.508.936-5.279.799-11.347 1.178-15.073 2-19.611 4.602-39.114 8.371-58.45 6.33-32.449 17.453-63.28 26.308-94.994 6.018-21.552 9.861-43.246 17.548-63.942a2.854 2.854 0 0 1 3.664-1.68 2.842 2.842 0 0 1 1.68 3.663c-7.627 20.548-11.424 42.093-17.399 63.497-8.816 31.567-19.902 62.246-26.203 94.545-3.74 19.174-6.314 38.504-8.294 57.942-.394 3.829-.279 10.066-1.237 15.49-.756 4.238-2.22 8.001-4.671 10.286-1.723 1.604-4.355 1.62-7.137-.4-3.466-2.527-7.672-8.508-8.577-9.744-6.748-9.151-11.813-19.785-16.536-30.083-.554-1.209-1.429-3.033-2.622-4.468-.696-.827-1.425-1.693-2.449-1.508-1.741.299-3.392 1.449-5.028 3.013-1.955 1.87-3.82 4.347-5.597 7.1-5.679 8.795-10.344 20.278-13.175 25.317-.822 1.463-3.002 7.235-5.696 10.025-1.989 2.059-4.29 2.798-6.565 1.948-1.677-.633-3.141-2.33-4.051-4.755-1.41-3.75-1.719-9.423-1.934-10.961-1.939-13.943-2.117-29.872-.041-43.824.193-1.288 1.83-9.345 3.082-12.566.495-1.275 1.124-2.069 1.534-2.394a3.068 3.068 0 0 1 1.686-.681 2.851 2.851 0 0 1 3.075 2.608 2.83 2.83 0 0 1-.834 2.26c-.36 1.371-2.726 10.45-2.9 11.616-2 13.428-1.821 28.768.045 42.194.173 1.195.346 5.158 1.209 8.405.187.72.408 1.396.685 1.969.095.206.276.47.398.64.123-.079.268-.191.369-.283.321-.304.622-.684.917-1.091 1.948-2.726 3.412-6.767 4.047-7.897 3.373-5.996 9.325-20.904 16.447-29.992 3.529-4.506 7.439-7.589 11.347-8.273 2.543-.442 4.82.527 6.704 2.301 2.087 1.97 3.651 5 4.531 6.919 4.564 9.95 9.426 20.238 15.946 29.079.683.932 3.478 5.003 6.199 7.549.463.435 1.15.912 1.591 1.201ZM977 669.637l-.412-.045c-9.848-.92-23.307-.071-28.352.516-14.537 1.712-28.355 6.73-42.691 9.648-15.931 3.242-32.928 5.841-47.833 12.677a2.843 2.843 0 0 1-3.78-1.402 2.849 2.849 0 0 1 1.403-3.781c15.296-7.016 32.715-9.756 49.08-13.084 14.484-2.948 28.454-7.99 43.158-9.719 5.258-.625 19.275-1.496 29.549-.53 4.847.455 8.919 1.401 11.163 2.784 1.226.757 1.481 1.697 1.564 2.291.129.929-.096 1.854-.964 2.644-.315.288-.914.662-1.787.881-.938.226-2.841.293-3.669.611-2.803 1.082-5.856 2.446-8.469 3.884-4.103 2.26-8.431 5.029-11.778 8.524-3.054 3.188-5.268 7.001-5.422 11.649-.184 5.378 1.953 10.243 4.96 14.648 3.243 4.741 7.505 8.962 11.362 12.683.902.876 5.899 5.431 8.119 8.945.805 1.283 1.28 2.497 1.407 3.48.156 1.285-.174 2.364-.873 3.228-1.082 1.356-2.896 2.384-5.134 3.018-3.914 1.109-9.256 1.079-11.835 1.206-13.076.65-26.536.965-39.625 1.115-16.802.195-33.615-.758-50.402-.207-22.767.75-45.487 4.671-68.179 6.647-17.866 1.558-37.39 8.408-55.343 4.057a2.85 2.85 0 1 1 1.34-5.54c8.473 2.05 17.323 1.384 26.156.063 9.265-1.384 18.509-3.489 27.35-4.263 22.795-1.987 45.622-5.911 68.484-6.661 16.826-.553 33.693.398 50.534.2 13.019-.156 26.401-.464 39.398-1.11 2.01-.099 5.872-.053 9.161-.665 1.157-.221 2.274-.438 3.032-.908-.282-.497-.725-1.287-1.176-1.858-2.234-2.866-5.671-5.966-6.375-6.645-8.514-8.214-18.492-18.825-18.061-31.624.393-11.793 10.639-19.735 20.137-24.973a68.398 68.398 0 0 1 4.803-2.384Z"/>
  <path fill="none" stroke="deeppink" stroke-width="20" d="M865.621 443.81C865.621 210.851 676.77 22 443.81 22 211.007 22 22 211.007 22 443.81c0 232.96 188.851 421.811 421.81 421.811C210.851 865.621 22 676.77 22 443.81 22 211.007 211.007 22 443.81 22c232.96 0 421.811 188.851 421.811 421.81Z"/>
</svg>
