<?xml version="1.0" encoding="UTF-8" standalone="no"?>
<svg width="100%" height="100%" viewBox="0 0 500 500" version="1.1" xmlns="http://www.w3.org/2000/svg">
	<style>
		@media (prefers-color-scheme: dark) {
			circle {
				stroke: transparent;
				fill: transparent;
			}
		}
	</style>

	<circle cx="250" cy="250" r="225.435" fill="#0f56b3" stroke="black" stroke-width="15px"/>

	<path d="M237.599,73.76c6.6,-2.52 14.16,-2.15 20.49,1c12.76,6.2 21.68,18.15 34.61,24.08c3.2,1.34 6.63,2.78 10.17,2.51c5.4,-2.91 9.92,-7.37 15.76,-9.53c3.76,-1.45 8.25,-1.63 11.81,0.5c10.54,5.8 16.9,16.97 27.61,22.53c6.78,0.95 13.66,-0.09 20.49,0.17c4.08,12.68 -2.57,26.55 -13.09,33.91c-17.2,-4.74 -27.62,-20.95 -43.86,-27.55c-6.99,2.59 -13.57,6.23 -20.68,8.49c-1.97,0.79 -4.05,0.02 -5.9,-0.7c-10.23,-4.21 -16,-15.09 -26.57,-18.67c-6.78,-1.93 -13.93,0.2 -20.16,2.96c-13.21,6.21 -23.15,17.6 -36.42,23.69c-4.97,2.35 -10.6,4.12 -16.11,2.83c-10.45,-2.15 -19.61,-10.22 -30.8,-8.38c-14.32,1.24 -23.85,14.04 -29.15,26.25c3.95,12.84 10.1,24.92 17.63,36.01c-13.33,12.59 -26.77,25.07 -40.05,37.71c-6.28,-19.33 -10.4,-40.2 -6.03,-60.39c1.17,-5.29 2.85,-10.5 5.56,-15.21c6.88,-12.46 14.96,-24.8 26.69,-33.21c2.45,-1.88 5.53,-3.07 7.27,-5.74c7.46,-10.6 11.61,-23.71 21.78,-32.25c3.8,-2.9 8.19,-6.09 13.24,-5.57c13.86,0.55 25.96,9.67 39.99,8.99c4.27,0.07 7.42,-3.33 9.34,-6.78c1.9,-2.68 2.87,-6.67 6.38,-7.65Z" fill="#e9c844"/>

	<path d="M246.879,130.06c5.85,-4.29 13.62,-7.41 20.83,-5.01c10.619,6.31 17.86,18.96 31.16,20.2c9.16,2.08 16.56,-4.56 23.6,-9.23c11.02,6.07 18.77,16.19 27.71,24.75c2.77,2.88 6.42,4.98 8.42,8.56c18.03,28.32 32.73,59.311 38.91,92.5c3.11,16.8 3.97,34.08 1.68,51.04c-5.71,36.07 -25.8,70.96 -57.65,89.89c-22.06,14.16 -48.61,20.78 -74.73,19.63c-50.48,-0.91 -97.83,-39.62 -108.13,-89.15c-7.97,0.6 -15.96,-1.99 -22.21,-6.94c-7.18,-5.47 -12.48,-12.94 -17.57,-20.3c-4.3,-6.1 -4.24,-13.83 -5.42,-20.91c6.46,-0.61 12.92,-1.25 19.33,-2.34c2.98,-8.21 2.71,-18.03 9.05,-24.69c10.45,-10.45 23.64,-18.24 31.97,-30.73c-6.66,0.79 -13.04,3.371 -18.43,7.35c-10.75,7.82 -18.36,19.09 -28.92,27.12c8.5,-18.2 24.18,-31.409 39.34,-43.95c3.98,-3.04 7.37,-7 8.69,-11.93c-4.65,0.25 -9.86,0.04 -13.7,3.14c-13.64,11.66 -24.81,25.88 -38.46,37.53c11.53,-20.61 27.99,-38.39 47.53,-51.63c-6.68,-9.38 -13.49,-20.06 -12.71,-32.06c0.47,-3.6 1.05,-7.85 3.72,-10.45c18.66,-7.23 38.73,4.02 57.58,-2.1c11.22,-4 19.07,-13.39 28.41,-20.29Zm-38.58,63.24c15.47,-1.46 30.39,-6.41 45.92,-7.47c-3.06,-5.08 -6.1,-10.18 -9.51,-15.04c-12.75,6.43 -25.11,13.77 -36.41,22.51Zm126.76,-8.92c-0.69,4.55 -1.28,9.11 -1.86,13.68c11.23,1.16 22.44,2.59 33.73,2.95c-10.03,-6.6 -20.81,-12 -31.87,-16.63Zm-105.28,39.66c-0.78,10.47 -1.58,22.12 4.83,31.14c3.79,5.53 10.75,7.64 17.21,7.17c5.04,-10.89 6.85,-23.9 2.15,-35.23c-1.89,-4.19 -4.1,-8.54 -7.76,-11.44c-6.37,-3.5 -14.86,1.68 -16.43,8.36Zm115.02,-0.84c-2.38,4.221 -3.76,8.99 -3.53,13.85c0.42,9.27 4.45,17.84 8.54,25.99c4.58,-0.34 9.38,0.31 13.76,-1.36c3.18,-1.15 3.79,-4.81 4.75,-7.6c3.7,-10.28 -0.68,-22.83 -9.9,-28.64c-4,-2.74 -9,-2.67 -13.62,-2.24Zm-39.88,10.92c1.78,17.06 7.95,33.16 12.81,49.49c-3.64,5.72 -7.86,11.4 -8.85,18.31c2.91,2.75 6.72,5.29 10.95,4.23c5.47,-1.92 10.11,-6.58 11.56,-12.27c1.8,-7.14 0.41,-14.88 -3.22,-21.24c-7.36,-13.05 -14.02,-26.63 -23.25,-38.52Zm-165.81,47.02c10.85,-8.13 20.19,-18.06 30.8,-26.47c-2.08,-0.52 -4.17,-1.02 -6.25,-1.52c-10.96,6.26 -20.72,15.68 -24.55,27.99Zm79.04,41.42c0.23,8.32 3.42,16.17 5.9,24.01c3.01,-2.01 6.03,-4.03 9.04,-6.03c26.42,18.05 58.44,28.9 90.64,27.14c14.3,-0.49 27.96,-5.27 42.14,-6.719c3.66,-6.431 7.25,-12.911 10.4,-19.611c-6.8,-8.88 -13.03,-18.36 -21.59,-25.69c2.5,6.2 5.68,12.09 8.61,18.1c-10.26,2.68 -20.83,4.14 -31.43,4.26c-30.56,0.34 -60.55,-8.95 -87.44,-23.02c2.11,-4.18 3.51,-8.75 6.16,-12.64c0.02,-0.26 0.05,-0.8 0.06,-1.06c-11.34,6.23 -22.63,12.81 -32.49,21.26Zm60.1,61.96c0.389,2.46 0.75,4.93 1.079,7.4c8.851,3.49 17.551,8.4 27.251,8.78c5.11,-2.41 8.88,-6.79 12.99,-10.53c-13.98,1.01 -28.09,-1.11 -41.32,-5.65Z" fill="#f3cca6"/>

	<path d="M233.439,329.96c0.86,-2.77 2.13,-5.39 3.2,-8.08c33.23,14.02 68.81,24.42 105.18,23.65c7.49,0.11 14.9,-1.06 22.36,-1.5c-12.33,12.25 -30.53,15.791 -47.31,16.13c-9.4,-0.22 -18.9,-0.589 -28.13,-2.57c-15.32,-4.48 -31.12,-8.82 -44.44,-17.96c-3.93,-2.84 -7.86,-5.83 -10.86,-9.67Z" fill="white"/>

	<path d="M214.899,74.52c11.46,0.18 19.34,-11.25 30.9,-10.79c20.11,0.11 37.6,11.3 53.94,21.79c11.05,-1.88 22.74,-6.51 33.79,-2.25c11.18,6.19 19.88,16.1 31.26,22.01c-1.62,-11.92 -10.19,-20.85 -16.13,-30.77c15.59,7.99 30.52,19.02 39.06,34.68c2.63,4.86 4.76,10.18 4.96,15.77c0.11,7.49 -2.56,14.62 -3.59,21.97c-0.89,6.19 0.98,12.29 2.77,18.14c3.84,12.34 9.77,24.07 11.87,36.91c1.52,10.04 -2.42,20.19 0.12,30.15c5.65,22.15 9.76,44.93 9.29,67.87c0.41,20.81 -3.35,41.73 -11.11,61.05c-6.49,16.13 -17.93,29.95 -31.57,40.59c-19.51,15.65 -43.13,25.78 -67.64,30.4c-28.19,5.44 -57.72,3.79 -85.12,-4.83c-13.29,-4.8 -25.09,-13.12 -35.31,-22.77c-20.44,-19.34 -34.95,-43.72 -52.82,-65.26c-7.96,-9.37 -17.21,-17.77 -23.62,-28.37c-3.51,-6 -6.07,-12.75 -6.39,-19.75c0.16,-8.1 6.45,-14.36 7.73,-22.2c0.69,-3.15 -0.84,-6.2 -2.32,-8.88c-11.54,-19.21 -18.33,-41.48 -18.14,-63.96c0.6,-12.69 2.76,-25.7 8.84,-36.99c19.91,-29.26 45.18,-54.26 67.49,-81.62c3.58,-4.51 9.08,-7.31 14.8,-7.79c12.57,-1.27 24.6,3.53 36.94,4.9Zm22.7,-0.76c-3.51,0.98 -4.48,4.97 -6.38,7.65c-1.92,3.45 -5.07,6.85 -9.34,6.78c-14.03,0.68 -26.13,-8.44 -39.99,-8.99c-5.05,-0.52 -9.44,2.67 -13.24,5.57c-10.17,8.54 -14.32,21.65 -21.78,32.25c-1.74,2.67 -4.82,3.86 -7.27,5.74c-11.73,8.41 -19.81,20.75 -26.69,33.21c-2.71,4.71 -4.39,9.92 -5.56,15.21c-4.37,20.19 -0.25,41.06 6.03,60.39c13.28,-12.64 26.72,-25.12 40.05,-37.71c-7.53,-11.09 -13.68,-23.17 -17.63,-36.01c5.3,-12.21 14.83,-25.01 29.15,-26.25c11.19,-1.84 20.35,6.23 30.8,8.38c5.51,1.29 11.14,-0.48 16.11,-2.83c13.27,-6.09 23.21,-17.48 36.42,-23.69c6.23,-2.76 13.38,-4.89 20.16,-2.96c10.57,3.58 16.34,14.46 26.57,18.67c1.85,0.72 3.93,1.49 5.9,0.7c7.11,-2.26 13.69,-5.9 20.68,-8.49c16.24,6.6 26.66,22.81 43.86,27.55c10.52,-7.36 17.17,-21.23 13.09,-33.91c-6.83,-0.26 -13.71,0.78 -20.49,-0.17c-10.71,-5.56 -17.07,-16.73 -27.61,-22.53c-3.56,-2.13 -8.05,-1.95 -11.81,-0.5c-5.84,2.16 -10.36,6.62 -15.76,9.53c-3.54,0.27 -6.97,-1.17 -10.17,-2.51c-12.93,-5.93 -21.85,-17.88 -34.61,-24.08c-6.33,-3.15 -13.89,-3.52 -20.49,-1Zm9.28,56.3c-9.34,6.9 -17.19,16.29 -28.41,20.29c-18.85,6.12 -38.92,-5.13 -57.58,2.1c-2.67,2.6 -3.25,6.85 -3.72,10.45c-0.78,12 6.03,22.68 12.71,32.06c-19.54,13.24 -36,31.02 -47.53,51.63c13.65,-11.65 24.82,-25.87 38.46,-37.53c3.84,-3.1 9.05,-2.89 13.7,-3.14c-1.32,4.93 -4.71,8.89 -8.69,11.93c-15.16,12.541 -30.84,25.75 -39.34,43.95c10.56,-8.03 18.17,-19.3 28.92,-27.12c5.39,-3.979 11.77,-6.56 18.43,-7.35c-8.33,12.49 -21.52,20.28 -31.97,30.73c-6.34,6.66 -6.07,16.48 -9.05,24.69c-6.41,1.09 -12.87,1.73 -19.33,2.34c1.18,7.08 1.12,14.81 5.42,20.91c5.09,7.36 10.39,14.83 17.57,20.3c6.25,4.95 14.24,7.54 22.21,6.94c10.3,49.53 57.65,88.24 108.13,89.15c26.12,1.15 52.67,-5.47 74.73,-19.63c31.85,-18.93 51.94,-53.82 57.65,-89.89c2.29,-16.96 1.43,-34.24 -1.68,-51.04c-6.18,-33.189 -20.88,-64.18 -38.91,-92.5c-2,-3.58 -5.65,-5.68 -8.42,-8.56c-8.94,-8.56 -16.69,-18.68 -27.71,-24.75c-7.04,4.67 -14.44,11.31 -23.6,9.23c-13.3,-1.24 -20.541,-13.89 -31.16,-20.2c-7.21,-2.4 -14.98,0.72 -20.83,5.01Zm-38.58,63.24c11.3,-8.74 23.66,-16.08 36.41,-22.51c3.41,4.86 6.45,9.96 9.51,15.04c-15.53,1.06 -30.45,6.01 -45.92,7.47Zm126.76,-8.92c11.06,4.63 21.84,10.03 31.87,16.63c-11.29,-0.36 -22.5,-1.79 -33.73,-2.95c0.58,-4.57 1.17,-9.13 1.86,-13.68Zm-105.28,39.66c1.57,-6.68 10.06,-11.86 16.43,-8.36c3.66,2.9 5.87,7.25 7.76,11.44c4.7,11.33 2.89,24.34 -2.15,35.23c-6.46,0.47 -13.42,-1.64 -17.21,-7.17c-6.41,-9.02 -5.61,-20.67 -4.83,-31.14Zm115.02,-0.84c4.62,-0.43 9.62,-0.5 13.62,2.24c9.22,5.81 13.6,18.36 9.9,28.64c-0.96,2.79 -1.57,6.45 -4.75,7.6c-4.38,1.67 -9.18,1.02 -13.76,1.36c-4.09,-8.15 -8.12,-16.72 -8.54,-25.99c-0.23,-4.86 1.15,-9.629 3.53,-13.85Zm-39.88,10.92c9.23,11.89 15.89,25.47 23.25,38.52c3.63,6.36 5.02,14.1 3.22,21.24c-1.45,5.69 -6.09,10.35 -11.56,12.27c-4.23,1.06 -8.04,-1.48 -10.95,-4.23c0.99,-6.91 5.21,-12.59 8.85,-18.31c-4.86,-16.33 -11.03,-32.43 -12.81,-49.49Zm-165.81,47.02c3.83,-12.31 13.59,-21.73 24.55,-27.99c2.08,0.5 4.17,1 6.25,1.52c-10.61,8.41 -19.95,18.34 -30.8,26.47Zm79.04,41.42c9.86,-8.45 21.15,-15.03 32.49,-21.26c-0.01,0.26 -0.04,0.8 -0.06,1.06c-2.65,3.89 -4.05,8.46 -6.16,12.64c26.89,14.07 56.88,23.36 87.44,23.02c10.6,-0.12 21.17,-1.58 31.43,-4.26c-2.93,-6.01 -6.11,-11.9 -8.61,-18.1c8.56,7.33 14.79,16.81 21.59,25.69c-3.15,6.7 -6.74,13.18 -10.4,19.611c-14.18,1.449 -27.84,6.229 -42.14,6.719c-32.2,1.76 -64.22,-9.09 -90.64,-27.14c-3.01,2 -6.03,4.02 -9.04,6.03c-2.48,-7.84 -5.67,-15.69 -5.9,-24.01Zm15.29,7.4c3,3.84 6.93,6.83 10.86,9.67c13.32,9.14 29.12,13.48 44.44,17.96c9.23,1.981 18.73,2.35 28.13,2.57c16.78,-0.339 34.98,-3.88 47.31,-16.13c-7.46,0.44 -14.87,1.61 -22.36,1.5c-36.37,0.77 -71.95,-9.63 -105.18,-23.65c-1.07,2.69 -2.34,5.31 -3.2,8.08Zm44.81,54.56c13.23,4.54 27.34,6.66 41.32,5.65c-4.11,3.74 -7.88,8.12 -12.99,10.53c-9.7,-0.38 -18.4,-5.29 -27.251,-8.78c-0.329,-2.47 -0.69,-4.94 -1.079,-7.4Z"/>
</svg>
