<?xml version="1.0" encoding="UTF-8" standalone="no"?>
<!DOCTYPE svg PUBLIC "-//W3C//DTD SVG 1.1//EN" "http://www.w3.org/Graphics/SVG/1.1/DTD/svg11.dtd">
<svg viewBox="0 0 468 206" version="1.1" xmlns="http://www.w3.org/2000/svg">
    <path fill="#a9a9a9" d="M233.578,0c-28.756,0 -54.669,11.928 -73.314,30.99l-78.892,0c-9.545,0 -19.457,1.651 -27.272,4.516c-3.907,1.432 -7.337,3.205 -9.917,5.313c-2.58,2.108 -4.515,4.812 -4.515,8.057l0,1.948c0,3.245 1.937,5.941 4.515,8.058c2.579,2.116 6.009,3.868 9.917,5.312c7.816,2.888 17.722,4.604 27.272,4.604l55.605,0c-1.678,4.759 -3.108,9.639 -4.073,14.699l-91.2,0c-9.545,0 -19.456,1.651 -27.271,4.515c-3.908,1.433 -7.337,3.205 -9.917,5.313c-2.58,2.108 -4.516,4.812 -4.516,8.057l0,1.948c0,3.246 1.937,5.942 4.516,8.058c2.578,2.116 6.009,3.868 9.917,5.313c7.815,2.888 17.721,4.604 27.271,4.604l91.111,0c0.931,5.073 2.338,9.914 3.985,14.698l-55.428,0c-9.545,0 -19.457,1.651 -27.272,4.516c-3.907,1.432 -7.337,3.204 -9.917,5.312c-2.58,2.108 -4.515,4.812 -4.515,8.058l0,1.948c0,3.245 1.937,5.941 4.515,8.057c2.579,2.116 6.009,3.869 9.917,5.313c7.816,2.888 17.722,4.604 27.272,4.604l78.272,0c18.683,19.415 44.871,31.61 73.934,31.61c29.063,0 55.251,-12.195 73.934,-31.61l78.273,0c9.549,0 19.544,-1.716 27.36,-4.604c3.907,-1.444 7.25,-3.197 9.828,-5.313c2.578,-2.116 4.516,-4.812 4.516,-8.057l0,-1.948c0,-3.246 -1.936,-5.95 -4.516,-8.058c-2.58,-2.108 -5.921,-3.88 -9.828,-5.312c-7.816,-2.865 -17.815,-4.516 -27.36,-4.516l-55.34,0c1.645,-4.779 3.055,-9.631 3.984,-14.698l91.023,0c9.55,0 19.545,-1.716 27.36,-4.604c3.908,-1.445 7.25,-3.197 9.829,-5.313c2.578,-2.116 4.515,-4.812 4.515,-8.058l0,-1.948c0,-3.245 -1.935,-5.949 -4.515,-8.057c-2.581,-2.108 -5.921,-3.88 -9.829,-5.313c-7.815,-2.864 -17.815,-4.515 -27.36,-4.515l-91.2,0c-0.965,-5.054 -2.396,-9.945 -4.073,-14.699l55.606,0c9.549,0 19.544,-1.716 27.36,-4.604c3.907,-1.444 7.25,-3.196 9.828,-5.312c2.578,-2.117 4.516,-4.813 4.516,-8.058l0,-1.948c0,-3.245 -1.936,-5.949 -4.516,-8.057c-2.58,-2.108 -5.921,-3.881 -9.828,-5.313c-7.816,-2.865 -17.815,-4.516 -27.36,-4.516l-78.893,0c-18.645,-19.062 -44.558,-30.99 -73.314,-30.99Zm0,5.667c27.676,0 52.625,11.538 70.304,30.105l0.797,0.885l81.106,0c8.857,0 18.392,1.588 25.412,4.162c3.509,1.286 6.401,2.841 8.234,4.338c1.833,1.498 2.391,2.788 2.391,3.719l0,1.948c0,0.931 -0.645,2.213 -2.479,3.719c-1.835,1.506 -4.725,3.042 -8.235,4.339c-7.019,2.593 -16.471,4.25 -25.323,4.25l-63.486,0l1.505,3.896c2.501,6.315 4.447,12.875 5.578,19.745l0.355,2.39l95.715,0c8.858,0 18.393,1.589 25.412,4.162c3.51,1.287 6.402,2.841 8.235,4.339c1.833,1.497 2.39,2.787 2.39,3.718l0,1.948c0,0.932 -0.644,2.213 -2.479,3.719c-1.834,1.506 -4.725,3.042 -8.234,4.339c-7.02,2.594 -16.471,4.25 -25.324,4.25l-95.627,0l-0.354,2.391c-1.088,6.867 -2.955,13.441 -5.401,19.745l-1.506,3.896l63.221,0c8.857,0 18.392,1.588 25.412,4.161c3.509,1.287 6.401,2.842 8.234,4.339c1.833,1.497 2.391,2.788 2.391,3.719l0,1.948c0,0.931 -0.645,2.213 -2.479,3.719c-1.835,1.505 -4.725,3.041 -8.235,4.338c-7.019,2.594 -16.471,4.25 -25.323,4.25l-80.575,0l-0.797,0.886c-17.709,18.88 -42.899,30.724 -70.835,30.724c-27.936,0 -53.126,-11.844 -70.835,-30.724l-0.797,-0.886l-80.574,0c-8.853,0 -18.305,-1.656 -25.324,-4.25c-3.51,-1.297 -6.4,-2.833 -8.234,-4.338c-1.835,-1.506 -2.48,-2.788 -2.48,-3.719l0,-1.948c0,-0.931 0.647,-2.222 2.48,-3.719c1.832,-1.497 4.724,-3.052 8.234,-4.339c7.02,-2.573 16.466,-4.161 25.324,-4.161l63.22,0l-1.505,-3.896c-2.447,-6.304 -4.225,-12.878 -5.313,-19.745l-0.443,-2.391l-95.627,0c-8.853,0 -18.304,-1.656 -25.323,-4.25c-3.51,-1.297 -6.4,-2.833 -8.235,-4.339c-1.835,-1.506 -2.479,-2.787 -2.479,-3.719l0,-1.948c0,-0.931 0.646,-2.221 2.479,-3.718c1.833,-1.498 4.725,-3.052 8.235,-4.339c7.019,-2.573 16.466,-4.162 25.323,-4.162l95.716,0l0.442,-2.39c1.132,-6.87 2.99,-13.43 5.49,-19.745l1.505,-3.896l-63.485,0c-8.853,0 -18.305,-1.657 -25.324,-4.25c-3.51,-1.297 -6.4,-2.833 -8.234,-4.339c-1.835,-1.506 -2.48,-2.788 -2.48,-3.719l0,-1.948c0,-0.931 0.647,-2.221 2.48,-3.719c1.832,-1.497 4.724,-3.052 8.234,-4.338c7.02,-2.574 16.466,-4.162 25.324,-4.162l81.106,0l0.796,-0.885c17.68,-18.567 42.628,-30.105 70.304,-30.105Zm0,19.125c-42.999,0 -77.918,34.919 -77.918,77.919c0,42.999 34.919,77.918 77.918,77.918c43,0 77.919,-34.919 77.919,-77.918c0,-43 -34.919,-77.919 -77.919,-77.919Zm0,5.667c39.937,0 72.252,32.315 72.252,72.252c0,39.937 -32.315,72.251 -72.252,72.251c-39.937,0 -72.251,-32.314 -72.251,-72.251c0,-39.937 32.314,-72.252 72.251,-72.252Zm0,31.167c-22.657,0 -41.084,18.428 -41.084,41.085c0,22.656 18.427,41.084 41.084,41.084c22.657,0 41.084,-18.428 41.084,-41.084c0,-22.657 -18.427,-41.085 -41.084,-41.085Zm0,5.667c19.594,0 35.418,15.824 35.418,35.418c0,19.594 -15.824,35.417 -35.418,35.417c-19.594,0 -35.417,-15.823 -35.417,-35.417c0,-19.594 15.823,-35.418 35.417,-35.418Z"/>
</svg>
