<?xml version="1.0" encoding="UTF-8" standalone="no"?>
<!DOCTYPE svg PUBLIC "-//W3C//DTD SVG 1.1//EN" "http://www.w3.org/Graphics/SVG/1.1/DTD/svg11.dtd">
<svg width="100%" height="100%" viewBox="0 0 12 12" version="1.1" xmlns="http://www.w3.org/2000/svg" xmlns:xlink="http://www.w3.org/1999/xlink" xml:space="preserve" xmlns:serif="http://www.serif.com/" style="fill-rule:evenodd;clip-rule:evenodd;stroke-linejoin:round;stroke-miterlimit:2;">
    <rect id="blog" x="0" y="0" width="12" height="12" style="fill:none;"/>
    <clipPath id="_clip1">
        <rect id="blog1" serif:id="blog" x="0" y="0" width="12" height="12"/>
    </clipPath>
    <g clip-path="url(#_clip1)">
        <g transform="matrix(1.03767,0,0,1.03767,-0.274198,-0.401057)">
            <circle cx="6.046" cy="6.169" r="5.782" style="fill:rgb(60,60,60);"/>
        </g>
        <g transform="matrix(0.8,0,0,0.8,1.20029,1.2)">
            <path d="M10.355,8.355L9.145,7.145C9.051,7.05 8.923,6.997 8.79,6.997C8.657,6.997 8.529,7.05 8.435,7.145L6.645,8.935C6.551,9.029 6.499,9.157 6.5,9.29L6.5,10.5C6.5,10.774 6.726,11 7,11L8.21,11C8.343,11.001 8.471,10.949 8.565,10.855L10.355,9.065C10.45,8.971 10.503,8.843 10.503,8.71C10.503,8.577 10.45,8.449 10.355,8.355M8,10L7.5,10L7.5,9.5L8.79,8.21L9.29,8.71L8,10ZM5,10L3,10C2.726,10 2.5,9.774 2.5,9.5L2.5,2.5C2.5,2.226 2.726,2 3,2L5.5,2L5.5,3.5C5.5,4.323 6.177,5 7,5L8.5,5L8.5,5.5C8.5,5.774 8.726,6 9,6C9.274,6 9.5,5.774 9.5,5.5L9.5,4.47C9.495,4.424 9.485,4.379 9.47,4.335L9.47,4.29C9.446,4.239 9.414,4.191 9.375,4.15L6.375,1.15C6.334,1.111 6.286,1.079 6.235,1.055C6.22,1.053 6.205,1.053 6.19,1.055L6.03,1L3,1C2.177,1 1.5,1.677 1.5,2.5L1.5,9.5C1.5,10.323 2.177,11 3,11L5,11C5.274,11 5.5,10.774 5.5,10.5C5.5,10.226 5.274,10 5,10M6.5,2.705L7.795,4L7,4C6.726,4 6.5,3.774 6.5,3.5L6.5,2.705ZM4,7L7,7C7.274,7 7.5,6.774 7.5,6.5C7.5,6.226 7.274,6 7,6L4,6C3.726,6 3.5,6.226 3.5,6.5C3.5,6.774 3.726,7 4,7M4,5L4.5,5C4.774,5 5,4.774 5,4.5C5,4.226 4.774,4 4.5,4L4,4C3.726,4 3.5,4.226 3.5,4.5C3.5,4.774 3.726,5 4,5M5,8L4,8C3.726,8 3.5,8.226 3.5,8.5C3.5,8.774 3.726,9 4,9L5,9C5.274,9 5.5,8.774 5.5,8.5C5.5,8.226 5.274,8 5,8" style="fill:rgb(0,128,255);fill-rule:nonzero;"/>
        </g>
    </g>
</svg>
