<?xml version="1.0" encoding="UTF-8" standalone="no"?>
<!DOCTYPE svg PUBLIC "-//W3C//DTD SVG 1.1//EN" "http://www.w3.org/Graphics/SVG/1.1/DTD/svg11.dtd">
<svg width="100%" height="100%" viewBox="0 0 12 12" version="1.1" xmlns="http://www.w3.org/2000/svg" xmlns:xlink="http://www.w3.org/1999/xlink" xml:space="preserve" xmlns:serif="http://www.serif.com/" style="fill-rule:evenodd;clip-rule:evenodd;stroke-linejoin:round;stroke-miterlimit:2;">
    <g transform="matrix(1,0,0,1,-14,0)">
        <g transform="matrix(1,0,0,1,-48,0)">
            <rect id="projects" x="62" y="0" width="12" height="12" style="fill:none;"/>
            <clipPath id="_clip1">
                <rect id="projects1" serif:id="projects" x="62" y="0" width="12" height="12"/>
            </clipPath>
            <g clip-path="url(#_clip1)">
                <g transform="matrix(1.03767,0,0,1.03767,61.7258,-0.401057)">
                    <circle cx="6.046" cy="6.169" r="5.782" style="fill:rgb(60,60,60);"/>
                </g>
                <g transform="matrix(0.800003,0,0,0.800003,63.208,1.2)">
                    <path d="M10.055,8.745L7.5,4.365L7.5,2L8,2C8.274,2 8.5,1.774 8.5,1.5C8.5,1.226 8.274,1 8,1L4,1C3.726,1 3.5,1.226 3.5,1.5C3.5,1.774 3.726,2 4,2L4.5,2L4.5,4.365L1.945,8.745C1.811,8.974 1.741,9.235 1.741,9.5C1.741,10.322 2.418,10.999 3.24,11L8.74,11C9.562,10.999 10.239,10.322 10.239,9.5C10.239,9.235 10.169,8.974 10.035,8.745L10.055,8.745ZM5.43,4.745C5.474,4.671 5.498,4.586 5.5,4.5L5.5,2L6.5,2L6.5,4.5C6.501,4.588 6.525,4.674 6.57,4.75L7,5.5L5,5.5L5.43,4.745ZM9.19,9.745C9.101,9.899 8.937,9.994 8.76,9.995L3.26,9.995C3.083,9.994 2.919,9.899 2.83,9.745C2.741,9.59 2.741,9.4 2.83,9.245L4.415,6.5L7.59,6.5L9.19,9.25C9.279,9.405 9.279,9.595 9.19,9.75L9.19,9.745ZM5,7.5C4.726,7.5 4.5,7.726 4.5,8C4.5,8.274 4.726,8.5 5,8.5C5.274,8.5 5.5,8.274 5.5,8C5.5,7.726 5.274,7.5 5,7.5M7,8C6.726,8 6.5,8.226 6.5,8.5C6.5,8.774 6.726,9 7,9C7.274,9 7.5,8.774 7.5,8.5C7.5,8.226 7.274,8 7,8" style="fill:rgb(0,128,255);fill-rule:nonzero;"/>
                </g>
            </g>
        </g>
    </g>
</svg>
