<?xml version="1.0" encoding="UTF-8" standalone="no"?>
<!DOCTYPE svg PUBLIC "-//W3C//DTD SVG 1.1//EN" "http://www.w3.org/Graphics/SVG/1.1/DTD/svg11.dtd">
<svg width="100%" height="100%" viewBox="0 0 12 12" version="1.1" xmlns="http://www.w3.org/2000/svg" xmlns:xlink="http://www.w3.org/1999/xlink" xml:space="preserve" xmlns:serif="http://www.serif.com/" style="fill-rule:evenodd;clip-rule:evenodd;stroke-linejoin:round;stroke-miterlimit:2;">
    <g transform="matrix(1,0,0,1,-28,0)">
        <g transform="matrix(1,0,0,1,-48,0)">
            <rect id="talks" x="76" y="0" width="12" height="12" style="fill:none;"/>
            <clipPath id="_clip1">
                <rect id="talks1" serif:id="talks" x="76" y="0" width="12" height="12"/>
            </clipPath>
            <g clip-path="url(#_clip1)">
                <g transform="matrix(1.03767,0,0,1.03767,75.7258,-0.401057)">
                    <circle cx="6.046" cy="6.169" r="5.782" style="fill:rgb(60,60,60);"/>
                </g>
                <g transform="matrix(0.800003,0,0,0.800003,77.2,1.19993)">
                    <path d="M5.145,5.855C5.239,5.95 5.367,6.003 5.5,6.003C5.633,6.003 5.761,5.95 5.855,5.855L7.855,3.855C7.949,3.761 8.002,3.633 8.002,3.5C8.002,3.225 7.775,2.998 7.5,2.998C7.367,2.998 7.239,3.051 7.145,3.145L5.5,4.795L4.855,4.145C4.761,4.051 4.633,3.998 4.5,3.998C4.225,3.998 3.998,4.225 3.998,4.5C3.998,4.633 4.051,4.761 4.145,4.855L5.145,5.855ZM10.5,7L10,7L10,2L10.5,2C10.774,2 11,1.774 11,1.5C11,1.226 10.774,1 10.5,1L1.5,1C1.226,1 1,1.226 1,1.5C1,1.774 1.226,2 1.5,2L2,2L2,7L1.5,7C1.226,7 1,7.226 1,7.5C1,7.774 1.226,8 1.5,8L5.5,8L5.5,8.575L3.225,10.075C3.078,10.166 2.988,10.327 2.988,10.5C2.988,10.774 3.214,11 3.488,11C3.492,11 3.496,11 3.5,11C3.598,11.001 3.694,10.971 3.775,10.915L5.5,9.775L5.5,10.5C5.5,10.774 5.726,11 6,11C6.274,11 6.5,10.774 6.5,10.5L6.5,9.775L8.225,10.915C8.306,10.971 8.402,11.001 8.5,11C8.773,10.998 8.996,10.773 8.996,10.5C8.996,10.334 8.913,10.178 8.775,10.085L6.5,8.585L6.5,8L10.5,8C10.774,8 11,7.774 11,7.5C11,7.226 10.774,7 10.5,7M9,7L3,7L3,2L9,2L9,7Z" style="fill:rgb(0,128,255);fill-opacity:0.96;fill-rule:nonzero;"/>
                </g>
            </g>
        </g>
    </g>
</svg>
